<svg width="156" height="120" viewBox="0 0 156 120" fill="none" xmlns="http://www.w3.org/2000/svg">
<path d="M78.1414 119.988C57.7616 119.988 37.3942 119.988 17.0145 119.988C16.0251 119.988 15.0358 120 14.0465 119.901C13.6384 119.852 13.2427 119.53 12.8594 119.32C12.6615 119.209 12.4636 118.899 12.3029 118.924C10.5221 119.159 9.22364 118.108 7.86334 117.279C6.32991 116.327 4.90777 115.227 4.07923 113.532C3.7577 112.889 3.31251 112.308 2.99099 111.653C2.22427 110.107 1.46992 108.549 0.789772 106.966C0.604277 106.545 0.678475 105.989 0.678475 105.507C0.678475 75.1843 0.678475 44.8619 0.715574 14.552C0.715574 13.8224 1.2226 13.1051 1.48229 12.3755C1.58122 12.1034 1.70488 11.819 1.69252 11.5346C1.65542 9.71672 2.76839 8.44298 3.77007 7.11978C4.41312 6.2665 5.0067 5.36375 5.66212 4.51047C5.87235 4.22605 6.20624 4.01582 6.49067 3.80559C7.44288 3.08834 8.40746 2.38346 9.35967 1.66621C9.47096 1.57964 9.55753 1.41888 9.66883 1.38178C11.6351 0.924226 13.589 0.0833126 15.5552 0.0833126C57.0939 -0.00325204 98.6449 0.0214807 140.183 0.0462134C141.247 0.0462134 142.496 -0.324778 143.164 1.03552C143.213 1.13445 143.547 1.17155 143.72 1.13445C145.55 0.701631 146.701 2.30926 148.296 2.66788C148.939 2.81628 149.57 3.4346 149.99 4.00345C151.004 5.38849 151.684 7.07031 152.871 8.23275C153.898 9.23443 153.552 10.5576 154.145 11.4356C156 14.1686 155.048 17.1242 155.06 19.9437C155.147 48.2751 155.122 76.6188 155.097 104.95C155.097 105.989 155.629 107.275 154.207 107.93C154.12 107.968 154.108 108.202 154.108 108.351C154.207 110.911 152.636 112.79 151.239 114.584C150.25 115.857 148.617 116.673 147.208 117.601C146.033 118.368 144.784 119.023 143.522 119.666C143.102 119.876 142.57 119.926 142.088 119.926C139.367 119.975 136.647 120 133.926 120C115.327 120 96.7404 120 78.1414 120V119.988ZM47.1513 56.2885C46.8792 56.8573 46.6566 57.5127 46.2733 58.0321C45.3582 59.3059 44.406 60.5425 43.4043 61.7544C42.3779 63.0034 41.2649 64.1782 40.2261 65.4272C39.2244 66.6391 38.3217 67.95 37.2953 69.1371C36.3184 70.2625 35.0446 71.1776 34.2408 72.4018C33.4617 73.5643 32.8805 74.7762 31.6562 75.6171C31.0503 76.0376 30.4443 76.8661 30.3701 77.5586C30.1475 79.6733 29.6034 81.9363 31.446 83.7047C32.0272 84.2612 32.6455 85.0526 33.3504 85.1887C34.8344 85.4855 36.3184 86.92 37.926 85.4236C38.0991 85.2629 38.4948 85.3494 38.7916 85.3123C39.1379 85.2629 39.6202 85.3123 39.7809 85.1145C41.2031 83.4203 42.5757 81.6766 43.9484 79.9453C44.4802 79.2899 44.9501 78.5727 45.5313 77.9667C46.5082 76.9527 47.6583 76.087 48.5363 74.9988C49.9832 73.1933 50.9849 70.9055 52.7162 69.4834C54.3238 68.1478 55.0287 66.3176 56.389 64.8955C57.3164 63.9309 58.0955 62.8303 59.023 61.8657C59.6042 61.2597 61.1624 58.737 61.1748 58.0692C61.1995 57.3272 61.0635 56.5605 61.2119 55.8556C61.5705 54.2109 60.2967 53.2711 59.6537 52.1086C59.1096 51.1317 58.1203 50.4144 57.3906 49.5364C56.76 48.7697 56.3024 47.867 55.6346 47.1374C54.6948 46.1233 53.4705 45.3566 52.6667 44.2684C51.4301 42.5865 50.4407 40.8058 48.8826 39.3094C47.3121 37.8007 46.1991 35.8098 44.8635 34.0537C44.3689 33.4107 43.8371 32.7924 43.2806 32.1988C42.6747 31.5681 41.8832 31.0734 41.4257 30.3562C40.2756 28.5136 38.433 27.7716 36.5409 27.4748C35.4403 27.3017 34.1913 28.0437 33.0165 28.3528C31.3471 28.7857 30.7659 30.4551 30.3825 31.5928C29.3314 34.7833 30.8277 37.3803 33.2144 39.5568C34.315 40.5584 35.3414 41.6714 36.2689 42.8462C37.2706 44.0952 38.0373 45.5421 39.0637 46.7664C40.5848 48.5966 42.2789 50.266 43.8247 52.0715C44.9995 53.4442 46.0631 54.9034 47.1389 56.2885H47.1513ZM84.5596 98.8288C91.3858 98.8164 98.1997 98.8288 105.026 98.7917C105.57 98.7917 106.213 98.668 106.646 98.3589C107.796 97.5674 108.105 96.3308 108.241 94.9952C108.625 90.9761 107.314 89.1459 103.084 89.1335C90.3841 89.1088 77.6715 89.1583 64.9712 89.0717C63.2152 89.0717 62.1022 89.8384 61.0635 91.0132C60.6677 91.4584 60.0865 91.9407 60.0494 92.4477C59.9258 94.0925 59.4929 95.8608 61.15 97.1222C62.1764 97.9137 62.9679 98.8906 64.5508 98.8659C71.2286 98.7669 77.8941 98.8288 84.5719 98.8288H84.5596Z" fill="#EBEDEE"/>
</svg>
