<svg width="153" height="120" viewBox="0 0 153 120" fill="none" xmlns="http://www.w3.org/2000/svg">
<path d="M12.1199 60.8175V59.1825C23.0538 58.1593 28.4066 53.0135 28.4066 43.133V25.1074C28.4066 14.1336 32.6496 9.67985 43.1375 9.67985H46.1077V0H42.0169C24.4791 0 16.2106 7.61348 16.2106 23.5927V38.8799C16.2106 49.8537 12.1199 53.4849 0 53.4849V66.5151C12.1199 66.5151 16.2106 70.1463 16.2106 81.1201V96.4073C16.2106 112.387 24.4682 120 42.0169 120H46.1077V110.33H43.1375C32.6496 110.33 28.4066 105.876 28.4066 94.9026V76.867C28.4066 66.9966 23.0538 61.8507 12.1199 60.8175V60.8175ZM140.194 59.1825V60.8175C129.26 61.8507 123.908 66.9966 123.908 76.867V94.9026C123.908 105.876 119.665 110.33 109.177 110.33H106.206V120H110.297C127.846 120 136.104 112.387 136.104 96.4073V81.1201C136.104 70.1463 140.194 66.5151 152.314 66.5151V53.4849C140.194 53.4849 136.104 49.8537 136.104 38.8799V23.5927C136.104 7.61348 127.835 0 110.297 0H106.206V9.66982H109.177C119.665 9.66982 123.908 14.1235 123.908 25.0974V43.133C123.908 53.0034 129.26 58.1493 140.194 59.1825Z" fill="#EBEDEE"/>
</svg>
