<svg width="120" height="120" viewBox="0 0 120 120" fill="none" xmlns="http://www.w3.org/2000/svg">
<g clip-path="url(#clip0_86_188)">
<path d="M48.75 7.5C45.7663 7.5 42.9048 8.68526 40.795 10.795C38.6853 12.9048 37.5 15.7663 37.5 18.75V22.5H11.25C8.26631 22.5 5.40483 23.6853 3.29505 25.795C1.18526 27.9048 0 30.7663 0 33.75L0 44.13L57.105 59.355C59.0019 59.8602 60.9981 59.8602 62.895 59.355L120 44.13V33.75C120 30.7663 118.815 27.9048 116.705 25.795C114.595 23.6853 111.734 22.5 108.75 22.5H82.5V18.75C82.5 15.7663 81.3147 12.9048 79.205 10.795C77.0952 8.68526 74.2337 7.5 71.25 7.5H48.75ZM48.75 15H71.25C72.2446 15 73.1984 15.3951 73.9017 16.0984C74.6049 16.8016 75 17.7554 75 18.75V22.5H45V18.75C45 17.7554 45.3951 16.8016 46.0984 16.0984C46.8016 15.3951 47.7554 15 48.75 15V15Z" fill="#EBEDEE"/>
<path d="M0 93.75C0 96.7337 1.18526 99.5952 3.29505 101.705C5.40483 103.815 8.26631 105 11.25 105H108.75C111.734 105 114.595 103.815 116.705 101.705C118.815 99.5952 120 96.7337 120 93.75V51.375L60.9675 67.1025C60.3336 67.2718 59.6664 67.2718 59.0325 67.1025L0 51.375V93.75Z" fill="#EBEDEE"/>
</g>
<defs>
<clipPath id="clip0_86_188">
<rect width="120" height="120" fill="white"/>
</clipPath>
</defs>
</svg>
