<svg width="151" height="120" viewBox="0 0 151 120" fill="none" xmlns="http://www.w3.org/2000/svg">
<path d="M126.686 3.82584C129.278 1.3448 132.728 -0.0268272 136.307 0.000397663C139.885 0.0276225 143.314 1.45157 145.868 3.97176C148.423 6.49196 149.903 9.91129 149.998 13.5082C150.092 17.1052 148.794 20.5984 146.375 23.2508L72.9562 115.565C71.6938 116.933 70.1701 118.03 68.4762 118.791C66.7824 119.553 64.9532 119.963 63.098 119.998C61.2429 120.032 59.3998 119.69 57.6791 118.992C55.9584 118.294 54.3954 117.255 53.0834 115.935L4.39509 66.9846C3.0392 65.7144 1.95168 64.1826 1.1974 62.4806C0.443116 60.7786 0.0375274 58.9413 0.00483328 57.0783C-0.0278609 55.2153 0.31301 53.3648 1.0071 51.6371C1.7012 49.9094 2.7343 48.34 4.04478 47.0225C5.35525 45.7049 6.91626 44.6663 8.63467 43.9684C10.3531 43.2706 12.1937 42.9279 14.0467 42.9608C15.8997 42.9936 17.7271 43.4014 19.42 44.1598C21.1128 44.9181 22.6364 46.0115 23.8999 47.3747L62.431 86.0951L126.337 4.23284C126.452 4.09041 126.575 3.95453 126.705 3.82584H126.686Z" fill="#EBEDEE"/>
</svg>
