<svg width="108" height="120" viewBox="0 0 108 120" fill="none" xmlns="http://www.w3.org/2000/svg">
<path d="M105.731 1.66778C104.78 0.60601 103.422 0 102 0H5.00835C3.58598 0 2.22872 0.60601 1.27714 1.66778C0.32555 2.72955 -0.125201 4.14691 0.0300576 5.55927L11.0584 104.84C11.2788 106.858 12.7062 108.546 14.6594 109.102L52.1219 119.805C52.5726 119.935 53.0384 120 53.4992 120C53.9599 120 54.4257 119.935 54.8765 119.805L92.3389 109.102C94.2922 108.546 95.7145 106.858 95.9399 104.84L106.973 5.55927C107.134 4.14691 106.683 2.72955 105.731 1.66778ZM81.1302 50.4541L78.8965 86.9399L53.6644 95.1887L28.4324 86.9399L27.4758 69.4908H40.2471L40.5676 77.424L53.6644 81.8665L66.7613 77.424L67.7179 63.1503H39.611L38.975 50.4591H68.3589L69.3155 37.768H25.2371L24.2805 25.0718H82.7279L81.1302 50.4541Z" fill="#EBEDEE"/>
</svg>
