<svg width="120" height="120" viewBox="0 0 120 120" fill="none" xmlns="http://www.w3.org/2000/svg">
<path fill-rule="evenodd" clip-rule="evenodd" d="M59.9966 0C50.099 0.0310371 40.5388 3.60081 33.0432 10.0644C27.2985 15.0142 23.1362 21.4638 22.0638 27.9359C9.49447 30.7108 0 41.6602 0 54.8819C0 70.2411 12.8093 82.4954 28.3559 82.4954H56.2469V41.2477C56.2469 40.2532 56.6419 39.2994 57.3451 38.5962C58.0484 37.893 59.0021 37.4979 59.9966 37.4979C60.9911 37.4979 61.9449 37.893 62.6481 38.5962C63.3514 39.2994 63.7464 40.2532 63.7464 41.2477V82.4954H95.1547C108.759 82.4954 119.993 71.771 119.993 58.2942C119.993 46.0249 110.679 36.028 98.7395 34.3406C96.9171 14.9917 80.1705 0 59.9966 0ZM57.3418 118.898C57.6901 119.248 58.1039 119.525 58.5595 119.714C59.015 119.903 59.5034 120 59.9966 120C60.4899 120 60.9782 119.903 61.4338 119.714C61.8894 119.525 62.3032 119.248 62.6515 118.898L85.1502 96.3996C85.8543 95.6955 86.2499 94.7405 86.2499 93.7448C86.2499 92.749 85.8543 91.794 85.1502 91.0899C84.4461 90.3858 83.4911 89.9902 82.4954 89.9902C81.4996 89.9902 80.5446 90.3858 79.8405 91.0899L63.7464 107.192V82.4954H56.2469V107.192L40.1528 91.0899C39.4486 90.3858 38.4937 89.9902 37.4979 89.9902C36.5021 89.9902 35.5472 90.3858 34.843 91.0899C34.1389 91.794 33.7434 92.749 33.7434 93.7448C33.7434 94.7405 34.1389 95.6955 34.843 96.3996L57.3418 118.898Z" fill="#EBEDEE"/>
</svg>
