<svg width="78" height="120" viewBox="0 0 78 120" fill="none" xmlns="http://www.w3.org/2000/svg">
<path d="M17.1429 120C7.67571 120 0 112.324 0 102.857C0 93.39 7.67571 85.7143 17.1429 85.7143H29.3871C32.0914 85.7143 34.2857 87.9086 34.2857 90.6129V102.857C34.2857 112.324 26.61 120 17.1429 120ZM60 34.2857H47.7557C45.0514 34.2857 42.8571 32.0914 42.8571 29.3871V4.89857C42.8571 2.19429 45.0514 0 47.7557 0H60C69.4671 0 77.1429 7.67571 77.1429 17.1429C77.1429 26.61 69.4671 34.2857 60 34.2857ZM17.1429 0H29.3871C32.0914 0 34.2857 2.19429 34.2857 4.89857V29.3871C34.2857 32.0914 32.0914 34.2857 29.3871 34.2857H17.1429C7.67571 34.2857 0 26.61 0 17.1429C0 7.67571 7.67571 0 17.1429 0ZM17.1429 42.8571H29.3871C32.0914 42.8571 34.2857 45.0514 34.2857 47.7557V72.2443C34.2857 74.9486 32.0914 77.1429 29.3871 77.1429H17.1429C7.67571 77.1429 0 69.4671 0 60C0 50.5329 7.67571 42.8571 17.1429 42.8571ZM60 42.8571C55.4534 42.8571 51.0931 44.6633 47.8782 47.8782C44.6633 51.0931 42.8571 55.4534 42.8571 60C42.8571 64.5466 44.6633 68.9069 47.8782 72.1218C51.0931 75.3367 55.4534 77.1429 60 77.1429C64.5466 77.1429 68.9069 75.3367 72.1218 72.1218C75.3367 68.9069 77.1429 64.5466 77.1429 60C77.1429 55.4534 75.3367 51.0931 72.1218 47.8782C68.9069 44.6633 64.5466 42.8571 60 42.8571V42.8571Z" fill="#EBEDEE"/>
</svg>
