<svg width="135" height="119" viewBox="0 0 135 119" fill="none" xmlns="http://www.w3.org/2000/svg">
<path d="M23.6382 84.689L23.6381 84.689C22.1658 83.2194 21.1655 80.9466 20.4752 78.5307C19.7726 76.0716 19.3374 73.268 19.1144 70.5517C18.8911 67.8322 18.8769 65.1548 19.0348 62.9353C19.1136 61.8262 19.2369 60.8106 19.4051 59.9498C19.567 59.1207 19.792 58.3181 20.1285 57.7119L23.6382 84.689ZM23.6382 84.689C24.0839 85.1339 24.6949 85.4619 25.2654 85.7128C25.8676 85.9776 26.5735 86.2192 27.3228 86.4396C28.8234 86.8808 30.6147 87.2705 32.3438 87.5963C33.0385 87.7272 33.6714 88.1367 34.1085 88.7442C36.2132 91.6696 38.6859 94.2922 41.451 96.5536C42.387 97.3192 42.9056 98.7093 42.8062 100.211C42.7068 101.713 42.016 102.968 40.9954 103.55C35.4771 106.695 30.5661 110.798 26.497 115.65C25.4662 116.879 23.792 116.991 22.8237 116.1C9.71264 104.034 1.5 86.7335 1.5 67.5119C1.5 31.0542 31.0494 1.5 67.5 1.5C103.951 1.5 133.5 31.0542 133.5 67.5119C133.5 86.7363 125.285 104.039 112.171 116.105C111.203 116.996 109.529 116.884 108.498 115.654C104.428 110.801 99.5156 106.696 93.9956 103.55C92.9749 102.968 92.2842 101.713 92.1848 100.211C92.0854 98.7094 92.604 97.3195 93.5401 96.554C96.3053 94.2927 98.7785 91.6702 100.884 88.745C101.321 88.1377 101.954 87.7284 102.648 87.5975C104.378 87.2717 106.171 86.8818 107.674 86.4403C108.424 86.2198 109.13 85.978 109.733 85.7131C110.304 85.4621 110.916 85.1339 111.362 84.6888L111.362 84.6886C112.834 83.2191 113.834 80.9464 114.525 78.5305C115.227 76.0715 115.662 73.2678 115.885 70.5516C116.108 67.8321 116.123 65.1547 115.965 62.9351C115.886 61.826 115.763 60.8105 115.594 59.9496C115.433 59.1204 115.208 58.3179 114.871 57.7117L114.871 57.7116C114.571 57.17 114.084 56.7252 113.641 56.3815C113.17 56.0159 112.608 55.6586 112.014 55.3197C110.825 54.641 109.395 53.9703 108.059 53.3909C107.327 53.0736 106.754 52.4403 106.49 51.6476C101.387 36.331 87.6136 25.2419 71.2079 23.7754L71.2067 23.7753L71.1217 23.7678L71.1214 23.7678C70.992 23.7565 70.8637 23.746 70.7365 23.736L70.7331 23.7357L70.6577 23.73L70.5824 23.7242L70.5819 23.7242L70.4837 23.7167L70.4752 23.7161L70.3883 23.7102L70.3176 23.7055C70.3159 23.7054 70.3143 23.7052 70.3126 23.7051C70.2608 23.7013 70.2094 23.6979 70.1658 23.6949L70.1589 23.6945L70.1438 23.6935L70.1257 23.6924L70.1246 23.6923L69.962 23.6827L69.954 23.6822L69.9367 23.6811L69.927 23.6806L69.9235 23.6804L69.9228 23.6804L69.9216 23.6803L69.9193 23.6802C69.1172 23.6331 68.3029 23.6085 67.4962 23.6085C66.6899 23.6085 65.8882 23.6324 65.0915 23.6791L65.0828 23.6797L65.0623 23.6809L65.0318 23.6827C64.9778 23.6856 64.9243 23.6889 64.8758 23.6919C64.8473 23.6935 64.822 23.6954 64.8114 23.6962C64.8101 23.6963 64.809 23.6964 64.8082 23.6965L64.7632 23.6996L64.7184 23.7027C64.7171 23.7028 64.7159 23.7029 64.7147 23.703C64.642 23.7077 64.57 23.7128 64.5021 23.7175L64.5015 23.7176L64.4916 23.7183L64.4817 23.7191L64.4473 23.7218C64.4346 23.7226 64.4237 23.7234 64.4153 23.724L64.4093 23.7246L64.3977 23.7255L64.3897 23.7262L64.3392 23.73L64.281 23.7344L64.2758 23.7348C64.1319 23.746 63.988 23.758 63.8442 23.7706L63.8317 23.7717L63.8181 23.773L63.8165 23.7731M23.6382 84.689L63.8165 23.7731M63.8165 23.7731L63.8129 23.7734M63.8165 23.7731L63.8129 23.7734M63.8129 23.7734L63.812 23.7735M63.8129 23.7734L63.812 23.7735M63.812 23.7735L63.8107 23.7736M63.812 23.7735L63.8107 23.7736M63.8107 23.7736L63.8033 23.7743M63.8107 23.7736L63.8033 23.7743M63.8033 23.7743C47.389 25.2338 33.605 36.328 28.5014 51.6513C28.2373 52.444 27.6649 53.0774 26.9334 53.3948C25.5983 53.974 24.1698 54.6441 22.9822 55.3222M63.8033 23.7743L22.9822 55.3222M22.9822 55.3222C22.3894 55.6607 21.8273 56.0177 21.3569 56.383M22.9822 55.3222L21.3569 56.383M21.3569 56.383C20.9147 56.7264 20.429 57.1708 20.1286 57.7119L21.3569 56.383Z" stroke="#EBEDEE" stroke-width="3"/>
</svg>
