<svg width="741" height="112" viewBox="0 0 741 112" fill="none" xmlns="http://www.w3.org/2000/svg">
<path d="M51.36 46.72V65.28H84V80.64C77.12 88.48 67.2 93.28 56 93.28C35.36 93.28 18.72 76.64 18.72 56C18.72 35.36 35.36 18.72 56 18.72C66.24 18.72 75.68 22.88 82.4 29.6L95.52 16.48C85.44 6.24 71.52 -7.62939e-06 56 -7.62939e-06C25.12 -7.62939e-06 0 25.12 0 56C0 86.88 25.12 112 56 112C66.24 112 75.68 109.28 84 104.48V112H102.72V46.72H51.36ZM169.953 -7.62939e-06L125.312 112H145.473L149.153 102.72H190.913L194.593 112H214.753L169.953 -7.62939e-06ZM156.673 84L169.953 50.4L183.393 84H156.673ZM296.778 56.16C296.778 56.16 315.498 56.16 315.498 32.8C315.498 0.15999 278.218 0.15999 278.218 0.15999H240.938V112H278.218C278.218 112 315.498 112 315.498 79.36C315.498 79.36 315.498 56.16 296.778 56.16ZM259.498 18.72H278.218C278.218 18.72 296.778 18.72 296.778 32.8C296.778 46.72 278.218 46.72 278.218 46.72H259.498V18.72ZM278.218 93.44H259.498V65.44H278.218C278.218 65.44 296.778 65.44 296.778 79.36C296.778 93.44 278.218 93.44 278.218 93.44ZM379.725 83.2C402.605 83.2 421.325 64.48 421.325 41.6C421.325 18.72 402.605 -7.62939e-06 379.725 -7.62939e-06C356.845 -7.62939e-06 338.125 18.72 338.125 41.6C338.125 64.48 356.845 83.2 379.725 83.2ZM379.725 18.56C392.525 18.56 402.765 28.8 402.765 41.6C402.765 54.4 392.525 64.64 379.725 64.64C366.925 64.64 356.685 54.4 356.685 41.6C356.685 28.8 366.925 18.56 379.725 18.56ZM416.205 93.44H342.285V112H416.205V93.44ZM466.22 0.15999H447.5V112H466.22C466.22 112 531.34 112 531.34 56C531.34 0.15999 466.22 0.15999 466.22 0.15999ZM466.22 93.28V18.72C466.22 18.72 512.78 18.72 512.78 56C512.78 93.28 466.22 93.28 466.22 93.28ZM628.626 18.72V-7.62939e-06H553.906V112H628.626V93.28H572.626V65.28H619.186V46.72H572.626V18.72H628.626ZM651.25 -7.62939e-06L696.05 112L740.69 -7.62939e-06H651.25ZM678.77 18.56H713.17L696.05 61.6L678.77 18.56Z" fill="#EBEDEE"/>
</svg>
