<svg width="135" height="119" viewBox="0 0 135 119" fill="none" xmlns="http://www.w3.org/2000/svg">
<path d="M21.8079 117.204C23.5092 118.77 26.1605 118.385 27.6463 116.614C31.6013 111.898 36.3747 107.91 41.7381 104.853C44.8879 103.058 45.207 97.6878 42.4006 95.3925C39.7362 93.2134 37.3537 90.6865 35.3261 87.8682C34.6764 86.9651 33.7149 86.3283 32.6216 86.1223C29.204 85.4783 25.6789 84.6065 24.6978 83.6273C19.9015 78.84 19.6775 61.6149 21.44 58.4399C22.0444 57.3512 24.9015 55.9114 27.5304 54.7708C28.6703 54.2763 29.5319 53.3042 29.9245 52.1253C34.841 37.364 48.1215 26.6746 63.9361 25.2684C63.9494 25.2673 63.9623 25.2659 63.9756 25.2649C64.1145 25.2526 64.2534 25.2411 64.3923 25.2303C64.4345 25.2272 64.4771 25.2237 64.5197 25.2205C64.5277 25.2198 64.5354 25.2191 64.5434 25.2188C64.5644 25.2174 64.5853 25.2156 64.6063 25.2139C64.6761 25.209 64.7459 25.2041 64.8157 25.1996C64.8506 25.1971 64.8855 25.1947 64.9204 25.1923C64.9343 25.1912 64.948 25.1902 64.9619 25.1895C65.0129 25.1863 65.0638 25.1832 65.1144 25.1804C65.1361 25.179 65.1577 25.1779 65.1794 25.1765C65.9472 25.1315 66.7196 25.1085 67.4962 25.1085C68.2727 25.1085 69.0577 25.1322 69.8315 25.1776C69.8416 25.1783 69.8517 25.1786 69.8622 25.1793C69.9191 25.1828 69.9756 25.186 70.0322 25.1895C70.0433 25.1902 70.0541 25.1909 70.0653 25.1916C70.1121 25.1947 70.1592 25.1978 70.206 25.2013C70.2611 25.2052 70.3159 25.2087 70.371 25.2125C70.4035 25.2149 70.436 25.2174 70.4681 25.2198C70.5183 25.2237 70.5686 25.2275 70.6189 25.2314C70.7431 25.2411 70.867 25.2513 70.9909 25.2621C71.0188 25.2645 71.0468 25.267 71.0743 25.2694C86.8807 26.6823 100.151 37.3668 105.067 52.1218C105.46 53.3007 106.322 54.2727 107.462 54.7671C110.093 55.908 112.955 57.3496 113.56 58.4396C115.322 61.6149 115.098 78.84 110.302 83.627C109.32 84.6069 105.79 85.4793 102.371 86.1235C101.277 86.3294 100.316 86.966 99.6661 87.8689C97.638 90.687 95.2552 93.2138 92.5905 95.3928C89.784 97.6878 90.103 103.058 93.2528 104.853C98.618 107.911 103.393 111.901 107.349 116.618C108.834 118.39 111.485 118.774 113.187 117.209C126.597 104.871 135 87.1731 135 67.5119C135 30.226 104.779 0 67.5 0C30.2207 0 0 30.226 0 67.5119C0 87.1703 8.40122 104.866 21.8079 117.204Z" fill="#EBEDEE"/>
</svg>
