<svg width="121" height="120" viewBox="0 0 121 120" fill="none" xmlns="http://www.w3.org/2000/svg">
<path d="M117.736 54.6533L65.3397 2.26484C64.6223 1.54709 63.7705 0.977724 62.833 0.589261C61.8955 0.200798 60.8906 0.000854492 59.8758 0.000854492C58.861 0.000854492 57.8562 0.200798 56.9187 0.589261C55.9812 0.977724 55.1294 1.54709 54.412 2.26484L43.5368 13.14L57.337 26.9403C58.9646 26.3846 60.7156 26.2977 62.3902 26.6894C64.0648 27.0811 65.5955 27.9358 66.8077 29.1558C68.0199 30.3758 68.8647 31.912 69.2456 33.589C69.6266 35.2661 69.5284 37.0165 68.9622 38.6405L82.26 51.9457C84.2274 51.253 86.372 51.2509 88.3407 51.9398C90.3094 52.6286 91.9849 53.9674 93.0912 55.7355C94.1975 57.5037 94.6687 59.5959 94.4273 61.6677C94.1858 63.7394 93.246 65.6672 91.7626 67.1335C90.261 68.6443 88.2814 69.587 86.1619 69.8004C84.0425 70.0137 81.9147 69.4847 80.142 68.3035C78.3693 67.1223 77.0618 65.3623 76.4426 63.324C75.8235 61.2858 75.9312 59.0959 76.7474 57.1283L64.3497 44.7231V77.3712C66.2341 78.304 67.742 79.8545 68.6219 81.7642C69.5017 83.674 69.7005 85.8276 69.185 87.8661C68.6696 89.9047 67.471 91.705 65.7891 92.9669C64.1072 94.2289 62.0436 94.8763 59.9423 94.8013C57.8409 94.7262 55.8287 93.9332 54.2412 92.5545C52.6536 91.1758 51.5865 89.2946 51.2178 87.2244C50.8491 85.1543 51.201 83.0204 52.2148 81.1782C53.2287 79.3361 54.8433 77.8972 56.7895 77.1012V44.1531C55.6667 43.693 54.646 43.0152 53.7863 42.1588C52.9267 41.3023 52.245 40.2842 51.7807 39.1631C51.3163 38.042 51.0785 36.8401 51.0808 35.6266C51.0832 34.4132 51.3257 33.2122 51.7944 32.0929L38.1967 18.4876L2.27107 54.4133C1.55332 55.1307 0.98395 55.9824 0.595486 56.9199C0.207023 57.8575 0.00708008 58.8623 0.00708008 59.8771C0.00708008 60.8919 0.207023 61.8968 0.595486 62.8343C0.98395 63.7718 1.55332 64.6236 2.27107 65.3409L54.667 117.737C55.3844 118.455 56.2362 119.024 57.1737 119.412C58.1112 119.801 59.116 120.001 60.1308 120.001C61.1456 120.001 62.1505 119.801 63.088 119.412C64.0255 119.024 64.8773 118.455 65.5947 117.737L117.743 65.5885C119.191 64.1386 120.004 62.1735 120.004 60.1246C120.004 58.0757 119.191 56.1106 117.743 54.6608" fill="#EBEDEE"/>
</svg>
