<svg width="124" height="120" viewBox="0 0 124 120" fill="none" xmlns="http://www.w3.org/2000/svg">
<path d="M61.5176 0C27.5291 0 0 27.5291 0 61.5176C0 88.7392 17.6094 111.731 42.0627 119.882C45.1386 120.421 46.292 118.575 46.292 116.96C46.292 115.499 46.2151 110.655 46.2151 105.503C30.7588 108.348 26.7602 101.735 25.5298 98.2744C24.8377 96.5058 21.8388 91.0461 19.2243 89.585C17.0711 88.4316 13.9953 85.5864 19.1474 85.5095C23.9919 85.4326 27.4522 89.9695 28.6057 91.8151C34.1423 101.12 42.9854 98.5051 46.5227 96.8903C47.061 92.8916 48.6758 90.2002 50.4445 88.6623C36.7568 87.1243 22.4539 81.8184 22.4539 58.288C22.4539 51.5979 24.8377 46.0613 28.7595 41.7551C28.1443 40.2171 25.9912 33.9116 29.3747 25.4529C29.3747 25.4529 34.5268 23.8381 46.292 31.7585C51.2134 30.3743 56.4424 29.6823 61.6714 29.6823C66.9004 29.6823 72.1294 30.3743 77.0508 31.7585C88.8161 23.7612 93.9682 25.4529 93.9682 25.4529C97.3516 33.9116 95.1985 40.2171 94.5834 41.7551C98.5051 46.0613 100.889 51.521 100.889 58.288C100.889 81.8953 86.5092 87.1243 72.8215 88.6623C75.0515 90.5847 76.9739 94.2758 76.9739 100.043C76.9739 108.271 76.897 114.884 76.897 116.96C76.897 118.575 78.0505 120.498 81.1264 119.882C93.3394 115.761 103.952 107.912 111.47 97.4421C118.988 86.9719 123.033 74.4074 123.035 61.5176C123.035 27.5291 95.5061 0 61.5176 0Z" fill="#EBEDEE"/>
</svg>
