<svg width="108" height="120" viewBox="0 0 108 120" fill="none" xmlns="http://www.w3.org/2000/svg">
<path d="M106.045 1.66778C105.094 0.60601 103.737 0 102.314 0H5.32256C3.90019 0 2.54293 0.60601 1.59135 1.66778C0.639759 2.72955 0.189008 4.14691 0.344267 5.55927L11.3726 104.84C11.593 106.858 13.0204 108.546 14.9736 109.102L52.4361 119.805C52.8868 119.935 53.3526 120 53.8134 120C54.2742 120 54.7399 119.935 55.1907 119.805L92.6531 109.102C94.6064 108.546 96.0287 106.858 96.2541 104.84L107.288 5.55927C107.448 4.14691 106.997 2.72955 106.045 1.66778ZM82.0104 37.212H37.2858L38.3476 49.9432H80.9336L77.7383 87.5559L53.8334 95.1586L53.598 95.0835L29.9586 87.5459L28.6665 72.2204H40.2458L40.7516 78.1753L53.9586 81.0851L66.9353 78.1703L68.3125 62.0785H27.795L24.6598 25.0417H83.0521L82.0104 37.212Z" fill="#EBEDEE"/>
</svg>
