<svg width="121" height="120" viewBox="0 0 121 120" fill="none" xmlns="http://www.w3.org/2000/svg">
<path d="M11.0519 0C5.02464 0 0.142822 4.88182 0.142822 10.9091V109.091C0.142822 115.118 5.02464 120 11.0519 120H109.234C115.261 120 120.143 115.118 120.143 109.091V10.9091C120.143 4.88182 115.261 0 109.234 0H11.0519ZM85.5619 28.6257C88.9546 28.6257 91.2721 30.7884 91.2721 33.7393C91.2721 36.6903 88.9546 38.853 85.5619 38.853C82.2073 38.853 79.8623 36.6903 79.8623 33.7393C79.8623 30.7884 82.2073 28.6257 85.5619 28.6257ZM42.6499 32.4716H53.4631L72.586 86.282H62.2629L57.7139 72.5284H37.9198L33.2856 86.282H23.559L42.6499 32.4716ZM47.5292 42.7202L40.157 64.9112H55.4766L48.1684 42.7202H47.5292ZM80.9809 45.4901H90.1854V86.282H80.9809V45.4901Z" fill="#EBEDEE"/>
</svg>
