<svg width="121" height="120" viewBox="0 0 121 120" fill="none" xmlns="http://www.w3.org/2000/svg">
<path d="M107.312 0H13.0263C5.92812 0 0.169189 5.75893 0.169189 12.8571V107.143C0.169189 114.241 5.92812 120 13.0263 120H107.312C114.41 120 120.169 114.241 120.169 107.143V12.8571C120.169 5.75893 114.41 0 107.312 0ZM65.4728 93.5893C65.4728 105.268 58.6156 110.598 48.6245 110.598C39.5978 110.598 34.3745 105.937 31.696 100.286L40.8835 94.7411C42.6513 97.875 44.2585 100.527 48.1424 100.527C51.8388 100.527 54.196 99.0804 54.196 93.4286V55.0982H65.4728V93.5893V93.5893ZM92.1513 110.598C81.6781 110.598 74.9013 105.616 71.6067 99.0804L80.7942 93.7768C83.2049 97.7143 86.3656 100.634 91.9103 100.634C96.571 100.634 99.571 98.3036 99.571 95.0625C99.571 91.2054 96.5174 89.8393 91.3478 87.5625L88.5353 86.3571C80.3924 82.9018 75.0085 78.5357 75.0085 69.3482C75.0085 60.8839 81.4638 54.4554 91.5085 54.4554C98.687 54.4554 103.83 56.9464 107.526 63.4821L98.7406 69.1071C96.812 65.6518 94.7228 64.2857 91.4817 64.2857C88.187 64.2857 86.0978 66.375 86.0978 69.1071C86.0978 72.4821 88.187 73.8482 93.0353 75.9643L95.8478 77.1696C105.437 81.2679 110.821 85.4732 110.821 94.9018C110.821 105.027 102.839 110.598 92.1513 110.598V110.598Z" fill="#EBEDEE"/>
</svg>
