<svg width="196" height="120" viewBox="0 0 196 120" fill="none" xmlns="http://www.w3.org/2000/svg">
<path d="M7.60672 0.000750046C6.6129 -0.0133051 5.62619 0.170302 4.70394 0.540901C3.78169 0.911499 2.94229 1.4617 2.23452 2.15952C1.52676 2.85735 0.964747 3.68888 0.581144 4.6058C0.197541 5.52272 0 6.50673 0 7.50066C0 8.49458 0.197541 9.4786 0.581144 10.3955C0.964747 11.3124 1.52676 12.144 2.23452 12.8418C2.94229 13.5396 3.78169 14.0898 4.70394 14.4604C5.62619 14.831 6.6129 15.0146 7.60672 15.0006H187.604C188.598 15.0146 189.585 14.831 190.507 14.4604C191.429 14.0898 192.269 13.5396 192.977 12.8418C193.684 12.144 194.246 11.3124 194.63 10.3955C195.014 9.4786 195.211 8.49458 195.211 7.50066C195.211 6.50673 195.014 5.52272 194.63 4.6058C194.246 3.68888 193.684 2.85735 192.977 2.15952C192.269 1.4617 191.429 0.911499 190.507 0.540901C189.585 0.170302 188.598 -0.0133051 187.604 0.000750046H7.60672ZM7.60672 52.5001C6.6129 52.486 5.62619 52.6696 4.70394 53.0402C3.78169 53.4108 2.94229 53.961 2.23452 54.6589C1.52676 55.3567 0.964747 56.1882 0.581144 57.1051C0.197541 58.0221 0 59.0061 0 60C0 60.9939 0.197541 61.9779 0.581144 62.8949C0.964747 63.8118 1.52676 64.6433 2.23452 65.3411C2.94229 66.039 3.78169 66.5892 4.70394 66.9598C5.62619 67.3304 6.6129 67.514 7.60672 67.4999H187.604C188.598 67.514 189.585 67.3304 190.507 66.9598C191.429 66.5892 192.269 66.039 192.977 65.3411C193.684 64.6433 194.246 63.8118 194.63 62.8949C195.014 61.9779 195.211 60.9939 195.211 60C195.211 59.0061 195.014 58.0221 194.63 57.1051C194.246 56.1882 193.684 55.3567 192.977 54.6589C192.269 53.961 191.429 53.4108 190.507 53.0402C189.585 52.6696 188.598 52.486 187.604 52.5001H7.60672ZM7.60672 104.999C6.6129 104.985 5.62619 105.169 4.70394 105.54C3.78169 105.91 2.94229 106.46 2.23452 107.158C1.52676 107.856 0.964747 108.688 0.581144 109.604C0.197541 110.521 0 111.505 0 112.499C0 113.493 0.197541 114.477 0.581144 115.394C0.964747 116.311 1.52676 117.143 2.23452 117.84C2.94229 118.538 3.78169 119.088 4.70394 119.459C5.62619 119.83 6.6129 120.013 7.60672 119.999H187.604C188.598 120.013 189.585 119.83 190.507 119.459C191.429 119.088 192.269 118.538 192.977 117.84C193.684 117.143 194.246 116.311 194.63 115.394C195.014 114.477 195.211 113.493 195.211 112.499C195.211 111.505 195.014 110.521 194.63 109.604C194.246 108.688 193.684 107.856 192.977 107.158C192.269 106.46 191.429 105.91 190.507 105.54C189.585 105.169 188.598 104.985 187.604 104.999H7.60672Z" fill="#EBEDEE"/>
</svg>
