<svg width="121" height="120" viewBox="0 0 121 120" fill="none" xmlns="http://www.w3.org/2000/svg">
<path d="M61.8967 15.3525C61.401 15.1218 60.8609 15.0022 60.3142 15.0022C59.7674 15.0022 59.2273 15.1218 58.7317 15.3525L2.48167 41.6025C1.81929 41.9117 1.26171 42.4077 0.877501 43.0296C0.493297 43.6514 0.299221 44.372 0.319142 45.1028C0.339064 45.8335 0.572113 46.5424 0.98963 47.1424C1.40715 47.7425 1.99092 48.2074 2.66917 48.48L58.9192 70.98C59.8146 71.3388 60.8138 71.3388 61.7092 70.98L105.314 53.55V97.5C103.325 97.5 101.417 98.2902 100.011 99.6967C98.6043 101.103 97.8142 103.011 97.8142 105V120H120.314V105C120.314 103.011 119.524 101.103 118.117 99.6967C116.711 98.2902 114.803 97.5 112.814 97.5V50.5425L117.959 48.48C118.637 48.2074 119.221 47.7425 119.639 47.1424C120.056 46.5424 120.289 45.8335 120.309 45.1028C120.329 44.372 120.135 43.6514 119.751 43.0296C119.367 42.4077 118.809 41.9117 118.147 41.6025L61.8967 15.3525V15.3525Z" fill="#EBEDEE"/>
<path d="M31.6342 67.74C31.1514 67.5581 30.6361 67.4778 30.1208 67.5042C29.6055 67.5305 29.1011 67.6629 28.6393 67.8931C28.1775 68.1233 27.7682 68.4464 27.4369 68.842C27.1057 69.2377 26.8596 69.6974 26.7142 70.1925L22.9642 82.9425C22.7016 83.8376 22.7819 84.7985 23.1897 85.6375C23.5974 86.4765 24.3032 87.1334 25.1692 87.48L58.9192 100.98C59.8146 101.339 60.8138 101.339 61.7092 100.98L95.4592 87.48C96.3253 87.1334 97.0311 86.4765 97.4388 85.6375C97.8465 84.7985 97.9269 83.8376 97.6642 82.9425L93.9142 70.1925C93.7688 69.6974 93.5228 69.2377 93.1916 68.842C92.8603 68.4464 92.451 68.1233 91.9892 67.8931C91.5274 67.6629 91.023 67.5305 90.5077 67.5042C89.9923 67.4778 89.4771 67.5581 88.9942 67.74L60.3142 78.495L31.6342 67.74Z" fill="#EBEDEE"/>
</svg>
