<svg width="121" height="120" viewBox="0 0 121 120" fill="none" xmlns="http://www.w3.org/2000/svg">
<path d="M93.5617 75.525C106.312 79.3875 120.314 83.625 120.314 60C120.314 48.1331 116.795 36.5328 110.202 26.6658C103.61 16.7989 94.2388 9.10851 83.2752 4.56725C72.3117 0.0259969 60.2477 -1.1622 48.6088 1.15291C36.97 3.46802 26.279 9.18247 17.8878 17.5736C9.49668 25.9648 3.78223 36.6557 1.46712 48.2946C-0.847994 59.9335 0.340206 71.9974 4.88146 82.961C9.42272 93.9246 17.1131 103.295 26.98 109.888C36.847 116.481 48.4473 120 60.3142 120C75.2842 120 74.0092 108.72 72.6817 96.9C71.7517 88.6425 70.7917 80.1225 75.3142 75C78.8017 71.0475 85.9642 73.2225 93.5617 75.525ZM60.3142 37.5C58.8369 37.5 57.3739 37.209 56.009 36.6437C54.6441 36.0783 53.4039 35.2496 52.3593 34.205C51.3146 33.1603 50.4859 31.9201 49.9206 30.5552C49.3552 29.1903 49.0642 27.7274 49.0642 26.25C49.0642 24.7726 49.3552 23.3097 49.9206 21.9448C50.4859 20.5799 51.3146 19.3397 52.3593 18.2951C53.4039 17.2504 54.6441 16.4217 56.009 15.8564C57.3739 15.291 58.8369 15 60.3142 15C63.2979 15 66.1594 16.1853 68.2692 18.2951C70.379 20.4049 71.5642 23.2663 71.5642 26.25C71.5642 29.2337 70.379 32.0952 68.2692 34.205C66.1594 36.3148 63.2979 37.5 60.3142 37.5V37.5ZM94.0642 60C91.0805 60 88.219 58.8148 86.1093 56.705C83.9995 54.5952 82.8142 51.7337 82.8142 48.75C82.8142 45.7663 83.9995 42.9048 86.1093 40.7951C88.219 38.6853 91.0805 37.5 94.0642 37.5C97.0479 37.5 99.9094 38.6853 102.019 40.7951C104.129 42.9048 105.314 45.7663 105.314 48.75C105.314 51.7337 104.129 54.5952 102.019 56.705C99.9094 58.8148 97.0479 60 94.0642 60V60ZM37.8142 48.75C37.8142 50.2274 37.5232 51.6903 36.9579 53.0552C36.3925 54.4201 35.5638 55.6603 34.5192 56.705C33.4745 57.7496 32.2343 58.5783 30.8694 59.1437C29.5045 59.709 28.0416 60 26.5642 60C25.0869 60 23.624 59.709 22.259 59.1437C20.8941 58.5783 19.6539 57.7496 18.6093 56.705C17.5646 55.6603 16.736 54.4201 16.1706 53.0552C15.6052 51.6903 15.3142 50.2274 15.3142 48.75C15.3142 45.7663 16.4995 42.9048 18.6093 40.7951C20.7191 38.6853 23.5805 37.5 26.5642 37.5C29.5479 37.5 32.4094 38.6853 34.5192 40.7951C36.629 42.9048 37.8142 45.7663 37.8142 48.75V48.75ZM41.5642 97.5C38.5805 97.5 35.7191 96.3147 33.6093 94.205C31.4995 92.0952 30.3142 89.2337 30.3142 86.25C30.3142 83.2663 31.4995 80.4048 33.6093 78.2951C35.7191 76.1853 38.5805 75 41.5642 75C44.5479 75 47.4094 76.1853 49.5192 78.2951C51.629 80.4048 52.8142 83.2663 52.8142 86.25C52.8142 89.2337 51.629 92.0952 49.5192 94.205C47.4094 96.3147 44.5479 97.5 41.5642 97.5Z" fill="#EBEDEE"/>
</svg>
