<svg width="121" height="120" viewBox="0 0 121 120" fill="none" xmlns="http://www.w3.org/2000/svg">
<path d="M11.0519 0C5.02464 0 0.142822 4.88182 0.142822 10.9091V109.091C0.142822 115.118 5.02464 120 11.0519 120H109.234C115.261 120 120.143 115.118 120.143 109.091V10.9091C120.143 4.88182 115.261 0 109.234 0H11.0519ZM21.961 32.6847H43.662C54.402 32.6847 61.7515 40.0316 61.7515 50.8807C61.7515 61.5443 54.1338 68.853 43.2465 68.853H31.581V86.495H21.961V32.6847ZM31.581 40.7386V60.8736H41.0945C47.9563 60.8736 51.9823 57.2952 51.9823 50.8807C51.9823 44.2861 48.0592 40.7386 41.1265 40.7386H31.581ZM83.0903 44.8722C92.783 44.8722 98.8682 49.1621 99.5391 56.5803H90.8566C90.1857 53.7112 87.4583 51.8821 83.1329 51.8821C78.922 51.8821 75.7501 53.9011 75.7501 56.8466C75.7501 59.1593 77.6887 60.5749 81.7906 61.5021L88.9816 63.1428C96.7761 64.8937 100.391 68.2543 100.391 74.2543C100.391 82.0924 93.1939 87.3153 83.0157 87.3153C72.8375 87.3153 66.4236 82.9082 65.7146 75.4901H74.8552C75.7497 78.5119 78.614 80.3054 83.2394 80.3054C87.8976 80.3054 91.1442 78.2562 91.1442 75.2344C91.1442 72.9216 89.3974 71.462 85.5192 70.6001L78.2856 68.9276C70.4529 67.1385 66.7692 63.5213 66.7692 57.3686C66.7692 49.9832 73.4684 44.8722 83.0903 44.8722Z" fill="#EBEDEE"/>
</svg>
