<svg width="229" height="120" viewBox="0 0 229 120" fill="none" xmlns="http://www.w3.org/2000/svg">
<path d="M114.087 5.98931C175.192 5.98931 222.18 31.7291 222.18 60C222.18 88.271 175.157 114.011 114.087 114.011C52.982 114.011 5.99443 88.271 5.99443 60C5.99443 31.7291 53.0176 5.98931 114.087 5.98931ZM114.087 0C51.0925 0 0.00512695 26.8449 0.00512695 60C0.00512695 93.1551 51.0925 120 114.087 120C177.082 120 228.169 93.1551 228.169 60C228.169 26.8449 177.082 0 114.087 0ZM77.7948 55.1872C74.9784 69.6257 65.0319 68.1283 52.8037 68.1283L57.6878 42.959C71.2351 42.959 80.4329 41.4973 77.7948 55.1872ZM34.7288 93.6185H47.8126L50.9142 77.6471C65.5666 77.6471 74.6575 78.7166 83.0711 70.8378C92.3759 62.2816 94.8001 47.0588 88.1691 39.4296C84.711 35.4367 79.1495 33.4759 71.5916 33.4759H46.3866L34.7288 93.6185ZM100.932 17.4688H113.945L110.843 33.4403C122.073 33.4403 132.483 32.6203 137.51 37.2549C142.786 42.1034 140.255 48.3066 134.551 77.5758H121.36C126.85 49.2692 127.884 46.9162 125.887 44.7772C123.962 42.7095 119.577 43.1373 108.989 43.1373L102.287 77.5758H89.2743L100.932 17.4688V17.4688ZM180.041 55.1872C177.189 69.8396 166.957 68.1283 155.05 68.1283L159.934 42.959C173.552 42.959 182.679 41.4973 180.041 55.1872V55.1872ZM136.975 93.6185H150.094L153.196 77.6471C168.597 77.6471 177.117 78.5383 185.353 70.8378C194.658 62.2816 197.082 47.0588 190.451 39.4296C186.993 35.4367 181.431 33.4759 173.873 33.4759H148.668L136.975 93.6185V93.6185Z" fill="#EBEDEE"/>
</svg>
