<svg width="107" height="120" viewBox="0 0 107 120" fill="none" xmlns="http://www.w3.org/2000/svg">
<path d="M87.3555 101.008C82.9661 105.188 78.7858 109.578 74.3964 113.758C72.5152 115.848 70.007 117.52 67.2898 118.565C59.7652 121.283 52.8676 120.237 47.0151 114.594C33.0109 101.008 19.4247 87.2127 5.62954 73.4175C-1.68608 66.1019 -1.68608 53.9788 5.62954 46.6632C19.4247 32.868 33.0109 19.2819 46.806 5.48672C54.1217 -1.82891 66.0357 -1.82891 73.5603 5.48672C82.7571 14.6835 91.9539 23.8803 101.151 33.0771C108.466 40.3927 108.466 52.0977 101.36 59.4133C92.999 68.192 84.2202 76.7618 75.6505 85.3315C75.2325 85.7495 75.0234 85.9586 74.8144 86.3766C73.9784 86.7946 73.9784 87.2127 74.8144 88.0487C78.7858 92.0201 82.7571 95.9914 86.7285 99.9628C87.1465 100.172 87.5645 100.381 87.3555 101.008ZM87.3555 46.6632C87.3555 46.2452 86.9375 46.0362 86.5194 45.6181L61.2283 20.118C60.6012 19.4909 60.1832 19.2819 59.5561 20.118C46.597 33.2861 33.4289 46.2452 20.4698 59.2043C19.8427 59.8313 19.8427 60.2494 20.4698 60.8764C33.6379 73.8355 46.597 87.0037 59.5561 99.9628C60.1832 100.59 60.6012 100.59 61.2283 99.9628C65.1996 95.9914 69.171 92.0201 73.1423 88.0487C73.7693 87.4217 73.7693 87.0037 73.1423 86.3766C69.171 82.4053 65.1996 78.4339 61.2283 74.4626C60.6012 73.8355 60.3922 73.4175 61.2283 72.5814C69.589 64.2207 78.1587 55.651 86.5194 47.2903L87.3555 46.6632Z" fill="#EBEDEE"/>
</svg>
