<svg width="121" height="120" viewBox="0 0 121 120" fill="none" xmlns="http://www.w3.org/2000/svg">
<path d="M119.734 5.14348C120.007 4.46201 120.074 3.71547 119.926 2.9964C119.779 2.27734 119.423 1.61738 118.904 1.09834C118.385 0.579295 117.725 0.223998 117.006 0.0764942C116.287 -0.0710098 115.541 -0.0042344 114.859 0.268542L5.75805 43.9105H5.75055L2.36059 45.2605C1.71853 45.5166 1.15975 45.9452 0.745981 46.4989C0.332213 47.0527 0.0795572 47.71 0.0159239 48.3984C-0.0477093 49.0867 0.080156 49.7792 0.385396 50.3994C0.690635 51.0196 1.16137 51.5434 1.7456 51.9129L4.82056 53.8629L4.82806 53.8779L42.2901 77.7126L66.1248 115.175L66.1398 115.19L68.0898 118.265C68.4604 118.847 68.9845 119.315 69.6042 119.618C70.224 119.922 70.9154 120.048 71.6024 119.984C72.2894 119.919 72.9453 119.667 73.498 119.254C74.0506 118.84 74.4785 118.283 74.7347 117.642L119.734 5.14348V5.14348ZM105.987 19.3183L49.7825 75.5226L48.17 72.9876C47.8746 72.5224 47.4802 72.1281 47.015 71.8326L44.4801 70.2202L100.684 14.0159L109.519 10.4834L105.994 19.3183H105.987Z" fill="#EBEDEE"/>
</svg>
