<svg width="349" height="120" viewBox="0 0 349 120" fill="none" xmlns="http://www.w3.org/2000/svg">
<path d="M105.169 18.75V30C105.169 40.3594 81.6614 48.75 52.6692 48.75C23.677 48.75 0.169189 40.3594 0.169189 30V18.75C0.169189 8.39062 23.677 0 52.6692 0C81.6614 0 105.169 8.39062 105.169 18.75ZM92.3254 50.3203C97.2004 48.5859 101.677 46.3594 105.169 43.6172V67.5C105.169 77.8594 81.6614 86.25 52.6692 86.25C23.677 86.25 0.169189 77.8594 0.169189 67.5V43.6172C3.66138 46.3828 8.13794 48.5859 13.0129 50.3203C23.5364 54.0703 37.552 56.25 52.6692 56.25C67.7864 56.25 81.802 54.0703 92.3254 50.3203ZM0.169189 81.1172C3.66138 83.8828 8.13794 86.0859 13.0129 87.8203C23.5364 91.5703 37.552 93.75 52.6692 93.75C67.7864 93.75 81.802 91.5703 92.3254 87.8203C97.2004 86.0859 101.677 83.8594 105.169 81.1172V101.25C105.169 111.609 81.6614 120 52.6692 120C23.677 120 0.169189 111.609 0.169189 101.25V81.1172Z" fill="#EBEDEE"/>
<path d="M162.44 102.882C156.6 102.882 151.32 101.882 146.6 99.8822C141.96 97.8822 138.28 95.0022 135.56 91.2422C132.84 87.4822 131.44 83.0422 131.36 77.9222H149.36C149.6 81.3622 150.8 84.0822 152.96 86.0822C155.2 88.0822 158.24 89.0822 162.08 89.0822C166 89.0822 169.08 88.1622 171.32 86.3222C173.56 84.4022 174.68 81.9222 174.68 78.8822C174.68 76.4022 173.92 74.3622 172.4 72.7622C170.88 71.1622 168.96 69.9222 166.64 69.0422C164.4 68.0822 161.28 67.0422 157.28 65.9222C151.84 64.3222 147.4 62.7622 143.96 61.2422C140.6 59.6422 137.68 57.2822 135.2 54.1622C132.8 50.9622 131.6 46.7222 131.6 41.4422C131.6 36.4822 132.84 32.1622 135.32 28.4822C137.8 24.8022 141.28 22.0022 145.76 20.0822C150.24 18.0822 155.36 17.0822 161.12 17.0822C169.76 17.0822 176.76 19.2022 182.12 23.4422C187.56 27.6022 190.56 33.4422 191.12 40.9622H172.64C172.48 38.0822 171.24 35.7222 168.92 33.8822C166.68 31.9622 163.68 31.0022 159.92 31.0022C156.64 31.0022 154 31.8422 152 33.5222C150.08 35.2022 149.12 37.6422 149.12 40.8422C149.12 43.0822 149.84 44.9622 151.28 46.4822C152.8 47.9222 154.64 49.1222 156.8 50.0822C159.04 50.9622 162.16 52.0022 166.16 53.2022C171.6 54.8022 176.04 56.4022 179.48 58.0022C182.92 59.6022 185.88 62.0022 188.36 65.2022C190.84 68.4022 192.08 72.6022 192.08 77.8022C192.08 82.2822 190.92 86.4422 188.6 90.2822C186.28 94.1222 182.88 97.2022 178.4 99.5222C173.92 101.762 168.6 102.882 162.44 102.882ZM269.045 116.802L256.325 101.562C252.805 102.442 249.205 102.882 245.525 102.882C237.685 102.882 230.485 101.042 223.925 97.3622C217.365 93.6822 212.165 88.6022 208.325 82.1222C204.485 75.5622 202.565 68.1622 202.565 59.9222C202.565 51.7622 204.485 44.4422 208.325 37.9622C212.165 31.4022 217.365 26.2822 223.925 22.6022C230.485 18.9222 237.685 17.0822 245.525 17.0822C253.445 17.0822 260.645 18.9222 267.125 22.6022C273.685 26.2822 278.845 31.4022 282.605 37.9622C286.445 44.4422 288.365 51.7622 288.365 59.9222C288.365 67.3622 286.765 74.1622 283.565 80.3222C280.445 86.4022 276.165 91.3622 270.725 95.2022L289.925 116.802H269.045ZM219.845 59.9222C219.845 65.5222 220.925 70.4422 223.085 74.6822C225.245 78.9222 228.245 82.2022 232.085 84.5222C236.005 86.7622 240.485 87.8822 245.525 87.8822C250.565 87.8822 255.005 86.7622 258.845 84.5222C262.685 82.2022 265.685 78.9222 267.845 74.6822C270.005 70.4422 271.085 65.5222 271.085 59.9222C271.085 54.3222 270.005 49.4422 267.845 45.2822C265.685 41.0422 262.685 37.8022 258.845 35.5622C255.005 33.3222 250.565 32.2022 245.525 32.2022C240.485 32.2022 236.005 33.3222 232.085 35.5622C228.245 37.8022 225.245 41.0422 223.085 45.2822C220.925 49.4422 219.845 54.3222 219.845 59.9222ZM317.898 88.7222H345.498V102.042H301.098V18.2822H317.898V88.7222Z" fill="#EBEDEE"/>
</svg>
