<svg width="120" height="120" viewBox="0 0 120 120" fill="none" xmlns="http://www.w3.org/2000/svg">
<path d="M0 60C0 75.913 6.32141 91.1742 17.5736 102.426C28.8258 113.679 44.087 120 60 120C75.913 120 91.1742 113.679 102.426 102.426C113.679 91.1742 120 75.913 120 60C120 44.087 113.679 28.8258 102.426 17.5736C91.1742 6.32141 75.913 0 60 0C44.087 0 28.8258 6.32141 17.5736 17.5736C6.32141 28.8258 0 44.087 0 60H0ZM44.28 81.0225C43.9341 81.3807 43.5203 81.6663 43.0628 81.8629C42.6053 82.0594 42.1132 82.1629 41.6153 82.1672C41.1173 82.1715 40.6235 82.0766 40.1627 81.8881C39.7018 81.6995 39.2831 81.4211 38.931 81.069C38.5789 80.7169 38.3005 80.2982 38.1119 79.8373C37.9234 79.3765 37.8285 78.8827 37.8328 78.3847C37.8371 77.8868 37.9406 77.3947 38.1371 76.9372C38.3337 76.4797 38.6193 76.0659 38.9775 75.72L69.6975 45H48.9375C47.9429 45 46.9891 44.6049 46.2859 43.9016C45.5826 43.1984 45.1875 42.2446 45.1875 41.25C45.1875 40.2554 45.5826 39.3016 46.2859 38.5984C46.9891 37.8951 47.9429 37.5 48.9375 37.5H78.75C79.7446 37.5 80.6984 37.8951 81.4017 38.5984C82.1049 39.3016 82.5 40.2554 82.5 41.25V71.0625C82.5 72.0571 82.1049 73.0109 81.4017 73.7141C80.6984 74.4174 79.7446 74.8125 78.75 74.8125C77.7554 74.8125 76.8016 74.4174 76.0983 73.7141C75.3951 73.0109 75 72.0571 75 71.0625V50.3025L44.28 81.0225Z" fill="#EBEDEE"/>
</svg>
