<svg width="120" height="120" viewBox="0 0 120 120" fill="none" xmlns="http://www.w3.org/2000/svg">
<path d="M120 60C120 75.913 113.679 91.1742 102.426 102.426C91.1742 113.679 75.913 120 60 120C44.087 120 28.8258 113.679 17.5736 102.426C6.32141 91.1742 0 75.913 0 60C0 44.087 6.32141 28.8258 17.5736 17.5736C28.8258 6.32141 44.087 0 60 0C75.913 0 91.1742 6.32141 102.426 17.5736C113.679 28.8258 120 44.087 120 60V60ZM40.155 34.845C39.4509 34.1408 38.4958 33.7453 37.5 33.7453C36.5042 33.7453 35.5491 34.1408 34.845 34.845C34.1408 35.5491 33.7453 36.5042 33.7453 37.5C33.7453 38.4958 34.1408 39.4509 34.845 40.155L54.6975 60L34.845 79.845C34.4963 80.1937 34.2198 80.6076 34.0311 81.0631C33.8424 81.5187 33.7453 82.0069 33.7453 82.5C33.7453 82.9931 33.8424 83.4813 34.0311 83.9369C34.2198 84.3924 34.4963 84.8063 34.845 85.155C35.5491 85.8592 36.5042 86.2547 37.5 86.2547C37.9931 86.2547 38.4813 86.1576 38.9369 85.9689C39.3924 85.7802 39.8063 85.5037 40.155 85.155L60 65.3025L79.845 85.155C80.1937 85.5037 80.6076 85.7802 81.0631 85.9689C81.5187 86.1576 82.0069 86.2547 82.5 86.2547C82.9931 86.2547 83.4813 86.1576 83.9369 85.9689C84.3924 85.7802 84.8063 85.5037 85.155 85.155C85.5037 84.8063 85.7802 84.3924 85.9689 83.9369C86.1576 83.4813 86.2547 82.9931 86.2547 82.5C86.2547 82.0069 86.1576 81.5187 85.9689 81.0631C85.7802 80.6076 85.5037 80.1937 85.155 79.845L65.3025 60L85.155 40.155C85.5037 39.8063 85.7802 39.3924 85.9689 38.9369C86.1576 38.4813 86.2547 37.9931 86.2547 37.5C86.2547 37.0069 86.1576 36.5187 85.9689 36.0631C85.7802 35.6076 85.5037 35.1937 85.155 34.845C84.8063 34.4963 84.3924 34.2198 83.9369 34.0311C83.4813 33.8424 82.9931 33.7453 82.5 33.7453C82.0069 33.7453 81.5187 33.8424 81.0631 34.0311C80.6076 34.2198 80.1937 34.4963 79.845 34.845L60 54.6975L40.155 34.845Z" fill="#EBEDEE"/>
</svg>
