<svg width="120" height="120" viewBox="0 0 120 120" fill="none" xmlns="http://www.w3.org/2000/svg">
<path d="M2.51763 2.51763C3.31366 1.71957 4.25933 1.0864 5.30044 0.654386C6.34156 0.222369 7.45768 0 8.58488 0C9.71207 0 10.8282 0.222369 11.8693 0.654386C12.9104 1.0864 13.8561 1.71957 14.6521 2.51763L60.0022 47.8849L105.352 2.51763C106.149 1.72086 107.095 1.08884 108.136 0.65763C109.177 0.226426 110.293 0.00448674 111.42 0.00448674C112.546 0.00448674 113.662 0.226426 114.703 0.65763C115.744 1.08884 116.69 1.72086 117.487 2.51763C118.284 3.31439 118.916 4.26028 119.347 5.3013C119.778 6.34232 120 7.45808 120 8.58488C120 9.71167 119.778 10.8274 119.347 11.8685C118.916 12.9095 118.284 13.8554 117.487 14.6521L72.1196 60.0022L117.487 105.352C118.284 106.149 118.916 107.095 119.347 108.136C119.778 109.177 120 110.293 120 111.42C120 112.546 119.778 113.662 119.347 114.703C118.916 115.744 118.284 116.69 117.487 117.487C116.69 118.284 115.744 118.916 114.703 119.347C113.662 119.778 112.546 120 111.42 120C110.293 120 109.177 119.778 108.136 119.347C107.095 118.916 106.149 118.284 105.352 117.487L60.0022 72.1196L14.6521 117.487C13.8554 118.284 12.9095 118.916 11.8685 119.347C10.8274 119.778 9.71167 120 8.58488 120C7.45808 120 6.34232 119.778 5.3013 119.347C4.26028 118.916 3.31439 118.284 2.51763 117.487C1.72086 116.69 1.08884 115.744 0.65763 114.703C0.226426 113.662 0.00448674 112.546 0.00448674 111.42C0.00448674 110.293 0.226426 109.177 0.65763 108.136C1.08884 107.095 1.72086 106.149 2.51763 105.352L47.8849 60.0022L2.51763 14.6521C1.71957 13.8561 1.0864 12.9104 0.654386 11.8693C0.222369 10.8282 0 9.71207 0 8.58488C0 7.45768 0.222369 6.34156 0.654386 5.30044C1.0864 4.25933 1.71957 3.31366 2.51763 2.51763Z" fill="#EBEDEE"/>
</svg>
