<svg width="18" height="16" viewBox="0 0 18 16" fill="none" xmlns="http://www.w3.org/2000/svg">
<path d="M17.031 8C17.031 10.1217 16.169 12.1566 14.6345 13.6569C13.1 15.1571 11.0189 16 8.84882 16C6.67877 16 4.59759 15.1571 3.06314 13.6569C1.52868 12.1566 0.666626 10.1217 0.666626 8C0.666626 5.87827 1.52868 3.84344 3.06314 2.34315C4.59759 0.842855 6.67877 0 8.84882 0C11.0189 0 13.1 0.842855 14.6345 2.34315C16.169 3.84344 17.031 5.87827 17.031 8V8ZM6.14256 4.646C6.04653 4.55211 5.9163 4.49937 5.7805 4.49937C5.6447 4.49937 5.51446 4.55211 5.41843 4.646C5.32241 4.73989 5.26846 4.86722 5.26846 5C5.26846 5.13278 5.32241 5.26011 5.41843 5.354L8.12572 8L5.41843 10.646C5.37089 10.6925 5.33317 10.7477 5.30744 10.8084C5.28171 10.8692 5.26846 10.9343 5.26846 11C5.26846 11.0657 5.28171 11.1308 5.30744 11.1916C5.33317 11.2523 5.37089 11.3075 5.41843 11.354C5.51446 11.4479 5.6447 11.5006 5.7805 11.5006C5.84774 11.5006 5.91432 11.4877 5.97644 11.4625C6.03857 11.4374 6.09501 11.4005 6.14256 11.354L8.84882 8.707L11.5551 11.354C11.6026 11.4005 11.6591 11.4374 11.7212 11.4625C11.7833 11.4877 11.8499 11.5006 11.9171 11.5006C11.9844 11.5006 12.051 11.4877 12.1131 11.4625C12.1752 11.4374 12.2317 11.4005 12.2792 11.354C12.3268 11.3075 12.3645 11.2523 12.3902 11.1916C12.4159 11.1308 12.4292 11.0657 12.4292 11C12.4292 10.9343 12.4159 10.8692 12.3902 10.8084C12.3645 10.7477 12.3268 10.6925 12.2792 10.646L9.57192 8L12.2792 5.354C12.3268 5.30751 12.3645 5.25232 12.3902 5.19158C12.4159 5.13084 12.4292 5.06574 12.4292 5C12.4292 4.93426 12.4159 4.86916 12.3902 4.80842C12.3645 4.74768 12.3268 4.69249 12.2792 4.646C12.2317 4.59951 12.1752 4.56264 12.1131 4.53748C12.051 4.51232 11.9844 4.49937 11.9171 4.49937C11.8499 4.49937 11.7833 4.51232 11.7212 4.53748C11.6591 4.56264 11.6026 4.59951 11.5551 4.646L8.84882 7.293L6.14256 4.646Z" fill="#C94A4A"/>
</svg>
