<svg width="235" height="404" viewBox="0 0 235 404" fill="none" xmlns="http://www.w3.org/2000/svg">
<g opacity="0.2">
<path d="M123.266 404C175.803 404 218.393 399.082 218.393 393.016C218.393 386.95 175.803 382.032 123.266 382.032C70.7282 382.032 28.1383 386.95 28.1383 393.016C28.1383 399.082 70.7282 404 123.266 404Z" fill="#371A45"/>
</g>
<path d="M163.241 174.273H64.8018C53.5461 174.273 44.4216 183.399 44.4216 194.657V293.115C44.4216 304.373 53.5461 313.499 64.8018 313.499H163.241C174.496 313.499 183.621 304.373 183.621 293.115V194.657C183.621 183.399 174.496 174.273 163.241 174.273Z" fill="white"/>
<path d="M159.267 315.937H68.7749C54.002 315.937 41.9837 303.916 41.9837 289.14V198.631C41.9837 183.855 54.002 171.834 68.7749 171.834H159.267C174.04 171.834 186.058 183.855 186.058 198.631V289.14C186.058 303.916 174.04 315.937 159.267 315.937ZM68.7749 176.71C56.6898 176.71 46.8584 186.543 46.8584 198.63V289.139C46.8584 301.227 56.6898 311.06 68.7749 311.06H159.267C171.352 311.06 181.183 301.227 181.183 289.139V198.63C181.183 186.543 171.352 176.71 159.267 176.71H68.7749Z" fill="#243D66"/>
<path d="M175.634 277.047C174.47 290.81 173.159 304.22 171.874 316.435C168.491 348.648 165.268 372.535 165.268 372.535L163.099 388.224C162.575 392.022 159.326 394.85 155.493 394.85H119.903C119.903 394.85 114.9 395.106 114.76 386.244C114.657 379.923 115.754 356.054 115.029 328.247C114.852 321.347 114.559 314.204 114.109 307.024L175.634 277.047Z" fill="white"/>
<g opacity="0.2">
<path d="M175.634 277.047C174.47 290.81 173.159 304.22 171.874 316.435C155.786 326.534 117.228 328.162 115.029 328.247C114.852 321.347 114.559 314.204 114.109 307.024L175.634 277.047Z" fill="#371A45"/>
</g>
<path d="M119.859 397.29C119.201 397.29 117.287 397.13 115.485 395.445C113.453 393.542 112.388 390.46 112.321 386.284C112.291 384.357 112.367 380.957 112.47 376.25C112.792 361.682 113.393 334.566 111.676 307.178C111.592 305.834 112.612 304.676 113.956 304.592C115.294 304.499 116.457 305.528 116.541 306.872C118.271 334.467 117.668 361.718 117.345 376.358C117.241 381.011 117.167 384.371 117.196 386.205C117.27 390.923 118.857 392.317 119.824 392.409C119.868 392.404 119.815 392.413 119.904 392.413H155.494C158.097 392.413 160.327 390.469 160.682 387.89L162.849 372.202C162.909 371.756 169.02 326.244 173.205 276.839C173.318 275.498 174.492 274.494 175.839 274.615C177.18 274.73 178.175 275.908 178.062 277.25C173.868 326.781 167.741 372.406 167.679 372.861L165.512 388.557C164.824 393.534 160.517 397.288 155.494 397.288H119.939C119.914 397.288 119.887 397.288 119.858 397.288L119.859 397.29Z" fill="#243D66"/>
<path d="M139.386 344.698C127.003 344.698 115.909 343.332 115.023 343.22C114.021 343.093 113.311 342.179 113.437 341.177C113.565 340.175 114.478 339.47 115.48 339.591C115.891 339.644 156.632 344.662 168.498 335.702C169.303 335.095 170.45 335.255 171.059 336.061C171.666 336.867 171.506 338.014 170.7 338.621C164.315 343.442 151.257 344.698 139.385 344.698H139.386Z" fill="#371A45"/>
<path d="M163.987 384.209C162.761 384.209 161.707 383.287 161.568 382.04C161.139 378.181 160.079 376.87 158.508 376.004C153.51 373.248 131.614 371.759 123.868 374.321C117.725 376.354 117.277 379.967 117.261 380.119L114.83 379.93L112.397 379.798C112.412 379.515 112.88 372.818 122.338 369.691C131.521 366.657 154.794 368.388 160.862 371.733C165.055 374.043 166.021 377.968 166.413 381.501C166.562 382.839 165.598 384.045 164.26 384.192C164.168 384.202 164.078 384.207 163.987 384.207V384.209Z" fill="#371A45"/>
<path d="M162.825 391.131C160.034 395.849 150.539 396.087 146.176 392.521C139.954 387.438 140.802 375.321 140.802 375.321C140.802 375.321 105.566 372.919 88.0941 359.236C77.9599 351.3 70.2207 339.683 64.4367 327.437C53.6077 304.488 49.64 279.314 49.64 271.933L109.191 300.411C109.191 300.411 119.088 321.818 123.646 325.036C123.859 325.188 124.066 325.298 124.256 325.365C128.473 326.84 164.678 334.769 164.44 342.864C164.038 356.439 166.475 384.946 162.825 391.132V391.131Z" fill="white"/>
<g opacity="0.2">
<path d="M123.646 325.035C95.2473 326.943 77.0389 317.574 64.4356 327.437C53.6066 304.488 49.6389 279.314 49.6389 271.933L109.19 300.411C109.19 300.411 119.087 321.818 123.645 325.036L123.646 325.035Z" fill="#371A45"/>
</g>
<path d="M154.082 397.406C150.485 397.406 146.987 396.332 144.634 394.41C139.286 390.044 138.417 381.682 138.33 377.556C130.064 376.76 102.027 373.242 86.5891 361.155C57.0518 338.03 47.2032 284.294 47.2032 271.93C47.2032 270.583 48.2945 269.492 49.6411 269.492C50.9877 269.492 52.079 270.583 52.079 271.93C52.079 276.669 54.0774 292.331 60.2546 310.492C65.2985 325.322 74.4824 345.483 89.5947 357.315C106.287 370.384 140.624 372.864 140.969 372.887C141.614 372.931 142.216 373.231 142.642 373.719C143.066 374.207 143.281 374.844 143.235 375.491C143.031 378.515 143.437 387.137 147.719 390.633C149.635 392.195 153.172 392.898 156.326 392.334C158.425 391.96 160.03 391.068 160.727 389.888C162.898 386.214 162.483 370.275 162.181 358.636C162.026 352.672 161.879 347.04 162.005 342.789C162.005 342.763 161.944 340.138 150.008 335.626C142.592 332.822 133.658 330.446 128.32 329.027C125.881 328.379 124.27 327.95 123.454 327.664C118.939 326.084 111.192 310.55 106.978 301.432C106.412 300.211 106.946 298.761 108.167 298.196C109.388 297.629 110.838 298.162 111.403 299.385C116.252 309.873 122.901 321.864 125.108 323.076C125.777 323.305 127.458 323.752 129.574 324.314C152.763 330.481 167.092 335.747 166.879 342.934C166.757 347.049 166.902 352.615 167.055 358.509C167.51 376.013 167.608 387.827 164.926 392.369C163.483 394.809 160.733 396.502 157.181 397.134C156.158 397.316 155.116 397.405 154.084 397.405L154.082 397.406Z" fill="#243D66"/>
<path d="M179.967 278.486C179.602 280.167 179.18 281.783 178.712 283.338C177.005 289.043 174.635 293.919 171.764 298.087C163.89 309.522 152.258 315.606 140.136 318.708C131.275 320.975 122.158 321.646 114.047 321.646C107.806 321.646 100.963 321.25 94.101 320.031C81.3157 317.764 68.469 312.65 59.3227 301.971C55.1601 297.113 51.7601 291.103 49.487 283.679C48.9753 282.021 48.5239 280.29 48.1286 278.486C47.1234 273.865 46.6419 268.965 46.6537 263.821C46.6968 244.499 53.6982 221.727 66.0752 197.321C66.0752 197.321 66.142 194.768 66.9349 190.836C69.3728 178.743 78.6785 153.619 114.023 149.955C153.574 145.86 160.552 182.467 161.77 193.944C161.99 196.06 162.02 197.321 162.02 197.321C173.624 220.185 180.497 241.609 181.357 260.109C181.655 266.618 181.21 272.763 179.967 278.486Z" fill="white"/>
<g opacity="0.2">
<path d="M179.967 278.486C179.602 280.168 179.18 281.783 178.712 283.338C172.033 281.996 165.86 281.369 161.405 281.071C157.614 280.821 154.416 283.863 154.464 287.666L154.476 288.715C154.543 294.249 150.07 298.777 144.537 298.777H83.9551C78.574 298.777 74.1743 294.499 74.016 289.123L73.9675 287.379C73.8511 283.534 70.463 280.62 66.6483 281.089C61.8156 281.686 55.2764 282.589 49.487 283.679C48.9753 282.021 48.5239 280.291 48.1286 278.486C47.1234 273.865 46.6419 268.965 46.6537 263.821L181.357 260.109C181.655 266.618 181.21 272.763 179.967 278.486Z" fill="#371A45"/>
</g>
<g opacity="0.2">
<path d="M161.77 193.944C149.832 201.643 133.963 206.342 116.546 206.342C96.8988 206.342 79.2204 200.363 66.9349 190.836C69.3728 178.743 78.6785 153.619 114.023 149.955C153.574 145.86 160.552 182.467 161.77 193.944Z" fill="#371A45"/>
</g>
<path d="M73.4062 182.552L70.7615 193.572C68.1415 191.847 65.7219 189.97 63.522 187.97C66.5568 185.958 69.8479 184.143 73.4062 182.551V182.552Z" fill="#D8D8D8"/>
<path d="M169.546 187.989C166.627 190.646 163.312 193.078 159.667 195.236L154.548 180.078C160.301 181.681 165.292 184.564 169.545 187.99L169.546 187.989Z" fill="#D8D8D8"/>
<g opacity="0.2">
<path d="M179.967 278.486C178.26 286.33 175.414 292.785 171.764 298.088C163.89 309.522 152.258 315.606 140.136 318.708C131.275 320.975 122.158 321.646 114.047 321.646C107.806 321.646 100.963 321.25 94.101 320.031C81.3157 317.764 68.4689 312.65 59.3227 301.971C54.2282 296.029 50.2788 288.355 48.1275 278.486C46.8907 272.817 46.4458 266.721 46.7324 260.279C46.9026 264.101 47.3658 267.77 48.1275 271.281C50.2788 281.149 54.2271 288.823 59.3227 294.767C68.47 305.446 81.3157 310.553 94.101 312.827C100.963 314.04 107.806 314.442 114.047 314.442C122.158 314.442 131.275 313.772 140.136 311.504C152.257 308.402 163.89 302.313 171.764 290.883C175.414 285.575 178.26 279.119 179.967 271.281C180.728 267.771 181.192 264.096 181.368 260.274C181.648 266.723 181.204 272.812 179.967 278.487V278.486Z" fill="#371A45"/>
</g>
<path d="M58.3952 302.766C52.8148 298.104 49.3104 291.404 47.1342 284.555C41.598 267.427 44.0058 248.802 49.2005 231.934C50.2077 228.559 51.3917 225.249 52.636 221.968C53.1132 220.709 54.5212 220.075 55.7806 220.554C57.0173 221.022 57.6486 222.391 57.2199 223.629C55.0599 230.112 53.1197 236.656 51.7461 243.297C49.3351 254.757 48.3386 266.706 50.7087 278.237C52.3742 286.474 55.9713 293.953 60.246 301.18C60.9559 302.341 59.4466 303.659 58.3952 302.766Z" fill="#243D66"/>
<path d="M140.437 319.89C127.138 325.39 107.647 325.077 93.8867 321.231C92.5077 320.818 92.8697 318.739 94.3122 318.831C105.707 319.588 117.105 319.454 128.471 318.558C132.253 318.302 136.007 317.872 139.844 317.527C141.22 317.401 141.715 319.353 140.435 319.89H140.437Z" fill="#243D66"/>
<path d="M174.649 219.77C183.214 241.653 188.851 267.852 178.519 290.095C176.989 293.229 175.088 296.197 172.766 298.779C172.313 299.285 171.536 299.326 171.031 298.872C170.606 298.492 170.509 297.881 170.758 297.397C172.24 294.452 173.547 291.488 174.64 288.447C181.357 270.705 178.991 251.179 173.861 233.294C172.725 229.324 171.406 225.326 170.062 221.418C169.129 218.411 173.431 216.83 174.649 219.771V219.77Z" fill="#243D66"/>
<path d="M149.507 259.868C149.507 259.868 170.828 258.243 179.803 264.705C189.34 271.573 179.732 279.52 179.732 279.52C179.732 279.52 162.56 275.771 148.14 276.306L149.508 259.87L149.507 259.868Z" fill="white"/>
<path d="M80.3332 259.868C80.3332 259.868 59.0125 258.243 50.0375 264.705C40.5003 271.573 50.1087 279.52 50.1087 279.52C50.1087 279.52 67.2807 275.771 81.7003 276.306L80.3322 259.87L80.3332 259.868Z" fill="white"/>
<path d="M179.73 279.521C179.73 279.521 162.563 275.772 148.138 276.302L148.65 270.195C162.965 269.762 179.73 273.426 179.73 273.426C179.73 273.426 182.119 271.445 183.331 268.61C186.086 274.267 179.73 279.521 179.73 279.521Z" fill="#D8D8D8"/>
<g opacity="0.2">
<path d="M81.7003 276.302C67.2818 275.772 50.1086 279.521 50.1086 279.521C50.1086 279.521 43.7526 274.267 46.5072 268.61C47.7203 271.444 50.1086 273.426 50.1086 273.426C50.1086 273.426 66.8853 269.762 81.194 270.195L81.7003 276.302Z" fill="#371A45"/>
</g>
<path d="M180.371 282.155L179.212 281.901C179.044 281.865 162.161 278.231 148.23 278.741L145.482 278.843L147.25 257.596L149.322 257.438C150.23 257.369 171.642 255.824 181.227 262.727C184.588 265.147 186.348 268.018 186.455 271.259C186.644 276.9 181.503 281.217 181.284 281.398L180.371 282.153V282.155ZM151.077 273.815C162.714 273.815 175.025 276.081 178.976 276.874C180.114 275.658 181.66 273.519 181.583 271.408C181.521 269.761 180.443 268.172 178.378 266.685C171.779 261.932 157.175 261.991 151.759 262.195L150.792 273.816C150.886 273.816 150.981 273.816 151.076 273.816L151.077 273.815Z" fill="#243D66"/>
<path d="M49.4698 282.154L48.5562 281.399C48.3375 281.218 43.1967 276.9 43.3852 271.26C43.494 268.019 45.2522 265.148 48.6133 262.728C58.1991 255.823 79.6114 257.369 80.5185 257.439L82.5901 257.597L84.359 278.844L81.6109 278.742C67.6761 278.231 50.7981 281.866 50.6289 281.902L49.4698 282.155V282.154ZM74.3639 262.126C67.6685 262.126 56.8729 262.786 51.4617 266.684C49.3965 268.171 48.3192 269.76 48.2578 271.406C48.1803 273.517 49.724 275.653 50.8649 276.872C54.8153 276.079 67.1266 273.813 78.7636 273.813C78.8584 273.813 78.9532 273.813 79.048 273.813L78.0806 262.193C77.1067 262.156 75.8333 262.125 74.3639 262.125V262.126Z" fill="#243D66"/>
<path d="M150.885 253.514V283.88C150.885 289.515 146.447 294.126 141.028 294.126H87.1945C81.7692 294.126 77.3372 289.515 77.3372 283.88V253.514C77.3372 247.886 81.7692 243.275 87.1945 243.275H141.028C145.358 243.275 149.062 246.219 150.377 250.275C150.704 251.295 150.885 252.382 150.885 253.514Z" fill="white"/>
<g opacity="0.2">
<path d="M150.885 253.515V283.88C150.885 289.515 146.447 294.126 141.028 294.126H87.1945C81.7692 294.126 77.3372 289.515 77.3372 283.88V273.66C86.6257 279 105.026 287.019 123.494 280.402C132.515 277.167 142.859 266.082 142.859 266.082C142.859 266.082 143.258 277.713 144.919 277.53C149.539 277.019 149.504 253.486 150.378 250.276C150.705 251.295 150.886 252.382 150.886 253.515H150.885Z" fill="#371A45"/>
</g>
<path d="M141.602 296.561H86.616C80.1533 296.561 74.8961 291.303 74.8961 284.839V252.559C74.8961 246.095 80.1533 240.837 86.616 240.837H141.602C148.065 240.837 153.322 246.095 153.322 252.559V284.839C153.322 291.303 148.065 296.561 141.602 296.561ZM86.616 245.713C82.8422 245.713 79.772 248.784 79.772 252.559V284.839C79.772 288.613 82.8422 291.684 86.616 291.684H141.602C145.376 291.684 148.446 288.613 148.446 284.839V252.559C148.446 248.784 145.376 245.713 141.602 245.713H86.616Z" fill="#243D66"/>
<path d="M133.181 277.53C137.876 277.53 141.682 273.577 141.682 268.7C141.682 263.823 137.876 259.87 133.181 259.87C128.486 259.87 124.68 263.823 124.68 268.7C124.68 273.577 128.486 277.53 133.181 277.53Z" fill="#C282FA"/>
<path d="M141.684 268.702C141.684 269.303 141.628 269.888 141.517 270.455C140.732 266.411 137.295 263.368 133.18 263.368C129.065 263.368 125.628 266.411 124.848 270.455C124.737 269.888 124.681 269.304 124.681 268.702C124.681 263.825 128.485 259.867 133.18 259.867C137.875 259.867 141.684 263.825 141.684 268.702Z" fill="white"/>
<path d="M141.682 268.698C141.682 273.579 137.874 277.528 133.181 277.528C128.488 277.528 124.68 273.578 124.68 268.698C124.68 267.88 124.789 267.081 124.989 266.333C125.988 270.055 129.282 272.792 133.181 272.792C137.08 272.792 140.374 270.056 141.373 266.333C141.572 267.081 141.682 267.88 141.682 268.698Z" fill="#C282FA"/>
<path d="M133.181 279.359C127.485 279.359 122.852 274.577 122.852 268.699C122.852 262.821 127.485 258.039 133.181 258.039C138.877 258.039 143.511 262.821 143.511 268.699C143.511 274.577 138.877 279.359 133.181 279.359ZM133.181 261.697C129.502 261.697 126.508 264.838 126.508 268.699C126.508 272.56 129.501 275.7 133.181 275.7C136.861 275.7 139.854 272.56 139.854 268.699C139.854 264.838 136.861 261.697 133.181 261.697Z" fill="#243D66"/>
<path d="M106.273 296.561C104.927 296.561 103.835 295.469 103.835 294.122V278.581C103.835 275.498 102.429 272.557 100.072 270.716L98.7043 269.647C95.1751 266.889 93.069 262.512 93.069 257.941V243.276C93.069 241.929 94.1603 240.838 95.5069 240.838C96.8535 240.838 97.9448 241.929 97.9448 243.276V257.941C97.9448 261.024 99.3518 263.963 101.708 265.806L103.076 266.875C106.604 269.633 108.711 274.01 108.711 278.581V294.122C108.711 295.469 107.62 296.561 106.273 296.561Z" fill="#243D66"/>
<path d="M193.812 259.011C192.131 262.601 189.65 265.923 186.165 268.77C162.459 288.092 114.962 259.706 88.5314 246.504C81.779 243.127 76.3979 240.744 73.1445 240.409C73.1445 240.409 68.2018 226.804 71.5231 221.989C73.8759 218.582 82.7421 215.12 91.8958 219.167C96.9904 221.842 105.138 226.067 112.689 227.341C113.542 227.487 114.407 227.621 115.273 227.749C126.943 229.486 139.601 229.943 148.608 230.011C155.939 230.059 160.851 229.846 160.851 229.846L164.484 209.5L154.55 180.079C174.77 185.705 185.52 207.178 188.275 212.159C192.041 218.961 201.804 241.995 193.814 259.013L193.812 259.011Z" fill="white"/>
<g opacity="0.2">
<path d="M169.546 187.989C166.627 190.646 163.312 193.078 159.667 195.236L154.548 180.078C160.301 181.681 165.292 184.564 169.545 187.99L169.546 187.989Z" fill="#371A45"/>
</g>
<g opacity="0.2">
<path d="M193.812 259.011C192.131 262.601 189.65 265.923 186.164 268.77C162.459 288.092 114.962 259.706 88.5314 246.504L115.272 227.749C126.942 229.486 139.6 229.943 148.607 230.011C142.434 240.677 126.918 254.001 142.189 263.924C159.849 275.402 183.465 269.788 193.812 259.012V259.011Z" fill="#371A45"/>
</g>
<path d="M165.683 209.711C165.179 216.723 164.827 223.822 163.147 230.661C162.882 231.669 161.952 232.324 160.953 232.283C146.841 232.708 132.785 232.37 118.764 230.67C114.044 230.101 109.092 229.359 104.632 227.679C100.08 226.051 95.7751 223.945 91.6383 221.779C86.296 218.965 77.9858 218.807 73.6033 223.278C72.9311 224.252 72.8525 225.454 72.8147 226.813C72.8051 228.835 73.1465 231.023 73.6173 233.178C74.0924 235.325 74.7237 237.541 75.4347 239.577L73.3965 237.984C76.1888 238.341 78.477 239.268 80.9526 240.272C106.542 251.295 152.34 282.415 179.829 269.931C201.425 259.078 195.177 229.835 185.654 212.444C178.724 199.447 168.549 186.586 153.891 182.423C150.82 181.479 152.075 176.946 155.204 177.727C171.874 182.428 183.174 197.005 190.812 211.726C201.085 231.661 205.922 262.269 181.959 274.319C154.056 287.239 110.783 259.885 85.4945 247.724C81.4266 245.845 77.2338 243.544 72.8514 242.831C71.9066 242.727 71.1503 242.084 70.8551 241.244C68.8891 235.13 65.1347 223.296 71.3529 218.681C77.8953 213.81 86.8411 213.878 93.8802 217.45C99.94 220.59 105.992 223.555 112.61 224.842C128.444 227.446 144.734 227.858 160.745 227.413C160.748 227.413 158.45 229.42 158.451 229.42C158.782 225.98 159.662 222.636 160.493 219.285C161.35 215.932 162.251 212.593 163.286 209.285C163.709 207.934 165.753 208.279 165.685 209.714L165.683 209.711Z" fill="#243D66"/>
<path d="M146.877 229.15C146.828 229.588 146.73 229.845 146.73 229.845C130.758 231.508 75.5824 282.946 46.8003 268.695C35.9595 263.332 31.5038 246.027 35.7817 227.76V227.748C39.828 210.438 51.7117 192.261 73.4062 182.552L66.9403 209.499L71.2667 228.809C71.2667 228.809 109.464 214.241 130.324 218.173C146.315 221.184 147.101 227.127 146.876 229.151L146.877 229.15Z" fill="white"/>
<g opacity="0.2">
<path d="M73.4062 182.552L70.7615 193.572C68.1415 191.847 65.7219 189.97 63.522 187.97C66.5568 185.958 69.8479 184.143 73.4062 182.551V182.552Z" fill="#371A45"/>
</g>
<g opacity="0.2">
<path d="M146.877 229.15C146.828 229.588 146.73 229.845 146.73 229.845C130.758 231.508 75.5824 282.946 46.8003 268.695C35.9595 263.331 31.5038 246.027 35.7817 227.76C35.7817 228.425 35.9034 258.87 57.7693 261.558C85.0399 264.905 127.582 228.393 146.877 229.15Z" fill="#371A45"/>
</g>
<path d="M68.1285 209.23C69.2295 212.358 70.2282 215.515 71.1945 218.684C72.1253 221.852 73.1843 224.996 73.6464 228.276L70.3995 226.532C83.6006 221.751 96.9559 217.891 110.887 215.908C121.614 214.413 132.811 214.554 142.724 219.653C146.495 221.528 150.6 226.028 149.009 230.716C148.269 232.709 146.077 232.116 144.26 232.961C137.08 235.755 130.651 240.186 124.056 244.222C108.68 253.843 93.2769 264.135 76.0057 270.237C62.6139 275.075 44.6467 276.455 36.622 261.994C29.6476 249.252 30.9026 233.694 35.3594 220.464C41.4084 202.683 55.2376 187.84 72.4108 180.329C73.641 179.775 75.0889 180.329 75.6373 181.562C76.1845 182.792 75.6319 184.233 74.4016 184.78C58.3973 191.793 45.6088 205.514 39.9659 222.062C35.4876 234.992 34.1043 254.016 44.5681 264.238C49.2285 268.353 55.6459 269.158 61.807 268.572C74.937 267.02 86.9273 260.645 98.4544 254.22C112.27 246.518 125.076 236.89 139.292 229.747C141.612 228.7 143.805 227.75 146.477 227.422L144.452 228.979L144.423 229.059C144.419 229.07 144.423 229.059 144.423 229.059C144.43 229.015 144.445 228.966 144.448 228.907C144.51 226.55 142.402 225.107 140.373 223.924C131.632 219.457 121.345 219.358 111.537 220.74C98.1527 222.632 84.8341 226.48 72.1361 231.086C70.728 231.782 69.166 230.843 68.8891 229.342C67.9077 226.178 67.522 222.883 67.0124 219.622C66.5341 216.344 66.0892 213.063 65.7499 209.763C65.6174 208.334 67.6427 207.871 68.1285 209.23Z" fill="#243D66"/>
<path d="M48.4453 271.257C47.5501 271.257 46.7679 270.6 46.6387 269.687C46.5923 269.361 45.5291 261.6 47.9045 252.463C50.1216 243.935 55.8635 232.611 70.63 227.094C71.578 226.742 72.6295 227.221 72.9828 228.167C73.3362 229.113 72.8557 230.167 71.9098 230.521C61.2759 234.492 54.4006 242.145 51.4746 253.265C49.2522 261.71 50.2487 269.099 50.2595 269.172C50.3995 270.172 49.7036 271.096 48.7049 271.237C48.6177 271.25 48.5315 271.256 48.4464 271.256L48.4453 271.257Z" fill="#243D66"/>
<path d="M186.161 270.595C185.208 270.595 184.405 269.856 184.34 268.891C182.567 243.061 160.257 231.596 160.031 231.483C159.13 231.03 158.762 229.933 159.213 229.03C159.664 228.127 160.759 227.761 161.663 228.21C162.658 228.706 186.069 240.675 187.987 268.641C188.056 269.649 187.296 270.522 186.288 270.591C186.245 270.593 186.203 270.595 186.161 270.595Z" fill="#243D66"/>
<path d="M92.3827 364.006C92.1436 364.006 91.9001 363.959 91.6652 363.859C90.7366 363.462 90.3057 362.388 90.7021 361.459C91.1471 360.415 101.836 335.756 122.505 323.314C123.372 322.794 124.494 323.073 125.014 323.938C125.534 324.804 125.255 325.927 124.39 326.448C104.753 338.268 94.1689 362.65 94.0644 362.894C93.7681 363.588 93.0916 364.005 92.3827 364.005V364.006Z" fill="#243D66"/>
<path d="M206.827 72.3232C206.827 72.3232 227.592 80.1976 229.726 84.0422C233.682 91.1699 232.948 133.067 222.004 143.99C217.718 148.267 186.231 152.264 186.231 152.264L206.827 72.3232Z" fill="white"/>
<g opacity="0.2">
<path d="M186.231 152.264C186.231 152.264 217.718 148.266 222.001 143.988C226.272 139.726 228.992 130.737 230.476 120.943C230.128 121.257 219.007 130.858 196.822 111.343C196.81 111.331 196.794 111.32 196.782 111.308L186.231 152.264Z" fill="#371A45"/>
</g>
<path d="M116.81 116.052V116.408L116.583 116.233L116.81 116.052Z" fill="#D8D8D8"/>
<path d="M116.583 116.233L116.355 116.408V116.052L116.583 116.233Z" fill="#D8D8D8"/>
<path d="M48.0014 152.265C48.0014 152.265 16.5142 148.266 12.232 143.988C7.96053 139.727 5.24036 130.737 3.75692 120.944L3.75154 120.938C1.42997 105.651 2.09789 88.3901 4.50995 84.0435C6.643 80.1989 27.4079 72.3213 27.4079 72.3213L37.4515 111.31L48.0025 152.266L48.0014 152.265Z" fill="white"/>
<g opacity="0.2">
<path d="M48.0014 152.264C48.0014 152.264 16.5143 148.266 12.232 143.988C7.96053 139.726 5.24036 130.737 3.75693 120.943C4.10489 121.257 15.2258 130.858 37.4105 111.343C37.4224 111.331 37.4385 111.32 37.4504 111.308L48.0014 152.264Z" fill="#371A45"/>
</g>
<path d="M183.184 154.951L205.254 69.2871L207.636 70.1901C214.114 72.6468 229.429 78.8058 231.721 82.9348C236.106 90.8351 235.549 133.695 223.616 145.606C219.011 150.2 191.905 153.844 186.519 154.528L183.184 154.951ZM208.396 75.3782L189.284 149.557C203.455 147.595 218.227 144.536 220.392 142.375C230.5 132.287 231.276 91.5365 227.732 85.1501C226.668 83.3981 217.31 78.9049 208.396 75.3782Z" fill="#243D66"/>
<path d="M51.0513 154.951L47.716 154.528C42.3295 153.843 15.2237 150.2 10.6193 145.606C-1.31389 133.694 -1.87085 90.8351 2.51482 82.9348C4.80622 78.8058 20.1221 72.6457 26.5999 70.1901L28.9818 69.2871L51.0513 154.951ZM25.8393 75.3782C16.9258 78.9049 7.56841 83.3981 6.50081 85.1545C2.95866 91.5354 3.73431 132.287 13.8426 142.375C16.0069 144.537 30.7787 147.595 44.9495 149.557L25.8393 75.3782Z" fill="#243D66"/>
<path d="M117.11 194.875C170.282 194.875 213.387 151.762 213.387 98.5798C213.387 45.3972 170.282 2.28418 117.11 2.28418C63.9377 2.28418 20.8331 45.3972 20.8331 98.5798C20.8331 151.762 63.9377 194.875 117.11 194.875Z" fill="white"/>
<g opacity="0.2">
<path d="M213.388 98.5777C213.388 151.76 170.284 194.873 117.111 194.873C63.9378 194.873 20.8299 151.76 20.8299 98.5777C20.8299 92.9628 21.3093 87.4568 22.2379 82.1091C30.0494 127.443 69.5538 161.929 117.112 161.929C164.67 161.929 204.169 127.443 211.981 82.1091C212.909 87.4568 213.389 92.9628 213.389 98.5777H213.388Z" fill="#371A45"/>
</g>
<path d="M117.11 197.157C62.7647 197.157 18.5514 152.935 18.5514 98.58C18.5514 44.2252 62.7647 0.00219727 117.11 0.00219727C171.455 0.00219727 215.667 44.2241 215.667 98.58C215.667 152.936 171.454 197.157 117.11 197.157ZM117.11 4.56543C65.2812 4.56543 23.1138 46.7401 23.1138 98.5789C23.1138 150.418 65.2802 192.592 117.11 192.592C168.94 192.592 211.105 150.418 211.105 98.5789C211.105 46.7401 168.939 4.56651 117.11 4.56651V4.56543Z" fill="#371A45"/>
<path d="M117.11 197.157C62.7647 197.157 18.5514 152.935 18.5514 98.58C18.5514 44.2252 62.7647 0.00219727 117.11 0.00219727C171.455 0.00219727 215.667 44.2241 215.667 98.58C215.667 152.936 171.454 197.157 117.11 197.157ZM117.11 4.56543C65.2812 4.56543 23.1138 46.7401 23.1138 98.5789C23.1138 150.418 65.2802 192.592 117.11 192.592C168.94 192.592 211.105 150.418 211.105 98.5789C211.105 46.7401 168.939 4.56651 117.11 4.56651V4.56543Z" fill="#371A45"/>
<path d="M117.11 197.157C62.7647 197.157 18.5514 152.935 18.5514 98.58C18.5514 44.2252 62.7647 0.00219727 117.11 0.00219727C171.455 0.00219727 215.667 44.2241 215.667 98.58C215.667 152.936 171.454 197.157 117.11 197.157ZM117.11 4.56543C65.2812 4.56543 23.1138 46.7401 23.1138 98.5789C23.1138 150.418 65.2802 192.592 117.11 192.592C168.94 192.592 211.105 150.418 211.105 98.5789C211.105 46.7401 168.939 4.56651 117.11 4.56651V4.56543Z" fill="#371A45"/>
<path d="M117.107 197.155C72.2007 197.155 33.0022 166.857 21.7251 123.457C21.7068 123.404 21.6906 123.349 21.6766 123.295C19.6028 115.289 18.5503 106.974 18.5503 98.5808C18.5503 94.8591 18.7593 91.1439 19.1708 87.5396C24.7221 37.6382 66.825 0.00415039 117.107 0.00415039C167.388 0.00415039 209.511 37.6511 215.051 87.573C215.457 91.1935 215.663 94.8979 215.663 98.5798C215.663 106.96 214.615 115.274 212.546 123.291C212.532 123.347 212.515 123.402 212.497 123.457C201.211 166.856 162.009 197.155 117.106 197.155H117.107ZM26.1086 122.183C36.8191 163.64 74.2346 192.592 117.107 192.592C159.979 192.592 197.396 163.641 208.113 122.184C208.129 122.121 208.148 122.06 208.167 121.998C210.114 114.4 211.101 106.521 211.101 98.5798C211.101 95.0671 210.903 91.534 210.516 88.0795C205.233 40.4688 165.075 4.56739 117.107 4.56739C69.1379 4.56739 29.0001 40.4569 23.7063 88.0504C23.313 91.4898 23.1137 95.0305 23.1137 98.5798C23.1137 106.534 24.1027 114.412 26.0548 121.997C26.0752 122.059 26.0935 122.12 26.1086 122.183Z" fill="#243D66"/>
<path d="M210.031 75.6075C209.143 75.6075 208.305 75.086 207.936 74.2283C192.722 38.9023 157.071 16.0764 117.108 16.0764C77.1444 16.0764 41.5269 38.8818 26.2983 74.1766C25.8242 75.2756 24.58 75.8219 23.451 75.4265C22.3209 75.0321 21.6885 73.8307 22.002 72.6745C33.6088 29.8846 72.7189 0 117.109 0C161.499 0 200.644 29.9072 212.233 72.7284C212.546 73.8846 211.912 75.0849 210.782 75.4793C210.534 75.5655 210.28 75.6064 210.031 75.6064V75.6075ZM117.109 11.5121C147.27 11.5121 175.093 23.9702 194.232 44.8156C177.009 20.1677 148.441 4.56324 117.109 4.56324C85.7768 4.56324 57.2338 20.1569 40.0079 44.7898C59.1493 23.9605 86.965 11.5121 117.109 11.5121Z" fill="#243D66"/>
<path d="M213.38 98.5822C213.38 106.917 212.324 115.014 210.336 122.724C210.336 122.724 210.327 122.724 210.327 122.732C193.626 155.006 158.155 182.776 117.106 182.776C76.0563 182.776 40.5929 155.007 23.8916 122.732C23.8916 122.724 23.8829 122.724 23.8829 122.724C21.8856 115.014 20.8299 106.917 20.8299 98.5822C20.8299 94.9381 21.0324 91.3392 21.4375 87.8007C34.4254 51.8561 72.3418 25.8484 117.105 25.8484C161.867 25.8484 199.802 51.8734 212.781 87.8265C213.178 91.3554 213.379 94.9467 213.379 98.5822H213.38Z" fill="#243D66"/>
<g opacity="0.35">
<path d="M213.384 98.5843C213.384 106.919 212.329 115.016 210.34 122.726C210.34 122.726 210.331 122.726 210.331 122.734C193.63 155.009 158.159 182.776 117.11 182.776C76.0606 182.776 40.5972 155.009 23.8959 122.735C23.8959 122.727 23.8873 122.727 23.8873 122.727C22.699 118.132 21.8458 113.406 21.3438 108.565C42.9285 132.821 74.3165 150.467 109.26 150.467C153.776 150.467 192.546 121.828 212.61 87.3621C212.671 87.5205 212.733 87.6702 212.786 87.8286C213.182 91.3574 213.383 94.9488 213.383 98.5832L213.384 98.5843Z" fill="#111A28"/>
</g>
<path d="M117.106 184.064C97.5592 184.064 78.0353 177.791 60.6424 165.921C44.8665 155.154 31.4251 140.056 22.7895 123.404C22.7227 123.295 22.6699 123.175 22.6365 123.047C20.5832 115.122 19.5425 106.89 19.5425 98.5821C19.5425 94.9013 19.7494 91.2238 20.1577 87.654C20.1695 87.5549 20.1922 87.4569 20.2266 87.3631C26.7755 69.2405 39.3702 53.6469 56.6478 42.2706C74.2422 30.6852 95.1492 24.5618 117.106 24.5618C139.062 24.5618 159.975 30.6885 177.574 42.2803C194.855 53.663 207.449 69.2621 213.993 87.3901C214.028 87.4849 214.05 87.5829 214.062 87.6831C214.464 91.2658 214.668 94.9326 214.668 98.5821C214.668 106.879 213.63 115.11 211.582 123.046C211.549 123.175 211.497 123.295 211.429 123.404C202.794 140.056 189.352 155.153 173.572 165.921C156.177 177.791 136.651 184.064 117.106 184.064ZM25.0885 122.244C40.4022 151.751 74.769 181.489 117.105 181.489C159.44 181.489 193.814 151.753 209.128 122.245C211.094 114.568 212.091 106.607 212.091 98.5821C212.091 95.0802 211.898 91.5611 211.518 88.1217C198.272 51.6373 160.351 27.137 117.103 27.137C73.8554 27.137 35.9508 51.6276 22.699 88.0969C22.3123 91.5234 22.1173 95.05 22.1173 98.5821C22.1173 106.617 23.117 114.578 25.0895 122.244H25.0885Z" fill="#243D66"/>
<path d="M197.873 98.845C199.345 89.6652 195.146 81.3588 188.496 80.2921C181.845 79.2254 175.26 85.8024 173.789 94.9822C172.317 104.162 176.515 112.468 183.166 113.535C189.817 114.602 196.401 108.025 197.873 98.845Z" fill="#EBEDEE"/>
<path d="M177.903 132.494C179.154 128.414 177.33 124.236 173.83 123.162C170.329 122.089 166.477 124.525 165.226 128.605C163.975 132.685 165.799 136.863 169.3 137.937C172.8 139.01 176.652 136.574 177.903 132.494Z" fill="#EBEDEE"/>
<path d="M43.0211 127.182C43.0211 127.182 26.7949 78.9304 52.5692 59.0494C78.3434 39.1683 115.99 38.4841 115.158 40.916C115.158 40.916 73.6863 51.8516 58.0472 85.1358C45.9869 110.802 43.0211 127.182 43.0211 127.182Z" fill="#EBEDEE"/>
</svg>
