<svg width="281" height="275" viewBox="0 0 281 275" fill="none" xmlns="http://www.w3.org/2000/svg">
<path d="M87.4322 213.708C86.6075 221.345 80.5945 224.697 68.2753 222.996C55.957 221.295 51.5595 226.644 50.8052 227.667C48.2563 231.127 30.2738 263.613 49.5908 271.479C63.2149 277.028 75.9143 255.73 75.9143 255.73C75.9143 255.73 108.379 274.684 149.11 225.249" fill="white"/>
<path d="M98.6545 252.156C88.2961 248.525 80.2361 238.96 74.6877 223.708C74.3118 222.677 74.8564 221.541 75.9021 221.171C76.9478 220.8 78.1004 221.336 78.4754 222.368C83.7289 236.808 91.2182 245.672 100.725 248.658C113.991 252.848 126.887 244.184 127.015 244.096C127.929 243.472 129.182 243.695 129.816 244.597C130.449 245.497 130.222 246.733 129.308 247.357C128.716 247.762 114.632 257.218 99.4965 252.437C99.2138 252.348 98.9328 252.255 98.6536 252.156H98.6545Z" fill="#243D66"/>
<path d="M49.5395 273.583C49.3003 273.499 49.0628 273.409 48.8227 273.311C44.0441 271.365 40.9201 267.933 39.5378 263.11C35.6466 249.538 47.3707 228.952 49.1776 226.5C50.4564 224.765 55.6299 219.246 68.5546 221.03C75.1444 221.94 79.8499 221.353 82.5388 219.283C84.203 218.002 85.1495 216.11 85.4314 213.498C85.5488 212.409 86.5406 211.62 87.6454 211.735C88.7502 211.851 89.5514 212.828 89.434 213.918C89.0355 217.603 87.5488 220.461 85.0156 222.411C81.3836 225.206 75.8168 226.04 67.997 224.96C57.0175 223.445 53.1062 227.92 52.4338 228.832C50.8487 230.983 39.9997 250.133 43.4108 262.031C44.4556 265.676 46.7287 268.165 50.3598 269.644C62.211 274.445 74.0622 254.919 74.1813 254.721L75.2053 253.009L76.9408 254.021C77.013 254.062 84.8381 258.463 97.3104 257.02C108.923 255.677 127.065 248.857 147.55 223.995C148.25 223.145 149.519 223.016 150.381 223.706C151.244 224.397 151.375 225.647 150.674 226.497C129.204 252.556 109.886 259.641 97.4618 260.997C87.1878 262.118 79.842 259.676 76.6511 258.295C73.3053 263.28 62.1397 277.999 49.5412 273.583H49.5395Z" fill="#243D66"/>
<path d="M138.642 133.927C137.36 133.779 109.929 122.863 92.0168 124.108C77.0826 125.145 51.4377 176.48 57.1949 189.281C62.5303 201.143 89.019 210.73 89.019 210.73L138.643 133.927L138.642 133.927Z" fill="white"/>
<path d="M138.641 133.927L130.577 146.411L89.0164 210.73C89.0164 210.73 76.1735 206.082 66.5729 199.25C62.385 196.276 58.8182 192.886 57.1958 189.281C51.4377 176.482 77.0826 125.144 92.0185 124.107C109.929 122.863 137.358 133.779 138.641 133.927V133.927Z" fill="white"/>
<g opacity="0.35">
<path d="M130.576 146.411L89.0155 210.73C89.0155 210.73 89.0077 210.73 88.9955 210.724C88.9364 210.7 88.7493 210.632 88.4431 210.517C88.3839 210.493 88.3161 210.469 88.2448 210.44C88.2326 210.438 88.2204 210.433 88.2047 210.427C88.1412 210.403 88.0699 210.374 87.9986 210.349C87.8289 210.278 87.6341 210.206 87.4201 210.122C87.3687 210.1 87.3131 210.08 87.2574 210.057C87.2061 210.038 87.1582 210.016 87.1069 209.998C87.0442 209.97 86.9764 209.945 86.9094 209.916C86.2239 209.645 85.3896 209.301 84.4466 208.898C84.3318 208.851 84.2135 208.801 84.0952 208.749C83.7402 208.595 83.3696 208.435 82.9877 208.265C82.8616 208.209 82.732 208.152 82.6015 208.096C82.451 208.032 82.2979 207.96 82.1404 207.892C81.9516 207.803 81.7585 207.718 81.5619 207.628C81.5027 207.604 81.4479 207.578 81.3931 207.55C81.2522 207.484 81.1095 207.422 80.9642 207.355C80.5597 207.166 80.1465 206.976 79.7272 206.777C79.715 206.772 79.7002 206.762 79.6846 206.756C79.394 206.618 79.0965 206.475 78.7981 206.328C78.7903 206.327 78.7824 206.322 78.7746 206.317C78.5589 206.213 78.3431 206.108 78.1239 206C77.9865 205.933 77.8499 205.864 77.7089 205.793C77.1887 205.533 76.6563 205.267 76.1213 204.988C75.7777 204.811 75.4306 204.625 75.08 204.439C74.7642 204.274 74.4449 204.1 74.1257 203.926C73.8064 203.752 73.488 203.573 73.1653 203.395C72.8469 203.213 72.525 203.029 72.2031 202.847C71.8812 202.66 71.5637 202.474 71.247 202.283C70.926 202.093 70.6085 201.902 70.2927 201.703C70.2898 201.706 70.2884 201.706 70.2884 201.703C69.9717 201.509 69.6559 201.311 69.3436 201.112C69.0278 200.91 68.7164 200.708 68.405 200.506C68.3545 200.475 68.3049 200.441 68.2588 200.41C67.9978 200.235 67.7377 200.059 67.4802 199.885C67.174 199.676 66.8721 199.462 66.5703 199.25C62.3824 196.275 58.8156 192.885 57.1932 189.28C54.1893 182.6 59.736 165.428 67.8517 150.385C64.4032 159.844 62.8687 168.298 64.7738 172.536C65.4402 174.019 66.4354 175.465 67.6699 176.861C69.1122 178.492 70.7033 179.891 72.4041 181.054C81.4758 162.766 98.9781 141.103 109.041 141.53C114.861 141.78 121.525 143.408 127.919 145.508C128.81 145.801 129.699 146.102 130.575 146.409L130.576 146.411Z" fill="#371A45"/>
</g>
<path d="M89.8455 213.143L88.3248 212.592C87.2104 212.189 60.9713 202.572 55.355 190.084C51.5586 181.645 59.5681 159.756 69.5037 143.472C74.2127 135.753 83.3801 122.719 91.875 122.128C107.226 121.062 128.615 128.423 136.666 131.194C137.691 131.547 138.661 131.881 138.972 131.967L142.064 132.322L89.8446 213.142L89.8455 213.143ZM135.554 135.014C135.485 134.99 135.414 134.966 135.341 134.941C128.253 132.502 106.683 125.078 92.1586 126.087C87.4244 126.416 80.0656 133.861 72.9539 145.518C62.5816 162.518 56.2076 182.191 59.0349 188.477C63.2671 197.888 82.6337 206.094 88.2091 208.292L135.554 135.015V135.014ZM138.897 131.959C138.89 131.958 138.884 131.957 138.878 131.957L138.897 131.959Z" fill="#243D66"/>
<path d="M90.9633 123.315C92.3439 124.641 93.6645 125.969 94.9842 127.324C96.2987 128.678 97.5957 130.049 98.8615 131.452C100.127 132.856 101.376 134.277 102.567 135.76C103.757 137.244 104.916 138.759 105.947 140.411C106.279 140.945 106.111 141.643 105.57 141.972C105.048 142.288 104.37 142.144 104.024 141.654L104.013 141.64C102.986 140.179 101.793 138.784 100.567 137.42C99.3408 136.054 98.0446 134.735 96.7319 133.432C95.4183 132.129 94.0716 130.854 92.7067 129.596C91.3444 128.343 89.9533 127.093 88.5649 125.9L88.5553 125.891C87.815 125.256 87.7385 124.148 88.3831 123.419C89.0277 122.689 90.1508 122.614 90.8903 123.249C90.9137 123.269 90.9407 123.294 90.9625 123.315H90.9633Z" fill="#371A45"/>
<path d="M66.231 152.281L79.4184 161.333C80.5954 162.141 81.0739 163.629 80.5763 164.955C78.7537 169.813 73.9543 180.816 67.6011 181.675C62.3276 182.388 56.6895 178.663 54.9783 173.82C53.0645 168.402 58.6991 158.149 61.736 153.217C62.6799 151.683 64.7382 151.255 66.231 152.28V152.281Z" fill="white"/>
<g opacity="0.35">
<path d="M80.5745 164.956C78.7555 169.813 73.9534 180.817 67.6003 181.674C62.3258 182.388 56.6886 178.663 54.9766 173.818C53.8022 170.485 55.4803 165.324 57.6534 160.698C56.9688 163.242 56.8835 165.582 57.4011 167.451C60.3676 178.161 70.2623 173.328 70.2623 173.328C70.2623 173.328 70.0213 175.76 70.6746 176.286C73.4071 178.485 78.3353 168.856 80.7676 163.816C80.7781 164.194 80.7172 164.58 80.5745 164.956V164.956Z" fill="#371A45"/>
</g>
<path d="M61.9057 182.974C57.937 181.583 54.4755 178.428 53.0784 174.472C51.034 168.686 55.7221 159.16 60.0161 152.187C60.7521 150.991 61.9718 150.138 63.3602 149.848C64.7495 149.559 66.2145 149.852 67.3819 150.652L80.5693 159.704C82.4997 161.029 83.28 163.471 82.4649 165.643C80.0995 171.947 75.0582 182.669 67.8752 183.64C65.8847 183.909 63.836 183.649 61.9065 182.974L61.9057 182.974ZM64.8086 153.77C64.5555 153.681 64.3258 153.703 64.1927 153.731C64.0126 153.769 63.6786 153.886 63.4568 154.247C58.1797 162.816 55.7213 169.89 56.8792 173.168C58.3328 177.284 63.1175 180.279 67.328 179.71C71.6524 179.125 76.0326 171.349 78.6894 164.267C78.8677 163.791 78.6955 163.254 78.2692 162.961L65.0818 153.909C64.9905 153.846 64.8982 153.801 64.8095 153.77H64.8086Z" fill="#371A45"/>
<path d="M59.7352 177.858C59.7647 177.87 60.0005 177.881 60.158 177.879C60.338 177.876 60.5207 177.87 60.7112 177.849C61.087 177.816 61.4733 177.755 61.8569 177.666C62.6225 177.485 63.3985 177.242 64.1336 176.879C65.6212 176.192 67.0078 175.19 68.2292 173.984C69.4471 172.777 70.5146 171.38 71.5272 169.898C72.0291 169.162 72.5032 168.41 72.9356 167.641C73.3549 166.885 73.7803 166.048 74.0126 165.314L74.0335 165.248C74.1205 164.973 74.4171 164.819 74.6964 164.905C74.9556 164.985 75.1087 165.243 75.0591 165.5C74.8625 166.526 74.5302 167.348 74.1753 168.227C73.8142 169.086 73.4115 169.922 72.98 170.741C72.1231 172.365 71.1583 173.995 69.95 175.502C68.7416 176.999 67.2784 178.356 65.5507 179.409C64.6982 179.953 63.7586 180.381 62.7765 180.732C62.2832 180.905 61.7752 181.049 61.2462 181.157C60.9844 181.215 60.7121 181.258 60.4355 181.295C60.1371 181.328 59.9135 181.359 59.4855 181.353L59.0062 181.347C57.9901 181.335 57.1767 180.513 57.1897 179.511C57.2019 178.509 58.0362 177.707 59.0523 177.72C59.2924 177.723 59.5272 177.774 59.7369 177.859L59.7352 177.858Z" fill="#371A45"/>
<path d="M171.679 174.208C171.679 174.208 177.884 174.711 187.458 173.476C206.609 171.001 239.256 161.592 262.81 127.36C265.881 122.899 281.823 120.26 277.129 111.582C275.705 108.948 272.345 108.56 272.345 108.56C272.345 108.56 277.109 106.322 275.692 101.38C273.45 93.5722 259.062 97.7679 259.062 97.7679C259.062 97.7679 263.654 92.4323 264.466 87.6062C265.029 84.2235 262.492 81.3332 260.345 80.6513C254.252 78.7207 242.499 88.2769 235.325 93.6528C228.565 98.7157 224.388 105.016 220.077 111.485C213.35 121.568 206.285 132.06 188.556 138.914C182.617 141.206 175.483 143.095 166.764 144.42L170.077 164.51L171.68 174.208H171.679Z" fill="white"/>
<g opacity="0.35">
<path d="M171.679 174.208C171.679 174.208 177.884 174.711 187.458 173.477C206.609 171.001 239.256 161.592 262.81 127.36C265.409 123.589 277.216 121.117 277.95 115.193C276.475 112.493 265.884 121.005 262.98 121.988C257.347 123.896 255.897 120.529 255.573 119.04C254.344 113.379 275.667 109.197 275.651 104.183C275.631 97.7817 269.378 109.401 253.172 110.613C248.046 110.997 246.415 104.821 246.242 105.272C241.161 118.531 251.644 126.828 246.295 135.61C230.311 161.855 203.762 159.362 187.551 161.457C177.977 162.692 171.772 162.189 171.772 162.189L170.169 152.49L168.784 144.094C168.12 144.209 167.444 144.316 166.762 144.42L170.075 164.51L171.678 174.208H171.679Z" fill="#371A45"/>
</g>
<path d="M171.004 176.078C170.165 175.784 169.598 174.962 169.674 174.047C169.764 172.955 170.736 172.142 171.843 172.231C171.979 172.241 185.762 173.259 203.59 168.091C219.98 163.341 243.271 152.224 261.147 126.244C262.462 124.333 265.188 122.916 268.073 121.417C271.38 119.698 275.127 117.751 275.849 115.433C276.115 114.578 275.953 113.625 275.354 112.516C274.454 110.853 272.118 110.531 272.095 110.528C271.211 110.416 270.501 109.738 270.362 108.87C270.223 108.002 270.672 107.146 271.476 106.768C271.793 106.613 274.666 105.099 273.754 101.919C273.452 100.867 272.846 100.125 271.849 99.5819C268.436 97.7268 261.872 99.0167 259.631 99.6694C258.778 99.9181 257.86 99.5845 257.375 98.8495C256.889 98.1144 256.951 97.1521 257.526 96.4831C257.568 96.4351 261.77 91.4975 262.478 87.2812C262.883 84.8659 260.903 82.9079 259.73 82.5374C255.191 81.0999 244.801 88.9751 238.594 93.6803C237.878 94.2232 237.191 94.7429 236.542 95.2292C230.113 100.044 226.106 106.053 221.865 112.414C212.948 125.786 202.841 140.942 167.072 146.379C165.975 146.546 164.946 145.804 164.777 144.72C164.607 143.638 165.36 142.624 166.459 142.457C200.46 137.289 209.632 123.535 218.501 110.233C222.743 103.873 227.129 97.2954 234.108 92.0687C234.751 91.5867 235.431 91.0712 236.141 90.5334C246.138 82.9568 254.906 76.8416 260.961 78.7585C264.175 79.7782 267.158 83.7072 266.45 87.9278C266.042 90.3576 264.822 92.8457 263.601 94.851C266.776 94.4728 270.79 94.4753 273.793 96.1058C275.74 97.1641 277.031 98.756 277.629 100.838C278.496 103.859 277.591 106.242 276.254 107.907C277.243 108.513 278.226 109.389 278.906 110.648C280.02 112.706 280.286 114.707 279.698 116.596C278.485 120.49 273.951 122.846 269.951 124.925C267.63 126.131 265.23 127.379 264.479 128.47C245.891 155.487 221.636 167.023 204.562 171.944C186.05 177.279 172.102 176.23 171.517 176.183C171.339 176.169 171.167 176.132 171.005 176.075L171.004 176.078Z" fill="#243D66"/>
<path d="M5.33098 220.242C14.9821 230.249 27.4387 216.965 27.4387 216.965C27.4387 216.965 39.0385 243.879 60.445 248.417C78.4327 252.228 99.748 239.528 99.748 239.528C99.748 239.528 175.918 255.902 187.458 173.476C188.247 167.825 188.736 161.706 188.873 155.09C188.98 150.002 188.879 144.616 188.555 138.914C188.379 135.934 188.146 132.87 187.848 129.717L125.351 127.624L118.148 127.387L116.351 127.324C116.272 127.724 116.193 128.118 116.109 128.515C113.66 139.797 108.075 148.547 101.959 155.608C94.2012 164.573 85.5923 170.817 81.4627 176.056C79.187 178.94 77.4401 181.72 76.1396 184.099C73.8099 188.343 72.886 191.316 72.886 191.316C70.2736 193.598 61.9552 200.24 54.5347 196.026C51.9623 194.563 50.125 191.941 48.4773 189.062C45.5578 183.971 43.222 178.087 38.393 176.399C31.423 173.963 23.751 176.944 17.511 182.015C13.6154 185.181 10.2801 189.168 8.02344 193.16C4.12785 200.038 -1.72335 212.937 5.33011 220.243L5.33098 220.242Z" fill="white"/>
<g opacity="0.35">
<path d="M3.672 218.044C4.12089 218.821 4.66982 219.558 5.33098 220.242C14.9821 230.249 27.4387 216.965 27.4387 216.965C27.4387 216.965 39.0385 243.879 60.445 248.417C78.4327 252.228 99.748 239.528 99.748 239.528C99.748 239.528 173.875 255.463 186.955 176.755C172.423 232.21 123.704 231.833 107.341 230.056C103.815 229.672 100.257 230.269 97.0625 231.788C89.7289 235.276 75.3444 240.838 62.6242 238.143C41.2177 233.607 34.4817 207.017 25.2578 205.246C23.1021 204.833 20.1634 227.659 3.67113 218.045L3.672 218.044Z" fill="#371A45"/>
</g>
<path d="M55.9283 249.208C39.9171 243.596 30.072 226.749 26.7924 220.277C24.0955 222.533 19.1395 225.921 13.6615 225.958C9.97297 225.984 6.67851 224.522 3.87122 221.611C-2.00521 215.52 -1.1779 205.347 6.26442 192.192C13.0265 180.239 27.1438 170.365 39.0637 174.528L39.075 174.532C43.7909 176.186 46.3164 180.877 48.76 185.414C50.6826 188.985 52.6713 192.677 55.5412 194.309C61.0714 197.452 67.5411 193.236 71.1496 190.175C71.8212 188.278 74.3379 181.865 79.8742 174.841C81.9142 172.253 84.8868 169.529 88.3283 166.376C97.7715 157.724 110.705 145.875 114.373 126.953C114.582 125.876 115.637 125.171 116.727 125.376C117.821 125.581 118.534 126.622 118.326 127.697C114.411 147.896 100.919 160.256 91.0677 169.282C87.7541 172.318 84.8929 174.939 83.0521 177.274C77.0617 184.876 74.8295 191.831 74.8068 191.9L74.6407 192.429L74.2196 192.798C66.8617 199.232 59.3219 201.034 53.5308 197.746C49.6578 195.545 47.3942 191.341 45.2037 187.275C43.0254 183.229 40.968 179.408 37.7249 178.271L37.7179 178.268C27.9337 174.85 15.5962 183.838 9.77723 194.124C6.06782 200.681 0.745536 212.616 6.78552 218.876C8.82117 220.985 11.0569 222.005 13.6189 221.99C19.9111 221.955 25.9007 215.68 25.9607 215.617L28.0703 213.38L29.2873 216.189C29.3996 216.449 40.7462 242.213 60.8687 246.477C77.8447 250.074 98.4987 237.949 98.7049 237.825L99.3895 237.418L100.173 237.585C100.533 237.662 136.445 245.018 161.672 222.974C181.885 205.311 190.018 173.996 185.845 129.9C185.741 128.809 186.555 127.842 187.661 127.74C188.768 127.639 189.748 128.441 189.852 129.531C194.154 174.978 185.56 207.425 164.311 225.969C139.341 247.76 105.783 242.674 100.099 241.617C96.1882 243.819 76.9538 253.943 60.0222 250.357C58.6147 250.058 57.248 249.671 55.9248 249.207L55.9283 249.208Z" fill="#243D66"/>
<path d="M232.957 98.4C237.497 90.4425 247.98 88.0067 250.084 88.2855C251.686 88.4973 255.73 93.2883 252.032 96.5217C248.334 99.7552 245.113 99.8607 245.254 101.371C245.394 102.881 248.325 108.12 244.403 113.636" fill="white"/>
<path d="M231.203 97.4274C232.415 95.3107 234.05 93.4727 235.894 91.9615C237.74 90.4434 239.793 89.2435 241.945 88.3027C243.022 87.8318 244.122 87.421 245.257 87.0856C246.405 86.7571 247.535 86.4681 248.845 86.3309C249.206 86.3103 249.488 86.2622 249.985 86.2957L250.321 86.3163C250.459 86.3343 250.65 86.3823 250.811 86.4261C251.188 86.5247 251.373 86.6362 251.593 86.7477C252.405 87.2065 252.919 87.6877 253.393 88.2109C254.326 89.2487 255.017 90.4614 255.376 91.9169C255.483 92.2668 255.496 92.6725 255.545 93.0499C255.556 93.4418 255.542 93.8475 255.493 94.2446C255.359 95.0457 255.081 95.8485 254.641 96.5106C254.422 96.8417 254.2 97.1813 253.933 97.4377C253.684 97.6985 253.388 98.0235 253.174 98.1865C252.718 98.5853 252.239 98.961 251.748 99.3178C250.762 100.023 249.714 100.654 248.701 101.187C248.209 101.451 247.705 101.697 247.363 101.9C247.3 101.943 247.18 102.006 247.163 102.027C247.122 102.055 247.073 102.088 247.114 102.059C247.092 102.066 247.217 101.963 247.252 101.852C247.356 101.704 247.383 101.493 247.403 101.338C247.387 101.084 247.403 101.227 247.398 101.221C247.398 101.257 247.437 101.397 247.454 101.48L247.652 102.22C247.799 102.748 247.925 103.337 248.042 103.921C248.253 105.103 248.354 106.36 248.21 107.607C248.08 108.854 247.719 110.08 247.166 111.18C246.625 112.292 245.821 113.228 244.954 114.014C244.675 114.266 244.241 114.248 243.985 113.974C243.814 113.79 243.766 113.539 243.836 113.317L243.855 113.256C244.178 112.236 244.482 111.29 244.605 110.336C244.731 109.386 244.747 108.466 244.655 107.554C244.554 106.642 244.366 105.743 244.079 104.825C243.941 104.359 243.782 103.907 243.61 103.402L243.348 102.589C243.299 102.411 243.256 102.292 243.206 102.063C243.163 101.79 243.096 101.669 243.119 101.145C243.119 100.715 243.27 100.253 243.469 99.8547C243.662 99.5253 243.926 99.1857 244.121 99.0227C244.352 98.7963 244.529 98.6762 244.71 98.5484C244.909 98.4035 245.037 98.3477 245.206 98.2448C245.813 97.9137 246.299 97.6933 246.781 97.466C247.717 97.0209 248.578 96.5818 249.373 96.0312C251.244 94.7215 251.732 94.1305 251.453 92.7977C251.24 91.5618 249.555 89.6698 249.24 90.2787C248.371 90.3662 247.368 90.6081 246.418 90.8843C245.456 91.1681 244.506 91.5232 243.582 91.9272C239.883 93.5302 236.602 96.0689 234.714 99.3718L234.711 99.3769C234.165 100.332 232.938 100.669 231.97 100.13C231.002 99.5913 230.66 98.382 231.206 97.4274H231.203Z" fill="#243D66"/>
<path d="M187.741 185.112L167.097 215.284L144.715 218.691L132.88 220.493C132.88 220.493 123.511 217.533 121.246 216.781C118.172 215.768 119.186 212.11 120.472 210.041C122.673 206.499 124.368 202.997 125.737 199.659C127.945 194.27 129.308 189.297 130.599 185.22C131.658 181.873 134.871 179.64 138.425 179.817C159.634 180.885 180.374 179.641 180.374 179.641L187.741 185.111V185.112Z" fill="white"/>
<path d="M120.502 218.628C119.052 218.119 118.025 217.144 117.53 215.801C116.707 213.568 117.623 210.826 118.755 209.004C123.596 201.212 125.93 193.58 127.805 187.449C128.105 186.469 128.393 185.527 128.678 184.629C130.015 180.406 134.065 177.612 138.527 177.836C159.374 178.884 180.047 177.674 180.253 177.662C180.731 177.634 181.203 177.773 181.585 178.057L188.951 183.525C189.807 184.16 190.008 185.344 189.41 186.22L168.766 216.394C168.452 216.852 167.959 217.161 167.405 217.246L133.186 222.455C132.877 222.502 132.562 222.477 132.265 222.384C131.882 222.263 122.857 219.408 120.606 218.665C120.572 218.654 120.537 218.642 120.502 218.63V218.628ZM179.752 181.663C175.839 181.87 157.156 182.745 138.322 181.799C135.696 181.666 133.309 183.317 132.519 185.811C132.238 186.698 131.955 187.626 131.658 188.594C129.716 194.944 127.299 202.848 122.187 211.076C121.442 212.274 121.058 213.755 121.313 214.445C121.355 214.558 121.419 214.741 121.886 214.901C123.827 215.543 131.141 217.859 133.04 218.461L165.921 213.455L185.004 185.561L179.751 181.663H179.752Z" fill="#243D66"/>
<g opacity="0.3">
<path d="M144.715 218.691L132.88 220.493C132.88 220.493 123.511 217.533 121.246 216.781C118.899 216.009 118.934 213.689 119.655 211.716C119.878 211.105 120.17 210.531 120.472 210.041C122.673 206.499 124.368 202.997 125.737 199.659C126.303 201.118 127.636 199.496 131.337 198.129C135.718 196.511 137.657 192.67 140.217 191.648C147.685 188.663 146.161 210.207 144.714 218.69L144.715 218.691Z" fill="#371A45"/>
</g>
<path d="M174.698 204.731C173.818 207.554 173.046 211.138 173.046 211.138C173.046 211.138 167.073 209.929 166.603 209.787C165.046 209.315 164.805 205.651 166.068 201.605C167.33 197.558 169.615 194.66 171.172 195.132C172.312 195.478 177.12 196.398 177.12 196.398C177.12 196.398 175.038 203.645 174.698 204.731V204.731Z" fill="white"/>
<path d="M178.755 204.882C180.017 200.835 179.359 197.045 177.286 196.416C175.212 195.788 172.508 198.559 171.247 202.606C169.985 206.653 170.642 210.443 172.716 211.071C174.789 211.7 177.493 208.929 178.755 204.882Z" fill="white"/>
<path d="M187.293 186.719C185.853 189.634 183.581 194.272 181.049 199.057C177.424 205.903 173.274 213.039 170.293 215.809C165.105 220.625 145.474 221.446 132.876 220.493C129.57 220.243 127.491 216.951 129.177 214.134C131.934 209.523 134.273 204.966 136.152 200.982C137.932 197.212 139.301 193.957 140.218 191.649C141.06 189.532 143.226 188.231 145.521 188.442C165.474 190.295 179.444 186.753 185.509 184.716C186.743 184.302 187.865 185.561 187.294 186.719H187.293Z" fill="white"/>
<g opacity="0.3">
<path d="M176.349 207.454C174.577 210.404 172.85 212.989 171.331 214.721C170.973 215.135 170.625 215.5 170.292 215.808C165.104 220.625 145.473 221.445 132.875 220.492C129.569 220.242 127.49 216.95 129.176 214.133C131.933 209.522 134.272 204.965 136.151 200.981C136.987 204.441 140.247 211.825 152.942 213.755C156.229 214.252 159.601 213.646 162.898 212.351C162.33 210.879 162.462 208.175 163.366 205.276C164.624 201.23 166.913 198.332 168.469 198.803C169.421 199.093 172.931 199.78 174.064 200.002C174.24 200.009 174.414 200.035 174.585 200.088C175.685 200.419 176.386 201.648 176.615 203.329C176.776 204.529 176.697 205.957 176.349 207.454H176.349Z" fill="#371A45"/>
</g>
<g opacity="0.3">
<path d="M176.349 207.454C176.697 205.957 176.777 204.529 176.616 203.329C178.209 201.903 179.702 200.45 181.048 199.057C179.533 201.918 177.926 204.831 176.349 207.454V207.454Z" fill="#371A45"/>
</g>
<path d="M130.895 222.092C129.33 221.543 128.032 220.457 127.261 218.999C126.268 217.121 126.334 214.979 127.444 213.125C132.799 204.175 136.573 195.374 138.346 190.924C139.509 188.005 142.538 186.173 145.711 186.468C165.026 188.259 178.529 184.962 184.858 182.838C186.191 182.391 187.653 182.775 188.585 183.814C189.517 184.856 189.721 186.336 189.104 187.586L188.754 188.294C184.887 196.135 176.839 212.45 171.671 217.25C165.001 223.445 141.294 223.119 132.723 222.471C132.086 222.423 131.473 222.294 130.895 222.091V222.092ZM142.091 192.375C140.275 196.935 136.407 205.955 130.91 215.141C130.378 216.029 130.632 216.791 130.83 217.166C131.238 217.937 132.061 218.442 133.03 218.516C146.999 219.571 164.689 218.284 168.912 214.362C173.45 210.147 181.341 194.248 184.92 186.994C177.855 189.205 164.228 192.17 145.334 190.418C143.936 190.289 142.602 191.093 142.09 192.375H142.091Z" fill="#243D66"/>
<path d="M174.698 204.731C173.818 207.554 173.046 211.138 173.046 211.138C173.046 211.138 167.073 209.929 166.603 209.787C165.046 209.315 164.805 205.651 166.068 201.605C167.33 197.558 169.615 194.66 171.172 195.132C172.312 195.478 177.12 196.398 177.12 196.398C177.12 196.398 175.038 203.645 174.698 204.731V204.731Z" fill="#C282FA"/>
<g opacity="0.8">
<path d="M177.119 196.399C177.119 196.399 175.036 203.643 174.7 204.732C173.817 207.554 173.048 211.139 173.048 211.139C173.048 211.139 172.929 211.113 172.727 211.075C173.022 209.904 173.389 208.495 173.781 207.242C174.122 206.155 176.204 198.906 176.204 198.906C176.204 198.906 171.394 197.986 170.254 197.643C168.992 197.257 167.242 199.098 165.954 201.975C165.993 201.851 166.028 201.73 166.067 201.606C167.33 197.559 169.614 194.661 171.174 195.133C172.315 195.476 177.12 196.399 177.12 196.399H177.119Z" fill="white"/>
</g>
<g opacity="0.3">
<path d="M174.305 206.084C173.598 208.58 173.047 211.139 173.047 211.139C173.047 211.139 167.074 209.928 166.602 209.785C165.046 209.313 164.806 205.652 166.065 201.606C166.49 200.241 167.032 199.004 167.626 197.985C166.789 201.489 167.133 204.448 168.517 204.867C168.892 204.979 172.737 205.764 174.304 206.084H174.305Z" fill="#371A45"/>
</g>
<path d="M166.076 211.066C163.339 210.106 163.45 205.306 164.731 201.2C165.39 199.087 166.34 197.179 167.406 195.828C169.221 193.526 170.802 193.58 171.582 193.815C172.458 194.081 176.068 194.793 177.386 195.046C177.768 195.118 178.105 195.348 178.309 195.677C178.514 196.005 178.57 196.403 178.463 196.774C178.378 197.071 176.372 204.049 176.033 205.137C175.182 207.867 174.419 211.389 174.411 211.425C174.252 212.165 173.516 212.64 172.764 212.489C170.948 212.122 166.672 211.251 166.189 211.104C166.151 211.092 166.113 211.08 166.076 211.067L166.076 211.066ZM170.809 196.463C170.275 196.574 168.554 198.315 167.402 202.009C166.253 205.694 166.679 208.084 167.057 208.481C167.492 208.59 169.693 209.048 171.981 209.514C172.289 208.196 172.8 206.126 173.361 204.326C173.599 203.563 174.736 199.627 175.36 197.459C173.845 197.159 171.64 196.707 170.808 196.462L170.809 196.463Z" fill="#243D66"/>
<path d="M178.755 204.882C180.017 200.835 179.359 197.045 177.286 196.416C175.212 195.788 172.508 198.559 171.247 202.606C169.985 206.653 170.642 210.443 172.716 211.071C174.789 211.7 177.493 208.929 178.755 204.882Z" fill="#C282FA"/>
<g opacity="0.8">
<path d="M178.754 204.88C178.67 205.145 178.583 205.401 178.487 205.652C178.994 202.457 178.244 199.779 176.535 199.257C174.597 198.67 172.104 201.056 170.758 204.679C170.866 204.005 171.028 203.31 171.246 202.607C172.509 198.56 175.212 195.786 177.286 196.417C179.359 197.044 180.018 200.834 178.755 204.88H178.754Z" fill="white"/>
</g>
<g opacity="0.3">
<path d="M178.64 205.225C177.339 209.085 174.731 211.678 172.715 211.07C170.642 210.443 169.987 206.654 171.246 202.607C171.907 200.491 172.958 198.725 174.109 197.609C174.072 197.721 174.034 197.833 174.001 197.946C172.742 201.992 173.397 205.783 175.474 206.409C176.459 206.711 177.59 206.236 178.641 205.225H178.64Z" fill="#371A45"/>
</g>
<path d="M172.162 212.341C169.37 211.363 168.4 207.047 169.911 202.201C171.447 197.273 174.795 194.22 177.696 195.099C179.235 195.557 180.277 196.997 180.649 199.135C180.963 200.943 180.764 203.127 180.091 205.287C178.554 210.215 175.207 213.267 172.306 212.388C172.257 212.374 172.21 212.358 172.162 212.342V212.341ZM176.899 197.741C176.891 197.738 176.884 197.735 176.875 197.733C175.912 197.442 173.708 199.397 172.582 203.011C171.455 206.624 172.17 209.445 173.126 209.754C174.089 210.046 176.292 208.091 177.419 204.477C177.959 202.748 178.132 200.97 177.894 199.6C177.721 198.605 177.341 197.897 176.899 197.742V197.741Z" fill="#243D66"/>
<path d="M147.036 222.054C146.982 222.035 146.928 222.013 146.876 221.987C146.186 221.646 145.908 220.818 146.254 220.138L152.65 207.578L149.05 204.743C148.58 204.373 148.403 203.748 148.61 203.191L154.088 188.481C154.352 187.77 155.146 187.405 155.868 187.657L155.882 187.662C156.606 187.925 156.978 188.716 156.712 189.431L151.581 203.209L155.279 206.121C155.795 206.527 155.951 207.235 155.655 207.816L148.752 221.375C148.431 222.003 147.691 222.285 147.036 222.055V222.054Z" fill="#243D66"/>
<path d="M54.5816 248.694C54.3389 248.61 54.1093 248.477 53.9066 248.296C36.527 232.789 53.3281 197.317 54.0519 195.815C54.5286 194.825 55.7247 194.401 56.7321 194.874C57.736 195.344 58.1641 196.526 57.6873 197.516C57.5229 197.858 41.4395 231.821 56.6069 245.353C57.4307 246.088 57.4942 247.343 56.7487 248.155C56.1867 248.767 55.3246 248.953 54.5816 248.694V248.694Z" fill="#243D66"/>
<path d="M220.816 160.731C207.467 156.051 203.636 138.755 203.597 129.011C203.592 127.916 204.49 127.024 205.601 127.02C206.712 127.015 207.617 127.9 207.621 128.996C207.622 129.12 207.701 136.513 210.362 143.78C213.768 153.08 219.666 157.85 227.892 157.957C229.003 157.972 229.892 158.871 229.878 159.966C229.863 161.063 228.95 161.938 227.839 161.924C225.25 161.891 222.915 161.466 220.817 160.731H220.816Z" fill="#243D66"/>
<path d="M273.273 110.017C272.174 110.908 270.88 111.564 269.555 112.052C268.228 112.547 266.862 112.808 265.569 113.044C264.274 113.277 263.028 113.471 261.79 113.753C260.548 114.021 259.319 114.388 258.044 114.8C257.911 114.845 257.764 114.774 257.718 114.642C257.687 114.551 257.713 114.452 257.775 114.386C258.713 113.408 259.815 112.571 260.998 111.857C262.185 111.15 263.448 110.578 264.664 110.07C265.883 109.566 267.028 109.069 268.131 108.589C269.238 108.109 270.285 107.581 271.411 107.103L271.458 107.083C272.351 106.704 273.387 107.111 273.771 107.991C274.089 108.716 273.862 109.54 273.273 110.017V110.017Z" fill="#243D66"/>
<path d="M260.492 98.756C260.198 99.3143 259.936 99.6823 259.612 100.091C259.302 100.487 258.965 100.854 258.613 101.201C257.918 101.907 257.133 102.513 256.343 103.1C255.553 103.689 254.727 104.231 253.883 104.745C253.027 105.247 252.156 105.725 251.222 106.123C251.088 106.18 250.933 106.12 250.874 105.988C250.841 105.912 250.848 105.827 250.886 105.76C251.37 104.879 251.909 104.067 252.446 103.261C252.989 102.462 253.543 101.683 254.101 100.92C254.665 100.161 255.207 99.3941 255.804 98.6942C256.098 98.34 256.395 97.9944 256.708 97.6685C257.004 97.352 257.356 96.99 257.629 96.7816L257.866 96.5998C258.63 96.0166 259.729 96.1547 260.32 96.9077C260.75 97.4549 260.793 98.1788 260.491 98.756H260.492Z" fill="#243D66"/>
<path d="M73.8751 187.62C83.7185 213.801 127.19 215.709 130.538 201.789C131.67 197.079 127.704 194.385 127.704 194.385C127.704 194.385 91.1034 196.557 80.2109 174.419C80.2109 174.419 70.4632 178.544 73.8751 187.62V187.62Z" fill="white"/>
<g opacity="0.3">
<path d="M73.8751 187.618C83.7211 213.799 127.193 215.709 130.539 201.788C130.988 199.92 130.634 198.366 130.044 197.172C122.292 211.236 79.2731 203.88 75.655 179.177C75.5993 178.8 75.4045 178.468 75.3097 178.128C73.5306 180.292 72.3005 183.425 73.8743 187.618H73.8751Z" fill="#371A45"/>
</g>
<path d="M95.3904 209.496C85.0991 205.889 75.9491 198.845 71.9882 188.308C68.7634 179.73 75.4367 174.279 79.4166 172.595C80.404 172.177 81.5515 172.598 82.0212 173.552C92.1934 194.226 127.231 192.424 127.584 192.404C128.031 192.377 128.476 192.5 128.846 192.75C129.054 192.892 133.93 196.284 132.496 202.246C131.128 207.931 124.506 211.674 114.78 212.261C108.518 212.638 101.737 211.72 95.3913 209.496H95.3904ZM79.3862 177.122C77.1739 178.552 73.7995 181.712 75.7612 186.929C81.4227 201.987 99.9628 209.178 114.533 208.301C122.275 207.834 127.656 205.163 128.579 201.331C129.174 198.852 127.783 197.133 127.014 196.401C121.482 196.593 90.8389 196.738 79.3862 177.122V177.122Z" fill="#243D66"/>
<path d="M5.37534 169.37C5.37534 169.37 5.06042 172.744 7.13696 175.179C8.17741 176.396 9.81724 177.658 11.772 178.882C13.5101 179.973 15.4884 181.031 17.5127 182.015C21.9807 184.178 26.6679 185.954 29.4213 186.785C35.2107 188.532 41.7318 189.226 48.479 189.061C57.7021 188.836 67.3462 187.011 76.1404 184.098C84.4057 181.36 91.9168 177.657 97.6018 173.417L101.454 167.059L106.719 158.371L125.353 127.623L129.586 120.639C129.39 120.763 125.055 123.53 118.15 127.387C117.49 127.754 116.812 128.13 116.11 128.515C108.259 132.82 97.6671 138.188 86.2387 142.74C68.445 149.834 48.6121 154.957 33.8945 151.035C16.7541 146.467 8.57758 142.881 4.61675 147.501C0.596771 152.188 6.08086 157.839 6.08086 157.839C6.08086 157.839 2.51324 160.647 2.70463 164.417C2.85165 167.408 5.37621 169.37 5.37621 169.37H5.37534Z" fill="white"/>
<g opacity="0.35">
<path d="M28.0894 163.81C28.0894 163.81 28.3008 164.755 29.149 166.191C28.5766 164.751 28.0894 163.81 28.0894 163.81Z" fill="#371A45"/>
</g>
<g opacity="0.35">
<path d="M11.772 178.882C13.5101 179.973 15.4884 181.031 17.5127 182.015C21.9807 184.178 26.6679 185.954 29.4213 186.785C35.2107 188.532 41.7318 189.226 48.479 189.061C57.7021 188.836 67.3462 187.011 76.1405 184.098C84.4057 181.36 91.9168 177.657 97.6018 173.417C98.8119 171.42 96.7554 169.052 94.5683 169.926C83.3148 174.421 64.8356 180.89 54.9975 179.363C37.5918 176.656 31.3117 169.831 29.1507 166.19C30.8132 170.339 33.196 178.641 26.7088 180.504C24.2269 181.219 16.4992 180.544 11.7729 178.882L11.772 178.882Z" fill="#371A45"/>
</g>
<path d="M129.954 121.188C125.436 125.362 120.262 128.543 114.982 131.517C109.696 134.485 104.206 137.086 98.6727 139.587C87.6097 144.576 76.2379 149.071 64.2771 151.909C58.3067 153.325 52.1632 154.268 45.9118 154.347C42.7905 154.429 39.637 154.139 36.5104 153.636C33.3195 153.009 30.4835 152.162 27.5527 151.354C24.6419 150.538 21.7424 149.697 18.8646 148.934C18.1452 148.742 17.4257 148.554 16.7124 148.387C15.9947 148.205 15.2831 148.048 14.5758 147.905C13.1604 147.609 11.7529 147.385 10.448 147.353C9.13608 147.307 7.9608 147.477 7.14393 147.968C6.33923 148.426 5.60066 149.358 5.33446 150.264C5.30401 150.381 5.2579 150.493 5.23093 150.611L5.19092 150.976C5.13089 151.213 5.19266 151.481 5.17874 151.733C5.24659 152.257 5.35011 152.803 5.58326 153.357C5.78769 153.91 6.08521 154.464 6.42449 154.999C6.59065 155.268 6.77942 155.528 6.96994 155.783C7.15263 156.024 7.38925 156.308 7.53627 156.465L9.00994 158.044L7.33792 159.387C7.24571 159.461 7.03344 159.653 6.88381 159.804C6.72027 159.966 6.56107 160.136 6.40883 160.311C6.10087 160.659 5.82858 161.03 5.5937 161.406C5.11436 162.16 4.81945 162.948 4.74029 163.696C4.6559 164.45 4.78031 165.156 5.13524 165.886C5.30923 166.247 5.53367 166.604 5.799 166.941C5.92775 167.112 6.07477 167.272 6.22092 167.429C6.29487 167.504 6.37055 167.583 6.4445 167.65L6.62109 167.809L7.44232 168.547L7.37968 169.548C7.37359 169.639 7.3675 169.905 7.3762 170.097C7.38229 170.307 7.40056 170.52 7.42318 170.732C7.47102 171.156 7.55715 171.571 7.67285 171.964C7.90947 172.76 8.25049 173.431 8.77245 174.001C9.93904 175.279 11.6389 176.468 13.3718 177.523C16.889 179.638 20.748 181.413 24.6514 182.971C28.5844 184.553 32.4722 185.749 36.607 186.33C37.1194 186.412 37.6274 186.511 38.1424 186.58L39.6987 186.726C40.7383 186.808 41.7692 186.957 42.8157 186.987L45.9536 187.076L46.7383 187.097L47.5247 187.072L49.0976 187.023C51.1967 187.011 53.2907 186.768 55.3863 186.601C56.4329 186.499 57.4733 186.324 58.5172 186.19C59.5612 186.05 60.6051 185.913 61.6377 185.697L64.7451 185.113C65.7751 184.89 66.7973 184.632 67.8238 184.393L69.3628 184.028L70.8834 183.597L73.9212 182.725C77.9316 181.427 81.8072 179.786 85.6019 178.032C89.4183 176.293 93.099 174.462 97.1982 172.889L97.2147 172.883C97.5714 172.747 97.9724 172.92 98.1116 173.272C98.2038 173.506 98.156 173.76 98.009 173.944C95.1921 177.442 91.3757 179.849 87.4653 181.847C86.4692 182.315 85.4671 182.773 84.4562 183.21C83.4488 183.656 82.3988 183.991 81.3731 184.384C79.3262 185.191 77.2131 185.792 75.1391 186.508L71.9769 187.417L70.3936 187.865L68.7921 188.245C67.7238 188.494 66.659 188.761 65.5872 188.994L62.3502 189.602C61.2749 189.825 60.1849 189.97 59.0958 190.117C58.0057 190.258 56.9209 190.439 55.8257 190.545C53.6308 190.723 51.4429 190.973 49.2315 190.989L47.5769 191.04L46.7496 191.065L45.9205 191.043L42.6026 190.948C41.4969 190.915 40.3912 190.761 39.2855 190.672L37.6274 190.514C37.0759 190.441 36.527 190.336 35.9772 190.247C31.577 189.637 27.1795 188.28 23.1517 186.651C19.0803 185.022 15.1012 183.204 11.2622 180.9C9.3527 179.715 7.45971 178.473 5.73202 176.595C4.81336 175.586 4.16613 174.304 3.81119 173.067C3.62677 172.44 3.50063 171.811 3.42842 171.18C3.39449 170.864 3.3684 170.548 3.35796 170.228C3.34926 169.89 3.34491 169.624 3.37623 169.186L4.13481 170.925C3.92168 170.753 3.81641 170.657 3.67809 170.527C3.54499 170.404 3.42494 170.281 3.30228 170.156C3.06392 169.903 2.83338 169.646 2.62286 169.372C2.19572 168.827 1.81643 168.234 1.50412 167.587C0.868194 166.313 0.565456 164.738 0.742923 163.274C0.902992 161.8 1.45453 160.46 2.17223 159.323C2.52978 158.75 2.92647 158.217 3.36144 157.723C3.57805 157.474 3.80249 157.235 4.03825 157.001C4.28879 156.757 4.48627 156.565 4.83163 156.284L4.63329 159.207C4.26704 158.816 4.03129 158.519 3.75813 158.166C3.49976 157.822 3.25095 157.475 3.02216 157.11C2.56109 156.383 2.14526 155.615 1.82687 154.771C1.48672 153.944 1.27706 153.021 1.17267 152.069C1.16745 151.578 1.10395 151.097 1.18833 150.597L1.28402 149.854C1.33622 149.609 1.41451 149.367 1.48324 149.125C1.75727 148.154 2.27314 147.273 2.86122 146.516C3.46322 145.749 4.22615 145.063 5.11436 144.545C5.5415 144.261 6.02606 144.12 6.48625 143.918C6.95254 143.735 7.41796 143.673 7.88685 143.556C8.80377 143.406 9.71198 143.344 10.5576 143.386C12.2731 143.434 13.859 143.702 15.3953 144.019C16.1669 144.175 16.929 144.344 17.6745 144.533C18.4296 144.709 19.1708 144.903 19.9085 145.1C22.8637 145.884 25.7606 146.724 28.6592 147.537C31.5431 148.337 34.5 149.199 37.2386 149.732C40.0685 150.181 42.9541 150.459 45.8744 150.378C51.7082 150.306 57.5829 149.419 63.3489 148.047C69.1218 146.684 74.8121 144.889 80.4118 142.835C86.0082 140.771 91.5349 138.481 96.9407 135.929C102.355 133.391 107.621 130.556 112.948 127.835C118.26 125.083 123.556 122.307 129.227 120.079L129.24 120.073C129.589 119.936 129.985 120.104 130.124 120.449C130.231 120.712 130.155 121.004 129.957 121.188L129.954 121.188Z" fill="#243D66"/>
<path d="M226.308 105.488C185.995 201.009 49.476 150.56 78.0317 54.9846C116.944 -43.7602 258.011 8.51757 226.308 105.488Z" fill="white"/>
<path d="M226.308 105.488C185.995 201.009 49.476 150.56 78.0317 54.9846C116.944 -43.7602 258.011 8.51757 226.308 105.488Z" fill="white"/>
<g opacity="0.35">
<path d="M86.2378 142.74C90.9033 147.686 96.2047 152.002 101.959 155.608C103.514 156.577 105.101 157.5 106.718 158.371C125.836 168.651 149.03 171.497 170.077 164.509C176.611 162.343 182.938 159.226 188.874 155.089C188.981 150.001 188.88 144.615 188.556 138.913C188.38 135.934 188.147 132.869 187.849 129.716L125.352 127.623L129.585 120.639C129.389 120.763 125.054 123.53 118.149 127.387L116.352 127.324C116.273 127.724 116.194 128.118 116.11 128.515C108.259 132.82 97.6671 138.188 86.2387 142.74H86.2378Z" fill="#371A45"/>
</g>
<path d="M226.308 105.488C185.995 201.009 49.476 150.56 78.0317 54.9846C116.944 -43.7602 258.011 8.51757 226.308 105.488Z" fill="#EBEDEE"/>
<path d="M126.137 153.326C107.251 146.706 91.6993 133.986 82.3318 117.496C71.8395 99.0269 69.8769 77.2729 76.6554 54.5849L76.6728 54.5274L76.6946 54.4716C85.8289 31.293 101.265 14.6533 121.335 6.35273C139.132 -1.00782 159.527 -1.35347 178.764 5.38013L178.801 5.39299C198.061 12.1455 213.809 25.1255 223.15 41.9488C233.624 60.8141 235.188 82.9353 227.673 105.921L227.655 105.977L227.632 106.031C218.158 128.481 202.672 144.573 182.85 152.567C165.229 159.674 145.125 159.956 126.24 153.362C126.207 153.35 126.17 153.337 126.137 153.326V153.326ZM79.3905 55.4408C64.8269 104.283 93.8933 139.02 127.104 150.663L127.199 150.697C161.232 162.58 204.651 153.055 224.961 104.998C241.142 55.4125 211.888 19.9957 177.838 8.05864L177.803 8.04664C144.068 -3.76353 98.8911 6.03367 79.3905 55.4408V55.4408Z" fill="#371A45"/>
<g opacity="0.35">
<path d="M226.307 105.485C192.945 188.587 74.1962 163.8 74.0544 77.9008C83.1713 104.433 92.885 104.171 109.492 115.986C160.89 155.194 226.26 111.759 227.109 55.4143C232.582 71.9717 232.089 89.5995 226.307 105.485Z" fill="#371A45"/>
</g>
<path d="M125.944 153.863C106.928 147.196 91.2634 134.384 81.8281 117.774C71.2584 99.1684 69.2784 77.2617 76.1013 54.4227L76.1257 54.343L76.1561 54.2649C85.3487 30.9388 100.894 14.1893 121.111 5.82696C139.041 -1.58935 159.585 -1.93842 178.957 4.84321L178.995 4.85693C198.389 11.6557 214.248 24.7301 223.657 41.676C234.209 60.6821 235.788 82.9584 228.224 106.096L228.199 106.174L228.166 106.249C218.632 128.842 203.037 145.041 183.07 153.095C165.318 160.254 145.067 160.54 126.049 153.899C126.014 153.887 125.979 153.875 125.944 153.863H125.944ZM79.9377 55.6252C65.4985 104.098 94.3413 138.573 127.297 150.127C127.329 150.138 127.359 150.149 127.391 150.16C161.161 161.951 204.248 152.492 224.418 104.802C240.461 55.5918 211.434 20.4417 177.644 8.59553L177.609 8.58352C144.135 -3.13487 99.3034 6.59544 79.9369 55.6252H79.9377Z" fill="#293856"/>
<path d="M125.944 153.863C106.928 147.196 91.2634 134.384 81.8281 117.774C71.2584 99.1684 69.2784 77.2617 76.1013 54.4227L76.1257 54.343L76.1561 54.2649C85.3487 30.9388 100.894 14.1893 121.111 5.82696C139.041 -1.58935 159.585 -1.93842 178.957 4.84321L178.995 4.85693C198.389 11.6557 214.248 24.7301 223.657 41.676C234.209 60.6821 235.788 82.9584 228.224 106.096L228.199 106.174L228.166 106.249C218.632 128.842 203.037 145.041 183.07 153.095C165.318 160.254 145.067 160.54 126.049 153.899C126.014 153.887 125.979 153.875 125.944 153.863H125.944ZM79.9377 55.6252C65.4985 104.098 94.3413 138.573 127.297 150.127C127.329 150.138 127.359 150.149 127.391 150.16C161.161 161.951 204.248 152.492 224.418 104.802C240.461 55.5918 211.434 20.4417 177.644 8.59553L177.609 8.58352C144.135 -3.13487 99.3034 6.59544 79.9369 55.6252H79.9377Z" fill="#243D66"/>
<path d="M217.152 123.13C148.645 183.87 64.2789 107.543 112.637 43.888C171.197 -24.1658 266.699 44.6959 217.152 123.13Z" fill="#243D66"/>
<path d="M227.136 66.2596C243.968 146.664 128.611 176.62 100.985 105.601C147.262 141.466 213.239 109.558 227.136 66.2596Z" fill="#1F3754"/>
<path d="M137.455 151.011C122.823 145.881 110.132 136.46 101.292 124.059C90.3048 108.645 86.1969 90.054 89.4131 70.2958C93.2843 49.8806 106.472 31.3197 125.603 19.3234C144.801 7.28508 167.576 3.37923 188.087 8.60761L188.253 8.64964L188.409 8.71911C227.838 26.2122 240.811 73.241 228.19 106.189L228.185 106.204C220.407 126.054 207.628 140.733 191.233 148.654C176.675 155.687 159.584 157.142 143.107 152.753C141.195 152.244 139.308 151.662 137.455 151.012L137.455 151.011ZM186.914 12.4062C167.521 7.51665 145.972 11.2535 127.763 22.6709C109.57 34.0797 97.0364 51.6851 93.3783 70.9742C86.7841 111.491 113.933 140.86 144.158 148.92C170.46 155.928 207.264 148.569 224.429 104.779C236.384 73.5592 224.155 29.0383 186.915 12.4062H186.914ZM226.308 105.488L226.314 105.49L226.308 105.488Z" fill="#243D66"/>
<path d="M140.654 143.445C132.16 140.467 124.284 135.829 117.493 129.709C105.858 119.222 98.4891 105.274 96.7432 90.4348C94.8145 74.0438 99.7532 57.537 111.027 42.6984L111.103 42.6041C124.95 26.5116 141.834 16.8327 159.927 14.6156C176.193 12.6224 192.523 16.825 205.908 26.4524C219.605 36.3036 228.82 50.7992 231.856 67.2682C235.249 85.6705 230.755 105.35 218.861 124.178L218.71 124.417L218.499 124.605C201.727 139.474 182.714 147.331 163.514 147.326C155.641 147.323 147.923 145.992 140.656 143.445H140.654ZM114.211 45.1248C90.4779 76.4076 100.119 108.672 120.208 126.78C142.332 146.721 180.383 152.901 215.593 121.842C240.413 82.3204 226.766 46.3667 203.534 29.6575C180.173 12.8548 143.5 11.1232 114.21 45.1248H114.211ZM217.151 123.129L217.158 123.132L217.151 123.129Z" fill="#243D66"/>
<path d="M68.505 112.251C80.6789 146.7 116.723 137.571 108.464 103.528C97.0494 66.9603 58.5181 76.7146 68.505 112.251Z" fill="white"/>
<g opacity="0.35">
<path d="M96.5544 133.598C107.379 130.94 112.771 116.274 107.936 101.765C104.093 118.654 82.4675 96.0723 79.8655 88.9219C53.1332 101.224 76.779 138.901 96.5553 133.598H96.5544Z" fill="#371A45"/>
</g>
<path d="M85.6158 134.794C78.304 132.23 71.013 125.377 66.6051 112.903L66.5659 112.78C61.2045 93.7043 69.3158 81.9739 79.1209 79.1478C89.9899 76.0148 104.219 83.1823 110.388 102.944L110.421 103.066C114.881 121.447 107.141 132.487 97.4922 135.274C93.8707 136.32 89.7393 136.24 85.6158 134.794V134.794ZM70.4267 111.659C76.4615 128.672 88.0951 133.855 96.3604 131.466C104.171 129.21 110.335 119.86 106.521 104.05C101.11 86.7889 89.2147 80.3709 80.2492 82.9559C72.2892 85.2502 65.8273 95.2103 70.4258 111.658L70.4267 111.659Z" fill="#243D66"/>
<path d="M67.4759 114.493C77.3705 142.4 104.491 136.011 97.815 108.475C88.6023 78.4669 59.1375 85.4432 67.4759 114.493V114.493Z" fill="white"/>
<path d="M81.3044 133.608C75.3827 131.532 69.3393 125.761 65.5759 115.149L65.5394 115.034C61.0314 99.3289 67.1592 89.8139 74.7599 87.62C83.3209 85.149 94.651 91.32 99.741 107.901L99.7723 108.014C103.403 122.99 97.567 131.851 90.1726 133.991C87.481 134.77 84.4092 134.697 81.3044 133.608V133.608ZM69.3958 113.896C74.2683 127.581 82.9903 131.934 89.0399 130.183C94.5988 128.575 98.8624 121.399 95.8724 108.993C91.534 94.9265 82.5415 89.5077 75.8917 91.4272C70.1431 93.0868 65.6638 100.824 69.3958 113.895V113.896Z" fill="#243D66"/>
<path d="M112.486 86.7571C119.442 100.499 135.406 92.947 131.423 80.0681C125.471 64.106 106.51 72.7067 112.486 86.7571Z" fill="#EBEDEE"/>
<path d="M125.823 107.88C128.792 112.984 135.838 109.814 133.134 103.974C130.166 98.8709 123.12 102.041 125.823 107.88Z" fill="#EBEDEE"/>
<path d="M220.22 73.4863C219.466 14.8086 158.246 18.1681 142.333 33.5093C181.177 29.2167 202.478 49.5212 220.22 73.4863Z" fill="#EBEDEE"/>
<g opacity="0.35">
<path d="M100.493 114.726C100.267 110.573 98.8858 106.466 96.7232 102.874C95.126 123.248 73.7029 118.245 66.5189 105.128C67.4698 134.665 99.6001 142.758 100.493 114.725V114.726Z" fill="#371A45"/>
</g>
<path d="M99.5757 82.0768C99.2086 81.9481 98.8206 81.7826 98.4109 81.5751C97.4226 81.0733 97.0346 79.8777 97.5427 78.9025C98.0516 77.9282 99.2643 77.5466 100.253 78.0466C101.278 78.5672 101.668 78.484 101.672 78.4831C102.034 78.1538 102.23 76.0954 101.887 74.1922C101.693 73.115 102.42 72.084 103.513 71.8902C104.606 71.6981 105.65 72.4117 105.848 73.4881C106.11 74.9109 106.75 79.7053 104.032 81.6908C103.169 82.3204 101.734 82.8333 99.5766 82.0768H99.5757Z" fill="#243D66"/>
<path d="M36.8532 152.649C24.2208 149.843 14.5854 150.999 13.5606 154.331C12.8098 156.772 13.7816 160.604 18.9646 161.988C22.5044 162.933 27.4822 162.446 27.4822 162.446C27.4822 162.446 30.5078 169.973 34.8488 172.845" fill="white"/>
<path d="M36.4112 154.584C32.9559 153.822 29.4483 153.285 25.9616 153.106C24.2217 153.024 22.4835 153.027 20.8046 153.187C19.1491 153.342 17.4544 153.67 16.2896 154.264C16.006 154.408 15.7885 154.57 15.6519 154.698C15.5797 154.762 15.544 154.816 15.5197 154.851C15.5197 154.868 15.4875 154.883 15.4979 154.892C15.4979 154.918 15.4927 154.864 15.4753 154.959C15.3344 155.476 15.3039 156.084 15.444 156.646C15.6998 157.781 16.5114 158.753 17.7485 159.392C20.2156 160.693 23.9816 160.496 27.2743 160.363L28.9159 160.296L29.4578 161.674C29.7997 162.544 30.2121 163.527 30.6279 164.442C31.0429 165.372 31.4857 166.292 31.9459 167.197C32.42 168.091 32.8976 168.987 33.4335 169.842C33.978 170.688 34.5522 171.509 35.2255 172.295L35.2534 172.327C35.4978 172.613 35.4613 173.039 35.1716 173.28C34.9724 173.446 34.7044 173.48 34.4774 173.392C33.363 172.959 32.3643 172.288 31.4683 171.537L30.8115 170.957C30.6018 170.756 30.4061 170.547 30.2025 170.34C29.7919 169.928 29.4213 169.493 29.062 169.046C28.3295 168.161 27.7058 167.215 27.1081 166.255C26.8028 165.777 26.5409 165.278 26.2721 164.78C25.9981 164.273 25.7615 163.792 25.5118 163.215L27.6945 164.527C25.7058 164.735 23.8398 164.736 21.8624 164.538C19.9242 164.319 17.8085 163.977 15.8311 162.884C14.8481 162.355 13.8938 161.651 13.1247 160.729C12.3531 159.813 11.7868 158.694 11.518 157.51C11.2405 156.326 11.2683 155.086 11.605 153.874C11.6293 153.748 11.7328 153.494 11.8077 153.309C11.886 153.102 11.999 152.939 12.1026 152.756C12.3201 152.414 12.5715 152.114 12.8281 151.87C13.3448 151.376 13.8851 151.026 14.4079 150.754C15.4571 150.216 16.4714 149.921 17.4692 149.69C18.4662 149.465 19.4466 149.328 20.4183 149.235C22.3617 149.051 24.2713 149.053 26.1642 149.141C29.9459 149.336 33.6535 149.908 37.2968 150.71C38.3817 150.949 39.0646 152.01 38.8227 153.079C38.5809 154.149 37.5048 154.822 36.4199 154.584L36.413 154.582L36.4112 154.584Z" fill="#243D66"/>
<path d="M64.2223 188.983C63.9561 188.89 63.7064 188.74 63.4916 188.533C62.6973 187.767 62.6825 186.511 63.4594 185.728C75.8447 173.238 60.9017 151.656 60.7495 151.439C60.1162 150.54 60.3424 149.304 61.2541 148.679C62.1658 148.054 63.4185 148.274 64.0535 149.174C64.7547 150.168 81.0495 173.665 66.338 188.501C65.7717 189.072 64.94 189.235 64.2232 188.983H64.2223Z" fill="#243D66"/>
<path d="M7.40056 156.338C8.49668 157.379 9.62499 158.332 10.8403 159.117C12.0565 159.897 13.4118 160.51 14.8881 161.127C16.3644 161.742 17.885 162.393 19.3544 163.115C20.8289 163.834 22.2513 164.633 23.6545 165.448C24.1338 165.726 24.293 166.335 24.0112 166.807C23.7476 167.248 23.1925 167.414 22.7306 167.209L22.708 167.198C21.2665 166.551 19.8215 165.926 18.3496 165.389C16.8768 164.846 15.3927 164.384 13.852 163.922C12.3148 163.459 10.6663 162.923 9.09258 162.131C7.52496 161.337 6.09478 160.358 4.76203 159.333C3.88427 158.659 3.72681 157.411 4.41058 156.545C5.09435 155.68 6.36098 155.525 7.23875 156.199C7.29442 156.241 7.34662 156.286 7.39621 156.332L7.40143 156.338L7.40056 156.338Z" fill="#243D66"/>
<path d="M6.87772 168.049C7.5093 168.562 8.19655 168.884 9.22134 169.168C10.2313 169.44 11.4623 169.64 12.7629 169.918C14.0878 170.216 15.3674 170.585 16.6106 171.043C17.8581 171.499 19.0621 172.01 20.2461 172.662C20.7411 172.934 20.9185 173.551 20.6419 174.039C20.4401 174.395 20.0529 174.585 19.6658 174.555L19.6388 174.553C17.0934 174.356 14.5741 174.005 12.153 173.818C10.9212 173.705 9.59193 173.633 8.11826 173.262C7.38316 173.078 6.60891 172.801 5.85729 172.38C5.11262 171.954 4.3984 171.378 3.87209 170.688C3.20224 169.811 3.38057 168.565 4.27052 167.904C5.02998 167.341 6.06259 167.386 6.7655 167.957L6.87772 168.049V168.049Z" fill="#243D66"/>
<path d="M26.8767 197.967C26.6471 199.455 26.5522 201.077 26.5583 202.641C26.5609 204.216 26.6636 205.789 26.8776 207.34C27.0829 208.892 27.3787 210.425 27.7997 211.917C28.1851 213.419 28.7427 214.862 29.3256 216.278L29.3543 216.347C29.7728 217.365 29.2752 218.524 28.2434 218.937C27.2117 219.349 26.0355 218.859 25.6171 217.841C25.5918 217.78 25.5701 217.717 25.5509 217.655C25.0568 215.997 24.6105 214.333 24.3557 212.641C24.0642 210.957 23.9163 209.259 23.8676 207.568C23.8111 205.877 23.8763 204.19 24.046 202.516C24.2191 200.832 24.4714 199.208 24.9176 197.511C25.0568 196.981 25.6058 196.663 26.1434 196.8C26.6462 196.929 26.9611 197.409 26.8863 197.905L26.8767 197.967V197.967Z" fill="#243D66"/>
</svg>
