<?xml version="1.0" encoding="UTF-8"?>
<svg xmlns="http://www.w3.org/2000/svg" xmlns:xlink="http://www.w3.org/1999/xlink" viewBox="0 0 391.84 391.84">
  <defs>
    <style>
      .cls-1 {
        fill: url(#_Áåçûìÿííûé_ãðàäèåíò_226-2);
      }

      .cls-1, .cls-2, .cls-3, .cls-4, .cls-5, .cls-6, .cls-7, .cls-8, .cls-9, .cls-10, .cls-11, .cls-12, .cls-13, .cls-14, .cls-15, .cls-16, .cls-17, .cls-18, .cls-19, .cls-20, .cls-21, .cls-22, .cls-23, .cls-24, .cls-25, .cls-26, .cls-27, .cls-28, .cls-29, .cls-30, .cls-31, .cls-32, .cls-33, .cls-34, .cls-35 {
        fill-rule: evenodd;
      }

      .cls-1, .cls-4, .cls-5, .cls-6, .cls-11, .cls-13, .cls-15, .cls-25, .cls-28, .cls-32 {
        mix-blend-mode: multiply;
      }

      .cls-1, .cls-4, .cls-5, .cls-6, .cls-28 {
        opacity: .4;
      }

      .cls-2 {
        fill: url(#_Áåçûìÿííûé_ãðàäèåíò_50);
      }

      .cls-3 {
        fill: url(#_Áåçûìÿííûé_ãðàäèåíò_253);
      }

      .cls-4 {
        fill: url(#_Áåçûìÿííûé_ãðàäèåíò_226);
      }

      .cls-5 {
        fill: url(#_Áåçûìÿííûé_ãðàäèåíò_271);
      }

      .cls-6 {
        fill: url(#_Áåçûìÿííûé_ãðàäèåíò_271-2);
      }

      .cls-7 {
        fill: url(#_Áåçûìÿííûé_ãðàäèåíò_166);
      }

      .cls-8 {
        fill: url(#_Áåçûìÿííûé_ãðàäèåíò_58);
      }

      .cls-9 {
        fill: url(#_Áåçûìÿííûé_ãðàäèåíò_188);
      }

      .cls-36 {
        isolation: isolate;
      }

      .cls-10 {
        fill: url(#_Áåçûìÿííûé_ãðàäèåíò_107-2);
      }

      .cls-11 {
        fill: url(#_Áåçûìÿííûé_ãðàäèåíò_16-2);
      }

      .cls-11, .cls-15 {
        opacity: .71;
      }

      .cls-12 {
        fill: url(#_Áåçûìÿííûé_ãðàäèåíò_39);
      }

      .cls-13 {
        fill: url(#_Áåçûìÿííûé_ãðàäèåíò_21);
      }

      .cls-13, .cls-23, .cls-25 {
        opacity: .5;
      }

      .cls-14 {
        fill: url(#_Áåçûìÿííûé_ãðàäèåíò_144);
      }

      .cls-15 {
        fill: url(#_Áåçûìÿííûé_ãðàäèåíò_16);
      }

      .cls-37 {
        fill: url(#Degradado_sin_nombre_7);
      }

      .cls-37, .cls-38, .cls-21, .cls-23, .cls-39 {
        mix-blend-mode: screen;
      }

      .cls-16 {
        fill: url(#_Áåçûìÿííûé_ãðàäèåíò_69);
      }

      .cls-17 {
        fill: url(#_Áåçûìÿííûé_ãðàäèåíò_250);
      }

      .cls-18 {
        fill: url(#_Áåçûìÿííûé_ãðàäèåíò_64);
      }

      .cls-19 {
        fill: #ffa5f7;
      }

      .cls-20 {
        fill: url(#_Áåçûìÿííûé_ãðàäèåíò_212);
      }

      .cls-38 {
        fill: url(#Degradado_sin_nombre_7-2);
      }

      .cls-21 {
        fill: url(#_Áåçûìÿííûé_ãðàäèåíò_600);
      }

      .cls-22 {
        fill: url(#_Áåçûìÿííûé_ãðàäèåíò_224);
      }

      .cls-23 {
        fill: url(#_Áåçûìÿííûé_ãðàäèåíò_234);
      }

      .cls-24 {
        fill: url(#_Áåçûìÿííûé_ãðàäèåíò_107);
      }

      .cls-25 {
        fill: url(#_Áåçûìÿííûé_ãðàäèåíò_21-2);
      }

      .cls-26 {
        fill: url(#_Áåçûìÿííûé_ãðàäèåíò_212-2);
      }

      .cls-27 {
        fill: url(#_Áåçûìÿííûé_ãðàäèåíò_35);
      }

      .cls-28 {
        fill: url(#_Áåçûìÿííûé_ãðàäèåíò_271-3);
      }

      .cls-29 {
        fill: url(#_Áåçûìÿííûé_ãðàäèåíò_31);
      }

      .cls-30 {
        fill: url(#_Áåçûìÿííûé_ãðàäèåíò_10);
      }

      .cls-31 {
        fill: url(#_Áåçûìÿííûé_ãðàäèåíò_73);
      }

      .cls-39 {
        fill: url(#Degradado_sin_nombre_7-3);
      }

      .cls-32 {
        fill: url(#_Áåçûìÿííûé_ãðàäèåíò_19);
        opacity: .89;
      }

      .cls-33 {
        fill: #e5bdfa;
      }

      .cls-34 {
        fill: url(#_Áåçûìÿííûé_ãðàäèåíò_200);
      }

      .cls-35 {
        fill: url(#_Áåçûìÿííûé_ãðàäèåíò_182);
      }
    </style>
    <radialGradient id="Degradado_sin_nombre_7" data-name="Degradado sin nombre 7" cx="195.92" cy="195.92" fx="195.92" fy="195.92" r="195.92" gradientUnits="userSpaceOnUse">
      <stop offset="0" stop-color="#9813ff"/>
      <stop offset="1" stop-color="#000" stop-opacity="0"/>
    </radialGradient>
    <radialGradient id="Degradado_sin_nombre_7-2" data-name="Degradado sin nombre 7" cx="208.89" cy="207.08" fx="208.89" fy="207.08" r="165.12" xlink:href="#Degradado_sin_nombre_7"/>
    <radialGradient id="Degradado_sin_nombre_7-3" data-name="Degradado sin nombre 7" cx="194.17" cy="193.06" fx="194.17" fy="193.06" r="157.57" gradientTransform="translate(193.39 -80.75) rotate(45)" xlink:href="#Degradado_sin_nombre_7"/>
    <linearGradient id="_Áåçûìÿííûé_ãðàäèåíò_64" data-name="Áåçûìÿííûé ãðàäèåíò 64" x1="296.35" y1="145.49" x2="308.99" y2="65.67" gradientUnits="userSpaceOnUse">
      <stop offset="0" stop-color="#8931b3"/>
      <stop offset="1" stop-color="#8e8cff"/>
    </linearGradient>
    <radialGradient id="_Áåçûìÿííûé_ãðàäèåíò_50" data-name="Áåçûìÿííûé ãðàäèåíò 50" cx="135.48" cy="129.79" fx="135.48" fy="129.79" r="223.06" gradientUnits="userSpaceOnUse">
      <stop offset="0" stop-color="#ffb8e2"/>
      <stop offset=".22" stop-color="#fcb7e2"/>
      <stop offset=".33" stop-color="#f5b4e5"/>
      <stop offset=".42" stop-color="#e7b0e9"/>
      <stop offset=".49" stop-color="#d5aaef"/>
      <stop offset=".55" stop-color="#bda2f7"/>
      <stop offset=".58" stop-color="#ae9dfc"/>
      <stop offset=".64" stop-color="#a896fc"/>
      <stop offset=".72" stop-color="#9982fc"/>
      <stop offset=".81" stop-color="#8063fd"/>
      <stop offset=".91" stop-color="#5e37fe"/>
      <stop offset=".92" stop-color="#5e37ff"/>
      <stop offset=".99" stop-color="#5e9aff"/>
    </radialGradient>
    <linearGradient id="_Áåçûìÿííûé_ãðàäèåíò_21" data-name="Áåçûìÿííûé ãðàäèåíò 21" x1="43.4" y1="115.09" x2="105.31" y2="115.09" gradientUnits="userSpaceOnUse">
      <stop offset="0" stop-color="#fff"/>
      <stop offset=".17" stop-color="#dbcfea"/>
      <stop offset=".36" stop-color="#b9a2d6"/>
      <stop offset=".55" stop-color="#9e7fc7"/>
      <stop offset=".72" stop-color="#8b66bc"/>
      <stop offset=".87" stop-color="#8057b5"/>
      <stop offset="1" stop-color="#7c52b3"/>
    </linearGradient>
    <linearGradient id="_Áåçûìÿííûé_ãðàäèåíò_19" data-name="Áåçûìÿííûé ãðàäèåíò 19" x1="214.91" y1="217.54" x2="322.4" y2="217.54" gradientUnits="userSpaceOnUse">
      <stop offset="0" stop-color="#7c52b3"/>
      <stop offset=".13" stop-color="#8057b5"/>
      <stop offset=".28" stop-color="#8b66bc"/>
      <stop offset=".45" stop-color="#9e7fc7"/>
      <stop offset=".64" stop-color="#b9a2d6"/>
      <stop offset=".83" stop-color="#dbcfea"/>
      <stop offset="1" stop-color="#fff"/>
    </linearGradient>
    <radialGradient id="_Áåçûìÿííûé_ãðàäèåíò_600" data-name="Áåçûìÿííûé ãðàäèåíò 600" cx="77.58" cy="80.54" fx="77.58" fy="80.54" r="194.71" gradientUnits="userSpaceOnUse">
      <stop offset="0" stop-color="#ffffd9"/>
      <stop offset="1" stop-color="#000"/>
    </radialGradient>
    <linearGradient id="_Áåçûìÿííûé_ãðàäèåíò_10" data-name="Áåçûìÿííûé ãðàäèåíò 10" x1="128.91" y1="342.94" x2="139.93" y2="273.39" gradientUnits="userSpaceOnUse">
      <stop offset="0" stop-color="#6d109d"/>
      <stop offset="1" stop-color="#8e8cff"/>
    </linearGradient>
    <linearGradient id="_Áåçûìÿííûé_ãðàäèåíò_31" data-name="Áåçûìÿííûé ãðàäèåíò 31" x1="85.01" y1="125.02" x2="36.21" y2="82.6" gradientUnits="userSpaceOnUse">
      <stop offset="0" stop-color="#c98eff"/>
      <stop offset="1" stop-color="#8931b3"/>
    </linearGradient>
    <linearGradient id="_Áåçûìÿííûé_ãðàäèåíò_35" data-name="Áåçûìÿííûé ãðàäèåíò 35" x1="344.75" y1="215.88" x2="253.71" y2="163.32" gradientTransform="translate(-15.94 -14.74) rotate(7.41)" gradientUnits="userSpaceOnUse">
      <stop offset="0" stop-color="#5400b3"/>
      <stop offset="1" stop-color="#f2c0ff"/>
    </linearGradient>
    <linearGradient id="_Áåçûìÿííûé_ãðàäèåíò_21-2" data-name="Áåçûìÿííûé ãðàäèåíò 21" x1="151.22" y1="74.54" x2="221.13" y2="74.54" xlink:href="#_Áåçûìÿííûé_ãðàäèåíò_21"/>
    <linearGradient id="_Áåçûìÿííûé_ãðàäèåíò_107" data-name="Áåçûìÿííûé ãðàäèåíò 107" x1="307.53" y1="253.83" x2="307.53" y2="130.47" gradientTransform="translate(-15.94 -14.74) rotate(7.41)" gradientUnits="userSpaceOnUse">
      <stop offset="0" stop-color="#644ff7"/>
      <stop offset="1" stop-color="#9f6dff"/>
    </linearGradient>
    <linearGradient id="_Áåçûìÿííûé_ãðàäèåíò_69" data-name="Áåçûìÿííûé ãðàäèåíò 69" x1="227.83" y1="259.91" x2="292.94" y2="180.09" gradientUnits="userSpaceOnUse">
      <stop offset="0" stop-color="#935ce1"/>
      <stop offset=".22" stop-color="#8f5adf"/>
      <stop offset=".43" stop-color="#8353db"/>
      <stop offset=".63" stop-color="#7149d5"/>
      <stop offset=".82" stop-color="#563bcc"/>
      <stop offset=".99" stop-color="#392cc2"/>
    </linearGradient>
    <radialGradient id="_Áåçûìÿííûé_ãðàäèåíò_39" data-name="Áåçûìÿííûé ãðàäèåíò 39" cx="-159.27" cy="-188.3" fx="-159.27" fy="-188.3" r="55.47" gradientTransform="translate(279.66 -149.76) rotate(-109.29)" gradientUnits="userSpaceOnUse">
      <stop offset="0" stop-color="#dea5ff"/>
      <stop offset="1" stop-color="#8931b3"/>
    </radialGradient>
    <linearGradient id="_Áåçûìÿííûé_ãðàäèåíò_182" data-name="Áåçûìÿííûé ãðàäèåíò 182" x1="-154.32" y1="-122.64" x2="-154.32" y2="-187.73" gradientTransform="translate(279.66 -149.76) rotate(-109.29)" gradientUnits="userSpaceOnUse">
      <stop offset="0" stop-color="#c287f8"/>
      <stop offset="1" stop-color="#ccb3ff"/>
    </linearGradient>
    <linearGradient id="_Áåçûìÿííûé_ãðàäèåíò_73" data-name="Áåçûìÿííûé ãðàäèåíò 73" x1="184.32" y1="66.18" x2="184.32" y2="28.66" gradientUnits="userSpaceOnUse">
      <stop offset="0" stop-color="#9f6dff"/>
      <stop offset=".27" stop-color="#9b69fe"/>
      <stop offset=".52" stop-color="#905efd"/>
      <stop offset=".76" stop-color="#7d4bfa"/>
      <stop offset="1" stop-color="#6431f7"/>
      <stop offset="1" stop-color="#6431f7"/>
    </linearGradient>
    <linearGradient id="_Áåçûìÿííûé_ãðàäèåíò_58" data-name="Áåçûìÿííûé ãðàäèåíò 58" x1="44.22" y1="124.43" x2="44.22" y2="65.91" gradientUnits="userSpaceOnUse">
      <stop offset="0" stop-color="#fc9ff7"/>
      <stop offset="1" stop-color="#f66dff"/>
    </linearGradient>
    <linearGradient id="_Áåçûìÿííûé_ãðàäèåíò_144" data-name="Áåçûìÿííûé ãðàäèåíò 144" x1="111.25" y1="348.02" x2="111.25" y2="299.1" gradientUnits="userSpaceOnUse">
      <stop offset="0" stop-color="#c282f7"/>
      <stop offset="1" stop-color="#dc6dff"/>
    </linearGradient>
    <linearGradient id="_Áåçûìÿííûé_ãðàäèåíò_200" data-name="Áåçûìÿííûé ãðàäèåíò 200" x1="109.71" y1="344.4" x2="109.71" y2="306.97" gradientUnits="userSpaceOnUse">
      <stop offset="0" stop-color="#4848f7"/>
      <stop offset="1" stop-color="#6d20ff"/>
    </linearGradient>
    <linearGradient id="_Áåçûìÿííûé_ãðàäèåíò_107-2" data-name="Áåçûìÿííûé ãðàäèåíò 107" x1="118.48" y1="332.19" x2="118.48" y2="309.18" gradientTransform="matrix(1, 0, 0, 1, 0, 0)" xlink:href="#_Áåçûìÿííûé_ãðàäèåíò_107"/>
    <linearGradient id="_Áåçûìÿííûé_ãðàäèåíò_166" data-name="Áåçûìÿííûé ãðàäèåíò 166" x1="43.19" y1="113.43" x2="43.19" y2="71.53" gradientUnits="userSpaceOnUse">
      <stop offset="0" stop-color="#9f6dff"/>
      <stop offset="1" stop-color="#644ff7"/>
    </linearGradient>
    <linearGradient id="_Áåçûìÿííûé_ãðàäèåíò_188" data-name="Áåçûìÿííûé ãðàäèåíò 188" x1="44.37" y1="93.91" x2="48.46" y2="96.49" gradientUnits="userSpaceOnUse">
      <stop offset="0" stop-color="#9084ff"/>
      <stop offset="1" stop-color="#c287f8"/>
    </linearGradient>
    <linearGradient id="_Áåçûìÿííûé_ãðàäèåíò_212" data-name="Áåçûìÿííûé ãðàäèåíò 212" x1="60.59" y1="222.24" x2="86.09" y2="238.37" gradientUnits="userSpaceOnUse">
      <stop offset="0" stop-color="#9084ff"/>
      <stop offset=".49" stop-color="#d08bfc"/>
      <stop offset="1" stop-color="#ffc9f8"/>
    </linearGradient>
    <radialGradient id="_Áåçûìÿííûé_ãðàäèåíò_271" data-name="Áåçûìÿííûé ãðàäèåíò 271" cx="73.55" cy="227.87" fx="73.55" fy="227.87" r="12.26" gradientUnits="userSpaceOnUse">
      <stop offset="0" stop-color="#1372b3"/>
      <stop offset="1" stop-color="#fff"/>
    </radialGradient>
    <linearGradient id="_Áåçûìÿííûé_ãðàäèåíò_212-2" data-name="Áåçûìÿííûé ãðàäèåíò 212" x1="133.27" y1="85.3" x2="145.02" y2="92.73" gradientTransform="translate(-13.22 -5.65) rotate(4.82)" xlink:href="#_Áåçûìÿííûé_ãðàäèåíò_212"/>
    <radialGradient id="_Áåçûìÿííûé_ãðàäèåíò_271-2" data-name="Áåçûìÿííûé ãðàäèåíò 271" cx="139.24" cy="87.89" fx="139.24" fy="87.89" r="5.65" gradientTransform="translate(-13.22 -5.65) rotate(4.82)" xlink:href="#_Áåçûìÿííûé_ãðàäèåíò_271"/>
    <linearGradient id="_Áåçûìÿííûé_ãðàäèåíò_224" data-name="Áåçûìÿííûé ãðàäèåíò 224" x1="236.44" y1="299.77" x2="210.32" y2="299.22" gradientUnits="userSpaceOnUse">
      <stop offset="0" stop-color="#9566fc"/>
      <stop offset="1" stop-color="#5445b1"/>
    </linearGradient>
    <radialGradient id="_Áåçûìÿííûé_ãðàäèåíò_234" data-name="Áåçûìÿííûé ãðàäèåíò 234" cx="146.35" cy="234.37" fx="146.35" fy="234.37" r="27.62" gradientUnits="userSpaceOnUse">
      <stop offset="0" stop-color="#ffffe8"/>
      <stop offset=".2" stop-color="#bba"/>
      <stop offset=".42" stop-color="#79796e"/>
      <stop offset=".61" stop-color="#45453e"/>
      <stop offset=".78" stop-color="#1f1f1c"/>
      <stop offset=".91" stop-color="#080807"/>
      <stop offset="1" stop-color="#000"/>
    </radialGradient>
    <radialGradient id="_Áåçûìÿííûé_ãðàäèåíò_271-3" data-name="Áåçûìÿííûé ãðàäèåíò 271" cx="223.33" cy="297.61" fx="223.33" fy="297.61" r="10.9" xlink:href="#_Áåçûìÿííûé_ãðàäèåíò_271"/>
    <linearGradient id="_Áåçûìÿííûé_ãðàäèåíò_253" data-name="Áåçûìÿííûé ãðàäèåíò 253" x1="95.95" y1="174.24" x2="166.91" y2="219.1" gradientUnits="userSpaceOnUse">
      <stop offset="0" stop-color="#9084ff"/>
      <stop offset=".12" stop-color="#9684fe"/>
      <stop offset=".29" stop-color="#aa86fd"/>
      <stop offset=".49" stop-color="#c98afc"/>
      <stop offset=".53" stop-color="#d08bfc"/>
      <stop offset="1" stop-color="#ffc9f8"/>
    </linearGradient>
    <linearGradient id="_Áåçûìÿííûé_ãðàäèåíò_226" data-name="Áåçûìÿííûé ãðàäèåíò 226" x1="96.87" y1="183.7" x2="167.75" y2="183.7" gradientUnits="userSpaceOnUse">
      <stop offset="0" stop-color="#1372b3"/>
      <stop offset="1" stop-color="#fff"/>
    </linearGradient>
    <linearGradient id="_Áåçûìÿííûé_ãðàäèåíò_250" data-name="Áåçûìÿííûé ãðàäèåíò 250" x1="243.08" y1="62.57" x2="277.93" y2="84.6" gradientUnits="userSpaceOnUse">
      <stop offset="0" stop-color="#845fff"/>
      <stop offset=".49" stop-color="#a972fc"/>
      <stop offset="1" stop-color="#d4b0f8"/>
    </linearGradient>
    <linearGradient id="_Áåçûìÿííûé_ãðàäèåíò_226-2" data-name="Áåçûìÿííûé ãðàäèåíò 226" x1="242.42" y1="71.4" x2="275.6" y2="71.4" xlink:href="#_Áåçûìÿííûé_ãðàäèåíò_226"/>
    <linearGradient id="_Áåçûìÿííûé_ãðàäèåíò_16" data-name="Áåçûìÿííûé ãðàäèåíò 16" x1="220.51" y1="200.44" x2="306.95" y2="200.44" gradientUnits="userSpaceOnUse">
      <stop offset="0" stop-color="#7c52b3"/>
      <stop offset="1" stop-color="#fff"/>
    </linearGradient>
    <linearGradient id="_Áåçûìÿííûé_ãðàäèåíò_16-2" data-name="Áåçûìÿííûé ãðàäèåíò 16" x1="158.81" y1="41.29" x2="209.83" y2="41.29" xlink:href="#_Áåçûìÿííûé_ãðàäèåíò_16"/>
  </defs>
  <g class="cls-36">
    <g id="Capa_2" data-name="Capa 2">
      <g id="Moon">
        <circle class="cls-37" cx="195.92" cy="195.92" r="195.92"/>
        <circle class="cls-38" cx="208.89" cy="207.08" r="165.12"/>
        <circle class="cls-39" cx="194.17" cy="193.06" r="157.57" transform="translate(-79.64 193.84) rotate(-45)"/>
        <path class="cls-18" d="M270.63,60.12s19.48,5.39,32.44,4.61c0,0,23.22,15.78,36.19,57.58,0,0-11.15,13.22-8.78,28.58,0,0-19.86-53.96-59.85-90.77Z"/>
        <path class="cls-2" d="M333.61,181.23c0,14.21-2,27.98-5.78,40.97-7.49,26.13-22.01,49.27-41.4,67.32-13.86,12.93-30.22,23.2-48.24,30.04-16.33,6.21-34,9.59-52.52,9.59-2.62,0-5.28-.06-7.87-.22h-.03c-3.87-.19-7.71-.56-11.49-1.03-28.57-3.75-54.52-15.61-75.56-33.28-7.9-6.59-15.08-14.02-21.42-22.14-4.81-6.09-9.15-12.55-12.96-19.39-.91-1.62-1.78-3.28-2.65-4.93,0-.06-.03-.09-.06-.16-.91-1.78-1.75-3.56-2.56-5.37h-.03c-2.56-5.65-4.81-11.49-6.62-17.49-1.37-4.31-2.53-8.74-3.47-13.24-.03-.03-.03-.09-.03-.12-.66-3.15-1.22-6.34-1.65-9.55-1-6.87-1.5-13.86-1.5-20.98,0-4.09,.16-8.18,.53-12.18,.19-2.56,.47-5.09,.81-7.62,1.9-14.55,5.96-28.41,11.83-41.31,2.87-6.34,6.18-12.43,9.9-18.27,6.18-9.74,13.49-18.67,21.73-26.7,26.63-25.92,63.01-41.87,103.1-41.87,1.56,0,3.12,.03,4.65,.06,1.65,.06,3.31,.12,4.96,.25,8.49,.56,16.8,1.81,24.82,3.75,4.68,1.12,9.27,2.44,13.77,4,3.06,1.03,6.06,2.19,9.02,3.43,2.22,.94,4.37,1.9,6.53,2.94,.37,.19,.75,.34,1.12,.53,14.36,7.03,27.38,16.27,38.69,27.35,1.62,1.56,3.18,3.18,4.75,4.84,1.03,1.12,2.06,2.28,3.06,3.43,1.72,1.94,3.37,3.97,5,6,5.9,7.49,11.08,15.55,15.42,24.1,5.09,9.93,9.09,20.51,11.8,31.6,2.84,11.43,4.34,23.36,4.34,35.66Z"/>
        <path class="cls-13" d="M43.4,159.39s26.39,13.76,50.02-4.95c23.63-18.71,4.73-88.52,4.73-88.52l-54.75,93.47Z"/>
        <path class="cls-32" d="M214.91,265.73s11.94,14.35,41.15,15.93c29.21,1.58,58.4-31.95,65.1-62.32,6.71-30.37-14.99-61.07-36.29-65.83-21.3-4.77-69.97,112.22-69.97,112.22Z"/>
        <path class="cls-21" d="M97.96,296.76c-15.29-12.8-27.97-28.66-37.08-46.62-5.72-11.29-10.03-23.4-12.7-36.1-.03-.03-.03-.08-.03-.13-2.05-9.85-3.16-20.07-3.16-30.53,0-29.2,8.47-56.42,23.07-79.36,6.21-9.75,13.5-18.68,21.73-26.69,26.66-25.92,63.02-41.88,103.12-41.88,3.23,0,6.41,.1,9.6,.31,10.03,.64,19.78,2.3,29.16,4.85-11.56-3.79-23.76-6.18-36.4-6.99-3.18-.21-6.36-.31-9.6-.31-40.11,0-76.46,15.96-103.12,41.88-8.24,8.01-15.52,16.94-21.73,26.69-14.6,22.94-23.07,50.16-23.07,79.36,0,10.47,1.1,20.68,3.16,30.53,0,.05,0,.1,.03,.13,2.67,12.7,6.98,24.81,12.7,36.1,9.11,17.96,21.78,33.82,37.08,46.62,16.21,13.6,35.34,23.75,56.33,29.42-18.15-5.92-34.76-15.26-49.09-27.27Z"/>
        <path class="cls-30" d="M64.86,266.57s9.37,15.27,7,40.12c0,0,20.54,35.9,78.52,38.86,0,0,29.19-21.52,57.12-18.01,0,0-48.23-68.76-142.65-60.97Z"/>
        <path class="cls-29" d="M43.4,159.39s-9.72-26.82-18.44-36.29c0,0-6.71-42.6,36.68-57.19,0,0,23.36,4.46,36.51,0,0,0,5,28.79-14.82,59.56-16.9,26.23-39.93,33.92-39.93,33.92Z"/>
        <path class="cls-27" d="M309.18,180.27s-10.34-36.36-45.45-38.54c-37.24-2.31-70.22,72-58.73,107.5,11.49,35.5,52.94,30.39,71.92,17.49,23.05-15.67,34.37-50.3,32.26-86.45Z"/>
        <path class="cls-25" d="M151.22,73.49s12.6,21.33,37.02,18.99c26.66-2.55,33.79-25.12,32.8-34.06-.99-8.94-69.82,15.07-69.82,15.07Z"/>
        <path class="cls-24" d="M269.47,154.44c-32.2-.18-79.89,85.49-38.37,114.3,39.45,27.36,75.91-32.03,80.19-52.32,4.28-20.29,1.53-61.74-41.82-61.98Z"/>
        <path class="cls-16" d="M254.49,267.87c-1.53-.13-3.03-.34-4.43-.56-19.98-3.43-27.48-17.33-29.16-31.35-1.06-8.9,.22-17.83,2.12-24.2,3.78-12.61,24.04-42.18,47.24-46.34,8.24-1.5,16.86,.25,25.26,7.15,7.09,5.87,10.62,13.58,11.43,22.14,3.12,31.91-30.69,75.09-52.46,73.16Z"/>
        <path class="cls-12" d="M156.9,34.31s-14.79,18.99-7.49,36.06c7.74,18.11,51.11,17.34,65.12,3.51,14.01-13.83,2.83-40.22-9.23-44.85-13.73-5.27-31.86-4.28-48.4,5.29Z"/>
        <path class="cls-35" d="M154.14,59.16c7.55,15.22,59.25,17.4,62.98-9.01,3.55-25.09-33.1-28.19-43.68-25.4-10.58,2.79-29.47,13.91-19.3,34.41Z"/>
        <path class="cls-31" d="M209.76,43.65c.09,.84,.09,1.66,0,2.44-.03,.84-.16,1.69-.34,2.47-4.22,16.95-38.28,22.48-46.06,13.05-2.15-2.62-3.47-5.21-4.09-7.68-2.65-10.4,6.62-18.73,12.77-21.95,7.59-4,36.03-8.09,37.72,11.68Z"/>
        <path class="cls-8" d="M24.96,123.1c.71,9.67,49.36-36.19,36.68-57.19,0,0-40.62,3.75-36.68,57.19Z"/>
        <path class="cls-14" d="M71.86,306.69c-3.02-17.28,84.84-5.34,78.52,38.86-1.38,9.66-73.5-10.16-78.52-38.86Z"/>
        <path class="cls-34" d="M142.49,344.27c-1.47,1.19-49.68-5.93-66.26-35.22-1.09-1.97,4.06-2.59,11.96-1.65,3,.34,6.37,.94,9.96,1.78,11.43,2.65,24.89,7.84,34,16.08,2.84,2.56,5.03,4.87,6.65,6.93,2.34,3,3.59,5.43,4.15,7.31,.78,2.65,.22,4.25-.47,4.78Z"/>
        <path class="cls-10" d="M138.8,332.19c-19.11-3.37-32.85-14.68-40.65-23.01,11.43,2.65,24.89,7.84,34,16.08,2.84,2.56,5.03,4.87,6.65,6.93Z"/>
        <path class="cls-7" d="M56.36,79.2c-.81,2.6-2.18,6.06-4.25,10.67-3.69,8.21-10.98,16.76-16.29,20.93-2.71,2.15-4.92,3.16-5.81,2.37-1.84-1.59-1.54-13.38,4.11-24.33,5.64-10.98,20.93-18.77,22.49-17.07,.98,1.06,1.15,3.02-.25,7.43Z"/>
        <path class="cls-9" d="M56.36,79.2c-.81,2.6-2.18,6.06-4.25,10.67-3.69,8.21-10.98,16.76-16.29,20.93,6.2-16.87,17.18-28.36,20.53-31.6Z"/>
        <path class="cls-20" d="M71.86,245.76c-1.53-.94-3.03-2.62-4.37-4.78,0,0,0-.03-.06-.09-4.9-7.9-7.74-21.64-2.56-24.45,6.4-3.5,15.86-1.69,20.14,9.68,0,0,0,.03,.03,.06,.16,.37,.31,.78,.41,1.19,.03,.06,.06,.12,.06,.19,.06,.31,.16,.59,.25,.78,.13,.41,.25,.81,.34,1.25,2.65,10.83-7.09,20.51-14.24,16.17Z"/>
        <path class="cls-5" d="M85,226.12c-2.4-4.84-11.77-10.46-17.52-5.21-6.03,5.5-.56,18.73-.06,19.98-4.9-7.9-7.74-21.64-2.56-24.45,6.4-3.5,15.86-1.69,20.14,9.68Z"/>
        <path class="cls-26" d="M116.67,101.8c-.67-.49-1.29-1.32-1.82-2.36,0,0,0-.01-.03-.05-1.95-3.82-2.72-10.24-.23-11.33,3.08-1.36,7.35-.16,8.88,5.23,0,0,0,.01,.01,.03,.06,.18,.11,.37,.14,.56,.01,.03,.02,.06,.02,.09,.02,.15,.05,.28,.08,.37,.04,.19,.08,.38,.11,.59,.8,5.08-4.05,9.15-7.17,6.88Z"/>
        <path class="cls-6" d="M123.47,93.29c-.92-2.32-5-5.26-7.84-3.07-2.98,2.29-.98,8.58-.8,9.18-1.95-3.82-2.72-10.24-.23-11.33,3.08-1.36,7.35-.16,8.88,5.23Z"/>
        <path class="cls-22" d="M227.45,308.31h-.05c-.29,.15-.64,.29-.98,.34-.05,.05-.1,.1-.15,.1-.25,.05-.49,.1-.64,.2-.29,.1-.64,.2-1.03,.29-4.95,1.32-9.6-.49-12.2-3.43-2.11-2.35-2.84-5.34-1.32-7.99,.74-1.27,2.11-2.55,3.87-3.67l.05-.05c6.42-4.16,17.69-6.76,20.09-2.55,.69,1.13,1.13,2.4,1.27,3.72,.74,4.7-1.67,10.14-8.92,13.03Z"/>
        <path class="cls-23" d="M105.51,226.84s8.9,14.19,33.29,12.71c24.4-1.48,28.83-13.41,30.31-23.12s-2.59-21.66-2.59-21.66c0,0-53.92,10.19-61.01,32.07Z"/>
        <path class="cls-28" d="M236.37,295.27c-2.01-1.72-6.17-3.82-12.98-1.67-10.44,3.28-10.97,12.2-10.97,12.2-2.11-2.35-2.84-5.34-1.32-7.99,.74-1.27,2.11-2.55,3.87-3.67l.05-.05c6.42-4.16,17.69-6.76,20.09-2.55,.69,1.13,1.13,2.4,1.27,3.72Z"/>
        <path class="cls-3" d="M167.72,208.51l-.03,.53c.06,37.78-56.55,33.16-65.41,13.05-1.22-2.78-2.25-5.87-3.03-9.12v-.03c-5-20.23-1.87-47.34,7.15-53.55,9.49-6.53,27.73-6.68,41,0,14.96,7.53,20.86,30.04,20.33,49.12Z"/>
        <path class="cls-4" d="M167.72,208.51l-.03,.53s.84-23.64-10.58-36.25c-11.46-12.61-34.32-16.17-47.4-1.97-12.74,13.86-10.58,40.84-10.46,42.12-5-20.23-1.87-47.34,7.15-53.55,9.49-6.53,27.73-6.68,41,0,14.96,7.53,20.86,30.04,20.33,49.12Z"/>
        <g>
          <path class="cls-17" d="M273.85,89.58c-3.22,1.72-10.83-3.03-17.8-8.96-8.46-7.28-15.89-16.36-12.99-17.67,3.97-1.78,18.55-.59,25.26,4.93,2.87,2.37,5.62,6.03,7.27,9.74,2.09,4.84,2.28,9.77-1.75,11.96Z"/>
          <path class="cls-1" d="M275.6,77.62s-.06-.09-.09-.12c-10.54-15.92-26.81-15.23-28-10.89-1.19,4.34,8.54,14.01,8.54,14.01-8.46-7.28-15.89-16.36-12.99-17.67,3.97-1.78,18.55-.59,25.26,4.93,2.87,2.37,5.62,6.03,7.27,9.74Z"/>
        </g>
        <path class="cls-33" d="M35.44,119.11s24.08-12.08,26.61-35.94c0,0-12.14,24.55-26.61,35.94Z"/>
        <path class="cls-33" d="M214.91,237.39s2.37-47.83,36.97-76.03c0,0-41.5,19.85-36.97,76.03Z"/>
        <path class="cls-19" d="M155.55,61.27s6.49,9.85,28.66,9.1c22.17-.75,29.45-10.88,30.7-13.59,0,0-5.5,16.98-30.57,16.39-26.45-.62-28.79-11.89-28.79-11.89Z"/>
        <path class="cls-19" d="M109.71,302.3s33.63,13.57,40.44,33.1c0,0-.75-22.42-40.44-33.1Z"/>
        <path class="cls-15" d="M306.95,194.71v.06s-11.42-19.73-43.12-11.08c-28.41,7.74-40.69,44.3-42.94,52.26-1.06-8.9,.22-17.83,2.12-24.2,3.78-12.61,24.04-42.18,47.24-46.34,8.24-1.5,16.86,.25,25.26,7.15,7.09,5.87,10.62,13.58,11.43,22.14Z"/>
        <path class="cls-11" d="M209.76,43.65c.09,.84,.09,1.66,0,2.44-5.93-8.71-16.86-10.65-30.63-7.68-13.8,2.97-19.86,15.52-19.86,15.52-2.65-10.4,6.62-18.73,12.77-21.95,7.59-4,36.03-8.09,37.72,11.68Z"/>
      </g>
    </g>
  </g>
</svg>