<svg width="916" height="1017" viewBox="0 0 916 1017" fill="none" xmlns="http://www.w3.org/2000/svg">
<g clip-path="url(#clip0_26_163)">
<path fill-rule="evenodd" clip-rule="evenodd" d="M698.817 102.835C698.817 102.835 754.155 118.171 790.958 115.955C790.958 115.955 856.938 160.724 893.741 279.427C893.741 279.427 862.081 316.926 868.821 360.542C868.821 360.542 812.419 207.354 698.817 102.835Z" fill="url(#paint0_linear_26_163)"/>
<path fill-rule="evenodd" clip-rule="evenodd" d="M759.476 988.632C759.476 988.632 736.95 981.806 720.189 983.845C720.189 983.845 697.664 967.001 697.309 937.746C697.309 937.746 714.602 916.47 720.81 899.981C720.81 899.981 727.727 947.232 759.476 988.632Z" fill="url(#paint1_linear_26_163)"/>
<path fill-rule="evenodd" clip-rule="evenodd" d="M877.689 446.711C877.689 487.047 872.014 526.141 861.283 563.02C839.999 637.221 798.762 702.911 743.69 754.151C704.315 790.852 657.846 820.018 606.676 839.433C560.295 857.074 510.101 866.649 457.512 866.649C450.063 866.649 442.525 866.471 435.164 866.028C424.168 865.496 413.26 864.432 402.529 863.102C321.385 852.464 247.69 818.777 187.918 768.601C165.481 749.896 145.084 728.797 127.082 705.748C113.425 688.461 101.098 670.11 90.2786 650.696C87.7068 646.086 85.2237 641.387 82.7406 636.689C82.7406 636.511 82.7406 636.423 82.5633 636.245C79.9915 631.192 77.5971 626.139 75.2913 620.998C68.0194 604.952 61.6342 588.374 56.4907 571.353C52.5886 559.12 49.3074 546.531 46.6469 533.765C46.6469 533.677 46.6469 533.499 46.6469 533.411C44.7846 524.457 43.1883 515.415 41.9468 506.284C39.1089 486.781 37.69 466.923 37.69 446.711C37.69 435.097 38.1334 423.484 39.1976 412.137C39.7297 404.867 40.5278 397.687 41.5033 390.506C46.913 349.195 58.4417 309.834 75.114 273.221C83.2727 255.225 92.6731 237.938 103.226 221.361C120.785 193.702 141.537 168.348 164.949 145.564C240.329 71.9843 343.644 26.6838 457.512 26.6838C461.946 26.6838 466.38 26.7725 470.726 26.8611C475.426 27.0384 480.126 27.2157 484.826 27.5703C508.948 29.1661 532.537 32.7121 555.329 38.2084C568.631 41.3998 581.667 45.1232 594.438 49.5557C603.129 52.4812 611.642 55.7612 620.067 59.3073C626.363 61.9668 632.483 64.715 638.602 67.6404C639.666 68.1723 640.73 68.6156 641.794 69.1475C682.588 89.0939 719.569 115.334 751.672 146.805C756.283 151.238 760.717 155.848 765.151 160.546C768.078 163.738 771.004 167.018 773.842 170.298C778.72 175.794 783.42 181.556 788.031 187.319C804.792 208.595 819.514 231.467 831.84 255.757C846.296 283.948 857.647 314.001 865.362 345.472C873.432 377.918 877.689 411.782 877.689 446.711Z" fill="url(#paint2_radial_26_163)"/>
<path style="mix-blend-mode:multiply" opacity="0.5" fill-rule="evenodd" clip-rule="evenodd" d="M53.4755 384.655C53.4755 384.655 128.412 423.75 195.545 370.56C262.677 317.458 208.936 119.235 208.936 119.235L53.4755 384.655Z" fill="url(#paint3_linear_26_163)"/>
<path style="mix-blend-mode:multiply" opacity="0.89" fill-rule="evenodd" clip-rule="evenodd" d="M540.519 686.599C540.519 686.599 574.396 727.378 657.402 731.811C740.409 736.332 823.238 641.121 842.305 554.864C861.372 468.607 799.737 381.464 739.256 367.989C678.775 354.425 540.519 686.599 540.519 686.599Z" fill="url(#paint4_linear_26_163)"/>
<path style="mix-blend-mode:screen" fill-rule="evenodd" clip-rule="evenodd" d="M208.404 774.629C164.949 738.282 128.944 693.248 103.138 642.274C86.9087 610.182 74.6705 575.875 67.0439 539.794C67.0439 539.794 67.0439 539.616 67.0439 539.439C61.1908 511.425 58.0869 482.437 58.0869 452.739C58.0869 369.85 82.1199 292.547 123.623 227.389C141.271 199.73 161.934 174.376 185.346 151.593C260.903 78.1012 364.218 32.8007 478.087 32.8007C487.31 32.8007 496.266 33.0667 505.312 33.6872C533.779 35.5489 561.448 40.2474 588.141 47.4281C555.329 36.7014 520.654 29.8753 484.738 27.5703C475.692 26.9498 466.647 26.6838 457.512 26.6838C343.644 26.6838 240.329 71.9843 164.594 145.564C141.182 168.259 120.519 193.613 102.872 221.361C61.3682 286.519 37.3353 363.822 37.3353 446.711C37.3353 476.408 40.4391 505.397 46.2922 533.411C46.2922 533.588 46.2922 533.677 46.2922 533.765C53.8302 569.846 66.157 604.243 82.3859 636.245C108.281 687.22 144.286 732.254 187.652 768.601C233.678 807.164 288.04 836.064 347.635 852.11C296.11 835.266 248.931 808.76 208.226 774.718L208.404 774.629Z" fill="url(#paint5_radial_26_163)"/>
<path fill-rule="evenodd" clip-rule="evenodd" d="M114.4 688.904C114.4 688.904 141.005 732.254 134.265 802.82C134.265 802.82 192.618 904.768 357.301 913.19C357.301 913.19 440.219 852.11 519.501 862.039C519.501 862.039 382.487 666.83 114.4 688.904Z" fill="url(#paint6_linear_26_163)"/>
<path fill-rule="evenodd" clip-rule="evenodd" d="M53.4755 384.655C53.4755 384.655 25.8066 308.504 1.06419 281.643C1.06419 281.643 -18.0025 160.724 105.266 119.235C105.266 119.235 171.6 131.912 208.936 119.235C208.936 119.235 223.125 200.971 166.811 288.292C118.834 362.758 53.3868 384.566 53.3868 384.566L53.4755 384.655Z" fill="url(#paint7_linear_26_163)"/>
<path fill-rule="evenodd" clip-rule="evenodd" d="M808.34 443.962C808.34 443.962 778.986 340.684 679.218 334.567C573.42 328.007 479.772 538.996 512.407 639.792C545.042 740.587 662.723 726.049 716.642 689.436C782.09 644.933 814.281 546.62 808.251 443.962H808.34Z" fill="url(#paint8_linear_26_163)"/>
<path style="mix-blend-mode:multiply" opacity="0.5" fill-rule="evenodd" clip-rule="evenodd" d="M359.696 140.777C359.696 140.777 395.523 201.326 464.873 194.677C540.608 187.407 560.827 123.313 557.989 97.9589C555.151 72.6049 359.696 140.777 359.696 140.777Z" fill="url(#paint9_linear_26_163)"/>
<path fill-rule="evenodd" clip-rule="evenodd" d="M695.536 370.56C604.104 370.028 468.598 613.285 586.545 695.11C698.551 772.767 802.132 604.154 814.281 546.531C826.431 488.908 818.627 371.269 695.536 370.56Z" fill="url(#paint10_linear_26_163)"/>
<path fill-rule="evenodd" clip-rule="evenodd" d="M652.968 692.627C648.623 692.273 644.366 691.652 640.375 691.032C583.619 681.28 562.335 641.831 557.546 602.026C554.531 576.761 558.167 551.407 563.576 533.322C574.307 497.507 631.862 413.555 697.753 401.765C721.165 397.509 745.641 402.474 769.497 422.066C789.628 438.732 799.649 460.629 801.955 484.919C810.823 575.52 714.78 698.124 652.968 692.627Z" fill="url(#paint11_linear_26_163)"/>
<path fill-rule="evenodd" clip-rule="evenodd" d="M375.836 29.5207C375.836 29.5207 333.8 83.4202 354.552 131.912C376.545 183.329 499.725 181.113 539.543 141.841C579.362 102.569 547.614 27.659 513.382 14.5387C474.362 -0.443249 422.926 2.39357 375.924 29.5207H375.836Z" fill="url(#paint12_radial_26_163)"/>
<path fill-rule="evenodd" clip-rule="evenodd" d="M367.943 100.087C389.404 143.259 536.174 149.465 546.815 74.4665C556.925 3.28007 452.812 -5.49634 422.749 2.39356C392.685 10.2835 339.033 41.9317 367.943 100.087Z" fill="url(#paint13_linear_26_163)"/>
<path fill-rule="evenodd" clip-rule="evenodd" d="M525.975 56.0272C526.241 58.4208 526.241 60.7257 525.975 62.9419C525.975 65.3355 525.532 67.7291 525 69.9453C513.027 118.083 416.275 133.774 394.193 107.001C388.074 99.5546 384.349 92.1966 382.576 85.1932C375.038 55.6726 401.376 32.0029 418.847 22.8719C440.397 11.5246 521.186 -0.0886564 525.975 56.0272Z" fill="url(#paint14_linear_26_163)"/>
<path fill-rule="evenodd" clip-rule="evenodd" d="M1.0642 281.643C3.1039 309.125 141.271 178.897 105.266 119.235C105.266 119.235 -10.1098 129.873 1.0642 281.643Z" fill="url(#paint15_linear_26_163)"/>
<path fill-rule="evenodd" clip-rule="evenodd" d="M134.265 802.82C125.663 753.708 375.215 787.661 357.301 913.19C353.399 940.583 148.543 884.379 134.265 802.82Z" fill="url(#paint16_linear_26_163)"/>
<path fill-rule="evenodd" clip-rule="evenodd" d="M334.865 909.555C330.696 912.924 193.771 892.712 146.681 809.558C143.577 803.973 158.209 802.2 180.646 804.859C189.159 805.834 198.737 807.519 208.936 809.912C241.393 817.447 279.615 832.164 305.511 855.567C313.581 862.837 319.789 869.397 324.4 875.248C331.051 883.758 334.599 890.673 336.195 895.992C338.412 903.527 336.816 908.048 334.865 909.555Z" fill="url(#paint17_linear_26_163)"/>
<path fill-rule="evenodd" clip-rule="evenodd" d="M324.4 875.248C270.126 865.674 231.106 833.582 208.936 809.912C241.393 817.448 279.615 832.164 305.511 855.567C313.581 862.837 319.789 869.397 324.4 875.248Z" fill="url(#paint18_linear_26_163)"/>
<path fill-rule="evenodd" clip-rule="evenodd" d="M90.2786 157C87.9729 164.358 84.0709 174.198 78.2178 187.319C67.7533 210.634 47.0017 234.924 31.9257 246.715C24.2103 252.832 18.0025 255.668 15.4307 253.452C10.1985 248.931 11.0853 215.421 27.1368 184.393C43.1883 153.188 86.554 131.114 90.9881 135.901C93.7373 138.916 94.2694 144.501 90.2786 157Z" fill="url(#paint19_linear_26_163)"/>
<path fill-rule="evenodd" clip-rule="evenodd" d="M90.2787 157C87.9729 164.358 84.0709 174.198 78.2178 187.319C67.7533 210.634 47.0017 234.924 31.9257 246.715C49.5734 198.843 80.701 166.22 90.2787 157Z" fill="url(#paint20_linear_26_163)"/>
<path fill-rule="evenodd" clip-rule="evenodd" d="M134.265 629.863C129.92 627.203 125.663 622.416 121.85 616.299C121.85 616.299 121.85 616.211 121.672 616.033C107.749 593.605 99.679 554.598 114.4 546.62C132.58 536.691 159.451 541.833 171.6 574.102C171.6 574.102 171.6 574.19 171.6 574.279C172.044 575.343 172.487 576.495 172.753 577.648C172.753 577.825 172.931 578.002 172.931 578.179C173.108 579.066 173.374 579.864 173.64 580.396C173.995 581.548 174.35 582.701 174.616 583.942C182.154 614.703 154.485 642.185 134.176 629.863H134.265Z" fill="url(#paint21_linear_26_163)"/>
<path style="mix-blend-mode:multiply" opacity="0.4" fill-rule="evenodd" clip-rule="evenodd" d="M171.6 574.101C164.772 560.361 138.167 544.404 121.85 559.297C104.734 574.899 120.253 612.487 121.672 616.033C107.749 593.605 99.679 554.598 114.4 546.62C132.58 536.691 159.451 541.833 171.6 574.101Z" fill="url(#paint22_radial_26_163)"/>
<path fill-rule="evenodd" clip-rule="evenodd" d="M261.524 221.183C259.662 219.765 257.888 217.46 256.381 214.446C256.381 214.446 256.381 214.446 256.381 214.357C250.882 203.542 248.665 185.28 255.76 182.177C264.539 178.276 276.6 181.734 280.946 196.982C281.123 197.514 281.3 198.045 281.3 198.577C281.3 198.577 281.3 198.755 281.3 198.843C281.3 199.287 281.478 199.641 281.566 199.907C281.655 200.439 281.833 200.971 281.921 201.591C284.227 216.042 270.392 227.566 261.524 221.095V221.183Z" fill="url(#paint23_linear_26_163)"/>
<path style="mix-blend-mode:multiply" opacity="0.4" fill-rule="evenodd" clip-rule="evenodd" d="M280.857 196.982C278.285 190.422 266.668 182 258.598 188.294C250.173 194.765 255.76 212.673 256.292 214.357C250.794 203.542 248.577 185.28 255.671 182.177C264.451 178.276 276.512 181.734 280.857 196.982Z" fill="url(#paint24_radial_26_163)"/>
<path fill-rule="evenodd" clip-rule="evenodd" d="M576.169 807.43H575.992C575.194 807.873 574.218 808.228 573.243 808.405C573.065 808.582 572.977 808.671 572.799 808.671C572.09 808.848 571.38 808.937 571.026 809.203C570.228 809.469 569.252 809.735 568.099 810.001C554.087 813.724 540.785 808.582 533.424 800.249C527.483 793.6 525.354 785.09 529.7 777.555C531.828 773.92 535.641 770.285 540.696 767.094L540.874 766.917C559.142 755.126 591.068 747.679 597.896 759.647C599.847 762.839 601.089 766.473 601.532 770.197C603.661 783.583 596.832 799.008 576.169 807.164V807.43Z" fill="url(#paint25_linear_26_163)"/>
<path style="mix-blend-mode:screen" opacity="0.5" fill-rule="evenodd" clip-rule="evenodd" d="M229.865 576.14C229.865 576.14 255.139 616.388 324.4 612.221C393.661 608.055 406.254 574.101 410.511 546.531C414.767 518.961 403.15 485.008 403.15 485.008C403.15 485.008 249.996 513.908 229.865 576.052V576.14Z" fill="url(#paint26_radial_26_163)"/>
<path style="mix-blend-mode:multiply" opacity="0.4" fill-rule="evenodd" clip-rule="evenodd" d="M601.532 770.463C595.857 765.587 583.973 759.647 564.641 765.764C535.021 775.072 533.513 800.427 533.513 800.427C527.571 793.778 525.443 785.267 529.788 777.732C531.917 774.097 535.73 770.463 540.785 767.271L540.962 767.094C559.231 755.303 591.157 747.857 597.985 759.825C599.936 763.016 601.178 766.651 601.621 770.374L601.532 770.463Z" fill="url(#paint27_radial_26_163)"/>
<path fill-rule="evenodd" clip-rule="evenodd" d="M406.52 524.103V525.61C406.609 632.877 245.827 619.757 220.642 562.666C217.183 554.776 214.257 545.999 212.039 536.78C197.85 479.245 206.719 402.297 232.348 384.655C259.307 366.127 311.098 365.684 348.788 384.655C391.267 406.02 408.027 469.937 406.52 524.103Z" fill="url(#paint28_linear_26_163)"/>
<path style="mix-blend-mode:multiply" opacity="0.4" fill-rule="evenodd" clip-rule="evenodd" d="M406.52 524.103V525.61C406.52 525.61 408.826 458.501 376.368 422.686C343.821 386.871 278.906 376.765 241.748 417.101C205.566 456.462 211.685 533.056 212.039 536.691C197.85 479.245 206.719 402.297 232.348 384.655C259.307 366.127 311.098 365.684 348.788 384.655C391.267 406.02 408.027 469.937 406.52 524.103Z" fill="url(#paint29_linear_26_163)"/>
<path fill-rule="evenodd" clip-rule="evenodd" d="M707.951 186.432C698.817 191.308 677.178 177.833 657.402 160.99C633.369 140.334 612.263 114.537 620.51 110.813C631.773 105.76 673.188 109.129 692.254 124.82C700.413 131.558 708.217 141.93 712.917 152.479C718.859 166.22 719.391 180.227 707.951 186.432Z" fill="url(#paint30_linear_26_163)"/>
<path style="mix-blend-mode:multiply" opacity="0.4" fill-rule="evenodd" clip-rule="evenodd" d="M712.917 152.479C712.917 152.479 712.74 152.213 712.651 152.124C682.677 106.913 636.473 108.863 633.103 121.185C629.733 133.508 657.402 160.99 657.402 160.99C633.369 140.334 612.263 114.537 620.51 110.813C631.773 105.76 673.188 109.129 692.254 124.82C700.413 131.558 708.217 141.93 712.917 152.479Z" fill="url(#paint31_linear_26_163)"/>
<path fill-rule="evenodd" clip-rule="evenodd" d="M30.8615 270.296C30.8615 270.296 99.2355 235.988 106.419 168.259C106.419 168.259 71.9214 237.938 30.8615 270.296Z" fill="#E5BDFA"/>
<path fill-rule="evenodd" clip-rule="evenodd" d="M540.519 606.104C540.519 606.104 547.259 470.292 645.519 390.24C645.519 390.24 527.66 446.622 540.519 606.104Z" fill="#E5BDFA"/>
<path fill-rule="evenodd" clip-rule="evenodd" d="M371.934 106.026C371.934 106.026 390.38 133.951 453.344 131.823C516.309 129.696 536.972 100.973 540.519 93.2605C540.519 93.2605 524.911 141.486 453.699 139.802C378.585 138.029 371.934 106.026 371.934 106.026Z" fill="#FFA5F7"/>
<path fill-rule="evenodd" clip-rule="evenodd" d="M241.748 790.409C241.748 790.409 337.259 828.972 356.592 884.379C356.592 884.379 354.463 820.728 241.748 790.409Z" fill="#FFA5F7"/>
<path style="mix-blend-mode:multiply" opacity="0.71" fill-rule="evenodd" clip-rule="evenodd" d="M801.955 484.919V485.096C801.955 485.096 769.497 429.069 679.484 453.625C598.783 475.611 563.931 579.421 557.546 602.026C554.531 576.761 558.167 551.407 563.576 533.322C574.307 497.507 631.862 413.555 697.753 401.765C721.165 397.509 745.641 402.474 769.497 422.066C789.628 438.732 799.649 460.629 801.955 484.919Z" fill="url(#paint32_linear_26_163)"/>
<path fill-rule="evenodd" clip-rule="evenodd" d="M911.3 934.644C909.615 944.129 906.6 953.083 902.52 961.239C894.362 977.728 881.946 991.38 866.87 1001.13C856.051 1008.05 843.901 1012.92 831.131 1015.32C819.514 1017.53 807.275 1017.62 794.949 1015.32C793.175 1014.96 791.401 1014.61 789.716 1014.25C787.145 1013.63 784.661 1012.92 782.178 1012.21C763.555 1006.27 747.77 995.281 735.798 980.919C731.363 975.6 727.461 969.749 724.18 963.632C721.697 959.023 719.569 954.147 717.884 949.182C717.44 948.03 717.086 946.789 716.731 945.548C716.731 945.548 716.731 945.548 716.731 945.459C716.376 944.129 716.021 942.888 715.667 941.558C714.602 937.481 713.804 933.314 713.361 929.147C713.006 926.133 712.74 923.03 712.651 919.928C712.651 917.711 712.651 915.584 712.651 913.368C712.829 908.669 713.361 903.971 714.159 899.183C714.691 896.435 715.223 893.776 716.021 891.116C716.465 889.432 716.908 887.747 717.44 886.152C720.455 876.666 724.801 867.978 730.299 860.088C732.96 856.188 735.886 852.553 739.079 849.096C744.4 843.334 750.341 838.28 756.815 833.937C777.656 819.841 803.817 813.636 830.599 818.423C831.663 818.6 832.639 818.777 833.703 819.043C834.767 819.309 835.92 819.487 836.984 819.841C842.571 821.26 847.981 823.033 853.036 825.337C856.051 826.667 858.889 828.086 861.726 829.681C863.677 830.745 865.54 831.898 867.313 833.05C868.644 833.937 869.974 834.823 871.304 835.798C871.57 835.976 871.748 836.153 872.014 836.33C880.704 842.713 888.331 850.426 894.539 859.202C895.426 860.443 896.313 861.684 897.111 863.014C897.643 863.9 898.175 864.787 898.707 865.674C899.594 867.181 900.481 868.688 901.279 870.283C904.294 875.957 906.777 881.985 908.639 888.191C910.856 895.46 912.187 902.907 912.719 910.619C913.251 918.598 912.719 926.665 911.3 934.91V934.644Z" fill="url(#paint33_radial_26_163)"/>
<path fill-rule="evenodd" clip-rule="evenodd" d="M839.733 808.937C839.733 808.937 800.004 807.873 785.105 847.411C769.319 889.432 831.042 953.703 870.329 953.172C909.615 952.64 919.547 903.173 913.606 876.755C906.422 844.663 876.182 819.309 839.645 808.937H839.733Z" fill="url(#paint34_linear_26_163)"/>
<path fill-rule="evenodd" clip-rule="evenodd" d="M799.826 845.373C788.031 882.34 855.607 967.622 899.15 930.123C940.476 894.485 894.894 831.454 876.27 819.309C857.647 807.164 815.7 795.551 799.737 845.284L799.826 845.373Z" fill="url(#paint35_linear_26_163)"/>
<path fill-rule="evenodd" clip-rule="evenodd" d="M906.777 902.995C906.068 904.68 905.358 906.364 904.649 907.871C894.007 929.591 877.512 933.314 863.057 930.211C853.834 928.261 845.498 923.651 839.822 919.13C828.737 910.265 806.743 876.489 811 848.298C812.508 838.28 817.385 828.972 827.229 821.791C835.565 815.763 844.522 814.433 853.302 816.561C886.026 824.362 916.621 878.528 906.777 902.907V902.995Z" fill="url(#paint36_linear_26_163)"/>
<path fill-rule="evenodd" clip-rule="evenodd" d="M904.56 907.871C887.178 943.42 854.188 930.654 839.733 919.13C828.648 910.265 806.655 876.489 810.911 848.298C813.572 843.067 817.563 838.192 823.238 834.114C859.864 807.43 907.753 873.475 904.471 907.782L904.56 907.871Z" fill="url(#paint37_linear_26_163)"/>
<path style="mix-blend-mode:multiply" opacity="0.71" fill-rule="evenodd" clip-rule="evenodd" d="M853.213 816.65C853.213 816.65 829.535 822.767 826.697 862.305C824.125 897.676 855.873 924.803 862.968 930.3C853.745 928.349 845.409 923.74 839.733 919.218C828.648 910.353 806.655 876.577 810.911 848.387C812.419 838.369 817.297 829.061 827.14 821.88C835.476 815.852 844.433 814.522 853.213 816.65Z" fill="url(#paint38_linear_26_163)"/>
<path style="mix-blend-mode:multiply" opacity="0.71" fill-rule="evenodd" clip-rule="evenodd" d="M525.975 56.0272C526.241 58.4208 526.241 60.7257 525.975 62.9419C509.125 38.2084 478.087 32.7121 438.978 41.1339C399.78 49.5557 382.576 85.1932 382.576 85.1932C375.038 55.6726 401.376 32.0029 418.847 22.8719C440.397 11.5246 521.186 -0.0886545 525.975 56.0272Z" fill="url(#paint39_linear_26_163)"/>
</g>
<defs>
<linearGradient id="paint0_linear_26_163" x1="771.891" y1="345.206" x2="807.694" y2="118.522" gradientUnits="userSpaceOnUse">
<stop stop-color="#8931B3"/>
<stop offset="1" stop-color="#8E8CFF"/>
</linearGradient>
<linearGradient id="paint1_linear_26_163" x1="746.956" y1="908.821" x2="721.178" y2="984.141" gradientUnits="userSpaceOnUse">
<stop stop-color="#8E8CFF"/>
<stop offset="1" stop-color="#8931B3"/>
</linearGradient>
<radialGradient id="paint2_radial_26_163" cx="0" cy="0" r="1" gradientUnits="userSpaceOnUse" gradientTransform="translate(315 300.614) scale(633.547 633.32)">
<stop stop-color="#FFB8E2"/>
<stop offset="0.22" stop-color="#FCB7E2"/>
<stop offset="0.33" stop-color="#F5B4E5"/>
<stop offset="0.42" stop-color="#E7B0E9"/>
<stop offset="0.49" stop-color="#D5AAEF"/>
<stop offset="0.55" stop-color="#BDA2F7"/>
<stop offset="0.58" stop-color="#AE9DFC"/>
<stop offset="0.64" stop-color="#A896FC"/>
<stop offset="0.72" stop-color="#9982FC"/>
<stop offset="0.81" stop-color="#8063FD"/>
<stop offset="0.91" stop-color="#5E37FE"/>
<stop offset="0.92" stop-color="#5E37FF"/>
<stop offset="0.99" stop-color="#5E9AFF"/>
</radialGradient>
<linearGradient id="paint3_linear_26_163" x1="53.4755" y1="258.86" x2="229.244" y2="258.86" gradientUnits="userSpaceOnUse">
<stop stop-color="white"/>
<stop offset="0.17" stop-color="#DBCFEA"/>
<stop offset="0.36" stop-color="#B9A2D6"/>
<stop offset="0.55" stop-color="#9E7FC7"/>
<stop offset="0.72" stop-color="#8B66BC"/>
<stop offset="0.87" stop-color="#8057B5"/>
<stop offset="1" stop-color="#7C52B3"/>
</linearGradient>
<linearGradient id="paint4_linear_26_163" x1="540.519" y1="549.723" x2="845.852" y2="549.723" gradientUnits="userSpaceOnUse">
<stop stop-color="#7C52B3"/>
<stop offset="0.13" stop-color="#8057B5"/>
<stop offset="0.28" stop-color="#8B66BC"/>
<stop offset="0.45" stop-color="#9E7FC7"/>
<stop offset="0.64" stop-color="#B9A2D6"/>
<stop offset="0.83" stop-color="#DBCFEA"/>
<stop offset="1" stop-color="white"/>
</linearGradient>
<radialGradient id="paint5_radial_26_163" cx="0" cy="0" r="1" gradientUnits="userSpaceOnUse" gradientTransform="translate(150.494 160.812) scale(553.023 552.825)">
<stop stop-color="#FFFFD9"/>
<stop offset="1"/>
</radialGradient>
<linearGradient id="paint6_linear_26_163" x1="296.288" y1="905.743" x2="327.571" y2="708.315" gradientUnits="userSpaceOnUse">
<stop stop-color="#6D109D"/>
<stop offset="1" stop-color="#8E8CFF"/>
</linearGradient>
<linearGradient id="paint7_linear_26_163" x1="171.6" y1="287.051" x2="33.0325" y2="166.614" gradientUnits="userSpaceOnUse">
<stop stop-color="#C98EFF"/>
<stop offset="1" stop-color="#8931B3"/>
</linearGradient>
<linearGradient id="paint8_linear_26_163" x1="776.806" y1="624.314" x2="539.68" y2="442.94" gradientUnits="userSpaceOnUse">
<stop stop-color="#5400B3"/>
<stop offset="1" stop-color="#F2C0FF"/>
</linearGradient>
<linearGradient id="paint9_linear_26_163" x1="359.696" y1="143.791" x2="558.255" y2="143.791" gradientUnits="userSpaceOnUse">
<stop stop-color="white"/>
<stop offset="0.17" stop-color="#DBCFEA"/>
<stop offset="0.36" stop-color="#B9A2D6"/>
<stop offset="0.55" stop-color="#9E7FC7"/>
<stop offset="0.72" stop-color="#8B66BC"/>
<stop offset="0.87" stop-color="#8057B5"/>
<stop offset="1" stop-color="#7C52B3"/>
</linearGradient>
<linearGradient id="paint10_linear_26_163" x1="658.083" y1="717.497" x2="703.229" y2="370.247" gradientUnits="userSpaceOnUse">
<stop stop-color="#644FF7"/>
<stop offset="1" stop-color="#9F6DFF"/>
</linearGradient>
<linearGradient id="paint11_linear_26_163" x1="577.233" y1="670.021" x2="762.057" y2="443.366" gradientUnits="userSpaceOnUse">
<stop stop-color="#935CE1"/>
<stop offset="0.22" stop-color="#8F5ADF"/>
<stop offset="0.43" stop-color="#8353DB"/>
<stop offset="0.63" stop-color="#7149D5"/>
<stop offset="0.82" stop-color="#563BCC"/>
<stop offset="0.99" stop-color="#392CC2"/>
</linearGradient>
<radialGradient id="paint12_radial_26_163" cx="0" cy="0" r="1" gradientUnits="userSpaceOnUse" gradientTransform="translate(369.001 110.353) rotate(-109.296) scale(157.538 157.582)">
<stop stop-color="#DEA5FF"/>
<stop offset="1" stop-color="#8931B3"/>
</radialGradient>
<linearGradient id="paint13_linear_26_163" x1="540.401" y1="35.5449" x2="365.892" y2="96.6445" gradientUnits="userSpaceOnUse">
<stop stop-color="#C287F8"/>
<stop offset="1" stop-color="#CCB3FF"/>
</linearGradient>
<linearGradient id="paint14_linear_26_163" x1="453.699" y1="120.033" x2="453.699" y2="13.4749" gradientUnits="userSpaceOnUse">
<stop stop-color="#9F6DFF"/>
<stop offset="0.27" stop-color="#9B69FE"/>
<stop offset="0.52" stop-color="#905EFD"/>
<stop offset="0.76" stop-color="#7D4BFA"/>
<stop offset="1" stop-color="#6431F7"/>
</linearGradient>
<linearGradient id="paint15_linear_26_163" x1="55.7812" y1="285.366" x2="55.7812" y2="119.235" gradientUnits="userSpaceOnUse">
<stop stop-color="#FC9FF7"/>
<stop offset="1" stop-color="#F66DFF"/>
</linearGradient>
<linearGradient id="paint16_linear_26_163" x1="246.094" y1="920.194" x2="246.094" y2="781.278" gradientUnits="userSpaceOnUse">
<stop stop-color="#C282F7"/>
<stop offset="1" stop-color="#DC6DFF"/>
</linearGradient>
<linearGradient id="paint17_linear_26_163" x1="241.748" y1="909.91" x2="241.748" y2="803.707" gradientUnits="userSpaceOnUse">
<stop stop-color="#4848F7"/>
<stop offset="1" stop-color="#6D20FF"/>
</linearGradient>
<linearGradient id="paint18_linear_26_163" x1="266.668" y1="875.248" x2="266.668" y2="809.912" gradientUnits="userSpaceOnUse">
<stop stop-color="#644FF7"/>
<stop offset="1" stop-color="#9F6DFF"/>
</linearGradient>
<linearGradient id="paint19_linear_26_163" x1="52.8547" y1="254.161" x2="52.8547" y2="135.192" gradientUnits="userSpaceOnUse">
<stop stop-color="#9F6DFF"/>
<stop offset="1" stop-color="#644FF7"/>
</linearGradient>
<linearGradient id="paint20_linear_26_163" x1="56.1359" y1="198.755" x2="67.8396" y2="206.116" gradientUnits="userSpaceOnUse">
<stop stop-color="#9084FF"/>
<stop offset="1" stop-color="#C287F8"/>
</linearGradient>
<linearGradient id="paint21_linear_26_163" x1="102.251" y1="563.109" x2="174.689" y2="608.876" gradientUnits="userSpaceOnUse">
<stop stop-color="#9084FF"/>
<stop offset="0.49" stop-color="#D08BFC"/>
<stop offset="1" stop-color="#FFC9F8"/>
</linearGradient>
<radialGradient id="paint22_radial_26_163" cx="0" cy="0" r="1" gradientUnits="userSpaceOnUse" gradientTransform="translate(139.054 579.066) scale(34.8522 34.8397)">
<stop stop-color="#1372B3"/>
<stop offset="1" stop-color="white"/>
</radialGradient>
<linearGradient id="paint23_linear_26_163" x1="249.477" y1="189.198" x2="280.922" y2="213.034" gradientUnits="userSpaceOnUse">
<stop stop-color="#9084FF"/>
<stop offset="0.49" stop-color="#D08BFC"/>
<stop offset="1" stop-color="#FFC9F8"/>
</linearGradient>
<radialGradient id="paint24_radial_26_163" cx="0" cy="0" r="1" gradientUnits="userSpaceOnUse" gradientTransform="translate(265.737 197.953) rotate(4.81828) scale(16.0515 16.0458)">
<stop stop-color="#1372B3"/>
<stop offset="1" stop-color="white"/>
</radialGradient>
<linearGradient id="paint25_linear_26_163" x1="601.71" y1="783.228" x2="527.483" y2="781.631" gradientUnits="userSpaceOnUse">
<stop stop-color="#9566FC"/>
<stop offset="1" stop-color="#5445B1"/>
</linearGradient>
<radialGradient id="paint26_radial_26_163" cx="0" cy="0" r="1" gradientUnits="userSpaceOnUse" gradientTransform="translate(345.861 597.505) scale(78.4839 78.4558)">
<stop stop-color="#FFFFE8"/>
<stop offset="0.2" stop-color="#BBBBAA"/>
<stop offset="0.42" stop-color="#79796E"/>
<stop offset="0.61" stop-color="#45453E"/>
<stop offset="0.78" stop-color="#1F1F1C"/>
<stop offset="0.91" stop-color="#080807"/>
<stop offset="1"/>
</radialGradient>
<radialGradient id="paint27_radial_26_163" cx="0" cy="0" r="1" gradientUnits="userSpaceOnUse" gradientTransform="translate(564.463 777.111) scale(30.9501 30.9391)">
<stop stop-color="#1372B3"/>
<stop offset="1" stop-color="white"/>
</radialGradient>
<linearGradient id="paint28_linear_26_163" x1="202.728" y1="426.764" x2="404.173" y2="554.22" gradientUnits="userSpaceOnUse">
<stop stop-color="#9084FF"/>
<stop offset="0.12" stop-color="#9684FE"/>
<stop offset="0.29" stop-color="#AA86FD"/>
<stop offset="0.49" stop-color="#C98AFC"/>
<stop offset="0.53" stop-color="#D08BFC"/>
<stop offset="1" stop-color="#FFC9F8"/>
</linearGradient>
<linearGradient id="paint29_linear_26_163" x1="205.3" y1="453.625" x2="406.609" y2="453.625" gradientUnits="userSpaceOnUse">
<stop stop-color="#1372B3"/>
<stop offset="1" stop-color="white"/>
</linearGradient>
<linearGradient id="paint30_linear_26_163" x1="620.599" y1="109.749" x2="719.548" y2="172.369" gradientUnits="userSpaceOnUse">
<stop stop-color="#845FFF"/>
<stop offset="0.49" stop-color="#A972FC"/>
<stop offset="1" stop-color="#D4B0F8"/>
</linearGradient>
<linearGradient id="paint31_linear_26_163" x1="618.648" y1="134.838" x2="712.917" y2="134.838" gradientUnits="userSpaceOnUse">
<stop stop-color="#1372B3"/>
<stop offset="1" stop-color="white"/>
</linearGradient>
<linearGradient id="paint32_linear_26_163" x1="556.482" y1="501.231" x2="801.955" y2="501.231" gradientUnits="userSpaceOnUse">
<stop stop-color="#7C52B3"/>
<stop offset="1" stop-color="white"/>
</linearGradient>
<radialGradient id="paint33_radial_26_163" cx="0" cy="0" r="1" gradientUnits="userSpaceOnUse" gradientTransform="translate(785.25 876.456) rotate(10.2364) scale(151.024 150.974)">
<stop stop-color="#FFB8E2"/>
<stop offset="0.22" stop-color="#FCB7E2"/>
<stop offset="0.33" stop-color="#F5B4E5"/>
<stop offset="0.42" stop-color="#E7B0E9"/>
<stop offset="0.49" stop-color="#D5AAEF"/>
<stop offset="0.55" stop-color="#BDA2F7"/>
<stop offset="0.58" stop-color="#AE9DFC"/>
<stop offset="0.64" stop-color="#A896FC"/>
<stop offset="0.72" stop-color="#9982FC"/>
<stop offset="0.81" stop-color="#8063FD"/>
<stop offset="0.91" stop-color="#5E37FE"/>
<stop offset="0.92" stop-color="#5E37FF"/>
<stop offset="0.99" stop-color="#5E9AFF"/>
</radialGradient>
<linearGradient id="paint34_linear_26_163" x1="900.496" y1="848.348" x2="804.135" y2="913.502" gradientUnits="userSpaceOnUse">
<stop stop-color="#5400B3"/>
<stop offset="1" stop-color="#F2C0FF"/>
</linearGradient>
<linearGradient id="paint35_linear_26_163" x1="917.422" y1="901.926" x2="799.252" y2="844.423" gradientUnits="userSpaceOnUse">
<stop stop-color="#644FF7"/>
<stop offset="1" stop-color="#9F6DFF"/>
</linearGradient>
<linearGradient id="paint36_linear_26_163" x1="910.811" y1="891.22" x2="807.652" y2="856.611" gradientUnits="userSpaceOnUse">
<stop stop-color="#392CC2"/>
<stop offset="1" stop-color="#5F33C5"/>
</linearGradient>
<linearGradient id="paint37_linear_26_163" x1="908.248" y1="897.186" x2="806.182" y2="862.944" gradientUnits="userSpaceOnUse">
<stop stop-color="#5E48F7"/>
<stop offset="1" stop-color="#8C50FF"/>
</linearGradient>
<linearGradient id="paint38_linear_26_163" x1="826.909" y1="918.54" x2="860.274" y2="819.017" gradientUnits="userSpaceOnUse">
<stop stop-color="#7C52B3"/>
<stop offset="1" stop-color="white"/>
</linearGradient>
<linearGradient id="paint39_linear_26_163" x1="381.245" y1="49.3784" x2="526.152" y2="49.3784" gradientUnits="userSpaceOnUse">
<stop stop-color="#7C52B3"/>
<stop offset="1" stop-color="white"/>
</linearGradient>
<clipPath id="clip0_26_163">
<rect width="916" height="1017" fill="white"/>
</clipPath>
</defs>
</svg>
