<?xml version="1.0" encoding="UTF-8"?>
<svg xmlns="http://www.w3.org/2000/svg" xmlns:xlink="http://www.w3.org/1999/xlink" viewBox="0 0 338.4 338.4">
  <defs>
    <style>
      .cls-1 {
        fill: url(#_Áåçûìÿííûé_ãðàäèåíò_9-4);
      }

      .cls-1, .cls-2, .cls-3, .cls-4, .cls-5, .cls-6, .cls-7, .cls-8, .cls-9, .cls-10, .cls-11, .cls-12, .cls-13, .cls-14, .cls-15, .cls-16, .cls-17, .cls-18, .cls-19, .cls-20, .cls-21, .cls-22, .cls-23, .cls-24, .cls-25, .cls-26, .cls-27, .cls-28, .cls-29 {
        fill-rule: evenodd;
      }

      .cls-1, .cls-6, .cls-8, .cls-12, .cls-14, .cls-19, .cls-20, .cls-22, .cls-23, .cls-25 {
        mix-blend-mode: multiply;
      }

      .cls-1, .cls-6, .cls-8, .cls-14, .cls-20, .cls-22, .cls-23 {
        opacity: .4;
      }

      .cls-2 {
        fill: url(#_Áåçûìÿííûé_ãðàäèåíò_37);
      }

      .cls-30 {
        fill: url(#_Áåçûìÿííûé_ãðàäèåíò_136);
      }

      .cls-30, .cls-31, .cls-32, .cls-10, .cls-15, .cls-33, .cls-34 {
        mix-blend-mode: screen;
      }

      .cls-31 {
        fill: url(#_Áåçûìÿííûé_ãðàäèåíò_75-2);
      }

      .cls-3 {
        fill: url(#_Áåçûìÿííûé_ãðàäèåíò_18);
      }

      .cls-32 {
        fill: url(#_Áåçûìÿííûé_ãðàäèåíò_75);
      }

      .cls-4 {
        fill: url(#_Áåçûìÿííûé_ãðàäèåíò_67-3);
      }

      .cls-35 {
        isolation: isolate;
      }

      .cls-5 {
        fill: url(#_Áåçûìÿííûé_ãðàäèåíò_41);
      }

      .cls-6 {
        fill: url(#_Áåçûìÿííûé_ãðàäèåíò_9-5);
      }

      .cls-7 {
        fill: url(#_Áåçûìÿííûé_ãðàäèåíò_858);
      }

      .cls-8 {
        fill: url(#_Áåçûìÿííûé_ãðàäèåíò_9-3);
      }

      .cls-9 {
        fill: url(#_Áåçûìÿííûé_ãðàäèåíò_833);
      }

      .cls-10 {
        fill: url(#_Áåçûìÿííûé_ãðàäèåíò_75-3);
      }

      .cls-11 {
        fill: url(#_Áåçûìÿííûé_ãðàäèåíò_67);
      }

      .cls-12 {
        fill: url(#_Áåçûìÿííûé_ãðàäèåíò_99);
      }

      .cls-13 {
        fill: url(#_Áåçûìÿííûé_ãðàäèåíò_67-2);
      }

      .cls-14 {
        fill: url(#_Áåçûìÿííûé_ãðàäèåíò_9-2);
      }

      .cls-15 {
        fill: url(#_Áåçûìÿííûé_ãðàäèåíò_600);
      }

      .cls-16 {
        fill: url(#_Áåçûìÿííûé_ãðàäèåíò_57);
      }

      .cls-17 {
        fill: url(#_Áåçûìÿííûé_ãðàäèåíò_93);
      }

      .cls-18 {
        fill: url(#_Áåçûìÿííûé_ãðàäèåíò_87-2);
      }

      .cls-19 {
        fill: url(#_Áåçûìÿííûé_ãðàäèåíò_111-2);
      }

      .cls-20 {
        fill: url(#_Áåçûìÿííûé_ãðàäèåíò_559);
      }

      .cls-21 {
        fill: url(#_Áåçûìÿííûé_ãðàäèåíò_27);
      }

      .cls-33 {
        fill: url(#_Áåçûìÿííûé_ãðàäèåíò_123);
        opacity: .05;
      }

      .cls-22 {
        fill: url(#_Áåçûìÿííûé_ãðàäèåíò_559-2);
      }

      .cls-23 {
        fill: url(#_Áåçûìÿííûé_ãðàäèåíò_9);
      }

      .cls-24 {
        fill: url(#_Áåçûìÿííûé_ãðàäèåíò_87);
      }

      .cls-25 {
        fill: url(#_Áåçûìÿííûé_ãðàäèåíò_111);
      }

      .cls-26 {
        fill: url(#_Áåçûìÿííûé_ãðàäèåíò_57-2);
      }

      .cls-27 {
        fill: url(#_Áåçûìÿííûé_ãðàäèåíò_27-2);
      }

      .cls-28 {
        fill: #0edbff;
      }

      .cls-34 {
        fill: url(#_Áåçûìÿííûé_ãðàäèåíò_75-4);
      }

      .cls-29 {
        fill: url(#_Áåçûìÿííûé_ãðàäèåíò_36);
      }
    </style>
    <radialGradient id="_Áåçûìÿííûé_ãðàäèåíò_123" data-name="Áåçûìÿííûé ãðàäèåíò 123" cx="169.2" cy="169.2" fx="169.2" fy="169.2" r="169.2" gradientTransform="translate(169.2 -70.08) rotate(45)" gradientUnits="userSpaceOnUse">
      <stop offset="0" stop-color="#009bff"/>
      <stop offset="1" stop-color="#000"/>
    </radialGradient>
    <linearGradient id="_Áåçûìÿííûé_ãðàäèåíò_37" data-name="Áåçûìÿííûé ãðàäèåíò 37" x1="88.09" y1="103.68" x2="88.09" y2="61.35" gradientUnits="userSpaceOnUse">
      <stop offset="0" stop-color="#9a00b3"/>
      <stop offset="1" stop-color="#7f72ff"/>
    </linearGradient>
    <linearGradient id="_Áåçûìÿííûé_ãðàäèåíò_67" data-name="Áåçûìÿííûé ãðàäèåíò 67" x1="78.72" y1="105.83" x2="94.62" y2="57.27" gradientUnits="userSpaceOnUse">
      <stop offset="0" stop-color="#5b008b"/>
      <stop offset="1" stop-color="#8e00ff"/>
    </linearGradient>
    <radialGradient id="_Áåçûìÿííûé_ãðàäèåíò_858" data-name="Áåçûìÿííûé ãðàäèåíò 858" cx="93.59" cy="112.09" fx="93.59" fy="112.09" r="196.35" gradientUnits="userSpaceOnUse">
      <stop offset="0" stop-color="#60dbff"/>
      <stop offset=".09" stop-color="#5fd5ff"/>
      <stop offset=".21" stop-color="#5ec4ff"/>
      <stop offset=".34" stop-color="#5ca8ff"/>
      <stop offset=".49" stop-color="#5a81ff"/>
      <stop offset=".64" stop-color="#5651ff"/>
      <stop offset=".68" stop-color="#5643ff"/>
      <stop offset=".74" stop-color="#553df8"/>
      <stop offset=".83" stop-color="#542ee4"/>
      <stop offset=".93" stop-color="#5315c5"/>
      <stop offset="1" stop-color="#5200ab"/>
    </radialGradient>
    <linearGradient id="_Áåçûìÿííûé_ãðàäèåíò_833" data-name="Áåçûìÿííûé ãðàäèåíò 833" x1="47.05" y1="135.73" x2="222.88" y2="135.73" gradientUnits="userSpaceOnUse">
      <stop offset=".01" stop-color="#81e0ff"/>
      <stop offset=".32" stop-color="#82ddff"/>
      <stop offset=".55" stop-color="#85d3ff"/>
      <stop offset=".75" stop-color="#8bc3ff"/>
      <stop offset=".94" stop-color="#93adff"/>
      <stop offset="1" stop-color="#97a4ff"/>
    </linearGradient>
    <linearGradient id="_Áåçûìÿííûé_ãðàäèåíò_99" data-name="Áåçûìÿííûé ãðàäèåíò 99" x1="224.68" y1="280.06" x2="224.68" y2="222.67" gradientUnits="userSpaceOnUse">
      <stop offset="0" stop-color="#b8c2ff"/>
      <stop offset="1" stop-color="#5b729c"/>
    </linearGradient>
    <radialGradient id="_Áåçûìÿííûé_ãðàäèåíò_600" data-name="Áåçûìÿííûé ãðàäèåíò 600" cx="79.96" cy="86.06" fx="79.96" fy="86.06" r="160.88" gradientUnits="userSpaceOnUse">
      <stop offset="0" stop-color="#ffffd9"/>
      <stop offset="1" stop-color="#000"/>
    </radialGradient>
    <linearGradient id="_Áåçûìÿííûé_ãðàäèåíò_9" data-name="Áåçûìÿííûé ãðàäèåíò 9" x1="48.17" y1="101.13" x2="201.89" y2="101.13" gradientUnits="userSpaceOnUse">
      <stop offset="0" stop-color="#b8c2ff"/>
      <stop offset="1" stop-color="#7d72b3"/>
    </linearGradient>
    <linearGradient id="_Áåçûìÿííûé_ãðàäèåíò_9-2" data-name="Áåçûìÿííûé ãðàäèåíò 9" x1="73.12" y1="215.55" x2="291.52" y2="215.55" xlink:href="#_Áåçûìÿííûé_ãðàäèåíò_9"/>
    <linearGradient id="_Áåçûìÿííûé_ãðàäèåíò_9-3" data-name="Áåçûìÿííûé ãðàäèåíò 9" x1="60.22" y1="170.38" x2="278.18" y2="170.38" xlink:href="#_Áåçûìÿííûé_ãðàäèåíò_9"/>
    <linearGradient id="_Áåçûìÿííûé_ãðàäèåíò_9-4" data-name="Áåçûìÿííûé ãðàäèåíò 9" x1="47.06" y1="139.92" x2="261.31" y2="139.92" xlink:href="#_Áåçûìÿííûé_ãðàäèåíò_9"/>
    <linearGradient id="_Áåçûìÿííûé_ãðàäèåíò_559" data-name="Áåçûìÿííûé ãðàäèåíò 559" x1="205.78" y1="122.26" x2="208.72" y2="122.26" gradientUnits="userSpaceOnUse">
      <stop offset="0" stop-color="#e8ddff"/>
      <stop offset="1" stop-color="#aa8ad8"/>
    </linearGradient>
    <linearGradient id="_Áåçûìÿííûé_ãðàäèåíò_559-2" data-name="Áåçûìÿííûé ãðàäèåíò 559" x1="54.72" y1="176.6" x2="55.33" y2="176.6" xlink:href="#_Áåçûìÿííûé_ãðàäèåíò_559"/>
    <linearGradient id="_Áåçûìÿííûé_ãðàäèåíò_18" data-name="Áåçûìÿííûé ãðàäèåíò 18" x1="192.72" y1="71.26" x2="271.17" y2="71.26" gradientUnits="userSpaceOnUse">
      <stop offset="0" stop-color="#7f72ff"/>
      <stop offset="1" stop-color="#9a00b3"/>
    </linearGradient>
    <linearGradient id="_Áåçûìÿííûé_ãðàäèåíò_57" data-name="Áåçûìÿííûé ãðàäèåíò 57" x1="210.54" y1="259.58" x2="250.33" y2="138.1" gradientUnits="userSpaceOnUse">
      <stop offset="0" stop-color="#280077"/>
      <stop offset="1" stop-color="#812cff"/>
    </linearGradient>
    <linearGradient id="_Áåçûìÿííûé_ãðàäèåíò_27" data-name="Áåçûìÿííûé ãðàäèåíò 27" x1="409.88" y1="262.99" x2="409.88" y2="141.05" gradientTransform="translate(-85.71 -120.4) rotate(18.14)" gradientUnits="userSpaceOnUse">
      <stop offset="0" stop-color="#7a00b3"/>
      <stop offset="1" stop-color="#b136ff"/>
    </linearGradient>
    <linearGradient id="_Áåçûìÿííûé_ãðàäèåíò_87" data-name="Áåçûìÿííûé ãðàäèåíò 87" x1="235" y1="223.87" x2="235" y2="139.93" gradientUnits="userSpaceOnUse">
      <stop offset="0" stop-color="#8e00b3"/>
      <stop offset="1" stop-color="#e05cff"/>
    </linearGradient>
    <linearGradient id="_Áåçûìÿííûé_ãðàäèåíò_111" data-name="Áåçûìÿííûé ãðàäèåíò 111" x1="100.42" y1="272.45" x2="100.42" y2="223.17" gradientUnits="userSpaceOnUse">
      <stop offset="0" stop-color="#81a9ce"/>
      <stop offset="1" stop-color="#5b729c"/>
    </linearGradient>
    <linearGradient id="_Áåçûìÿííûé_ãðàäèåíò_57-2" data-name="Áåçûìÿííûé ãðàäèåíò 57" x1="86.57" y1="258.3" x2="103.01" y2="208.12" xlink:href="#_Áåçûìÿííûé_ãðàäèåíò_57"/>
    <linearGradient id="_Áåçûìÿííûé_ãðàäèåíò_36" data-name="Áåçûìÿííûé ãðàäèåíò 36" x1="187.08" y1="301.8" x2="187.08" y2="280.06" gradientUnits="userSpaceOnUse">
      <stop offset="0" stop-color="#7a00b3"/>
      <stop offset=".92" stop-color="#7006fc"/>
      <stop offset="1" stop-color="#7006f9"/>
    </linearGradient>
    <linearGradient id="_Áåçûìÿííûé_ãðàäèåíò_27-2" data-name="Áåçûìÿííûé ãðàäèåíò 27" x1="87.56" y1="266.32" x2="87.56" y2="203.84" gradientTransform="matrix(1, 0, 0, 1, 0, 0)" xlink:href="#_Áåçûìÿííûé_ãðàäèåíò_27"/>
    <linearGradient id="_Áåçûìÿííûé_ãðàäèåíò_87-2" data-name="Áåçûìÿííûé ãðàäèåíò 87" x1="90.84" y1="266.29" x2="90.84" y2="203.84" xlink:href="#_Áåçûìÿííûé_ãðàäèåíò_87"/>
    <linearGradient id="_Áåçûìÿííûé_ãðàäèåíò_67-2" data-name="Áåçûìÿííûé ãðàäèåíò 67" x1="180.98" y1="183.82" x2="191.44" y2="151.9" xlink:href="#_Áåçûìÿííûé_ãðàäèåíò_67"/>
    <linearGradient id="_Áåçûìÿííûé_ãðàäèåíò_41" data-name="Áåçûìÿííûé ãðàäèåíò 41" x1="184.63" y1="181.52" x2="193.28" y2="155.11" gradientUnits="userSpaceOnUse">
      <stop offset="0" stop-color="#a400ca"/>
      <stop offset="1" stop-color="#b136ff"/>
    </linearGradient>
    <linearGradient id="_Áåçûìÿííûé_ãðàäèåíò_67-3" data-name="Áåçûìÿííûé ãðàäèåíò 67" x1="227.99" y1="87.55" x2="240.47" y2="49.45" xlink:href="#_Áåçûìÿííûé_ãðàäèåíò_67"/>
    <radialGradient id="_Áåçûìÿííûé_ãðàäèåíò_75" data-name="Áåçûìÿííûé ãðàäèåíò 75" cx="258.91" cy="225.69" fx="258.91" fy="225.69" r="23.14" gradientTransform="translate(106.78 -82.25) rotate(22.63)" gradientUnits="userSpaceOnUse">
      <stop offset="0" stop-color="#317aff"/>
      <stop offset=".1" stop-color="#2967d7"/>
      <stop offset=".29" stop-color="#1c4896"/>
      <stop offset=".47" stop-color="#122e60"/>
      <stop offset=".64" stop-color="#0a1a37"/>
      <stop offset=".78" stop-color="#040b18"/>
      <stop offset=".91" stop-color="#010306"/>
      <stop offset="1" stop-color="#000"/>
    </radialGradient>
    <radialGradient id="_Áåçûìÿííûé_ãðàäèåíò_75-2" data-name="Áåçûìÿííûé ãðàäèåíò 75" cx="227.94" cy="162.79" fx="227.94" fy="162.79" r="21.48" gradientTransform="matrix(1, 0, 0, 1, 0, 0)" xlink:href="#_Áåçûìÿííûé_ãðàäèåíò_75"/>
    <radialGradient id="_Áåçûìÿííûé_ãðàäèåíò_75-3" data-name="Áåçûìÿííûé ãðàäèåíò 75" cx="512.69" cy="260.66" fx="512.69" fy="260.66" r="12.73" gradientTransform="translate(-82.68 -380.15) rotate(35.99) scale(1 .66)" xlink:href="#_Áåçûìÿííûé_ãðàäèåíò_75"/>
    <radialGradient id="_Áåçûìÿííûé_ãðàäèåíò_75-4" data-name="Áåçûìÿííûé ãðàäèåíò 75" cx="79.08" cy="232.46" fx="79.08" fy="232.46" r="23.14" gradientTransform="matrix(1, 0, 0, 1, 0, 0)" xlink:href="#_Áåçûìÿííûé_ãðàäèåíò_75"/>
    <linearGradient id="_Áåçûìÿííûé_ãðàäèåíò_93" data-name="Áåçûìÿííûé ãðàäèåíò 93" x1="242.18" y1="83.82" x2="242.18" y2="42.96" gradientUnits="userSpaceOnUse">
      <stop offset="0" stop-color="#b000d9"/>
      <stop offset="1" stop-color="#e05cff"/>
    </linearGradient>
    <linearGradient id="_Áåçûìÿííûé_ãðàäèåíò_9-5" data-name="Áåçûìÿííûé ãðàäèåíò 9" x1="206.8" y1="266.87" x2="206.8" y2="211.13" xlink:href="#_Áåçûìÿííûé_ãðàäèåíò_9"/>
    <linearGradient id="_Áåçûìÿííûé_ãðàäèåíò_111-2" data-name="Áåçûìÿííûé ãðàäèåíò 111" x1="240.85" y1="128.56" x2="240.85" y2="54.64" xlink:href="#_Áåçûìÿííûé_ãðàäèåíò_111"/>
    <radialGradient id="_Áåçûìÿííûé_ãðàäèåíò_136" data-name="Áåçûìÿííûé ãðàäèåíò 136" cx="-74.15" cy="7.58" fx="-74.15" fy="7.58" r="30.78" gradientTransform="translate(242.83 100.42) scale(1.67 1.07)" gradientUnits="userSpaceOnUse">
      <stop offset="0" stop-color="#06feff"/>
      <stop offset=".17" stop-color="#04c4c4"/>
      <stop offset=".4" stop-color="#037f7f"/>
      <stop offset=".6" stop-color="#014848"/>
      <stop offset=".78" stop-color="#002121"/>
      <stop offset=".92" stop-color="#000808"/>
      <stop offset="1" stop-color="#000"/>
    </radialGradient>
  </defs>
  <g class="cls-35">
    <g id="Capa_2" data-name="Capa 2">
      <g id="Moon">
        <g>
          <circle class="cls-33" cx="169.2" cy="169.2" r="169.2" transform="translate(-70.08 169.2) rotate(-45)"/>
          <path class="cls-2" d="M66.11,103.68s1.49-12.87,2.47-19.94c0,0,8.8-12.29,22.81-22.39l18.67,.97s-37.64,30.19-43.95,41.36Z"/>
          <path class="cls-11" d="M91.39,61.35s0,10.36-9.45,18.54c-9.45,8.18-13.56,5.31-13.56,5.31l-2.27,16.5,43.95-39.37-18.67-.97Z"/>
          <path class="cls-7" d="M291.52,169.27c0,11.74-1.65,23.12-4.77,33.85-6.19,21.6-18.19,40.71-34.21,55.63-11.46,10.68-24.97,19.17-39.86,24.82-13.49,5.13-28.1,7.92-43.4,7.92-2.17,0-4.36-.05-6.5-.18h-.03c-3.2-.15-6.37-.46-9.49-.85-23.61-3.1-45.05-12.9-62.44-27.5-6.53-5.44-12.46-11.58-17.7-18.29-3.97-5.03-7.56-10.37-10.71-16.02-.75-1.34-1.47-2.71-2.19-4.08,0-.05-.03-.08-.05-.13-.75-1.47-1.44-2.94-2.12-4.44h-.03c-2.12-4.67-3.97-9.49-5.47-14.45-1.14-3.56-2.09-7.22-2.86-10.94-.03-.03-.03-.08-.03-.1-.54-2.61-1.01-5.24-1.37-7.89-.83-5.68-1.24-11.46-1.24-17.34,0-3.38,.13-6.76,.44-10.06,.15-2.12,.39-4.21,.67-6.3,1.57-12.02,4.93-23.48,9.78-34.13,2.37-5.24,5.11-10.27,8.18-15.09,5.11-8.05,11.15-15.43,17.96-22.06,22.01-21.41,52.07-34.6,85.19-34.6,1.29,0,2.58,.03,3.84,.05,1.37,.05,2.73,.1,4.1,.21,7.02,.46,13.88,1.5,20.51,3.1,3.87,.93,7.66,2.01,11.38,3.3,2.53,.85,5.01,1.81,7.46,2.84,1.83,.77,3.61,1.57,5.39,2.43,.31,.15,.62,.28,.93,.44,11.87,5.81,22.63,13.44,31.97,22.6,1.34,1.29,2.63,2.63,3.92,4,.85,.93,1.7,1.88,2.53,2.84,1.42,1.6,2.79,3.28,4.13,4.95,4.88,6.19,9.16,12.85,12.75,19.92,4.21,8.2,7.51,16.95,9.75,26.11,2.35,9.44,3.59,19.3,3.59,29.46Z"/>
          <path class="cls-9" d="M222.88,59.39c-.4,.04-.81,.08-1.21,.17-1.38,.25-2.46,.13-3.82-.25-.98-.28-1.68-.68-2.71-.85-1.48-.23-2.86-.87-4.35-1.06-1.57-.21-2.93-.83-4.41-1.36-1.17-.42-1.78-.28-2.9,0-1.12,.3-1.91-.17-2.9-.59-1.12-.49-2.25-.57-3.43-.81-3.1-.64-6.17-1.63-9.24-2.42-1.91-.49-3.67-.49-5.62-.51-1.53-.02-2.9,.42-4.43,.42-1.02,0-1.89-.17-2.9-.32-1.04-.19-2.1,.02-3.14-.13-1.55-.23-2.37-.47-3.94,.02-1.17,.38-2.08,.34-3.24,.4-1.29,.06-2.76,.4-4.03,.7-2.29,.53-4.79,.95-7.15,.91-1.44,0-3.56-.4-4.94,.08-.89,.32-1.34,1.27-1.95,1.91-1.19,1.23-2.65,2.33-3.65,3.71-1,1.38-2.12,2.8-2.04,4.54,.08,1.51,.78,3.27,1.44,4.64,.68,1.46,.91,2.8-.59,3.77-1.89,1.25-4.07,2.4-6.23,3.01-1.44,.42-2.74,.68-3.94-.36-.45-.38-.72-1.12-1.27-1.42-.57-.3-1.17,0-1.78,.19-1.53,.45-3.01,.95-4.56,1.21-.95,.15-1.78,.66-2.71,.83-1.12,.21-1.93-.61-3.1-.34-1.63,.38-3.27,1.06-4.96,1.15-1.21,.06-2.74-.47-3.75-1.08-.59-.34-.74-.68-1.42-.49-.55,.13-1.38,.81-1.68,1.23-.4,.57-.55,1.31-.95,1.91-.42,.66-.83,1.29-1.21,1.99-.7,1.36-1.53,2.63-2.42,3.84-.64,.85-1.08,1.99-1.78,2.78-.36,.42-1.14,.72-1.61,1.04-1.27,.89-2.61,1.7-3.84,2.65-2.37,1.87-4.62,3.92-7.04,5.72-1.84,1.38-4.43,2.18-6.53,3.05-1.31,.53-2.67,.91-3.99,1.46-.42,.17-1.21,.36-1.57,.68-.47,.4-.72,1.14-1.15,1.7-1.15,1.4-2.35,2.8-3.22,4.41-.53,.93-.85,1.89-1.19,2.9-.47,1.38-1.21,2.65-1.67,4.03-.95,2.88-1.15,5.89-2.2,8.76-.61,1.68-1.51,3.2-2.27,4.73-1.31,2.59-1.51,5.66-1.89,8.52-.21,1.68-.13,3.6,.17,5.24,.32,1.76,.23,3.58,.21,5.39-.02,1.91-1.23,3.77-2.44,5.22-1.1,1.34-2.78,1.84-4.01,3.03-1.04,1.02-2.29,2.18-2.74,3.63-.19,.64-.02,1.36-.13,2.04-.28,1.51-.66,2.93-.87,4.45-.23,1.89-.28,3.67-.28,5.58,0,.95-.06,1.93-.02,2.88,.04,.91,.38,1.76,.45,2.67,.04,.64-.08,1.27,0,1.91,.13,.72,.4,1.46,.57,2.16,.42,1.7,.74,3.35,1.06,5.05,.3,1.57,.91,3.12,1.4,4.64,.68,2.08,1.12,4.22,1.53,6.38,.32,1.61,.3,3.29,.53,4.92,.19,1.31,.49,2.65,.55,3.96,.06,1.99-.42,3.99-.45,6-.02,3.39,1.34,6.78,2.12,10.05,.23,.91,.47,1.84,.72,2.76-8.4-16.58-13.12-35.32-13.12-55.17,0-24.13,7-46.62,19.06-65.58,5.13-8.06,11.15-15.44,17.96-22.05,22.03-21.41,52.07-34.6,85.21-34.6,2.67,0,5.3,.08,7.93,.25,16.3,1.04,31.74,5.28,45.67,12.11Z"/>
          <path class="cls-12" d="M177.08,226.7s11.41,16.85,26.52,30.51c15.1,13.66,17.32,22.85,17.32,22.85,0,0,28.54-11.94,48.91-40.21,20.37-28.27-92.75-13.16-92.75-13.16Z"/>
          <path class="cls-15" d="M96.8,264.73c-12.64-10.58-23.11-23.68-30.64-38.52-4.73-9.33-8.29-19.34-10.5-29.83-.02-.02-.02-.06-.02-.11-1.7-8.14-2.61-16.58-2.61-25.23,0-24.13,7-46.62,19.06-65.58,5.13-8.06,11.15-15.44,17.96-22.05,22.03-21.41,52.07-34.6,85.21-34.6,2.67,0,5.3,.08,7.93,.25,8.29,.53,16.34,1.9,24.09,4-9.55-3.13-19.63-5.11-30.08-5.78-2.63-.17-5.26-.25-7.93-.25-33.14,0-63.18,13.19-85.21,34.6-6.81,6.61-12.83,13.99-17.96,22.05-12.06,18.95-19.06,41.45-19.06,65.58,0,8.65,.91,17.09,2.61,25.23,0,.04,0,.08,.02,.11,2.2,10.5,5.77,20.5,10.5,29.83,7.53,14.84,18,27.94,30.64,38.52,13.39,11.24,29.2,19.63,46.54,24.31-15-4.89-28.72-12.61-40.56-22.54Z"/>
          <path class="cls-23" d="M197.73,50.38c-6.63-1.6-13.49-2.63-20.51-3.1-1.37-.1-2.73-.15-4.1-.21,2.92,1.63,5.62,4.49,6.3,7.43,1.11,5.03,2.73,9.7,3.66,14.73,.93,4.95,.75,11.09-1.5,15.58-1.42,2.84-3.1,5.26-5.34,7.59-1.6,1.63-2.97,2.53-4.1,4.54-1.14,1.96-2.22,3.87-3.51,5.73-1.91,2.79-3.92,5.75-6.11,8.31-.77,.93-1.63,1.57-2.32,2.66-.88,1.34-1.29,2.61-2.24,3.66-2.19,2.45-5.6,3.82-8.62,4.93-3.92,1.47-7.25,3.12-10.94,5.08-5.19,2.73-9.44,6.24-15.51,6.4-2.01,.05-4.1-.23-6.11-.05-2.5,.21-4.82,1.42-7.3,1.88-2.17,.41-4.33,.85-6.5,1.21-3.56,.54-6.5,1.75-9.93,2.58-4.46,1.11-9.13,.83-13.62,1.44-4.05,.54-7.56,1.03-11.58,.05-6.22-1.55-9.55-4.49-8.23-11.09,.88-4.33,.57-7.64-1.65-10.97-4.85,10.66-8.2,22.11-9.78,34.13,2.94,1.24,6.3,1.88,8.9,2.14,9.06,.93,18.81-3.12,27.09-6.22,4.23-1.6,8.54-3.92,13.11-4.44,4.8-.52,9.03,.08,13.83-1.11,16.54-4.08,32.84-9.86,47.6-18.6,6.11-3.61,8.82-8.77,13.08-14.01,3.74-4.57,7.95-8.36,12.41-12.18,4.39-3.74,8.26-7.46,10.86-12.69,2.76-5.52,5.11-11.58,6.37-17.65,1.34-6.4-.31-12.56-3.69-17.78Zm-.83,16.62c-.26,1.37-.44,2.84-.85,4.13-1.06,3.28-3.02,6.66-6.09,8.39-1.42,.8-3.3,.31-4.13-1.11-.44-.77-.44-1.75-.59-2.61-.31-1.68-.52-3.33-.49-5.06,.05-4.15-.1-8.15-.49-12.31,.44,2.35-.1-3.48,3.56-5.08,1.73-.77,4.33-.08,5.65,1.26,1.65,1.68,2.04,4.52,2.66,6.71,.54,1.96,1.14,3.61,.77,5.68Z"/>
          <path class="cls-14" d="M179.21,262.12c-.36,.05-.7,.13-1.03,.15l2.43,.23c-.31-.08-.83-.26-1.39-.39Zm0,0c-.36,.05-.7,.13-1.03,.15l2.43,.23c-.31-.08-.83-.26-1.39-.39Zm108.72-122.32c-.05,3.2-.95,6.37-1.03,9.6-.08,4.28-.8,7.61-1.91,11.74-.77,2.84-2.22,4.93-3.17,7.66-1.08,3.15-2.63,5.83-4.23,8.72-3.17,5.78-6.35,11.56-7.71,18.11-1.24,5.91-1.5,10.89-4.44,16.31-2.81,5.21-7.07,9.55-10.09,14.6-1.42,2.43-2.4,2.3-4.54,3.82-2.4,1.7-4.59,4.39-6.91,6.27-5.01,4-9.57,6.76-15.64,9.03-3.79,1.44-7.48,2.58-11.51,3.2-2.63,.41-5.21,0-7.82,.44-4.13,.67-8.05,1.91-12.02,3.2-6.53,2.12-13.18,3.33-19.69,5.34-4.54,1.39-8.98,2.22-13.6,3.2-2.81,.59-5.08,2.12-8,1.52-2.94-.62-5.62-1.6-8.51-2.5-3.69-1.14-6.73-1.21-10.71-1.21-5.29,0-11.43,.8-16.64-.21-5.88-1.14-11.74-2.71-17.62-3.92-3.56-.75-6.27-2.22-9.52-3.74-3.04-1.42-6.32-1.83-9.49-2.84-3.35-1.06-6.58-2.63-10.01-3.48,5.24,6.71,11.17,12.85,17.7,18.29,17.39,14.6,38.83,24.41,62.44,27.5,3.12,.39,6.3,.7,9.49,.85h.03c6.91-1.57,13.67-3.61,20.64-5.75,11.58-3.61,21.6-10.6,33.18-14.01,4.31-1.29,8.18-2.68,12.2-4.67,2.97-1.47,6.11-1.86,9.11-3.15,10.76-4.57,18.86-15.02,23.66-25.26,2.17-4.64,4.26-9.91,8.15-13.39,1.6-1.44,3.51-2.71,4.9-4.33,1.57-1.78,2.63-4,4.02-5.93,2.45-3.46,4.82-6.94,7.28-10.42,.31-.41,.59-.83,.83-1.26,3.12-10.73,4.77-22.11,4.77-33.85,0-10.17-1.24-20.02-3.59-29.46Zm-112.13,123.2c.44-.28,1.16-.88,1.63-1.01,.46-.15,1.16-.03,1.78,.13,.9-.13,1.81-.23,2.66,.13,.49,.23,1.42,.67,1.63,1.24,.23,.54-.08,.88-.44,1.24-.46,.46-.83,.46-1.47,.59-1.34,.26-2.66,.49-4.05,.36-.83-.08-2.06-.13-2.58-.9-.49-.75,.23-1.37,.85-1.78Zm8.02,15.94c-.75,.95-1.5,1.94-2.48,2.66-.93,.72-1.96,1.16-2.97,1.73-2.48,1.39-5.03,2.89-7.82,3.61-1.11,.28-2.22,.23-3.38,.31-1.39,.13-2.76,.15-4.15,.18-1.65,.03-3.25,.36-4.9,.46-1.65,.08-3.28,.13-4.93,.23-2.73,.18-5.16-.28-7.74-1.21-2.32-.85-4.72-1.94-6.81-3.33-1.47-.98-2.73-2.37-4-3.61-1.19-1.11-2.14-2.3-2.81-3.79-.23-.54-.49-1.11-.36-1.7,.05-.28,.18-.52,.18-.59,.46-.36,.93-.7,1.37-.88,.88-.39,1.86-.57,2.79-.67,2.24-.31,4.7,.08,6.94,.26,1.34,.1,2.53,.18,3.84-.03,1.75-.26,3.51-.8,5.21-1.26,4.13-1.11,8.18-1.99,12.44-2.45,4.23-.46,8.67-.93,12.93-.21,1.6,.26,3.53,.72,4.93,1.65,1.03,.7,1.86,1.81,2.42,2.92,.98,1.88,.57,4.1-.7,5.73Zm32.38-10.6c-.75,.88-1.83,1.39-2.76,2.04-1.29,.9-2.66,1.63-4,2.4-1.14,.67-2.22,1.21-3.41,1.75-1.16,.54-2.35,1.08-3.51,1.68-1.26,.65-2.63,1.08-3.97,1.55-.98,.36-2.04,.8-3.1,.62-.85-.18-1.81-.52-2.43-1.16-.93-.98-.77-2.04-.46-2.48,0-.9-.26-2.19,.03-3.07,.18-.52,.8-1.29,1.08-1.81,1.08-1.96,2.63-3.38,4.26-4.93,1.42-1.37,2.79-2.4,4.7-3.07,2.14-.72,4.59-.9,6.81-1.19,2.43-.28,6.53-.46,7.61,2.32,.75,1.94,.49,3.72-.85,5.34Zm-35.6-5.83c-.31-.08-.83-.26-1.39-.39-.36,.05-.7,.13-1.03,.15l2.43,.23Z"/>
          <path class="cls-8" d="M278.18,113.69v.49c-.15,3.38-1.52,5.7-2.73,8.77-.98,2.48-2.12,4.7-3.38,7.04-2.14,3.92-3.15,7.61-4.72,11.82-2.45,6.58-3.69,13.31-7.53,19.3-3.46,5.34-4.26,11.89-7.07,17.6-3.17,6.37-8.02,10.94-13.24,15.58-2.32,2.09-4.26,4.59-6.35,6.86-2.22,2.4-3.95,5.5-6.6,7.4-5.75,4.18-12.05,7.79-17.67,12.2-3.38,2.63-5.78,6.14-9.49,8.33-3.72,2.22-7.74,3.77-11.43,6.01-3.33,2.04-6.6,4.23-10.22,5.7-4.13,1.65-7.56,1.16-11.79,1.37-4.7,.21-9.55,1.44-13.96,2.97-3.66,1.29-6.73,2.61-10.47,1.29-2.48-.88-4.72-2.5-7.33-3.04-6.06-1.24-12.98,0-19.14-.15-4.82-.13-10.14-1.24-14.86-2.19-4.64-.9-8.44-4.15-12.93-5.47-5.55-1.63-12.02-.23-17.39-2.35-2.19-.85-4.28-2.61-6.22-3.82-.41-.26-.83-.52-1.24-.77-.75-1.34-1.47-2.71-2.19-4.08,1.32,.54,2.63,1.14,3.97,1.78,7.02,3.35,15.76,2.84,23.32,4.15,8.51,1.5,17.03,3.72,25.62,4.7,3.48,.39,6.99,.36,10.45-.03,4.85-.54,9.88-.46,14.65-1.29,8.31-1.47,16.41-5.39,25.03-4.28,1.6,.21,3.38,1.06,5.01,1.03,2.4-.08,4.05-2.17,5.99-3.38,3.41-2.14,6.99-1.73,9.98-4.54,2.94-2.76,6.19-4.54,9.78-6.35,9.34-4.75,16.9-12.46,24.23-19.79,6.14-6.11,12.1-12.59,16.31-20.23,4.13-7.51,3.3-16.43,6.4-24.23,2.24-5.57,4.13-10.81,7.77-15.71,1.75-2.35,3.9-4.36,5.75-6.6,1.99-2.4,3.2-5.01,4.72-7.69,1.68-2.99,3.79-5.75,5.13-8.93,1.26-3.04,1.16-5.73,1.11-8.9-.05-3.48,0-7.02,0-10.5,4.88,6.19,9.16,12.85,12.75,19.92Z"/>
          <path class="cls-1" d="M258.78,85.98c-1.29-1.37-2.58-2.71-3.92-4-9.34-9.16-20.1-16.8-31.97-22.6-.31-.15-.62-.28-.93-.44-1.78-.85-3.56-1.65-5.39-2.43-2.45-1.03-4.93-1.99-7.46-2.84,.8,.52,1.73,.93,2.04,1.08,1.52,.77,2.76,1.29,3.82,2.66,1.03,1.34,1.5,2.35,1.57,4.05,.05,1.6,.28,3.25,.57,4.85,.26,1.47,.98,2.86,1.29,4.33,.15,.88,.28,1.65,.57,2.53,.65,2.04,1.32,4.05,1.75,6.17,.77,3.77-1.24,6.89-2.58,10.32-2.12,5.44-3.46,10.97-5.03,16.59-1.24,4.44-3.66,8.82-7.02,12.02-3.28,3.17-8.13,3.9-11.07,7.33-2.58,3.02-5.75,5.88-9.39,7.59-4.21,2.01-8.64,3.56-13.11,4.93-3.2,.95-6.55,1.03-9.78,1.88-4,1.01-7.66,3.02-11.43,4.64-4,1.73-7.74,3.95-11.77,5.68-4.05,1.7-7.82,4.02-11.84,5.68-1.96,.8-4.02,1.19-6.01,1.88-4.13,1.44-8.13,4.08-12.51,4.59-1.52,.18-3.07,.54-4.57,.54-1.21,.03-2.3,.15-3.46,.59-3.82,1.5-6.17,5.81-10.55,5.83-4.02,0-8-.15-12,.31-1.94,.23-3.87,.1-5.81,.13-.57,0-1.32,.13-1.88-.1-.65-.26-1.37-.88-2.01-1.24-1.44-.8-2.84-1.83-4.13-2.81-2.53-1.96-5.88-.88-8.8-1.47-.88-.18-2.17-.08-2.94-.52-1.81-1.08-4.08-3.3-5.55-4.54-.31,3.3-.44,6.68-.44,10.06,0,5.88,.41,11.66,1.24,17.34,.36,2.66,.83,5.29,1.37,7.89,0,.03,0,.08,.03,.1,.77,3.72,1.73,7.38,2.86,10.94,1.5,4.95,3.35,9.78,5.47,14.45h.03c3.33,.54,6.76,.98,10.11,.49,4.77-.7,9.52-1.44,14.37-1.26,4.54,.21,8.77,1.75,13.21,2.5,4.98,.83,10.17,1.5,15.22,1.83,4.62,.28,9.21,.67,13.8,1.19,3.46,.41,6.91,1.08,10.37,1.32,8.98,.62,17.75-1.73,26.57-2.66,4.41-.46,8.8-1.57,13.13-2.5,2.66-.57,5.24-1.26,7.59-2.71,3.1-1.94,5.06-4.9,7.82-7.25,3.04-2.61,6.22-5.13,9.39-7.56,2.71-2.06,5.26-4.31,8.1-6.14,2.17-1.42,4.33-2.76,6.37-4.36,4-3.15,7.17-6.79,10.47-10.6,4.62-5.37,6.53-12.82,8.39-19.48,1.68-6.11,2.84-12.23,6.19-17.72,1.65-2.68,2.89-5.78,3.66-8.82,.49-1.91,.67-4.05,1.55-5.86,1.39-2.94,4.13-5.06,5.81-7.84,1.32-2.19,2.79-4.23,3.72-6.66,1.81-4.77,3.17-9.42,3.95-14.5,.57-3.74,1.78-7.17,2.94-10.76,.18-.59,.36-1.19,.52-1.81-.83-.95-1.68-1.91-2.53-2.84ZM99.72,169.5c.26-.65,4.82-2.43,5.52-2.63-.03,.03-.08,.05-.15,.08l-2.99,1.29c3.3-1.11,9.26,2.24,6.37,6.04-.85,1.11-3.07,1.65-4.39,1.86-1.32,.23-2.14-.21-2.94-1.34-.67-.98-1.16-2.68-1.34-3.84-.08-.41-.26-1.03-.08-1.44Zm-36.4,32.92c-3.56-.98-5.93-2.3-8.13-5.29-1.42-1.94-2.66-3.87-3.04-6.24-.31-1.96-1.08-3.72-.62-5.68,.36-1.55,.98-3.25,1.7-4.7,.8-1.63,1.99-3.3,2.09-3.84,3.56-.31,6.89-.44,10.45-.46,3.97-.03,7.95,.49,11.95,.52,1.81,.03,3.61,.1,5.39-.28,1.73-.34,3.41-.8,5.16-1.08,3.04-.52,5.88-.88,8.75,.65,2.17,1.16,3.17,3.56,4.18,5.73,.57,1.24,.9,2.12,.9,3.51,.03,1.68-.08,3.33-.28,5.01-.08,.62-.15,1.26-.26,1.88-2.5,5.47-9.39,7.28-14.53,9.18-7.51,2.76-16,3.2-23.71,1.11Zm54.96,11.71c-1.6,4.02-8.33,5.47-12.2,5.62-1.91,.08-4.21-.31-5.88-1.32-.93-.57-1.91-1.65-2.45-2.61-.44-.72-1.42-2.06-3.41-1.47,.41-2.22,1.11-4.33,2.04-6.37,.88-.98,1.81-1.91,2.76-2.79,1.81-1.63,3.82-3.04,5.99-4.15,3.38-1.7,6.91-.44,10.17,1.06,2.19,1.01,3.9,2.5,4.36,4.9,.54,2.73-.36,4.67-1.37,7.12Zm45.25-.77c-1.24,2.97-2.97,3.64-5.7,5.03-3.2,1.63-7.1,2.84-10.71,2.86-1.86,.03-3.59-.85-5.26-1.52-1.11-.44-2.32-.72-3.2-1.55-2.43-2.22-2.81-5.47-1.32-4.8-.93-1.99-1.52-4.02-1.75-6.17,.41-.34,.67-.77,.8-1.32,1.29-2.43,3.69-4.44,6.06-5.78,4.23-2.43,9.62-2.71,14.14-.83,1.99,.83,3.25,1.83,4.75,3.35,.7,.72,1.68,1.39,2.22,2.27,1.34,2.24,.93,6.17-.03,8.44Zm13.91-.46c-.7,.57-2.04,1.68-2.94,1.5-.75-.15-2.17-1.68-1.94-2.48l-.49-.49c1.08-1.68,2.17-3.38,3.23-5.11,1.65,.72,3.12,.62,4.13,2.42,.93,1.68-.75,3.15-1.99,4.15Zm34.6-81.14c-1.37,1.83-3.17,3.56-5.29,4.44-2.66,1.11-6.22,1.94-6.35-2.06-.1-2.35,.28-4.05,1.34-6.22,1.52-3.07,2.97-3.84,5.91-5.37,1.08,.13,2.22,.39,3.04,.67,1.65,.54,3.23,2.01,3.46,3.77,.26,1.83-1.06,3.41-2.12,4.77Zm32.28-17.39c-1.29,4.02-3.02,7.92-4.8,11.74-2.17,4.7-2.43,9.52-3.51,14.47-.62,2.79-1.94,5.86-4.67,6.94-1.19,.46-2.35,.36-3.66,.36-1.19,0-3.38,.44-3.3,1.47-.7-1.94-1.88-4.54-2.35-6.73-.49-2.43-.7-5.03-1.08-7.46-.41-2.55-.59-5.11-.85-7.69-.21-2.4-.7-4.93-.67-7.35,.1-8,4.52-17.96,12.02-21.65,2.3-1.11,4.57-1.63,7.1-1.21,2.94,.44,4.62,1.24,5.93,4.05,1.78,3.87,1.08,9.08-.15,13.06Z"/>
          <path class="cls-20" d="M208.72,121.97c-.39,.21-.75,.39-1.08,.57-.67-.1-1.32-.13-1.86-.08l2.94-.49Z"/>
          <path class="cls-22" d="M55.31,176.67c-.18,.03-.39,.03-.59,.05,.49-.31,.67-.31,.59-.05Z"/>
          <path class="cls-3" d="M192.72,49.28l21.46-8.45s34.14,13.27,55.65,42.31l1.34,18.55s-40.67-15.59-78.45-52.41Z"/>
          <path class="cls-16" d="M270.7,238.03s-17.98,19.51-31.57,23.86l-11.16,3.4s-50.9-18.31-53.68-50.17c-2.34-26.76,43.43-67.84,55.81-72.73,12.38-4.89,26.89-2.12,26.89-2.12l13.71,97.75Z"/>
          <path class="cls-21" d="M256.99,140.28c-10.74-3.41-57.13,17.96-69.58,65.9-2.53,9.73,21,46.68,49.11,55.71,9.33,3,52.1-34.37,53.89-59.69,1.79-25.32-17.48-56.86-33.42-61.92Z"/>
          <path class="cls-24" d="M190.4,211.78c6.62-54.28,55.98-71.96,66.72-68.55,7.75,2.46,19.16,13.85,25.68,25.07-6.73-13.86-16.79-25.17-25.8-28.03-10.74-3.41-57.13,17.96-69.58,65.9-.88,3.38,1.4,10.05,5.91,17.69-2.47-5.21-3.23-9.5-2.92-12.08Z"/>
          <path class="cls-25" d="M99.64,269.95s11.06,4.05,19.13,1.85c0,0,3.1-26.17-6.76-42.9-9.86-16.74-26.57,8.55-26.57,8.55l-3.82,16.02s9.3,11.19,18.02,16.48Z"/>
          <path class="cls-26" d="M109.23,265.72l7.09-1.9s3.42-14.5-2.52-30.85c-6.74-18.56-31.45-32.44-35.12-32.74-3.67-.3-7.28,8.05-7.28,8.05l37.83,57.43Z"/>
          <path class="cls-29" d="M220.91,280.06l-11.78,15.32s-20.46,9.9-40.98,5.1l-14.89-10.04,67.66-10.39Z"/>
          <path class="cls-27" d="M66.09,219.77c1.23-5.63,6.19-14.99,10.64-15.9s25.46,19.04,30.33,31.88c4.86,12.84,2.41,27.07,2.17,29.98s-24.08-5.19-36.11-15.07c-12.03-9.89-7.02-30.88-7.02-30.88Z"/>
          <path class="cls-18" d="M107.06,235.74c-4.86-12.84-25.88-32.79-30.33-31.88-1.71,.35-3.5,1.96-5.13,4.13,1-.91,2.01-1.55,3-1.75,4.45-.91,25.85,14.97,30.63,27.84,5.87,15.81,2.64,27.22,2.07,32.2,1.16,.08,1.88-.08,1.92-.56,.24-2.9,2.69-17.14-2.17-29.98Z"/>
          <path class="cls-13" d="M173.44,181.22c-5.28-2.47,.71-25.63,5.9-30.67,5.2-5.04,18.71,6.74,20.5,16.36,1.79,9.63-14.31,19.96-26.4,14.3Z"/>
          <path class="cls-5" d="M178.72,179.46c-4.23-2.05,.57-21.26,4.73-25.44,4.16-4.18,14.98,5.59,16.42,13.58,1.43,7.99-11.46,16.56-21.15,11.87Z"/>
          <path class="cls-4" d="M214.17,40.83s1.06,13.02,15.73,28.99c14.67,15.97,39.92,13.32,39.92,13.32l1.34,18.55s-53.71-23.74-78.45-52.41l21.46-8.45Z"/>
          <g>
            <path class="cls-28" d="M256.29,156.27c-.61,.51-1.94,1.46-.88,2.19,.28,.2,.53,.09,.84,.18,.24,.07,.29,.25,.57,.15,.86-.33,.51-2.76-.45-2.27l-.07-.25Z"/>
            <path class="cls-28" d="M306.95,134.45c-.61,.51-1.94,1.46-.88,2.19,.28,.2,.53,.09,.84,.18,.24,.07,.29,.25,.57,.15,.86-.33,.51-2.76-.45-2.27l-.07-.25Z"/>
            <path class="cls-28" d="M284.7,224.41c-.61,.51-1.94,1.46-.88,2.19,.28,.2,.53,.09,.84,.18,.24,.07,.29,.25,.57,.15,.86-.33,.51-2.76-.45-2.27l-.07-.25Z"/>
            <path class="cls-28" d="M260.72,165.11c.39-.22,.79-.33,1.2-.34,.09,.53,.58,1.56-.18,1.97-.63,.34-.44-.78-.74-1.05l-.28-.58Z"/>
            <path class="cls-28" d="M180.31,170.53c.81,.32,1.61,.65,2.4,1,.26-.23,.64-.18,.95-.38,.39-.26,.74-.8,.89-1.25,.23-.68-.12-1.24-.44-1.76-.21-.35-.41-.86-.73-1.1-.37-.28-1.1-.17-1.49,.02-.48,.23-.83,.72-1.15,1.16-.3,.41-.65,1.1-.67,1.62-.02,.56,.43,1.15,.84,1.44l-.59-.74Z"/>
            <path class="cls-28" d="M66.36,231.46c.81,.32,1.61,.65,2.4,1,.26-.23,.64-.18,.95-.38,.39-.26,.74-.8,.89-1.25,.23-.68-.12-1.24-.44-1.76-.21-.35-.41-.86-.73-1.1-.37-.28-1.1-.17-1.49,.02-.48,.23-.83,.72-1.15,1.16-.3,.41-.65,1.1-.67,1.62-.02,.56,.43,1.15,.84,1.44l-.59-.74Z"/>
            <path class="cls-28" d="M288.5,263.25c.81,.32,1.61,.65,2.4,1,.26-.23,.64-.18,.95-.38,.39-.26,.74-.8,.89-1.25,.23-.68-.12-1.24-.44-1.76-.21-.35-.41-.86-.73-1.1-.37-.28-1.1-.17-1.49,.02-.48,.23-.83,.72-1.15,1.16-.3,.41-.65,1.1-.67,1.62-.02,.56,.43,1.15,.84,1.44l-.59-.74Z"/>
            <path class="cls-28" d="M272.52,241.19c.81,.32,1.61,.65,2.4,1,.26-.23,.64-.18,.95-.38,.39-.26,.74-.8,.89-1.25,.23-.68-.12-1.24-.44-1.76-.21-.35-.41-.86-.73-1.1-.37-.28-1.1-.17-1.49,.02-.48,.23-.83,.72-1.15,1.16-.3,.41-.65,1.1-.67,1.62-.02,.56,.43,1.15,.84,1.44l-.59-.74Z"/>
            <path class="cls-28" d="M50.8,87.19c2.04,.8,4.07,1.65,6.07,2.54,.65-.57,1.63-.46,2.39-.97,.98-.65,1.87-2.03,2.25-3.17,.57-1.73-.31-3.14-1.1-4.46-.53-.88-1.04-2.18-1.85-2.78-.95-.7-2.78-.43-3.77,.04-1.22,.58-2.11,1.83-2.92,2.95-.76,1.04-1.65,2.78-1.69,4.1-.04,1.42,1.09,2.91,2.12,3.64l-1.5-1.88Z"/>
            <path class="cls-28" d="M185.51,13.06c2.04,.8,4.07,1.65,6.07,2.54,.65-.57,1.63-.46,2.39-.97,.98-.65,1.87-2.03,2.25-3.17,.57-1.73-.31-3.14-1.1-4.46-.53-.88-1.04-2.18-1.85-2.78-.95-.7-2.78-.43-3.77,.04-1.22,.58-2.11,1.83-2.92,2.95-.76,1.04-1.65,2.78-1.69,4.1-.04,1.42,1.09,2.91,2.12,3.64l-1.5-1.88Z"/>
            <path class="cls-28" d="M203.41,190.8c-.35,.24-.63,.54-.84,.91,.33,.41,.49,.8,1.06,.97,.22,.07,.47,.07,.65-.11,.24-.23,.11-.48,.17-.71,.15-.55,.31-.69,0-1.19-.19-.3-.32-.42-.64-.42-.23,0-.73,.06-.85,.32l.46,.24Z"/>
            <path class="cls-28" d="M205.24,203.58c-.06,.14-.68,1.72,.13,1.26,.41-.23,.26-.85-.01-1.03l.04-.16-.15-.08Z"/>
            <path class="cls-28" d="M245.59,226.85c-.54,.71-.61,.99-.85,1.72,.23,.21,.68,.33,.98,.32,.47-.02,.5-.17,.51-.62,.01-.37,.16-.65,.07-1-.09-.36-.45-.73-.86-.5l.15,.08Z"/>
            <path class="cls-28" d="M211.57,192.34c.31,.28,.5,.63,.58,1.05-.43,.11-.48-.31-.54-.65-.1-.53,.15-.37,.4-.8,.05,0,.09,.02,.14,.03l-.58,.36Z"/>
            <path class="cls-28" d="M250.26,157.79c-.34,.24-.62,.54-.84,.9,.2,.25,.11,.71,.58,.67,.33-.02,.61-.38,.77-.66,.19-.32,.2-.58,.23-.93,.01-.18,.01-.93-.31-.43l-.42,.44Z"/>
            <path class="cls-28" d="M245.03,67.77c.39-.1,.89-.32,1.29-.31,.11,0,.27,.08,.39,.1,.42,.04,.43-.05,.63,.28,.23,.38,.33,.65,.26,1.1-.24,1.52-2.39-.77-1.64-1.33l-.94,.17Z"/>
            <path class="cls-28" d="M80.88,70.48c-.68,.21-1.72,.28-1.8,1.07-.07,.68,1.04,1.38,1.6,1.56,1,.33,2.64,.49,3.14-.65,.29-.67,.07-1.95-.34-2.54-.84-1.2-2.56-.71-3.86-.2l1.26,.76Z"/>
            <path class="cls-28" d="M255.01,228.52c-.31-2.34-.73-4.65,1.35-5.88,1.13-.67,3.21-.9,4.28-.11,.78,.57,1.45,1.64,1.93,2.44,.71,1.18,.53,1.19,.15,2.27-.86,2.48-1.44,4.12-3.91,4.12-3.26,0-3.77-2.53-3.81-5.68v2.84Z"/>
            <path class="cls-28" d="M256.46,162.74c.91-.25,1.69-.72,2.34-1.42-.65-.41-2.08-1.25-2.34-.02v1.44Z"/>
            <path class="cls-28" d="M71.55,222.3c.91-.25,1.69-.72,2.34-1.42-.65-.41-2.08-1.25-2.34-.02v1.44Z"/>
            <path class="cls-28" d="M71.55,241.94c.91-.25,1.69-.72,2.34-1.42-.65-.41-2.08-1.25-2.34-.02v1.44Z"/>
            <path class="cls-28" d="M209.8,171.64c.9-1.11,2.21-3.14,3.85-2.03,.95,.65,1.23,2.36,.31,3.04-.84,.63-1.62,.81-2.57,1.07-.73,.2-1.81-.28-1.59-1.36v-.72Z"/>
            <path class="cls-28" d="M240.48,222.22c.9-1.11,2.21-3.14,3.85-2.03,.95,.65,1.23,2.36,.31,3.04-.84,.63-1.62,.81-2.57,1.07-.73,.2-1.81-.28-1.59-1.36v-.72Z"/>
            <path class="cls-28" d="M235.86,54.61c1.41,.24,3.82,.37,3.66,2.35-.09,1.15-1.45,2.23-2.49,1.77-.97-.42-1.5-1.01-2.2-1.71-.53-.53-.65-1.72,.4-2.06l.63-.36Z"/>
            <path class="cls-28" d="M230.84,235.33c.9-1.11,2.21-3.14,3.85-2.03,.95,.65,1.23,2.36,.31,3.04-.84,.63-1.62,.81-2.57,1.07-.73,.2-1.81-.28-1.59-1.36v-.72Z"/>
            <path class="cls-28" d="M189.02,169.96c-1.16,.74-3.11,1.65-3.3,3.24-.12,.96,.32,1.52,1.19,1.94,.74,.35,1.84,.38,2.58,.01,1.06-.54,2.29-1.42,2.76-2.55,.34-.81,.29-1.37-.09-2.18-.21-.43-.61-.95-1.08-1.11-1.48-.51-2.37,.94-3.47,1.59l1.41-.94Z"/>
            <path class="cls-28" d="M192.77,165.74c.63,.22,1.16,.58,1.6,1.05-.63,.21-1.3,.71-1.95,.48-.84-.3-.99-1.09-.8-1.89,.1-.44,.89-1.2,1.34-1.01,.23,.1,.27,.41,.34,.6,.16,.41,.17,.33-.06,.76h-.47Z"/>
            <path class="cls-28" d="M224.74,158.77c-3.06,2.68-5.94,5.89-7.57,9.74-.83,1.96,.64,2.05,2.42,1.71,3.44-.67,6.91-1.62,10.31-2.5,2.01-.52,4.9-1.58,6.3-3.29,1.07-1.31,1.52-3.57,1.28-5.22-.33-2.31-1.97-3.21-4.07-3.78-4.79-1.32-11.58,3.84-13.36,8.25l4.68-4.9Z"/>
            <path class="cls-28" d="M207.67,176.19c.99,.03,1.92,.27,2.77,.72-.25,.29-.17,.69-.3,1.04-.19,.51-.68,1.03-1.13,1.32-.76,.48-2.03,.66-2.87,.34-2.57-.97,1.37-4.02,2.24-2.94l-.7-.47Z"/>
            <path class="cls-28" d="M64.44,274.19c-.35,.24-.63,.54-.84,.91,.33,.41,.49,.8,1.06,.97,.22,.06,.47,.07,.65-.11,.24-.23,.11-.48,.17-.71,.15-.55,.31-.69,0-1.19-.19-.3-.32-.42-.64-.42-.23,0-.73,.06-.85,.32l.46,.24Z"/>
            <path class="cls-28" d="M66.27,286.97c-.06,.14-.68,1.72,.13,1.26,.41-.23,.26-.85-.01-1.03,.01-.05,.03-.1,.04-.16l-.15-.08Z"/>
            <path class="cls-28" d="M72.6,275.74c.31,.28,.5,.63,.58,1.05-.43,.11-.48-.31-.54-.65-.1-.53,.15-.37,.4-.8,.05,.01,.09,.02,.14,.03l-.58,.36Z"/>
            <path class="cls-28" d="M68.7,259.59c.99,.03,1.92,.27,2.77,.72-.25,.29-.17,.69-.3,1.04-.19,.51-.68,1.03-1.13,1.32-.76,.48-2.03,.66-2.87,.34-2.57-.97,1.37-4.02,2.24-2.94l-.7-.47Z"/>
            <path class="cls-28" d="M230.83,56.88c.87,.61,1.81,1.07,2.47,1.88,.76,.94,1.51,1.78,2.1,2.84,.3,.53,1.02,1.69-.04,1.84-1.15,.16-3.19-1.36-4.02-1.94-1.43-1.01-2.81-1.93-3.85-3.38-.52-.73-1.32-2-.79-2.89,.45-.74,1.08-.87,1.89-.85,.85,.02,1.34,.27,2.01,.81,.31,.25,1.8,1.76,1.29,2.17l-1.07-.47Z"/>
            <path class="cls-28" d="M241.95,154.35c-.42,.31-3.66,2.1-2.12,2.88,.83,.42,2.46,.3,3.3-.06,.75-.32,1.51-.81,1.04-1.67-.95-1.74-3.33-.74-4.56,.02l2.34-1.17Z"/>
            <path class="cls-28" d="M265.27,48.32c-1.06,.77-9.19,5.28-5.32,7.23,2.08,1.05,6.17,.75,8.28-.15,1.88-.8,3.78-2.04,2.6-4.2-2.39-4.37-8.36-1.85-11.45,.06l5.88-2.94Z"/>
            <path class="cls-28" d="M72.72,232.95c.34,1.9,.73,3.98,2.38,5.23,1.71,1.3,3.65,.78,5.33-.22,1.25-.74,2.42-1.52,3.64-2.27,.71-.44,1.33-.55,1.36-1.56,.03-1.09-.97-2.55-1.6-3.38-.75-.99-2.26-2.17-3.43-2.61-2.55-.95-7.42,0-7.36,3.47l-.33,1.34Z"/>
            <path class="cls-28" d="M243.51,236.68c.24,1.33,.51,2.79,1.67,3.67,1.2,.91,2.56,.54,3.74-.15,.87-.52,1.7-1.07,2.56-1.59,.5-.31,.94-.38,.96-1.1,.02-.77-.68-1.79-1.12-2.37-.53-.69-1.59-1.52-2.41-1.83-1.79-.67-5.21,0-5.17,2.43l-.23,.94Z"/>
          </g>
          <circle class="cls-32" cx="258.91" cy="225.69" r="23.14" transform="translate(-66.91 117) rotate(-22.63)"/>
          <circle class="cls-31" cx="227.94" cy="162.79" r="21.48"/>
          <path class="cls-10" d="M241.67,67.37c-2.72,3.74-9.54,3.43-15.23-.71-5.69-4.13-8.1-10.52-5.38-14.26,2.72-3.74,9.54-3.43,15.23,.71,5.69,4.13,8.1,10.52,5.38,14.26Z"/>
          <circle class="cls-34" cx="79.08" cy="232.46" r="23.14"/>
          <path class="cls-17" d="M214.54,42.96s5.61,23.83,21.39,32.81c19.97,11.37,33.9,7.37,33.9,7.37,0,0-17.84-.63-34.34-11.88-13.78-9.4-20.95-28.31-20.95-28.31Z"/>
          <path class="cls-6" d="M177.08,226.7l10.6-15.58s13.59,38.65,48.85,50.76l-7.72,4.98s-35.94-10.23-51.72-40.17Z"/>
          <path class="cls-19" d="M197.14,54.64s50.84,51.17,87.42,73.92c0,0-3.54-13.98-13.4-26.86,0,0-30.71-10.1-74.02-47.06Z"/>
          <ellipse class="cls-30" cx="119.23" cy="108.53" rx="51.31" ry="32.9" transform="translate(-40.02 83.39) rotate(-33.34)"/>
        </g>
      </g>
    </g>
  </g>
</svg>