<?xml version="1.0" encoding="UTF-8"?>
<svg xmlns="http://www.w3.org/2000/svg" xmlns:xlink="http://www.w3.org/1999/xlink" viewBox="0 0 303.33 287.44">
  <defs>
    <style>
      .cls-1 {
        fill: url(#_Áåçûìÿííûé_ãðàäèåíò_189);
      }

      .cls-1, .cls-2, .cls-3, .cls-4, .cls-5, .cls-6, .cls-7, .cls-8, .cls-9 {
        fill-rule: evenodd;
      }

      .cls-10 {
        opacity: .7;
      }

      .cls-2 {
        fill: url(#_Áåçûìÿííûé_ãðàäèåíò_193);
      }

      .cls-3 {
        fill: url(#_Áåçûìÿííûé_ãðàäèåíò_192);
      }

      .cls-4 {
        fill: #ff9f84;
      }

      .cls-11 {
        fill: url(#_Áåçûìÿííûé_ãðàäèåíò_199-3);
      }

      .cls-11, .cls-6, .cls-12, .cls-13, .cls-14 {
        mix-blend-mode: screen;
      }

      .cls-11, .cls-12, .cls-14 {
        opacity: .1;
      }

      .cls-15 {
        isolation: isolate;
      }

      .cls-5 {
        fill: #ffff0e;
      }

      .cls-6 {
        fill: url(#_Áåçûìÿííûé_ãðàäèåíò_197);
      }

      .cls-16 {
        mix-blend-mode: soft-light;
      }

      .cls-12 {
        fill: url(#_Áåçûìÿííûé_ãðàäèåíò_199-4);
      }

      .cls-17 {
        fill: url(#_Áåçûìÿííûé_ãðàäèåíò_193-2);
      }

      .cls-7 {
        fill: url(#_Áåçûìÿííûé_ãðàäèåíò_163);
      }

      .cls-13 {
        fill: url(#_Áåçûìÿííûé_ãðàäèåíò_199);
      }

      .cls-14 {
        fill: url(#_Áåçûìÿííûé_ãðàäèåíò_199-2);
      }

      .cls-8 {
        fill: #7d72b3;
        mix-blend-mode: multiply;
        opacity: .4;
      }

      .cls-9 {
        fill: #ffef84;
      }
    </style>
    <radialGradient id="_Áåçûìÿííûé_ãðàäèåíò_163" data-name="Áåçûìÿííûé ãðàäèåíò 163" cx="56.97" cy="72.32" fx="56.97" fy="72.32" r="218.23" gradientUnits="userSpaceOnUse">
      <stop offset="0" stop-color="#de6863"/>
      <stop offset=".2" stop-color="#da6562"/>
      <stop offset=".35" stop-color="#d15d61"/>
      <stop offset=".49" stop-color="#c04f60"/>
      <stop offset=".62" stop-color="#a93b5d"/>
      <stop offset=".74" stop-color="#8b225a"/>
      <stop offset=".86" stop-color="#660357"/>
      <stop offset=".87" stop-color="#630057"/>
    </radialGradient>
    <linearGradient id="_Áåçûìÿííûé_ãðàäèåíò_189" data-name="Áåçûìÿííûé ãðàäèåíò 189" x1="5.25" y1="98.59" x2="200.68" y2="98.59" gradientUnits="userSpaceOnUse">
      <stop offset=".01" stop-color="#ff7d85"/>
      <stop offset=".3" stop-color="#fc7b83"/>
      <stop offset=".51" stop-color="#f2747e"/>
      <stop offset=".7" stop-color="#e26a77"/>
      <stop offset=".87" stop-color="#cc5c6c"/>
      <stop offset="1" stop-color="#b54d61"/>
    </linearGradient>
    <radialGradient id="_Áåçûìÿííûé_ãðàäèåíò_197" data-name="Áåçûìÿííûé ãðàäèåíò 197" cx="41.82" cy="43.39" fx="41.82" fy="43.39" r="178.82" gradientUnits="userSpaceOnUse">
      <stop offset="0" stop-color="#ffff4a"/>
      <stop offset="1" stop-color="#000"/>
    </radialGradient>
    <linearGradient id="_Áåçûìÿííûé_ãðàäèåíò_193" data-name="Áåçûìÿííûé ãðàäèåíò 193" x1="4.63" y1="77.37" x2="244.65" y2="77.37" gradientUnits="userSpaceOnUse">
      <stop offset="0" stop-color="#ffb80b"/>
      <stop offset=".39" stop-color="#feb50c"/>
      <stop offset=".58" stop-color="#fdae10"/>
      <stop offset=".73" stop-color="#fca017"/>
      <stop offset=".85" stop-color="#f98e21"/>
      <stop offset=".97" stop-color="#f7762e"/>
      <stop offset="1" stop-color="#f66d33"/>
    </linearGradient>
    <radialGradient id="_Áåçûìÿííûé_ãðàäèåíò_192" data-name="Áåçûìÿííûé ãðàäèåíò 192" cx="25.7" cy="199.44" fx="25.7" fy="199.44" r="69" gradientUnits="userSpaceOnUse">
      <stop offset="0" stop-color="#ffb80b"/>
      <stop offset=".39" stop-color="#feb50c"/>
      <stop offset=".58" stop-color="#fdae10"/>
      <stop offset=".73" stop-color="#fca017"/>
      <stop offset=".85" stop-color="#f98e21"/>
      <stop offset=".97" stop-color="#f7762e"/>
      <stop offset="1" stop-color="#f66d33"/>
    </radialGradient>
    <linearGradient id="_Áåçûìÿííûé_ãðàäèåíò_193-2" data-name="Áåçûìÿííûé ãðàäèåíò 193" x1="0" y1="176.42" x2="281.42" y2="176.42" xlink:href="#_Áåçûìÿííûé_ãðàäèåíò_193"/>
    <radialGradient id="_Áåçûìÿííûé_ãðàäèåíò_199" data-name="Áåçûìÿííûé ãðàäèåíò 199" cx="-44.07" cy="97.1" fx="-44.07" fy="97.1" r="28.95" gradientTransform="translate(211.81 23.33) scale(1.67 1.07)" gradientUnits="userSpaceOnUse">
      <stop offset="0" stop-color="#ff5b00"/>
      <stop offset=".17" stop-color="#c44600"/>
      <stop offset=".4" stop-color="#7f2d00"/>
      <stop offset=".6" stop-color="#481900"/>
      <stop offset=".78" stop-color="#210b00"/>
      <stop offset=".92" stop-color="#080300"/>
      <stop offset="1" stop-color="#000"/>
    </radialGradient>
    <radialGradient id="_Áåçûìÿííûé_ãðàäèåíò_199-2" data-name="Áåçûìÿííûé ãðàäèåíò 199" cx="187.17" cy="269.16" fx="187.17" fy="269.16" r="28.95" gradientTransform="translate(326.95 -189.52) rotate(90) scale(1.27 1.07)" xlink:href="#_Áåçûìÿííûé_ãðàäèåíò_199"/>
    <radialGradient id="_Áåçûìÿííûé_ãðàäèåíò_199-3" data-name="Áåçûìÿííûé ãðàäèåíò 199" cx="382.23" cy="223.89" fx="382.23" fy="223.89" r="26.11" gradientTransform="translate(511.01 -339.56) rotate(90) scale(1.27 1.07)" xlink:href="#_Áåçûìÿííûé_ãðàäèåíò_199"/>
    <radialGradient id="_Áåçûìÿííûé_ãðàäèåíò_199-4" data-name="Áåçûìÿííûé ãðàäèåíò 199" cx="306.57" cy="410.91" fx="306.57" fy="410.91" r="26.11" gradientTransform="translate(520.05 -130.82) rotate(90) scale(1.27 1.07)" xlink:href="#_Áåçûìÿííûé_ãðàäèåíò_199"/>
  </defs>
  <g class="cls-15">
    <g id="Capa_2" data-name="Capa 2">
      <g id="Moon">
        <g>
          <path class="cls-7" d="M276.97,135.87c0,13.05-1.84,25.69-5.31,37.62-6.88,24-20.22,45.25-38.03,61.83-12.73,11.87-27.76,21.31-44.31,27.59-15,5.71-31.23,8.8-48.23,8.8-2.41,0-4.85-.06-7.23-.2h-.03c-3.56-.17-7.08-.52-10.55-.95-26.24-3.44-50.07-14.34-69.4-30.57-7.26-6.05-13.85-12.88-19.67-20.33-4.42-5.59-8.4-11.53-11.9-17.81-.83-1.49-1.63-3.01-2.44-4.53,0-.06-.03-.09-.06-.14-.83-1.63-1.61-3.27-2.35-4.93h-.03c-2.35-5.19-4.42-10.55-6.08-16.06-1.26-3.96-2.32-8.03-3.18-12.16-.03-.03-.03-.09-.03-.11-.6-2.9-1.12-5.82-1.52-8.78-.92-6.31-1.38-12.73-1.38-19.27,0-3.76,.14-7.51,.49-11.18,.17-2.35,.43-4.67,.75-7,1.75-13.36,5.48-26.1,10.87-37.94,2.64-5.82,5.68-11.41,9.09-16.78,5.68-8.95,12.39-17.15,19.96-24.52C70.87,14.65,104.27,0,141.1,0c1.43,0,2.87,.03,4.27,.06,1.52,.06,3.04,.11,4.56,.23,7.8,.52,15.43,1.66,22.8,3.44,4.3,1.03,8.52,2.24,12.65,3.67,2.81,.95,5.56,2.01,8.29,3.15,2.04,.86,4.01,1.75,5.99,2.7,.34,.17,.69,.32,1.03,.49,13.19,6.45,25.15,14.94,35.53,25.12,1.49,1.43,2.93,2.92,4.36,4.44,.95,1.03,1.89,2.09,2.81,3.15,1.58,1.78,3.1,3.64,4.59,5.51,5.42,6.88,10.18,14.28,14.17,22.14,4.67,9.12,8.34,18.84,10.84,29.02,2.61,10.5,3.99,21.45,3.99,32.75Z"/>
          <path class="cls-8" d="M5.25,135.86s32.04,56.85,63.01,65.67c30.97,8.82,66.34,3.21,78.43,7.72,12.09,4.5,18.67,22.97,18.67,22.97l4.5,2.58s10.34-16.04,16.66-6.57c0,0-2.52-13.43,5.08-29.79,7.6-16.35,12.68-33.92,22.1-39.54,9.41-5.61,26.65-8.22,40.31-2.81,13.66,5.42,20.73,4.38,20.73,4.38l1.02-6.44,1.02-5.67s-13.07,2.08-23.59-4.65c0,0,1.44,2.52,9.59-12.7,8.15-15.22,7.21-28.94,7.21-28.94l-1.17-12.64s-4.38,43.85-22.87,56.57c0,0-41.23-8.54-58.66,40.13,0,0-2.98,32.54-20.26,31.64-17.27-.91-11.3-22.19-36.29-22.4-24.99-.22-40.16,10.06-64.9-4.05-24.75-14.11-60.59-55.45-60.59-55.45Z"/>
          <path class="cls-8" d="M133.87,271.51s17.14-25.59,35.98-25.45c18.85,.14,27.54,6.98,42.39-1.69,14.85-8.67,21.03-14.09,27.87-18.72,6.85-4.63,8-6.1,8-6.1l3.09-4.08s-10.41-5.05-19.59,2.37c-9.18,7.42-25.78,24.23-38.94,24.15-13.16-.08-12.52-7.66-27.32-1.72-14.8,5.94-45.95,26.95-45.95,26.95,0,0,5.64,4.12,14.47,4.3Z"/>
          <path class="cls-8" d="M12.71,180.36l1.63,4.48s26.49,14.62,43.22,34.98c16.73,20.35,19.7,34.14,19.7,34.14,0,0,2.98-12.13-11.44-34.94-14.42-22.81-45.44-35.32-53.11-38.66Z"/>
          <path class="cls-1" d="M200.68,13.74c-.45,.05-.9,.09-1.34,.19-1.53,.28-2.73,.14-4.24-.28-1.08-.31-1.86-.75-3.02-.94-1.65-.26-3.18-.97-4.83-1.18-1.74-.24-3.25-.92-4.9-1.51-1.3-.47-1.98-.31-3.23,0-1.25,.33-2.12-.19-3.23-.66-1.25-.54-2.5-.64-3.82-.9-3.44-.71-6.86-1.81-10.27-2.69-2.12-.54-4.08-.54-6.25-.57-1.7-.02-3.23,.47-4.92,.47-1.13,0-2.1-.19-3.23-.35-1.15-.21-2.33,.02-3.49-.14-1.72-.26-2.64-.52-4.38,.02-1.3,.42-2.31,.38-3.61,.45-1.44,.07-3.06,.45-4.48,.78-2.55,.59-5.33,1.06-7.94,1.01-1.6,0-3.96-.45-5.49,.09-.99,.35-1.48,1.41-2.17,2.12-1.32,1.37-2.95,2.59-4.05,4.12-1.11,1.53-2.36,3.11-2.26,5.04,.09,1.67,.87,3.63,1.6,5.16,.75,1.63,1.01,3.11-.66,4.19-2.1,1.39-4.52,2.66-6.93,3.35-1.6,.47-3.04,.75-4.38-.4-.49-.42-.8-1.25-1.41-1.58-.64-.33-1.3,0-1.98,.21-1.7,.49-3.35,1.06-5.07,1.34-1.06,.17-1.98,.73-3.02,.92-1.25,.24-2.14-.68-3.44-.38-1.81,.42-3.63,1.18-5.51,1.27-1.34,.07-3.04-.52-4.17-1.2-.66-.38-.82-.75-1.58-.54-.61,.14-1.53,.9-1.86,1.37-.45,.64-.61,1.46-1.06,2.12-.47,.73-.92,1.44-1.34,2.22-.78,1.51-1.7,2.92-2.69,4.27-.71,.94-1.2,2.22-1.98,3.09-.4,.47-1.27,.8-1.79,1.15-1.41,.99-2.9,1.89-4.27,2.95-2.64,2.07-5.14,4.36-7.82,6.36-2.05,1.53-4.93,2.43-7.26,3.39-1.46,.59-2.97,1.01-4.43,1.63-.47,.19-1.34,.4-1.74,.75-.52,.45-.8,1.27-1.27,1.89-1.27,1.56-2.62,3.11-3.58,4.9-.59,1.04-.94,2.1-1.32,3.23-.52,1.53-1.34,2.95-1.86,4.48-1.06,3.2-1.27,6.55-2.45,9.73-.68,1.86-1.67,3.56-2.52,5.26-1.46,2.87-1.67,6.29-2.1,9.47-.24,1.86-.14,4.01,.19,5.82,.35,1.96,.26,3.98,.24,5.99-.02,2.12-1.37,4.19-2.71,5.8-1.23,1.48-3.09,2.05-4.45,3.37-1.15,1.13-2.55,2.43-3.04,4.03-.21,.71-.02,1.51-.14,2.26-.31,1.67-.73,3.25-.97,4.95-.26,2.1-.31,4.08-.31,6.2,0,1.06-.07,2.14-.02,3.2,.05,1.01,.42,1.96,.49,2.97,.05,.71-.09,1.41,0,2.12,.14,.8,.45,1.63,.64,2.4,.47,1.89,.82,3.72,1.18,5.61,.33,1.74,1.01,3.46,1.56,5.16,.75,2.31,1.25,4.69,1.7,7.09,.35,1.79,.33,3.65,.59,5.47,.21,1.46,.54,2.95,.61,4.41,.07,2.22-.47,4.43-.49,6.67-.02,3.77,1.48,7.54,2.36,11.17,.26,1.01,.52,2.05,.8,3.06-9.33-18.43-14.59-39.26-14.59-61.32,0-26.82,7.78-51.82,21.19-72.89,5.7-8.96,12.4-17.16,19.96-24.51C70.88,14.66,104.27,0,141.1,0c2.97,0,5.89,.09,8.81,.28,18.12,1.15,35.28,5.87,50.76,13.46Z"/>
          <path class="cls-8" d="M38.48,59.72s30.58,27.34,70.93,28.13c40.35,.78,55.34-1.93,68.76-16.87,13.42-14.94,27.88-40.26,27.88-40.26,0,0-17.23,8.3-29.16,24.53-11.92,16.23-68.24,43.88-138.42,4.47Z"/>
          <g class="cls-10">
            <path class="cls-8" d="M40.9,60.5c-4,4.74-7.49,9.57-10.18,15.18-2.39,4.98-3.27,10.54-4.13,15.94-.51,3.2-.96,6.42-1.45,9.63-.43,2.85-1.25,5.85-.76,8.73,.67,3.9,.87,8.21,2.74,11.77,2,3.81,4.08,7.15,6.74,10.52,2.6,3.3,5.74,4.77,9.94,5.07,2.28,.16,4.54-.19,6.83,.11,3.16,.42,6.33,.99,9.49,1.5,6.35,1.02,13.49,1.07,18.05-4.14,3.7-4.23,5.45-9.49,7.81-14.52,2.51-5.36,5.67-9.8,10.37-13.44,3.45-2.68,6.49-5.69,9.81-8.51,1.51-1.28,2.42-2.67,4.13-3.63,1.68-.94,2.58-1.99,4.05-3.34,1.32-1.21,2.92-2.03,4.1-3.42,1.87-2.2,3.37-5.17,4.38-7.86,1.06-2.81,1.57-5.8,1.99-8.77,.41-2.9-.46-5.81-1.37-8.57-1.72-5.26-6.21-8.56-10.43-11.83-5.23-4.04-11.39-5.83-17.83-7.1-5.85-1.15-12.9-1.39-18.78-.34-6.22,1.1-12.62,2-18.42,4.69-4.24,1.97-6.8,4.71-10.22,7.61-1.74,1.48-3.85,2.49-5.43,4.16-2.18,2.31-4.22,4.81-1.43,.58Z"/>
            <path class="cls-8" d="M102.48,35.15c.85-1.47,1.81-3.59,2.98-4.98,.63-.75,1.45-1.33,2.2-1.96,2.27-1.91,4.76-3.52,7.64-4.35,1.59-.46,3.33-.49,4.92-.09,1.62,.41,4.55,1.52,5.79,2.7,2.31,2.2,.79,5.96,.09,8.52-.7,2.59-1.51,5.03-3.82,6.67-1.51,1.07-3.31,1.92-5.11,2.33-1,.23-2.02,.16-3.03,.28-.82,.1-1.6,.3-2.44,.3-1.88,0-4.73-1.34-5.52-3.18-.41-.96-.65-1.96-1.08-2.92-.33-.73-.59-1.5-.89-2.25-.58-1.39-1.08-2.74-1.72-1.1Z"/>
            <path class="cls-8" d="M124.94,49.64c-.56,1.5-.86,3.04-.91,4.62,.7,.41,.94,1.27,1.63,1.67,.66,.39,1.45,.23,2.2,.23,1.36,0,2.68,.02,2.9-1.66,.2-1.46-1.1-2.53-2.19-3.33-.79-.58-2.36-1.91-3.26-.81l-.36-.72Z"/>
            <path class="cls-8" d="M143.78,71.73c-1.76,1.26-3.66,2.39-5.35,3.73-2.14,1.7-3.81,3.86-5.47,6.01-2.06,2.67-4.49,5.47-3.97,9.06,.51,3.55,1.71,6.49,4.43,8.87,3.15,2.76,8.01,2.74,11.67,4.52,3.13,1.52,5.13,4.68,6.7,7.68,2.38,4.55,7.38,5.36,11.94,6.22,2.96,.56,5.9,.99,8.9,1.35,4.02,.49,8.01,1.26,12.04,1.65,7.39,.71,14.85,2.42,22.3,1.82,7.9-.63,15.06-3.45,21.56-7.98,5.54-3.86,10.49-10.55,11.95-17.18,1.54-6.97-.76-14.73-4.13-20.82-4.38-7.91-9.56-15.32-15.19-22.39-3.12-3.91-6.73-7.4-9.91-11.27-2.76-3.35-5.65-6.36-8.94-9.19-7.38-6.34-16.53-11.58-26.45-12.1-3.77-.2-7.59,.36-11.14,1.73-3.11,1.2-5.36,2.99-7.67,5.37-5.86,6.04-8.93,13.72-11.47,21.61-1.16,3.61-2.25,7.71-1.83,11.55,.13,1.17,.76,2.1,.74,3.22-.01,1.04,0,2.09,0,3.13,0,.61,.06,1.08-.16,1.6-.36,.84-1.2,1.72-.56,1.81Z"/>
            <path class="cls-8" d="M112.63,98.54c-3.83,2.23-7.76,3.98-10.57,7.56-.5,.64-1.24,1.35-.98,2.21,.29,.95,1.36,1.48,2.18,1.83,2.84,1.19,6.32,1.81,9.37,1.2,2.74-.54,6.35-2.4,7.83-4.88,1.87-3.14-.24-8.19-4.21-7.94-.6,.04-1.05,.32-1.63,.39-.47,.06-.98-.04-1.45-.02-.55,.02-.67,.13-1.11,.32-.48,.2-1.1,.74,.57-.68Z"/>
            <path class="cls-8" d="M34.02,151.06c-1.55,1.41-3.11,2.5-4,4.37-.84,1.76-1.43,3.44-1.83,5.33-.35,1.64-.81,3.4-.39,5.08,.38,1.5,1.08,3.01,1.6,4.48,.67,1.92,1.29,3.72,1.71,5.7,.52,2.47,1.43,4.57,2.53,6.83,1.08,2.22,2.3,4.36,3.62,6.45,1.37,2.16,2.96,3.86,4.73,5.7,6.19,6.45,13.76,13.29,23,14.45,4.66,.59,9.53-.61,12.94-3.96,3.73-3.66,6.1-8.92,6.9-14.05,.68-4.37,.23-8.9-2.13-12.7-1.88-3.03-3.94-6.29-6.38-8.91-1.64-1.77-3.54-3.29-5.33-4.91-1.78-1.61-3.49-3.31-5.43-4.73-3.41-2.49-6.7-5.12-10.14-7.59-3.1-2.23-6.46-4.67-10.25-5.58-2.62-.63-5.49-1.15-8.07-.14-1.11,.43-1.96,.81-2.52,1.82-.28,.5-.93,1.36-.97,1.93-.1,.02-.19,.05,.43,.43Z"/>
            <path class="cls-8" d="M58.29,144.9c.13,1.09,.25,2.18,.38,3.28,.08,.36,.15,.71,.23,1.07,.22,.23,1.03,.32,1.32,.36,1.11,.13,2.31-.47,3.17-1.14,1.33-1.03,1.92-3.44,.7-4.66-.98-.98-2.26-1.33-3.63-1.05-.71,.14-3.73,1.74-2.54,2.88l.36-.72Z"/>
            <path class="cls-8" d="M240.13,115.2c.48-2.44,.53-4,2.02-5.81,1.3-1.58,2.73-3.05,3.97-4.67,2.29-2.97,3.71-6.47,4.56-10.11,.75-3.21-.03-6.34,1.41-9.44,.34-.74,.74-2.14,1.52-2.49,.71-.33,2.16-.05,2.81,.34,.65,.39,1.33,1.24,1.88,1.73,1,.88,1.85,1.86,2.75,2.83,4.53,4.93,7.03,12.28,6.99,18.92-.02,3.9-.44,7.5-1.74,11.16-.53,1.49-1.07,2.82-1.87,4.18-.99,1.66-2.2,2.66-3.82,3.69-4.69,3-11.51,1.88-15.42-1.83-1.45-1.37-2.12-3.26-3.07-4.88-.74-1.27-1.45-2.42-1.71-3.93-.1-.02-.19-.04-.29,.3Z"/>
            <path class="cls-8" d="M240.13,64.12c.77,2.65,1.17,5.54,3.88,6.91,.47,.24,1.47,.62,2,.64,.69,.03,1.18-.36,1.72-.75,2.85-2.09,1.21-6.9-.71-9.07-1.13-1.28-2.44-1.7-4.01-2.16-.72-.21-.54-.27-1.15-.01-.47,.2-.77,.42-1.01,.8-.25,.39-.34,1.01-.36,1.47-.02,.51-.19,.79-.27,1.17-.2,.92-.1,1.65,.28,2.46l-.36-1.45Z"/>
            <path class="cls-8" d="M218.76,174.61c-.7,1.8-1.25,3.69-2.05,5.45-.85,1.87-1.69,3.77-2.48,5.66-2.09,5-3.26,10.19-4.61,15.42-1.42,5.5-2.33,11.1-2.9,16.75-.29,2.91-.74,5.71-.66,8.65,.06,2.09,.05,4.63,.79,6.62,.46,1.24,1.62,3.12,2.91,3.68,1.68,.72,3.82-.68,5.23-1.38,5.54-2.75,10.25-6.91,14.65-11.21,4.33-4.23,8.74-8.23,12.32-13.14,1.63-2.24,3.45-4.44,4.82-6.85,1.14-2.02,1.93-4.21,2.97-6.28,.97-1.94,1.69-3.98,2.6-5.94,1.12-2.39,2.15-4.84,2.93-7.35,1.48-4.82,2.8-9.74,1.11-14.71-1.44-4.22-4.95-7.47-9.32-8.41-2.37-.51-5.03-1.21-7.47-1.02-2.4,.19-4.97,.84-7.18,1.76-1.93,.8-3.89,1.73-5.66,2.84-.99,.62-1.67,1.49-2.46,2.34-1.32,1.42-2.63,2.96-3.64,4.62-.52,.85-.98,1.34-1.63,2.08-.88,1-1.27,2.5-.26,.46Z"/>
            <path class="cls-8" d="M197.39,237.27c-2.88,1.08-5.27,2.13-7.72,3.95-2.94,2.18-5.67,4.42-7.78,7.43-.77,1.1-2.3,2.99-1.15,4.3,1,1.13,2.62,1.03,3.98,1,1.98-.04,3.96-.4,5.8-1.17,1.71-.72,3.25-1.66,5.02-2.26,1.69-.58,4-1.71,5.14-3.16,.65-.83,1.03-1.97,1.63-2.86,.49-.72,.65-1.28,.53-2.18-.13-1.01-.75-2.45-1.54-3.17-.71-.64-2.05-1.29-3-1.17-.5,.06-1.14,.23-1.6,.43-1.15,.49-2.08,1.92,.69-1.14Z"/>
            <path class="cls-8" d="M193.77,220.61c-.59-2.16-1.25-3.87-1.06-6.04,.17-1.96,.14-3.62,1.18-5.4,.43-.75,1.69-3.11,2.54-3.41,.29-.1,1.17-.06,1.44-.03,1.46,.19,2.34,1.99,2.65,3.31,.47,2.03,.14,4.42,.16,6.5,.01,1.63-.21,3.12-.82,4.64-.5,1.23-1.47,1.21-2.72,1.16-1.22-.05-1.72-.39-2.63-1.1-.33-.26-.82-.36-1.11-.62-.4-.35-.25-.84,.39,.99Z"/>
            <path class="cls-8" d="M191.23,134.76c-.25,1.51-.36,3.02-.32,4.54,.55,0,1.12,1.01,1.84,1.19,1.01,.25,2.05-.37,2.82-.99,1.71-1.37,2.18-3.96,1.8-6.01-.37-2-2.68-2.21-4.34-2-.56,.07-1.39,.33-1.82,.72-1.01,.89-1.1,1.97-1.07,3.28l1.09-.72Z"/>
            <path class="cls-8" d="M61.55,228.22c.92-1.61,1.73-3.33,2.91-4.75,1.33-1.59,2.84-3.28,4.36-4.67,1.9-1.73,4.11-3.34,6.15-4.91,1.89-1.47,3.83-2.89,5.86-4.16,3.54-2.22,7.19-3.68,11.12-5.04,3.2-1.1,6.58-1.47,9.91-.79,3.42,.7,6.74,2.63,9.26,5.01,2.42,2.28,4.95,5.06,6.44,8.07,3.04,6.14,1.86,12.8-.22,19.04-.93,2.78-2.86,6.11-5.2,7.92-1.32,1.03-2.92,1.7-4.54,2.06-1.84,.41-3.94,1.04-5.8,1.28-8.18,1.04-16.58,.44-24.36-2.42-3.08-1.13-6.1-2.52-9.05-3.96-2.34-1.14-4.3-2.59-5.86-4.68-1.16-1.56-2.14-3.41-2.08-5.39,.03-.89,.33-1.68,.44-2.55,.39-.02,.71-.26,.66-.06Z"/>
            <path class="cls-8" d="M123.13,231.84c-.57,1.5-.94,3.04-1.09,4.62,.56,.32,.52,1.23,.94,1.73,.47,.57,.97,.86,1.67,.9,.72,.04,1.6,.07,2.31-.04,1.12-.17,1.37-.59,1.95-1.41,.65-.93,.82-1.33,.74-2.56-.06-.85-.29-1.74-.81-2.44-.33-.44-.91-1.13-1.36-1.46-1.07-.77-1.87-.33-2.9,.29l-1.45,.36Z"/>
            <path class="cls-8" d="M257.16,161.2c-1.25-.98-2.28-2.13-3.1-3.47,.12-.54,.1-1.09-.06-1.63-.2-1.39-.47-2.53-.18-3.94,.67-3.31,3.55-5.76,6.89-6.14,2.2-.25,5.39,1.53,6.55,3.31,1.23,1.89,1.73,4.44,1.83,6.65,.08,1.83-.33,4.01-1.43,5.54-.77,1.06-2.32,1.1-3.54,1.14-1.41,.05-2.82-.18-4.15-.63-1.01-.34-2.13-1.08-2.81-.82Z"/>
          </g>
          <path class="cls-6" d="M60.54,241.97c-14.05-11.76-25.69-26.32-34.05-42.82-5.26-10.37-9.21-21.49-11.67-33.16-.02-.02-.02-.07-.02-.12-1.89-9.05-2.9-18.43-2.9-28.04,0-26.82,7.78-51.82,21.19-72.89,5.7-8.96,12.4-17.16,19.96-24.51C77.53,16.63,110.92,1.98,147.76,1.98c2.97,0,5.89,.09,8.81,.28,9.21,.59,18.17,2.12,26.78,4.45-10.62-3.48-21.82-5.68-33.43-6.42-2.92-.19-5.84-.28-8.81-.28C104.27,0,70.88,14.66,46.39,38.47c-7.56,7.35-14.26,15.55-19.96,24.51C13.02,84.04,5.25,109.05,5.25,135.86c0,9.61,1.01,18.99,2.9,28.04,0,.05,0,.09,.02,.12,2.45,11.67,6.41,22.79,11.67,33.16,8.37,16.5,20.01,31.06,34.05,42.82,14.88,12.49,32.46,21.81,51.73,27.02-16.67-5.44-31.93-14.01-45.08-25.05Z"/>
          <path class="cls-8" d="M21.01,121.25s76.07,31.04,117.35,28.55c41.28-2.48,58.85-26.13,75.33-47.72,16.48-21.59,22.66-47.59,22.66-47.59,0,0-31.27,60.33-70.07,76.31l-22.32,4.52s11.63-8.68,19.75-17.49c8.12-8.81,39.4-21.64,42.33-31.93,2.93-10.3,2.58-27.22,7.64-38.05s10.12-19.76,10.12-19.76l-13.43-2.32-6.3,14.82s-1.77,24.62-6.59,37.97c-4.82,13.35-51.91,49.88-62.51,56-10.6,6.12-104.41-6.8-113.98-13.3Z"/>
          <g class="cls-16">
            <path class="cls-8" d="M156.72,251.35c.28-.11,5.2-2.33,6.61-2.23,.6,.04,1.22,.53,1.67,.78,1.31,.73,2.15,1.82,2.01,3.35-.21,2.18-2.6,5.03-5.21,5.98-3.24,1.18-6.66-.31-7.81-2.45-1.17-2.17,1.8-6.15,5.05-6.22l-2.32,.79Z"/>
            <path class="cls-4" d="M93.07,116.16c-1.79,3.06-6.29,8.67-4.93,13.06,.58,1.87,1.92,3.83,2.76,5.6,2.3,4.86,6.93,9.74,12.68,6.23,6.45-3.95,3.65-11.14,.92-16.39-1.02-1.95-2.51-4.36-4.53-5.46-1.1-.6-2.9-1.22-4.13-1.47-2.15-.43-.63-1.81-2.77-1.58h0Z"/>
            <path class="cls-9" d="M136.53,16.19c-.26,1.58-.3,3.16-.13,4.74,.5-.1,.88,.36,1.4,.35,.59,0,1.45-.41,1.92-.73,1.01-.69,1.53-2.11,1.52-3.28,0-1.21-.12-2.24-1.26-2.91-1.37-.8-2.74-.23-3.44,1.1v.72Z"/>
            <path class="cls-4" d="M107.92,163.98c.26-1,.65-3.73,1.48-4.93,.68-.99,1.93-1.55,3.02-1.91,2.38-.79,4.84-.69,6.73,1.02,3.33,3,3.21,7.49,.03,10.56-1.44,1.4-3.42,2.81-5.5,2.89-1.02,.04-2.36,.16-3.24-.36-1.07-.63-1.92-1.76-2.27-2.92-.59-1.93-.23-3.4,.83-5.09l-1.09,.72Z"/>
            <path class="cls-4" d="M82.92,162.53c0,1.51-.88,5.07,1.3,5.77,1.05,.34,2.16-1.06,2.34-1.95,.17-.9,.07-2.29-.28-3.09-.53-1.22-1.61-2.07-2.63-.73h-.72Z"/>
            <path class="cls-4" d="M24.97,136.09c.18,2.39,.17,5.89,1.63,8.09,.61,.92,1.21,1.86,2.36,2.06,1.02,.18,1.6-.43,2.17-1.18,1.02-1.33,1.16-2.24,1.1-3.91-.05-1.48-.51-3.13-1.18-4.46-.49-.97-1.32-1.68-2.09-2.44-.69-.68-1.19-.83-2.18-.72-1.32,.14-1.23,1.72-1.44,2.9l-.36-.36Z"/>
            <path class="cls-4" d="M226.37,124.86c.04-.23,.31-4.25,1.05-5.15,.31-.38,1.04-.63,1.47-.84,1.26-.62,2.63-.81,3.93-.19,1.86,.88,3.31,3.44,2.96,5.5-.44,2.55-3.35,4.31-5.79,4.35-2.48,.03-4.69-3.29-3.25-5.48l-.36,1.81Z"/>
            <path class="cls-4" d="M86.69,157.12c.02-.11,.15-2.12,.52-2.57,.16-.19,.52-.32,.74-.42,.63-.31,1.31-.4,1.96-.09,.93,.44,1.66,1.72,1.48,2.75-.22,1.28-1.67,2.16-2.9,2.17-1.24,.02-2.34-1.65-1.63-2.74l-.18,.91Z"/>
            <path class="cls-4" d="M148.57,181.94c.02-.11,.15-2.12,.52-2.57,.16-.19,.52-.32,.74-.42,.63-.31,1.31-.4,1.96-.09,.93,.44,1.66,1.72,1.48,2.75-.22,1.28-1.67,2.16-2.9,2.17-1.24,.02-2.34-1.65-1.63-2.74l-.18,.91Z"/>
            <path class="cls-4" d="M190.33,72.4c.02-.11,.15-2.12,.52-2.57,.16-.19,.52-.32,.74-.42,.63-.31,1.31-.4,1.96-.09,.93,.44,1.66,1.72,1.48,2.75-.22,1.28-1.67,2.16-2.9,2.17-1.24,.02-2.34-1.65-1.63-2.74l-.18,.91Z"/>
            <path class="cls-4" d="M105.17,231.37c.02-.11,.15-2.12,.52-2.57,.16-.19,.52-.32,.74-.42,.63-.31,1.31-.4,1.96-.09,.93,.44,1.66,1.72,1.48,2.75-.22,1.28-1.67,2.16-2.9,2.17-1.24,.02-2.34-1.65-1.63-2.74l-.18,.91Z"/>
            <path class="cls-4" d="M217.31,158.91c-2.06,1.29-3.33,1.86-4.57,3.76-.92,1.41-1.91,2.71-2.63,4.25-.57,1.22-1.27,3.04-1.16,4.41,.28,3.57,4.71,.43,5.99-.65,1.71-1.46,3.34-3.44,3.47-5.75,.05-.91,.08-1.92-.28-2.77-.15-.37-.34-.8-.53-1.16-.42-.79-.78-.81-.29-2.08Z"/>
            <path class="cls-4" d="M260.78,174.48c.16-1.57-.64,4.11-.31,4.36,.51,0,1.09,.08,1.58,0,.71-.11,.9-.46,1.45-.89,1.13-.87,1.95-1.38,2-2.93,.04-1.28-.19-2.06-1.45-2.44-.55-.17-.82-.39-1.42-.22-1.23,.35-2.08,1.38-2.56,2.48l.72-.36Z"/>
            <path class="cls-9" d="M145.33,16.93c.11-1.07-.43,2.78-.21,2.95,.34,0,.74,.06,1.07,0,.48-.07,.61-.31,.98-.6,.77-.59,1.32-.93,1.35-1.99,.02-.87-.13-1.39-.98-1.65-.37-.11-.55-.26-.96-.15-.83,.24-1.41,.94-1.74,1.68l.49-.25Z"/>
            <path class="cls-9" d="M218.93,127.77c.11-1.07-.43,2.78-.21,2.95,.34,0,.74,.06,1.07,0,.48-.07,.61-.31,.98-.6,.76-.59,1.32-.93,1.35-1.99,.02-.87-.13-1.39-.98-1.65-.37-.11-.55-.26-.96-.15-.83,.24-1.41,.94-1.74,1.68l.49-.25Z"/>
            <path class="cls-9" d="M141.32,233.53c1.07,0-2.81-.14-2.96,.09,.03,.34,.02,.74,.11,1.07,.12,.47,.37,.57,.7,.91,.67,.7,1.07,1.22,2.12,1.14,.87-.07,1.37-.28,1.54-1.15,.07-.38,.21-.58,.05-.97-.32-.8-1.08-1.3-1.85-1.55l.3,.46Z"/>
            <path class="cls-9" d="M79.55,116.98c.11-1.07-.43,2.78-.21,2.95,.34,0,.74,.06,1.07,0,.48-.07,.61-.31,.98-.6,.76-.59,1.32-.93,1.35-1.99,.02-.87-.13-1.39-.98-1.65-.37-.11-.55-.26-.96-.15-.83,.24-1.41,.94-1.74,1.68l.49-.25Z"/>
            <path class="cls-4" d="M139.25,222c.16-1.57-.64,4.11-.31,4.36,.51,0,1.09,.08,1.58,0,.71-.11,.9-.46,1.45-.89,1.13-.87,1.95-1.38,2-2.93,.04-1.28-.19-2.06-1.45-2.44-.55-.17-.82-.39-1.42-.22-1.23,.35-2.08,1.38-2.56,2.48l.72-.36Z"/>
          </g>
          <path class="cls-2" d="M63.36,132.54c44.01,6.96,41.29,18.58,92.37,4.66,51.07-13.91,87.65-90.75,87.65-90.75,0,0,2.55-5.69,.39-9.03-.86-1.33-7.56,1.43-7.56,1.43,1.15,24.66-33.35,75.59-72.33,90.25-4.16,1.57-8.36,2.11-12.27,2.99-1.84-.92-6.35-5.09,14.99-19.55,25.11-17.02,36.4-23.37,34.08-41.06-2.33-17.69,20.01-45.73,20.01-45.73h0s1.62-7.46-2.61-12.11c-5.43-5.98-17.4,.09-17.4,.09,0,0-3.11,34.69-47.12,53.43-44.01,18.74-68.46,9.44-85.31,4.31-16.84-5.13-21.86-33.02-21.86-33.02,0,0-14.26-2.96-19.43,6.13-3.8,6.68,1.71,14.99,1.71,14.99,0,0,26.54,9.62,50.45,18.79,23.91,9.17,69.55,.95,85.85-6.89,16.3-7.84,16.3-20.37,29.34-31.77,5.39-4.71,10.82-7.9,15.35-10.03,0,0-14.26,22-12.63,37.49,1.63,15.49-8.15,14.94-32.06,42.11-16.78,19.07-31.42,25.11-38.68,27.02-18.41,1.67-35.13-.4-58.04-6.61-36.95-10.02-59.14-26.08-59.14-26.08,0,0-3.21-1.53-4.44,2.01-.52,1.5,2.78,5.7,2.78,5.7,0,0,11.89,14.26,55.9,21.22Z"/>
          <path class="cls-3" d="M94.3,262.75s-10.83-6.75-18.98-27.68-7.06-19.56-22.28-32.74c-15.21-13.18-41.68-26.14-41.68-26.14,0,0-1.79,.61-1.79,1.15,0,2.72,3.14,3.03,3.14,3.03,0,0,24.69,10.59,40.12,27.62,15.42,17.03,32.09,47.25,20.22,45.45,0,0,2.67,7.57,8.92,9.31,6.26,1.74,12.33,0,12.33,0Z"/>
          <path class="cls-17" d="M202.46,161.53c5.05-5.39,11.16-12.65,35.87-12.79,24.72-.17,37.42,5.3,37.42,5.3,0,0,5.08-1.43,5.63-8.04,.54-6.54-4.45-9.88-4.45-9.88-.26,2.07-2.75,15.66-23.74,7.6,0-.2,7.43-6.94,9.03-20.65,1.63-13.91,6.6-33.64,6.6-33.64,0,0,2.92-4.88,1.02-8.81-.63-1.3-5.44-1.88-5.44-1.88,4.16,27.73-6.34,61.14-17.75,64.98-13.85,.17-30.74,2.58-38.4,7.63-9.41,6.22-18.84,34.36-24.89,54.14-1.52,4.9-4.62,10.24-8.57,15.57-15.14,3.64-10.35-14.51-16.89-20.1-6.51-5.56-19.01-2.58-27.16-5.59-8.14-3.01-10.32-9.46-19.01-10.5-8.69-1.03-22.4,15.14-38.03,8.46C58.07,186.65,5.73,124.68,5.73,124.68c0,0-4.72-1.13-5.67,2.13-.73,2.5,5.18,9.06,5.18,9.06,0,0,36.39,54.92,71.15,62.06,34.78,7.14,66.3,.46,77.17,9.89,10.81,9.41,11.64,24.43,11.64,24.55-11.3,11.99-24.58,22.31-30.86,25.46-10.87,5.48-28.73,9.21-28.73,9.21,2.44,2.81,7.34,5.07,12.63,6.48,7.62,2.04,12.49-1.8,12.49-1.8,0,0-4.42-3.84,1.35-8.66,14.68-12.22,25.09-17.55,40.32-21.16,9.23-2.18,11.99,2.01,13.31,.66v.03c14.2,4.5,25.44-6.14,37.65-15.92,12.19-9.75,27.85-11.18,27.85-11.18,0,0,8.11-1.36,10.21-4.94,1.91-3.26-2.61-6.81-2.61-6.81,0,0-6.91,2.84-19.93,9.43-13.05,6.6-27.01,25.78-42.93,25.18-8.78-.32-6.94-9.21-7.77-10.47,0-.63,.03-1.26,0-1.89v-.03c-.26-6.45-1.61-12.3-1.61-16.98,0-1.2,.09-2.32,.32-3.36,1.46-6.91,10.52-38.69,15.57-44.08Zm-27.7,59.59c-2.78,3.76-5.99,7.48-9.41,11.1l9.41-11.1Zm12.19,9.61c.2,1.49,.49,2.95,.26,4.45-.09,.77-.23,1.41-.98,1.66-.43,.14-.92,.2-1.35,.32-.69,.17-1.35,.43-2.04,.52-1.06,.14-2.24,.03-3.3,.03-1.15,0-2.38,.11-3.53-.03-.54-.09-1.09-.2-1.63-.29-.54-.09-1.29-.11-1.78-.4-1.18-.66-1.86-1.89-2.75-2.18,.09-1.03,.03-1.95,.46-2.87,.11-.34,.23-.69,.32-1.03,.2-.6,.43-1.15,.69-1.72,.63-1.46,1.26-2.87,2.18-4.16,.43-.66,.86-1.32,1.26-2.01,.49-.75,1.15-1.32,1.78-1.95,.92-.92,1.81-1.75,2.95-2.38,.89-.49,2.32-1.18,3.33-.8,1.03,.34,1.46,1.69,1.86,2.61,.29,.66,.37,1.38,.57,2.09,.23,.89,.63,1.69,.83,2.61,.23,1,.23,2.04,.43,3.04,.17,.83,.29,1.66,.43,2.49Z"/>
          <path class="cls-5" d="M32.23,41.63s6.13,12.6,21.89,23.96c0,0-5.23-18.28-9-25.88,0,0-5.17-4.88-12.89,1.92Z"/>
          <path class="cls-5" d="M114.86,80.08s10.72-4.32,14.05-2.7c0,0-10.27,2.84-14.05,2.7Z"/>
          <path class="cls-5" d="M150.71,70.16c1.93-.62,3.89-1.19,5.78-1.93,1.67-.66,3.26-1.42,4.82-2.29,1.98-1.11,3.92-2.32,5.71-3.71,.46-.36,1-.59,1.48-.92,.56-.38,1.11-.83,1.65-1.24,.48-.36,.87-.86,1.33-1.26,.46-.4,.93-.78,1.41-1.15,.82-.63,1.66-1.32,2.41-2.03,.36-.34,.71-.71,1.09-1.03,.26-.22,.48-.29,.78-.41,.11,.25-.18,.83-.28,1.07-.22,.53-.57,.91-.85,1.39-.64,1.1-1.69,1.8-2.47,2.78-.52,.66-1.23,1.16-1.93,1.64-.97,.66-2.09,1.23-3.13,1.77-1.06,.55-2.19,.88-3.23,1.49-.99,.57-1.97,1.02-3,1.49-.68,.31-1.3,.78-1.94,1.16-.54,.33-1.09,.65-1.63,.97-.81,.49-1.6,.96-2.44,1.41-.44,.24-.9,.43-1.34,.67-1,.55-2.16,.96-3.31,.95-.42,0-.8,.04-1.19-.14-.17-.07-.5-.17-.52-.38,.28-.02,.52-.38,.8-.3Z"/>
          <path class="cls-5" d="M179.64,51.55c-.51,.25-.94,.59-1.31,1.01,0,.3-.17,.64,.36,.63,.55-.02,.94-.36,1.29-.75,.18-.2,.55-.79,.33-1.08-.27-.36-1,.14-1.22,.33l.54-.14Z"/>
          <path class="cls-5" d="M202.6,14.6c-.39,.52-.96,1.13-1.22,1.78-.19,.48-.36,.99-.55,1.48-.36,.96-.57,1.96-.88,2.94-.56,1.78-.99,3.59-1.7,5.33-.32,.79-.71,1.54-1.09,2.3-.2,.41-.51,.78-.69,1.19-.16,.37-.37,.68-.54,1.04-.16,.34-.21,.69-.43,1-.27,.37-.43,.72-.65,1.12-.18,.32-.87,1.1-.66,1.51,.21,.04,.42-.29,.54-.42,.39-.4,.84-.71,1.24-1.1,.76-.71,1.42-1.52,2.14-2.27,.31-.33,.52-.71,.8-1.06,.4-.5,.88-.9,1.26-1.42,.63-.84,1.31-1.64,2.01-2.42,.35-.39,.59-.85,.93-1.25,.31-.37,.67-.69,1-1.05,1.02-1.13,2.11-2.21,3.1-3.37,.79-.92,1.53-1.92,2.21-2.93,.53-.8,1.01-1.61,1.5-2.45,.2-.34,.63-1.14,.48-1.56-.19-.53-.82-.74-1.31-.81-.76-.11-1.74-.13-2.48,.05-.83,.2-1.57,.52-2.36,.84-.71,.29-1.28,.81-1.96,1.15-.49,.24-1.05,.47-.71,.37Z"/>
          <path class="cls-5" d="M209.66,30.9c-.22,.46-.5,1.23-.84,1.7-.31,.42-.6,.82-.86,1.27-.46,.79-.9,1.59-1.36,2.38-.83,1.44-1.88,2.78-2.51,4.32-.25,.61-.51,1.21-.81,1.79-.31,.62-.46,1.29-.68,1.94-.22,.64-.29,1.29-.44,1.94-.12,.53-.37,1.03-.21,1.58,.52-.67,.89-1.42,1.37-2.13,.33-.5,.6-1.01,1.05-1.42,.45-.41,.82-.85,1.22-1.3,.4-.45,.79-.9,1.09-1.42,.28-.48,.45-.98,.78-1.43,.3-.43,.52-.92,.8-1.36,.33-.52,.66-1.04,.87-1.62,.4-1.11,.79-2.29,1.09-3.43,.14-.53,.23-1.26,.13-1.82-.08-.44-.77-1.66-.68-1.01Z"/>
          <path class="cls-5" d="M200.29,49.51c-.21,.72-.49,1.53-.65,2.28-.04,.19-.11,.58,.05,.7,.17,.13,.58-.05,.71-.16,.15-.14,.23-.33,.33-.5,.22-.36,.49-.92,.38-1.37-.11-.48-.56-.9-.96-.4l.14-.54Z"/>
          <path class="cls-5" d="M186.02,88.91c-1.53,1.47-3.3,2.76-4.55,4.5-.12,.17-.75,.89-.6,1.19,.17,.34,.89,.11,1.12,.04,.89-.3,1.78-.79,2.61-1.21,.64-.32,1.24-.73,1.84-1.12,1.4-.9,2.58-2.09,3.65-3.36,.46-.54,.96-1.14,1.22-1.82,.07-.19,.36-.72,.29-.95-.22-.75-2,.05-2.36,.28-.42,.27-.79,.64-1.17,.96-.32,.26-.63,.48-.96,.7-.28,.19-.54,.44-.81,.64-.28,.21-.48,.7-.27,.14Z"/>
          <path class="cls-5" d="M179.1,95.97c-.52,.24-1.04,.49-1.56,.75,0,.24-.65,.68-.33,.99,.18,.17,.76-.05,.93-.11,.37-.13,.58-.39,.86-.65,.28-.27,.26-.38,.1-.71v-.27Z"/>
          <path class="cls-5" d="M143.96,129.57c-1.24,.94-2.59,1.82-3.98,2.55-1.64,.86-3.38,1.52-4.99,2.43-2.5,1.42-5.16,2.48-7.78,3.64-.42,.18-4.27,1.7-2.82,2.47,.67,.36,1.35,.28,2.08,.3,.6,.02,1.18,.18,1.78,.2,.61,.02,1.23,0,1.85,0,3.15,.02,6.47-.73,9.34-2,.64-.28,1.44-.5,2.02-.9,.36-.24,.69-.62,1.01-.91,.63-.59,1.1-1.26,1.5-2.04,.56-1.11,.94-2.14,.9-3.39-.02-.45-.16-1-.48-1.35-.26-.29-.57-.37-.43-1.01Z"/>
          <path class="cls-5" d="M121.5,139.16c-.7-.35-1.5-.88-2.27-.91-.27-.01-.53,.04-.8,.09-.59,.12-1.52,.19-1.97,.64-.69,.68,.78,1.22,1.33,1.36,.65,.16,1.58,.18,2.27,.09,.55-.07,1.66-.55,1.66-1.24,.05-.01,.1-.02,.15-.03h-.36Z"/>
          <path class="cls-5" d="M163.16,130.47c2.93-.88,5.71-2.07,8.44-3.45,1.06-.53,2.11-1.14,3.11-1.76,.66-.41,1.31-.93,1.99-1.28,.28-.14,1.98-1.13,2.21-.66,.3,.61-1.55,1.84-1.81,2.07-.7,.62-1.47,1.1-2.23,1.64-.64,.46-1.35,.68-2.03,1.07-.89,.51-1.79,.95-2.73,1.35-.7,.29-1.42,.65-2.15,.84-.56,.15-1.13,.37-1.69,.5-.42,.1-.85-.03-1.27,.08-.52,.13-1.5,.38-1.86-.4Z"/>
          <path class="cls-5" d="M227.18,146.23c1.42,0,3.13,.15,4.6-.06,1.07-.15,2.13-.38,3.21-.48,2.12-.2,4.19-.74,6.31-.82,.84-.03,1.69,0,2.53,0,.46,0,1.11-.12,1.56-.01,.2,.04,.74,.32,.88,.48,.51,.55,.02,.47-.33,.67-.76,.43-1.34,.78-2.23,.97-1.33,.28-2.65,.64-4,.84-.93,.13-1.86-.03-2.79,.12-1.24,.2-2.43,.21-3.68,.21-1.02,0-2.04,0-3.06,0-.78,0-1.41-.14-2.16-.25-.64-.09-1.02,.04-1.56-.26-.25-.14-.65-.52,.71-1.39Z"/>
          <path class="cls-5" d="M261.41,147.59c1.82,.16,2.94,.38,4.58,.07,1.07-.2,2.16-.38,3.23-.55,1.54-.25,3.19-.98,4.51-1.83,.74-.48,2.22-1.5,3.17-1.23,.74,.21,1.58,1.11,1.64,1.92,.07,1.02-1.07,1.85-1.77,2.4-1.22,.97-3.04,1.32-4.56,1.41-1.86,.11-3.65-.15-5.45-.56-.55-.13-1.1-.29-1.65-.41-.48-.11-1.48,.02-3.7-1.22Z"/>
          <path class="cls-5" d="M265.49,80.48c-.11,1.24-.88,4.29,.67,5.29,.83,.53,1.22-.86,1.23-1.49,.02-.91-.56-3.28-1.64-3.52l-.27-.27Z"/>
          <path class="cls-5" d="M9.39,108.56c1.29,1.65,2.24,3.37,4.03,4.42,1.04,.61,2.05,1.31,3.22,1.67,1.09,.33,2.48,.7,3.62,.44,.61-.14,.77,.07,.74-.72-.01-.35-.28-.82-.46-1.09-.37-.56-.94-.93-1.38-1.43-.52-.6-.82-1.17-1.45-1.66-2.08-1.63-4.03-2.99-6.55-3.8-.91-.29-.97-.4-1.77,.1-.63,.4-.66,.23-.75,.98-.12,.99,.59,1.78,1.1,2.55l-.36-1.45Z"/>
          <path class="cls-5" d="M10.48,135.36c2.11,3.36,4.52,6.43,7.07,9.46,1.81,2.15,2.9,4.87,4.96,6.85,.34,.33,3.95,3.43,3.91,1.64,0-.41-1.03-2.01-1.25-2.38-.6-.98-1.27-2.02-2.01-2.91-.61-.73-1.31-1.44-1.82-2.25-.55-.87-1.02-1.39-1.71-2.16-.87-.97-1.34-2.19-2.11-3.23-.71-.96-1.45-1.88-2.14-2.86-.93-1.31-1.89-2.78-3.36-3.34-.39-.15-.97-.57-1.47-.21-.78,.58-.16,2.54-.06,1.38Z"/>
          <path class="cls-5" d="M141.24,199.11c3.04-.54,5.49-1.02,8.48-.32,1.46,.34,2.94,.8,4.37,1.23,.93,.28,2.34,.55,3.01,1.24,.71,.73,.46,2.03-.18,2.67-.88,.88-2.84,.69-3.94,.58-2.26-.21-4.42-.49-6.59-1.15-1.23-.37-2.95-.98-3.98-1.8-.48-.37-1.71-1.41-1.17-2.46Z"/>
          <path class="cls-5" d="M182.9,215.41c-1.54-.34-1.66-3.08-1.24-4.18,.24-.62,.63-1.62,1.32-1.91,.71-.29,.95,.2,1.55,.42-.64,1.37-1.42,2.66-2.35,3.86l.72,1.81Z"/>
          <path class="cls-5" d="M240.13,214.33c2.02-1.32,3.39-2.24,5.6-2.9,1.12-.33,2.28-.47,3.39-.81,1.31-.4,2.63-1.02,3.97-1.29,.49-.1,.96-.07,1.44-.15,.54-.09,.28-.36,.9-.03,1.14,.62,.62,1.46-.12,2.08-1.4,1.19-2.6,1.66-4.42,2.09-1.01,.24-1.82,.81-2.81,1.11-.59,.18-1.21,.28-1.81,.44-2.22,.59-4.93,.18-6.15-.55Z"/>
          <path class="cls-5" d="M57.57,209.62c1.27,2.63,2.34,5.16,4,7.53,.75,1.06,1.31,2.1,2.52,2.62,.96,.41,1.61,.56,1.74-.74,.07-.68-.49-1.65-.86-2.3-1.07-1.9-2.59-3.55-3.86-5.3-.49-.68-1.18-1.58-1.82-2.1-.46-.38-1.83-.8-1.72,.29h0Z"/>
          <path class="cls-5" d="M110.82,267.58c3.06-.64,5.72-1.59,8.62-2.64,1.2-.44,2.4-.44,3.62-.7,.11-.02,.25-.26,.42-.3,.3-.08,.8,.02,1.11,.02,.32,0,1.71-.19,1.98,.01,1.13,.83-1.29,3.03-1.81,3.58-1.99,2.09-5.29,3.24-8.22,2.94-1.48-.15-2.83-.94-4.27-1.11-.92-.1-2.95-.44-2.85-1.75,.11-.02,.21-.04,1.41-.06Z"/>
          <path class="cls-5" d="M163.34,236.79c-2.71,1.84-5.69,3.44-7.63,6.17-1.34,1.88,1.11,1.49,2.19,1.08,.9-.34,1.58-.68,2.37-1.24,.71-.5,1.1-.99,1.7-1.58,.43-.43,.98-.78,1.37-1.25,.4-.48,.56-1.51,1.02-1.83-.08-.21-.17-.41-.3-.63l-.72-.72Z"/>
          <path class="cls-5" d="M89.44,195.13c1.97-.83,3.93-1.53,5.77-2.52,1.71-.92,3.36-1.87,5.1-2.73,2.24-1.11,4.66-2.67,7.25-2.73,.98-.02,1.62-.49,2.52-.09,.72,.33,1.26,.62,1.72,1.27,1.32,1.88-1.3,3.69-2.73,4.65-1.1,.74-2.1,1.65-3.33,2.17-1.44,.6-2.98,.88-4.43,1.42-2.41,.89-4.97,1.89-7.53,2.2-1.33,.16-2.55-.32-3.62-1.02-.54-.35-1.08-.82-1.44-1.36-.33-.5-.55-1.31,.73-1.27Z"/>
          <ellipse class="cls-13" cx="138.36" cy="127.11" rx="48.25" ry="30.94" transform="translate(-38.35 63.28) rotate(-22.71)"/>
          <ellipse class="cls-14" cx="39.29" cy="47.76" rx="30.94" ry="36.7" transform="translate(-22.25 53.87) rotate(-56.23)"/>
          <ellipse class="cls-11" cx="271.74" cy="145" rx="27.9" ry="33.1" transform="translate(.15 290.28) rotate(-56.23)"/>
          <ellipse class="cls-12" cx="80.9" cy="257.83" rx="27.9" ry="33.1" transform="translate(-178.39 181.75) rotate(-56.23)"/>
        </g>
      </g>
    </g>
  </g>
</svg>