<?xml version="1.0" encoding="UTF-8"?>
<svg xmlns="http://www.w3.org/2000/svg" xmlns:xlink="http://www.w3.org/1999/xlink" viewBox="0 0 312.87 312.87">
  <defs>
    <style>
      .cls-1 {
        fill: url(#_Áåçûìÿííûé_ãðàäèåíò_494-2);
      }

      .cls-1, .cls-2, .cls-3, .cls-4, .cls-5, .cls-6, .cls-7, .cls-8, .cls-9, .cls-10, .cls-11, .cls-12, .cls-13, .cls-14, .cls-15, .cls-16, .cls-17, .cls-18, .cls-19, .cls-20, .cls-21, .cls-22, .cls-23, .cls-24, .cls-25, .cls-26, .cls-27 {
        fill-rule: evenodd;
      }

      .cls-1, .cls-2, .cls-6, .cls-28, .cls-29, .cls-30, .cls-18, .cls-22, .cls-23, .cls-24, .cls-25, .cls-26, .cls-27 {
        mix-blend-mode: screen;
      }

      .cls-2 {
        fill: url(#_Áåçûìÿííûé_ãðàäèåíò_796);
      }

      .cls-2, .cls-7, .cls-9, .cls-23 {
        opacity: .5;
      }

      .cls-3 {
        fill: #f5cefa;
      }

      .cls-4 {
        fill: #ea9cf4;
      }

      .cls-31 {
        isolation: isolate;
      }

      .cls-5 {
        fill: #f2c4f8;
      }

      .cls-6 {
        fill: url(#_Áåçûìÿííûé_ãðàäèåíò_494-4);
      }

      .cls-28 {
        fill: url(#_Áåçûìÿííûé_ãðàäèåíò_542);
        opacity: .05;
      }

      .cls-7, .cls-9, .cls-20 {
        mix-blend-mode: multiply;
      }

      .cls-7, .cls-20 {
        fill: #7d72b3;
      }

      .cls-8 {
        fill: #d374f4;
      }

      .cls-9 {
        fill: #54469b;
      }

      .cls-10 {
        fill: #8b40e0;
      }

      .cls-11 {
        fill: #00c4ff;
      }

      .cls-12 {
        fill: #ff77f4;
      }

      .cls-29 {
        fill: url(#_Áåçûìÿííûé_ãðàäèåíò_542-3);
      }

      .cls-29, .cls-30 {
        opacity: .1;
      }

      .cls-13 {
        fill: #b04fe2;
      }

      .cls-30 {
        fill: url(#_Áåçûìÿííûé_ãðàäèåíò_542-2);
      }

      .cls-14 {
        fill: #ff61c7;
      }

      .cls-15 {
        fill: url(#_Áåçûìÿííûé_ãðàäèåíò_469);
      }

      .cls-16 {
        fill: url(#_Áåçûìÿííûé_ãðàäèåíò_460-2);
      }

      .cls-17 {
        fill: url(#_Áåçûìÿííûé_ãðàäèåíò_460);
      }

      .cls-18 {
        fill: url(#_Áåçûìÿííûé_ãðàäèåíò_494-5);
      }

      .cls-19 {
        fill: url(#_Áåçûìÿííûé_ãðàäèåíò_479);
      }

      .cls-20 {
        opacity: .4;
      }

      .cls-21 {
        fill: #fffff8;
      }

      .cls-22 {
        fill: url(#_Áåçûìÿííûé_ãðàäèåíò_494);
      }

      .cls-23 {
        fill: url(#_Áåçûìÿííûé_ãðàäèåíò_796-2);
      }

      .cls-24 {
        fill: url(#_Áåçûìÿííûé_ãðàäèåíò_494-3);
      }

      .cls-25 {
        fill: url(#_Áåçûìÿííûé_ãðàäèåíò_486);
      }

      .cls-26 {
        fill: url(#_Áåçûìÿííûé_ãðàäèåíò_494-7);
      }

      .cls-27 {
        fill: url(#_Áåçûìÿííûé_ãðàäèåíò_494-6);
      }
    </style>
    <radialGradient id="_Áåçûìÿííûé_ãðàäèåíò_542" data-name="Áåçûìÿííûé ãðàäèåíò 542" cx="156.43" cy="156.43" fx="156.43" fy="156.43" r="156.43" gradientUnits="userSpaceOnUse">
      <stop offset="0" stop-color="#e213ff"/>
      <stop offset="1" stop-color="#000"/>
    </radialGradient>
    <radialGradient id="_Áåçûìÿííûé_ãðàäèåíò_542-2" data-name="Áåçûìÿííûé ãðàäèåíò 542" cx="166.8" cy="165.34" fx="166.8" fy="165.34" r="131.84" gradientTransform="translate(165.77 -69.51) rotate(45)" xlink:href="#_Áåçûìÿííûé_ãðàäèåíò_542"/>
    <radialGradient id="_Áåçûìÿííûé_ãðàäèåíò_542-3" data-name="Áåçûìÿííûé ãðàäèåíò 542" cx="155.04" cy="154.15" fx="155.04" fy="154.15" r="125.81" xlink:href="#_Áåçûìÿííûé_ãðàäèåíò_542"/>
    <radialGradient id="_Áåçûìÿííûé_ãðàäèåíò_460" data-name="Áåçûìÿííûé ãðàäèåíò 460" cx="75.71" cy="107.39" fx="75.71" fy="107.39" r="193.02" gradientUnits="userSpaceOnUse">
      <stop offset="0" stop-color="#ff9aff"/>
      <stop offset=".09" stop-color="#fb94ff"/>
      <stop offset=".21" stop-color="#f083ff"/>
      <stop offset=".34" stop-color="#df67ff"/>
      <stop offset=".49" stop-color="#c740ff"/>
      <stop offset=".64" stop-color="#a810ff"/>
      <stop offset=".68" stop-color="#9f00ff"/>
      <stop offset=".74" stop-color="#9800f8"/>
      <stop offset=".83" stop-color="#8700e4"/>
      <stop offset=".93" stop-color="#6a00c5"/>
      <stop offset="1" stop-color="#5200ab"/>
    </radialGradient>
    <radialGradient id="_Áåçûìÿííûé_ãðàäèåíò_460-2" data-name="Áåçûìÿííûé ãðàäèåíò 460" cx="81.18" cy="96.23" fx="81.18" fy="96.23" r="189.73" xlink:href="#_Áåçûìÿííûé_ãðàäèåíò_460"/>
    <radialGradient id="_Áåçûìÿííûé_ãðàäèåíò_494" data-name="Áåçûìÿííûé ãðàäèåíò 494" cx="106.13" cy="76.16" fx="106.13" fy="76.16" r="42.42" gradientUnits="userSpaceOnUse">
      <stop offset="0" stop-color="#fff"/>
      <stop offset="1" stop-color="#623964"/>
    </radialGradient>
    <radialGradient id="_Áåçûìÿííûé_ãðàäèåíò_494-2" data-name="Áåçûìÿííûé ãðàäèåíò 494" cx="112.88" cy="91.5" fx="112.88" fy="91.5" r="14.76" xlink:href="#_Áåçûìÿííûé_ãðàäèåíò_494"/>
    <radialGradient id="_Áåçûìÿííûé_ãðàäèåíò_494-3" data-name="Áåçûìÿííûé ãðàäèåíò 494" cx="103.8" cy="90.13" fx="103.8" fy="90.13" r="15.55" xlink:href="#_Áåçûìÿííûé_ãðàäèåíò_494"/>
    <radialGradient id="_Áåçûìÿííûé_ãðàäèåíò_494-4" data-name="Áåçûìÿííûé ãðàäèåíò 494" cx="92.8" cy="75.15" fx="92.8" fy="75.15" r="35.92" xlink:href="#_Áåçûìÿííûé_ãðàäèåíò_494"/>
    <radialGradient id="_Áåçûìÿííûé_ãðàäèåíò_494-5" data-name="Áåçûìÿííûé ãðàäèåíò 494" cx="77.45" cy="61.19" fx="77.45" fy="61.19" r="60.91" xlink:href="#_Áåçûìÿííûé_ãðàäèåíò_494"/>
    <radialGradient id="_Áåçûìÿííûé_ãðàäèåíò_494-6" data-name="Áåçûìÿííûé ãðàäèåíò 494" cx="100.02" cy="70.84" fx="100.02" fy="70.84" r="84.87" xlink:href="#_Áåçûìÿííûé_ãðàäèåíò_494"/>
    <radialGradient id="_Áåçûìÿííûé_ãðàäèåíò_494-7" data-name="Áåçûìÿííûé ãðàäèåíò 494" cx="73.56" cy="71.46" fx="73.56" fy="71.46" r="143.38" xlink:href="#_Áåçûìÿííûé_ãðàäèåíò_494"/>
    <radialGradient id="_Áåçûìÿííûé_ãðàäèåíò_486" data-name="Áåçûìÿííûé ãðàäèåíò 486" cx="116.54" cy="196.33" fx="116.54" fy="196.33" r="113.01" gradientUnits="userSpaceOnUse">
      <stop offset="0" stop-color="#ffff4a"/>
      <stop offset="1" stop-color="#360038"/>
    </radialGradient>
    <radialGradient id="_Áåçûìÿííûé_ãðàäèåíò_469" data-name="Áåçûìÿííûé ãðàäèåíò 469" cx="72.04" cy="239.93" fx="72.04" fy="239.93" r="12.2" gradientUnits="userSpaceOnUse">
      <stop offset="0" stop-color="#6d00c2"/>
      <stop offset=".4" stop-color="#6600bc"/>
      <stop offset=".98" stop-color="#5200ab"/>
      <stop offset="1" stop-color="#5200ab"/>
    </radialGradient>
    <radialGradient id="_Áåçûìÿííûé_ãðàäèåíò_479" data-name="Áåçûìÿííûé ãðàäèåíò 479" cx="269.29" cy="169.02" fx="269.29" fy="169.02" r="12.74" gradientUnits="userSpaceOnUse">
      <stop offset="0" stop-color="#1f0081"/>
      <stop offset=".73" stop-color="#250087"/>
      <stop offset="1" stop-color="#2a008b"/>
    </radialGradient>
    <linearGradient id="_Áåçûìÿííûé_ãðàäèåíò_796" data-name="Áåçûìÿííûé ãðàäèåíò 796" x1="81.39" y1="115.28" x2="97.89" y2="115.28" gradientUnits="userSpaceOnUse">
      <stop offset="0" stop-color="#bdffe8"/>
      <stop offset=".2" stop-color="#8abbaa"/>
      <stop offset=".42" stop-color="#59796e"/>
      <stop offset=".61" stop-color="#33453e"/>
      <stop offset=".78" stop-color="#171f1c"/>
      <stop offset=".91" stop-color="#060807"/>
      <stop offset="1" stop-color="#000"/>
    </linearGradient>
    <linearGradient id="_Áåçûìÿííûé_ãðàäèåíò_796-2" data-name="Áåçûìÿííûé ãðàäèåíò 796" x1="42.07" y1="131.17" x2="115.07" y2="131.17" xlink:href="#_Áåçûìÿííûé_ãðàäèåíò_796"/>
  </defs>
  <g class="cls-31">
    <g id="Capa_2" data-name="Capa 2">
      <g id="Moon">
        <g>
          <circle class="cls-28" cx="156.43" cy="156.43" r="156.43"/>
          <circle class="cls-30" cx="166.8" cy="165.34" r="131.84" transform="translate(-68.06 166.37) rotate(-45)"/>
          <circle class="cls-29" cx="155.04" cy="154.15" r="125.81"/>
          <path class="cls-17" d="M276.04,183.09l-.9,3.22c-.03,.15-.07,.27-.12,.45-2.44,8.38-5.73,16.4-9.77,23.96-6.58,12.29-15.13,23.36-25.28,32.81-11.79,10.97-25.68,19.7-41.01,25.53-13.86,5.26-28.9,8.13-44.63,8.13-2.22,0-4.49-.05-6.68-.17h-.02c-3.29-.17-6.56-.47-9.77-.87-21.12-2.77-40.59-10.77-57.07-22.71-1.55-1.12-3.07-2.27-4.54-3.44,2.89-2.49,9-2.74,9-2.74l-8.5-6.76-21.32-11.47c-4.09-5.16-7.78-10.67-11.02-16.48-.77-1.37-1.52-2.77-2.24-4.19,0-.05-.05-.07-.07-.12-.75-1.52-1.47-3.04-2.17-4.56h-.02c-2.17-4.81-4.09-9.77-5.63-14.86-1.15-3.66-2.14-7.43-2.94-11.27-.02-.02-.02-.07-.02-.1-.55-2.67-1.02-5.39-1.4-8.13-.85-5.83-1.27-11.77-1.27-17.83,0-1.4,.02-2.82,.07-4.19,.05-2.07,.17-4.14,.37-6.16,.15-2.02,.37-4.04,.62-6.03,0-.15,.03-.27,.05-.45,.37-2.79,.82-5.51,1.4-8.23,.77-3.91,1.75-7.78,2.92-11.54,1.57-5.29,3.49-10.4,5.76-15.33,2.17-4.79,4.64-9.42,7.4-13.89,8.58-4.54,14.06-6.91,14.06-6.91,0,0,146.35-29.05,148.62-31.54,2.24-2.47,13.34-.92,13.34-.92,6.86,4.51,13.26,9.67,19.12,15.41,1.37,1.32,2.69,2.72,4.04,4.11,.87,.95,1.74,1.94,2.59,2.92,1.45,1.65,2.87,3.37,4.24,5.09,5.01,6.38,9.42,13.24,13.11,20.49,1.45,2.79,2.77,5.66,3.99,8.58,0,.02,.02,.05,.02,.07,11.29,44.18-2.64,81.65-2.64,81.65,3.09-1.05,5.91-1.45,8.33-1.52Z"/>
          <path class="cls-17" d="M276.04,183.09l-.9,3.22c-.03,.15-.07,.27-.12,.45-2.44,8.38-5.73,16.4-9.77,23.96-6.58,12.29-15.13,23.36-25.28,32.81-11.79,10.97-25.68,19.7-41.01,25.53-13.86,5.26-28.9,8.13-44.63,8.13-2.22,0-4.49-.05-6.68-.17h-.02c-3.29-.17-6.56-.47-9.77-.87-21.12-2.77-40.59-10.77-57.07-22.71-1.55-1.12-3.07-2.27-4.54-3.44,2.89-2.49,9-2.74,9-2.74l-8.5-6.76-21.32-11.47c-4.09-5.16-7.78-10.67-11.02-16.48-.77-1.37-1.52-2.77-2.24-4.19,0-.05-.05-.07-.07-.12-.75-1.52-1.47-3.04-2.17-4.56h-.02c-2.17-4.81-4.09-9.77-5.63-14.86-1.15-3.66-2.14-7.43-2.94-11.27-.02-.02-.02-.07-.02-.1-.55-2.67-1.02-5.39-1.4-8.13-.85-5.83-1.27-11.77-1.27-17.83,0-1.4,.02-2.82,.07-4.19,.05-2.07,.17-4.14,.37-6.16,.15-2.02,.37-4.04,.62-6.03,0-.15,.03-.27,.05-.45,.37-2.79,.82-5.51,1.4-8.23,.77-3.91,1.75-7.78,2.92-11.54,1.57-5.29,3.49-10.4,5.76-15.33,2.17-4.79,4.64-9.42,7.4-13.89,8.58-4.54,14.06-6.91,14.06-6.91,0,0,146.35-29.05,148.62-31.54,2.24-2.47,13.34-.92,13.34-.92,6.86,4.51,13.26,9.67,19.12,15.41,1.37,1.32,2.69,2.72,4.04,4.11,.87,.95,1.74,1.94,2.59,2.92,1.45,1.65,2.87,3.37,4.24,5.09,5.01,6.38,9.42,13.24,13.11,20.49,1.45,2.79,2.77,5.66,3.99,8.58,0,.02,.02,.05,.02,.07,11.29,44.18-2.64,81.65-2.64,81.65,3.09-1.05,5.91-1.45,8.33-1.52Z"/>
          <path class="cls-16" d="M272.45,151.48c0,4.46-.25,8.85-.75,13.16-.72,6.71-2.02,13.24-3.86,19.55-.02,.15-.07,.27-.12,.42-2.29,7.88-5.39,15.41-9.17,22.51-6.18,11.54-14.24,21.94-23.76,30.82-11.07,10.32-24.13,18.52-38.52,23.98-13.04,4.96-27.15,7.65-41.93,7.65-2.09,0-4.21-.05-6.28-.17h-.02c-3.09-.15-6.16-.45-9.17-.82-19.85-2.59-38.12-10.12-53.6-21.34-2.32-1.65-4.56-3.42-6.73-5.24-.6-.5-1.2-1-1.77-1.52-5.61-4.86-10.75-10.3-15.33-16.16-3.84-4.86-7.3-10.02-10.35-15.48-.72-1.3-1.42-2.62-2.12-3.94,0-.05-.02-.07-.05-.12-.72-1.42-1.4-2.84-2.04-4.29h-.03c-2.04-4.51-3.84-9.17-5.29-13.96-1.1-3.44-2.02-6.98-2.77-10.57-.02-.02-.02-.07-.02-.1-.52-2.52-.97-5.06-1.32-7.63-.8-5.48-1.2-11.07-1.2-16.75,0-1.32,.03-2.64,.08-3.94,.05-1.94,.17-3.89,.35-5.78,.15-1.89,.35-3.79,.6-5.66,0-.15,.02-.27,.05-.42,.35-2.62,.77-5.19,1.3-7.73,.72-3.69,1.65-7.3,2.74-10.85,1.47-4.96,3.29-9.77,5.41-14.41,2.29-5.06,4.94-9.92,7.9-14.58,2.04-3.24,4.26-6.36,6.63-9.35,3.29-4.24,6.88-8.23,10.72-11.97,21.27-20.69,50.31-33.43,82.32-33.43,1.25,0,2.49,.02,3.71,.05,1.32,.05,2.64,.1,3.96,.2,3.66,.25,7.3,.65,10.87,1.22,.05,0,.08,.02,.12,.02,2.99,.45,5.93,1.05,8.83,1.75,3.74,.9,7.4,1.94,10.99,3.19,2.44,.82,4.84,1.75,7.21,2.74,1.77,.75,3.49,1.52,5.21,2.34,.3,.15,.6,.27,.9,.42,11.47,5.61,21.86,12.99,30.89,21.84,1.3,1.25,2.54,2.54,3.79,3.86,.82,.9,1.65,1.82,2.44,2.74,1.37,1.55,2.69,3.17,3.99,4.79,4.71,5.98,8.85,12.42,12.32,19.25,4.06,7.93,7.26,16.38,9.42,25.23,1.4,5.58,2.37,11.32,2.92,17.18,.37,3.71,.55,7.48,.55,11.29Z"/>
          <path class="cls-22" d="M96.65,104.41s-3.13,6.97-.52,14.04c2.61,7.07,9.93,2.38,18.67,0,8.74-2.38,17.71-11.57,23.38-17.25,5.67-5.68,11.1-13.47,10.63-21.03-.47-7.56-8.45-12.52-8.45-12.52,0,0,2.9-3.7,.46,11.11-2.44,14.81-5.75,20.09-8.92,22.44-3.17,2.35-12.81,7.97-18.07,11.11-5.26,3.14-11.13,6.41-14.62,5.64-3.48-.76-5.32-8.59-2.56-13.55Z"/>
          <path class="cls-1" d="M112.66,99.31s-4.47,3.97-3.29,7.18,9.68,1.15,15.12-5.73c5.43-6.89,1.14-12.45,1.14-12.45,0,0-1.99,11.49-7.28,13.51-5.29,2.02-7.01,1.17-7.01,1.17,0,0-.82-.93,1.32-3.68Z"/>
          <path class="cls-24" d="M99.11,104.27s4.35-4.94,9.31-9.56c4.96-4.62,13.54-6.4,13.54-6.4,0,0-5.01-2.65-11.43,1.08-6.42,3.73-11.43,14.89-11.43,14.89Z"/>
          <path class="cls-6" d="M81.32,104.36s10.1-11.22,22.38-16.05c12.28-4.83,16.53-6.25,21.97-10.74,5.43-4.49,11.57-8.08,11.57-8.08,0,0-11.95,.61-30.23,12.18-18.27,11.57-25.74,18.92-25.69,22.69Z"/>
          <path class="cls-18" d="M56.69,102.12s17.48-17.47,31.18-24.32c13.7-6.85,22.91-11.34,35.19-14.41,12.28-3.07,31.26-8.43,31.26-8.43l3.43-1.72s-39.05,.79-64.69,16.24c-25.63,15.45-36.38,32.64-36.38,32.64Z"/>
          <path class="cls-27" d="M77.65,122.27s2.91,24.13,7.11,25.22c4.2,1.09,19.25,.97,41.61-10.47,22.37-11.44,26.91-8.79,39.44-21.54,12.53-12.74,17.61-27.2,21.49-36.73,3.88-9.53,5.02-20.4,3.81-23.78,0,0,4.22,2.52,4.22,11.97s-2.83,25.32-6.85,34.51c-4.02,9.19-14.41,23.6-26.93,30.68-12.52,7.09-37.55,20.69-62.12,20.5-24.56-.19-20.68-1.97-23.21-6.87-2.53-4.9,1.42-23.49,1.42-23.49Z"/>
          <path class="cls-7" d="M39.36,142.87s4.39,9.73,6.85,18.62c2.46,8.89,1.99,24.01,12.14,26.37,10.16,2.36,24.33,8.98,29.76,7.32,5.43-1.65,25.49-5.25,36.61-3.07,11.12,2.18,31.41,.94,38.5-2.6,7.09-3.54,22.34-12.64,29.59-15.41,7.25-2.77,17.27-10.67,25.9-19.44,8.63-8.77,8.51-18.76,10.64-23.72,2.13-4.96,6.38-24.8,5.9-33.78s-5.9-25.74-5.9-25.74l-5.05-5.34s6.23,23.05,3.4,39.35c-2.83,16.3-.24,22.91-11.57,38.5-11.34,15.59-27.16,27.87-44.88,33.78-17.71,5.91-29.07,5.19-47.47,6.9-17.17,1.59-38.54,.38-47.04-1.84-7.63-1.99-17.91-7.1-25.7-19.54-7.79-12.44-11.67-20.35-11.67-20.35Z"/>
          <path class="cls-20" d="M78.43,117.36s1.63,26.21,4.96,28.46c3.33,2.26,10.39,3.19,17.01,.94,6.61-2.24,29.29-9.68,33.18-12.05,3.9-2.36,27.77-14.29,32.48-17.83,4.7-3.54,10.98-16.14,13.11-18.76s7.91-18.2,9.57-24.11c1.65-5.9,2.83-12.99,2.83-12.99,0,0,.47-3.31-2.36-4.37-2.83-1.06-3.3,0-3.3,0,0,0-.59,3.9-3.07,15.12-2.48,11.22-35.9,49.72-52.79,59.76-16.89,10.04-32.95,10.39-38.74,9.68-5.79-.71-12.99-19.37-12.87-23.86Z"/>
          <path class="cls-20" d="M77.65,122.27s.7-16.32,4.91-21.79,18.36-16.77,26.72-21.02c8.36-4.25,20.54-10.28,24.77-11.18,4.24-.9,7.22,0,7.22,0,0,0-5.1-2.76-16.79,.19-11.69,2.95-24.92,13.82-31.3,17.19-6.38,3.36-16.3,11.51-18.66,15.65-2.36,4.13,3.12,20.97,3.12,20.97Z"/>
          <path class="cls-20" d="M48.92,105.07l36.24-31.75,22.45-10.16s22.19-7.54,32.35-9.91c10.16-2.37,32.95-3.08,32.95-3.08l11.95,1.3s-20.79-11.34-51.51-3.07c-30.72,8.27-51.14,18.59-60.11,27.07-8.98,8.48-22.53,25.46-24.31,29.6Z"/>
          <path class="cls-26" d="M47.9,106.48s-19.47,23.5-10.02,37.96c9.45,14.46,13.63,35.32,16.36,40.17s34.09,12.14,40.6,10.63c6.51-1.51,22.12-5.6,32.34-1.65,0,0,18.09-1.56,23.28-1.56s14.64-4.41,16.85-5.51,14.49-5.04,20.78-7.56c6.3-2.52,16.38-10.39,20.47-13.54,4.09-3.15,14.8-15.9,16.85-19.84,2.05-3.94,8.18-26.93,9.76-37.79,1.59-10.86-3.08-31.81-6.61-39.05-3.53-7.24-14.64-14.01-14.64-14.01l.65-3.28,8.66-5.17s15.1,19.8,16.52,36.89c.83,10.02,3.15,31.41,.51,40.58-2.12,7.37-9.33,29.02-15.63,36.76-6.3,7.74-25.19,27.48-35.27,31.31-10.08,3.83-39.8,8.98-57.32,9.34-12.91,.26-41.34-2.04-55.31-2.52-13.97-.47-23.96-9.23-29.52-13.67s-3.66-16.53-9.33-26.07-8.79-22.24-7.39-29.15c1.4-6.91,17.41-23.28,17.41-23.28Z"/>
          <path class="cls-11" d="M82.09,195.95c-2.99-.7-5.68-2.34-8.65-3.09-1.67-.4-3.32-.65-4.96-1.12-1.65-.47-3.52-.8-5.21-.87-3.44-.12-7.01-.92-9.2-3.84-1.94-2.62-3.14-5.31-4.04-8.45-1.17-4.19-2.29-8.38-3.59-12.57-1.2-3.86-2.84-7.28-4.99-10.72-.85-1.37-1.57-2.74-2.49-4.06-.85-1.2-2.02-2.34-2.67-3.69l-.02-.02c-1.65-3.49-2.22-7.35-2.12-11.14,.05-2.04,.62-3.96,1.07-5.96,.6-2.52,1.25-4.74,2.54-7.01,1.2-2.07,2.37-4.19,3.57-6.31,2.67-4.69,5.46-9.37,8.78-13.59,4.26-5.36,9.03-10.47,13.84-15.33,2.79-2.84,5.96-5.34,9.15-7.7,2.69-1.99,5.19-4.19,7.85-6.21,4.59-3.49,9.82-5.76,14.96-8.25,6.21-2.99,12.42-5.88,18.87-8.25,7.65-2.79,15.53-5.01,23.51-6.63,9.1-1.84,18.7-2.22,27.97-2.17,5.09,.02,10.52-.62,15.38,1.27,2.74,1.07,5.93,2.14,8.33,3.79,.55,.37,.8,.45,1.15,.95,.22,.3,.35,.7,.47,1.05,.37,.87,.82,2.32,.82,3.24,0,1.02-.45,1.92-.45,2.99,.02,1.52-.37,2.89-.42,4.39-.07,1.72-.5,3.07-.75,4.74-.5,3.09-.95,6.06-2.14,8.98-1.75,4.21-2.89,8.65-4.81,12.81-.57,1.27-1.6,2.24-2.17,3.52-.55,1.15-1.05,2.09-1.7,3.19-1.22,2.04-2.22,4.16-3.62,6.11-2.89,3.99-5.83,8.25-9.65,11.42-4.61,3.84-9.65,6.91-14.93,9.72-3.44,1.82-7.03,3.29-10.52,5.04-3.12,1.55-6.23,3.14-9.37,4.61-8.08,3.76-16.65,6.56-25.13,9.2-2.44,.77-4.74,1.6-7.26,1.94-2.29,.32-4.96,1.07-7.28,1.02-2.49-.07-5.11-.65-7.45-1.45-4.04-1.35-4.44-5.73-4.74-9.37-.22-2.64-.52-5.51-1.05-8.1-.4-2.17-.57-4.31-1.07-6.51-.5-2.22-.82-4.49-.85-6.76-.05-2.89,1.07-5.61,1.72-8.43,.42-1.82,.62-3.69,1.37-5.44,1.07-2.54,3.12-4.74,5.14-6.56,2.07-1.84,4.11-3.66,6.16-5.53,1.22-1.15,2.67-1.99,3.96-3.04,2.27-1.82,4.79-3.24,7.38-4.56,2.04-1.07,3.54-2.77,5.43-4.01,1.94-1.27,4.16-2.62,6.23-3.66,1.82-.9,3.79-1.52,5.68-2.27,1.55-.6,2.97-1.5,4.54-2.02,1.45-.5,2.94-.65,4.36-1.25,1.4-.57,2.72-1.1,4.16-1.47,1.62-.4,3.44-1.07,5.09-1.12,3.24-.05,4.84,1.57,5.66,4.71,1.15,4.29-.17,7.9-1.72,11.87-1.25,3.19-2.62,6.36-3.84,9.6-1.62,4.31-5.46,6.58-8.7,9.52-3.42,3.09-7.63,5.86-11.82,7.73-1.32,.6-2.74,.95-4.04,1.5-1.12,.5-2.22,1.12-3.34,1.72-.72,.4-1.25,.97-1.92,1.42-.6,.4-1.3,.62-1.92,1.02-1.5,1-3.07,1.97-4.71,2.69-1.6,.72-4.76,1.15-5.81-.72-.55-.95-.47-2.27-.72-3.34-.3-1.27-.35-2.42-.35-3.74s.25-2.29,.45-3.57c.2-1.22,.75-2.19,1.15-3.39,1.2-3.39,3.54-5.91,5.61-8.7,1.3-1.77,2.42-3.52,3.94-5.16,2.24-2.39,5.41-3.59,8.58-4.39,2.84-.7,7.08-1.55,9.7,.1,2.22,1.37,.67,4.39-.05,6.23-.4,1.02-.82,2.07-1.17,3.12-.25,.77-.35,1.65-.8,2.39-.92,1.55-2.74,2.62-4.11,3.81-.62,.52-1.62,1.27-2.37,1.52-.95,.3-1.97,.27-2.92,.5-.47,.1-.72,.7-1.3,.47-.52-.17-.52-.77-.42-1.32,.1-.5,.32-1,.42-1.47,.02-.1-.1-.27-.07-.4,.4-1.47,2.27-3.32,3.12-4.56,1.35,.55,.42,1.35,.17,1.94-.17,.5-.15,.97-.27,1.5-.1,.42-.75,1.2-.27,1.65,.32,.32,1.42-.25,1.77-.37,2.89-1.02,4.76-4.19,5.66-7.06,.57-1.87,.47-5.11-1.6-5.93-1.55-.6-3.42-.27-5.04-.3-5.86-.1-9.32,6.16-12.44,10.2-2.12,2.74-3.74,5.86-4.94,9.1-.85,2.24-1.2,4.56-1.8,6.83-.45,1.67-1,4.24,1.57,3.89,1.5-.22,3.12-1.02,4.54-1.5,1.25-.42,2.34-.87,3.52-1.5,1.84-1,3.91-1.27,5.83-2.12,1.5-.67,3.02-1.5,4.51-2.22,3.86-1.87,7.63-5.68,10.32-8.98,1.8-2.22,4.36-3.89,6.41-5.91,2.14-2.12,3.29-4.76,4.76-7.35,1.47-2.64,2.22-5.19,2.87-8.1,.6-2.59,2.14-5.53,1.35-8.23-.85-2.79-4.44-2.84-6.76-2.44-1.92,.32-4.04,.65-5.86,1.37-3.39,1.35-6.73,2.79-10.1,4.16-5.31,2.19-9.72,5.81-14.58,8.78-2.47,1.5-5.14,2.64-7.43,4.44-1.7,1.32-3.32,2.87-4.94,4.31-1.15,1.05-2.12,2.17-3.39,3.07-1.67,1.17-3.34,2.47-4.59,4.09-1.02,1.32-2.19,2.89-2.77,4.49-.42,1.27-.02,2.47,.05,3.76,.1,1.77-.4,3.42-.47,5.16-.07,1.84,0,3.74,.02,5.58,0,3.62-.55,7.13-.47,10.8,.05,2.24,.55,4.61,1,6.83,.35,1.77,1.07,3.29,1.2,5.11,.05,1.15,.25,2.72,1.27,3.47,.5,.37,1.15,.47,1.72,.7,.52,.2,1,.37,1.5,.52,.27,.1,.57,.15,.87,.25,.22,.12,.4,.45,.62,.55,.6,.25,1.5,.1,2.12-.02,1.45-.27,2.87-.62,4.31-.87,3.62-.62,7.28-.55,10.72-1.84,3.96-1.5,7.65-3.64,11.57-5.24,5.86-2.39,12.14-4.14,17.75-7.16,2.52-1.37,5.14-2.64,7.73-3.81,6.16-2.77,12.62-5.01,18.03-9.17,2.07-1.6,3.64-3.42,5.41-5.29,1-1.07,2.07-2.02,2.97-3.19,2.64-3.44,5.19-7.18,7.21-11.02,.87-1.62,1.4-3.39,2.29-5.01,1.4-2.52,3.09-4.74,4.39-7.33s2.02-5.09,2.87-7.78c.52-1.65,.9-2.99,.85-4.74-.05-3.49,.32-6.51,1.72-9.7,.77-1.75,1.87-4.34,1.3-6.31-.3-.97-1.7-1.22-2.54-1.5-1.99-.67-4.06-1.17-5.98-2.02-1.77-.8-3.04-1.72-4.99-2.07-.75-.15-1.42-.25-2.17-.22-1.87,.1-3.49,1.4-5.36,1.32-.62-.02-1.05-.22-1.7-.35-.97-.17-2.02-.05-2.97-.07-2.14-.07-4.21-.47-6.38-.45-2.54,.02-5.04,.25-7.58,.4-2.37,.12-4.76-.07-7.13,0-1.52,.05-2.47,.75-3.81,1.35-1.22,.55-2.59,.77-3.86,1.25-1.12,.45-2.17,.85-3.37,.9-1.67,.02-3.34-.22-4.96,.12-1.94,.45-4.06,1.27-5.88,2.04-5.31,2.27-10.47,5.11-15.98,6.86-2.67,.82-5.41,1.2-8,2.24-.97,.4-1.82,1.1-2.69,1.67-1.75,1.17-3.57,2.24-5.36,3.37-4.01,2.54-7.83,5.34-11.64,8.18-4.49,3.34-8.78,6.68-12.49,10.92-6.48,7.45-13.24,14.98-18.85,23.14-2.67,3.84-5.66,7.98-7.55,12.27-.05,.1-.07,.17-.12,.27-1.05,2.47-1.6,5.06-1.25,7.73,0,.05,0,.1,.02,.15,.3,2.19,1.25,4.79,2.12,6.78s1.6,4.11,2.72,6.01c1.22,2.07,2.92,3.79,3.81,6.03,1.07,2.77,2.04,5.73,2.87,8.6,1.07,3.62,1.89,7.35,2.57,11.04,.45,2.29,.82,4.61,1.89,6.71,1.52,2.94,4.76,4.04,7.4,5.76,1.4,.92,2.37,1.22,4.06,1.3,2.37,.12,4.61,.7,6.88,1.37,4.84,1.5,9.67,2.59,14.76,2.52,3.02-.02,5.88-.85,8.85-1.22,2.77-.35,5.53-.62,8.28-1.07,2.49-.4,4.94-1.1,7.48-1.1,2.39,0,5.14,.4,7.45,1.05,4.16,1.15,8.23,2.07,12.57,1.89,2.64-.07,5.24-.67,7.85-.85,2.47-.15,4.81,.22,7.25,.4,4.34,.27,8.5-.8,12.54-2.12,2.77-.9,5.06-2.22,7.53-3.69,1.99-1.17,3.91-1.52,6.11-2.09,4.29-1.15,8.55-2.72,12.44-4.91,5.09-2.89,9.27-7.16,14.21-10.25,2.79-1.75,5.93-2.89,8.65-4.76,2.24-1.52,4.36-3.29,6.26-5.21,2.22-2.24,4.31-4.59,6.53-6.83,1.7-1.72,2.37-3.86,3.37-6.01,1.5-3.17,2.02-6.43,2.57-9.87,.57-3.39,2.07-6.38,3.54-9.52,1.87-4.01,3.47-7.78,3.86-12.27,.32-3.37,.77-6.76,.77-10.15,0-2.17-.37-4.29-.65-6.43-.27-1.99-.67-3.91-1.1-5.88-.55-2.42-.47-4.91-.92-7.35-.4-2.09-1.05-4.31-1.62-6.38-.4-1.47-.95-2.99-1.55-4.39-1.1-2.47-2.54-5.04-4.31-7.11-.75-.87-1.7-1.15-2.54-1.77-.65-.5-.8-.92-1.55-1.3-1.05-.52-2.09-1.05-3.12-1.62-1.65-.95-3.52-1.22-5.16-2.12-1.57-.85-2.99-1.97-4.49-2.92-1.7-1.07-3.42-1.8-4.89-3.19-1.45-1.4-2.39-3.17-3.79-4.56-1.42-1.45-3.47-2.39-5.09-3.64-2.82-2.19-6.13-2.37-9.3-3.71-1.62-.7-3.17-.8-4.86-1.15-1.92-.4-3.22-1.57-5.26-1.8-1.82-.2-3.62-.22-5.39-.72-1.07-.27-2.07-.52-3.14-.62-2.12-.2-4.16,.1-6.26,.32-1.84,.2-3.71,.1-5.56,.1-1.55,0-3.17,.15-4.71-.1-4.39-.67-9.2-.6-13.64-.3-4.24,.3-8.38,.6-12.39,1.99-3.42,1.17-6.78,2.17-10.12,3.54-2.29,.92-4.29,2.19-6.43,3.39-5.16,2.89-9.9,6.43-14.81,9.72-5.48,3.64-10.65,7.68-15.93,11.64-3.44,2.59-6.93,5.16-10.32,7.83-1.47,1.17-2.89,2.39-4.29,3.64,3.29-4.24,6.88-8.23,10.72-11.97,21.27-20.69,50.31-33.43,82.32-33.43,1.25,0,2.49,.02,3.71,.05,1.32,.05,2.64,.1,3.96,.2,3.66,.25,7.3,.65,10.87,1.22,.05,0,.08,.02,.12,.02,4.06,1.1,8.1,2.27,12.14,3.49,3.37,1.02,6.76,1.94,10.07,3.09,2.19,.75,4.34,1.72,6.46,2.59,1.92,.82,4.04,1.52,5.83,2.54,2.92,1.65,5.63,3.84,8.33,5.83,1.8,1.35,3.47,2.89,5.09,4.46,2.27,2.22,4.31,4.69,6.03,7.33,4.04,6.26,7.26,13.34,8.78,20.62,1.3,6.13,1.12,12.79,.87,19.05-.12,3.34-.72,7.01-1.4,10.3-.75,3.62-2.02,6.98-2.39,10.72-.17,1.82,.12,3.69-.17,5.48-.25,1.47-.8,2.89-1.1,4.36-.62,3.12-1.55,6.13-2.99,9-1.94,3.91-4.59,7.16-7.4,10.52-3.17,3.76-6.56,7.38-9.85,11.07-3.32,3.71-7.3,6.71-11.57,9.25-3.32,1.99-6.71,4.39-10.32,5.78-3.39,1.35-7.23,3.27-10.9,3.66-2.79,.27-5.01,1.32-7.28,3.02-1.37,1-2.39,2.34-3.66,3.42-1.15,.97-2.49,1.27-3.86,1.75-3.27,1.1-6.46,.85-9.87,.85-4.86,0-9.65,.47-14.49,.97-2.44,.25-4.86,.45-7.3,.3-2.19-.12-4.36-.7-6.53-.97-2.42-.3-4.84-.35-7.23-.72-1.89-.32-3.39-.35-5.31-.1-1.55,.17-3.09,0-4.64,.12-1.6,.15-3.17,.5-4.76,.72-7.26,1-14.06,4.34-21.47,2.59Z"/>
          <path class="cls-25" d="M76.24,249.98s27.65,4.86,40.22,4.49c19-.55,40.9,1.81,57.9,2.28,17.01,.47,46.73-13.47,52.16-16.03,5.43-2.55,18.55-10.04,30-22.74,11.45-12.69,15.97-33.38,15.97-33.38h-4.78s-1.81,8.96-8.71,19.01c-4.14,6.03-10.23,11.31-18.54,18.5-11.96,10.33-27.53,18.29-43.22,22.2-20.9,5.21-39.47,3.77-52.28,5.68-18.55,2.76-59.72-3.79-59.72-3.79l-9,3.77Z"/>
          <path class="cls-15" d="M68.94,236.29s4.41,11.47,7.3,13.69c0,0,6.07,.37,9-2.74l-8.5-6.76-7.8-4.19Z"/>
          <path class="cls-19" d="M272.84,163.23s2.96,12.96,3.2,19.86c0,0-4.61,2.91-8.33,1.52,0,0,4.35-15.85,5.13-21.38Z"/>
          <path class="cls-14" d="M192.81,39.78s24.65,2.47,30.42,6.51c0,0-4.08,4.57-8.66,5.17,0,0-19.99-11.09-21.76-11.67Z"/>
          <path class="cls-14" d="M47.22,85.66l10.1-1.59,3.96-5.31s-7.25,3.19-14.06,6.91Z"/>
          <path class="cls-9" d="M55.42,229.01s47.81,13.88,85.13,14.59c37.32,.71,51.34-7.6,67.48-13.84,16.14-6.24,42.63-20.55,50.62-31.11,7.99-10.57,14.19-35.43,14.19-35.43,0,0-7.67,37.29-14.3,43.9-6.63,6.61-36.26,26.57-41.46,29.16-5.2,2.6-19.31,13.32-44.85,10.34,0,0-17.17,2.42-23.38,1.95-6.21-.47-15.85,5.79-33.57,.06,0,0-24.65-1.24-30.04-2.42s-29.82-17.19-29.82-17.19Z"/>
          <path class="cls-13" d="M67.03,178.83s39.63,6.87,68.34,3.94c28.71-2.93,44.23-10.1,52.42-15.45,8.19-5.35,24.23-22.5,30.23-30.3,6-7.8,9.03-27.3,9.03-27.3,0,0,1.08,19.05-3.82,27.3-4.9,8.25-21.74,23.95-28.61,28.51-6.87,4.56-26.57,15.38-36.86,17.24-10.29,1.87-27.26,7.07-39.56,4.81-12.3-2.26-42.11-1.87-51.17-8.75Z"/>
          <path class="cls-10" d="M121.97,242.27s41.25-2.84,55.43-5.99c14.17-3.15,32.81-10.81,45.84-15.6,13.03-4.78,22.88-14.24,30.06-19.5,7.18-5.25,16.39-27.09,16.39-27.09,0,0-5.88,21.65-14.9,28.71-9.02,7.06-32.11,20-58.2,31.58-29,12.87-51.55,9.21-74.61,7.88Z"/>
          <path class="cls-11" d="M265.71,190.47c.65-1.97,1.35-3.91,1.99-5.86-2.29,7.88-5.39,15.41-9.17,22.51l-.07,.07c-1.1,1.07-2.44,1.92-3.47,3.09-1.05,1.17-1.97,2.34-3.09,3.44-5.39,5.34-11.54,9.92-17.9,14.06-6.53,4.26-13.06,8.3-20.22,11.42-5.48,2.39-11.09,4.44-16.9,5.91-4.66,1.2-9.65,1.72-14.46,1.94-2.44,.12-4.84,.52-7.26,.75-3.02,.32-6.11,.27-9.08,.8-5.14,.95-10.42,1.62-15.63,1.89-4.46,.25-8.9,.87-13.36,.87-5.73-.02-11.42-.92-17.15-.9-5.56,.05-11.17-.2-16.7-.7-3.32-.32-6.56-.95-9.82-1.32-2.77-.32-5.43-.92-8.18-1.22-2.32-1.65-4.56-3.42-6.73-5.24-.6-.5-1.2-1-1.77-1.52,3.14,1,6.26,2.07,9.42,3.07,4.44,1.4,9.42,2.22,14.06,2.79,3.79,.47,8.35,.82,12.09-.12,3.89-.97,6.78,.27,10.32,1.72,1.65,.67,3.32,1,5.04,1.5,2.42,.7,4.21,.55,6.68,.22,2.17-.27,4.44-.65,6.61-1.12,1.84-.4,3.62-1.15,5.48-1.4,3.24-.4,6.68-.87,9.92-.3,3.74,.65,7.45,1.02,11.22,.42,3.91-.65,7.55-1.02,11.52-1.05,1.35,0,2.44,.12,3.74,.35,1.45,.25,2.79-.15,4.21-.3,2.59-.27,4.86-.65,7.38-1.42,2.29-.72,4.49-1.75,6.73-2.59,4.39-1.65,8.35-3.27,12.24-5.91,3.27-2.19,6.88-3.74,10.2-5.86,3.17-2.04,5.98-4.61,9.22-6.56,3.42-2.07,6.53-4.61,9.8-6.93,2.07-1.47,3.91-3.22,5.98-4.71,1.8-1.3,3.76-2.32,5.44-3.79,2.87-2.44,5.53-5.09,7.4-8.4,1.75-3.07,3.19-6.28,4.26-9.62Z"/>
          <path class="cls-12" d="M139.14,124.82s28.5-23.33,40.48-46.07c0,0-33.21,34.12-40.48,46.07Z"/>
          <path class="cls-4" d="M109.17,152.63s18.01,.12,37.92-8.19c19.91-8.3,29.9-25.43,29.9-25.43,0,0-13.47,12.88-28.14,20.08-14.67,7.2-25.77,8.96-39.67,13.54Z"/>
          <path class="cls-4" d="M180.34,114.9s2.02-5.14,5.8-14.15c3.78-9.01,6.76-13.84,6.76-13.84,0,0-1.22,13.75-12.55,27.99Z"/>
          <path class="cls-8" d="M103.01,200.09s25.02,6.08,57.61,0c32.59-6.08,34.01-8.06,42.99-15.1,8.98-7.04,15.35-16.05,18.9-19.46,3.54-3.4,8-15.23,8-15.23,0,0-9.22,16.57-22.43,27.66-13.21,11.09-24.07,16.52-46.28,19.83-22.2,3.31-47.72,2.96-58.79,2.3Z"/>
          <path class="cls-8" d="M124.96,254.4s22.67,1.96,31.88,3.85c9.21,1.89,26.93,1.82,37.08-1.92,10.16-3.75,30.28-14.52,30.28-14.52,0,0-18.77,10.54-41.14,12.9-22.37,2.36-35.97-1.42-58.1-.3Z"/>
          <path class="cls-8" d="M230.79,238.51s14.39-9.66,21.46-16.08c0,0-7.54,10.31-21.46,16.08Z"/>
          <path class="cls-5" d="M121.44,115.48s16.43-12.36,21.64-21.3c5.21-8.93,5.73-14.02,5.73-14.02,0,0,2.32,8.69-7.54,19.74-9.86,11.05-19.83,15.58-19.83,15.58Z"/>
          <path class="cls-2" d="M83.07,106.85c-1.33,6.03-2.68,12.16-.63,17.97,2.05,5.81,5.2,9.59,8.19,9.9,2.99,.32,7.4-6.77,7.24-8.82-.16-2.05-4.88-7.4-5.2-12.75s5.52-13.23,5.2-16.22c-.32-2.99-12.62,0-14.81,9.92Z"/>
          <path class="cls-23" d="M85.75,82.2c-1.97-2.12-15.25,10.31-24.47,19.92-9.22,9.61-18.36,22.21-19.14,30.24-.79,8.03,5.83,20.16,17.79,30.87s43.12,20.47,50.61,16.06,4.73-18.11-1.37-21.41c-6.1-3.31-25.94,3.36-35.23-6.41s-5.09-22.88-3.94-33.9c1.42-13.49,5.67-24.88,9.61-28.34,3.94-3.46,6.14-7.01,6.14-7.01Z"/>
          <path class="cls-21" d="M45.05,123.76c-2.56,8.71-2.87,18.02,2.49,25.17,5.36,7.15,9.4,1.8,11.29-15.65,1.89-17.45,.81-29.39,.81-29.39,0,0-11.36,8.92-14.59,19.88Z"/>
          <path class="cls-3" d="M53.8,154.02c-3.62,3.36,5.03,10.02,6.43,6.81,1.41-3.21-4.08-9-6.43-6.81Z"/>
          <path class="cls-3" d="M44.21,180.37c-.34,5.53,2.81,11.81,12.48,15.44,9.67,3.62,17.25,2.63,17.25,2.63,0,0-11.32-2.24-17.55-6.61-6.23-4.36-12.19-11.46-12.19-11.46Z"/>
          <path class="cls-21" d="M83.87,107.71c-3.19-4.23,.96-10.01,6.82-13.57,5.86-3.56,6.56-2.48,5.3,.63-1.25,3.11-3.17,9.66-5.91,12.94-2.74,3.28-4.32,2.5-6.21,0Z"/>
          <path class="cls-21" d="M104.92,100.36c-1.21-2.07,1.23-8.12,4.58-7.56s2.53,1.89,.96,4.09c-1.17,1.65-4.39,5.43-5.54,3.47Z"/>
          <path class="cls-21" d="M129.11,110.72c-1.14-2.35,8.18-9.53,9.44-8.78,1.26,.75,.44,4.55-1.73,5.98-2.17,1.43-7.31,3.62-7.71,2.8Z"/>
        </g>
      </g>
    </g>
  </g>
</svg>